<svg id="Layer_1" data-name="Layer 1" xmlns="http://www.w3.org/2000/svg" xmlns:xlink="http://www.w3.org/1999/xlink" viewBox="0 0 1014.03 1421.72"><defs><style>.cls-1{fill:none;}.cls-2{isolation:isolate;}.cls-3{fill:#4b4b4b;}.cls-4{fill:#f85991;}.cls-5{fill:#fff;}.cls-6{clip-path:url(#clip-path);}.cls-7{clip-path:url(#clip-path-2);}.cls-8{clip-path:url(#clip-path-3);}.cls-9{clip-path:url(#clip-path-4);}.cls-10{clip-path:url(#clip-path-5);}.cls-11{clip-path:url(#clip-path-7);}.cls-12{clip-path:url(#clip-path-9);}.cls-13{clip-path:url(#clip-path-10);}</style><clipPath id="clip-path" transform="translate(548.5 -0.68)"><rect class="cls-1" x="-577.7" y="1296.7" width="676" height="126"/></clipPath><clipPath id="clip-path-2" transform="translate(548.5 -0.68)"><ellipse class="cls-1" cx="-493.4" cy="1367.5" rx="50.1" ry="49.8"/></clipPath><clipPath id="clip-path-3" transform="translate(548.5 -0.68)"><rect class="cls-1" x="-672.3" y="265" width="1366" height="1272"/></clipPath><clipPath id="clip-path-4" transform="translate(548.5 -0.68)"><rect class="cls-1" x="-549.3" y="1312" width="118" height="111"/></clipPath><clipPath id="clip-path-5" transform="translate(548.5 -0.68)"><rect class="cls-1" x="-544.3" y="1317" width="101" height="101"/></clipPath><clipPath id="clip-path-7" transform="translate(548.5 -0.68)"><path class="cls-1" d="M-461.3,1406q-15-15.9-18-15.9c-2,0-5.3,2.4-9.7,7.1l-8.4,8.4c-7.1-6.5-11.3-9.7-12.8-9.7-2.2,0-7.2,8.2-12.4,8.2-5.4-.3-6.9-4.9-6.9-8.6,0-2.1.7-6.7,3.9-9.7a16.88,16.88,0,0,1,8.1-4.7c5.5-1.5,13-1.3,23.6,1.3s17.2,3.7,24.8,1,10.7-8.4,10.7-12.6-4.2-9.6-12.2-11.4-14.8-2-20.2-3.6-4.5-2.7-3.2-3.6c3.3-2.1,7.5-2.3,13.9-1.6s11.3,1.7,18.6,1.7,12.3-.8,16.9-3.5a25.39,25.39,0,0,0,10.4-11.8c1.4-3.2,2.1-7.5,2-12.8h-35.7c.3,2.7-.9,4.8-3.7,6.2-4.2,2.1-11.2,2.6-22.9,2.6s-20.3,4-23,9.9a10.84,10.84,0,0,0,2.2,12.8c2.4,2.4,5.2,3.2,10.4,4.6s9.2,1.8,12.8,2.5,8.8,2.1,10.4,4c.8,1.2,1.5,4.5-5.4,4.5-12.2-.6-19.9-.5-24.8.5-6.3,1.3-11.1,3.6-14.5,6.9a18.13,18.13,0,0,0-6.9,14.8c0,5,1.6,7.5,3.4,9.4a10.54,10.54,0,0,0,8.5,3c3.1-.5,7.3-3.3,8-3.3,1,0,2.1.7,3.2,2.1,1.7-2,2.8-2.9,3.3-2.9.1,0,.5-.5,3.8,1.8.8.6,2.7,2.1,5.7,4.6q11.4-9.3,13.2-9.6c1.2-.3,2.8,1.1,4.9,4.1,1.7-2.7,3-4.1,4-4.1C-475.2,1398.6-470.5,1401-461.3,1406Z"/></clipPath><clipPath id="clip-path-9" transform="translate(548.5 -0.68)"><rect class="cls-1" x="-539.3" y="1319" width="113" height="95"/></clipPath><clipPath id="clip-path-10" transform="translate(548.5 -0.68)"><rect class="cls-1" x="-534.3" y="1324" width="91" height="85"/></clipPath></defs><title>skylake-logo</title><g id="Page-1"><g id="logo-color"><g id="Group-3"><g class="cls-2"><path class="cls-3" d="M167.51,65.61c0-6.37-5.39-8.53-12.34-10.39-9-2.45-18.63-6.17-18.63-18.72,0-11.95,9.12-19.21,22.94-19.21,6.17,0,13.42,1.18,18.32,3.53V36.21l-9.5.69V30.52c0-1.66-.2-2.45-1.77-2.94a34.23,34.23,0,0,0-6.95-.78c-5.3,0-10.59,1.86-10.59,8.33,0,6.27,5.29,8.14,12.84,10.49,9,2.84,18.33,6.17,18.33,19s-8.73,20.19-24.31,20.19c-6.76,0-14.11-.88-19.4-3.33V65.61l9.5-.78v6.66c0,1.67.3,2.45,1.77,2.94a32.29,32.29,0,0,0,7.74.88C161.83,75.31,167.51,73.26,167.51,65.61Z" transform="translate(548.5 -0.68)"/><path class="cls-3" d="M203.48,75.9l4.7.39v7.35H186.62v-7l3-.3c1.57-.09,2.35-.68,2.35-2.94V24.25c0-2.15-.49-2.74-2.25-2.84l-3.34-.29V13.77h17.06V55.52c7.35-.69,14.7-7,14.7-11.86,0-1.37-.88-1.77-2.26-2l-2.54-.3V34.25h19.89V41.6l-4.6.49c-.59,5.39-3.73,10.68-8.82,14.6l9.7,19.21,5.29.39v7.35H220.43L210,61.69a26.14,26.14,0,0,1-6.56,1.67Z" transform="translate(548.5 -0.68)"/><path class="cls-3" d="M267.77,84c-4.61,12.74-8.92,20.87-20.49,20.87A26,26,0,0,1,235,101.68L238,93.25a20.15,20.15,0,0,0,8.43,2.16c3.82,0,6-2.55,7.94-7.36l2-4.9-15-41.06L237,41.5V34.25h21V41.7l-2.45.19c-1.48.2-2.06,1.18-1.57,2.75l8.33,26h.29L272,42.19l-4.31-.39V34.25h19.89V41.5l-2.15.2c-1.77.19-2.35.78-3.14,2.84Z" transform="translate(548.5 -0.68)"/><path class="cls-3" d="M308.14,75.9l5.2.39v7.35H291.28v-7l3-.3c1.86-.29,2.35-.78,2.35-3.23V24.25c0-2.15-.58-2.74-2.45-2.84l-3.13-.29V13.77h17.05Z" transform="translate(548.5 -0.68)"/><path class="cls-3" d="M362.43,73.65c0,2,.49,2.64,2.16,2.74l2.84.2v7h-14.5l-.3-5.19-.29-.1c-2.45,3.53-6.76,6.57-13.53,6.57-14.3,0-19.6-10.1-19.6-23.82,0-17.25,8.53-28.13,25.88-28.13a53.42,53.42,0,0,1,17.34,3.34ZM351,43.07a22.05,22.05,0,0,0-7.35-1.27c-9.71,0-12.55,8.91-12.55,18.91,0,7.74,2,15.39,10.1,15.39,6.27,0,9.8-4.31,9.8-8.92Z" transform="translate(548.5 -0.68)"/><path class="cls-3" d="M390,75.9l4.71.39v7.35H373.11v-7l3-.3c1.57-.09,2.35-.68,2.35-2.94V24.25c0-2.15-.49-2.74-2.25-2.84l-3.33-.29V13.77H390V55.52c7.35-.69,14.7-7,14.7-11.86,0-1.37-.88-1.77-2.25-2l-2.55-.3V34.25h19.9V41.6l-4.61.49c-.59,5.39-3.73,10.68-8.82,14.6L416,75.9l5.29.39v7.35h-14.4l-10.39-22A26.32,26.32,0,0,1,390,63.36Z" transform="translate(548.5 -0.68)"/><path class="cls-3" d="M465.53,46.79c0,14-11.86,17.45-28.52,16.86.49,6.57,3.72,12.25,12.25,12.25a21.73,21.73,0,0,0,12.35-4L465,80A30.72,30.72,0,0,1,448,85c-16.57,0-22.74-10.78-22.74-24.7,0-15.19,8.53-27.35,24.21-27.35C459.36,33,465.53,37.58,465.53,46.79ZM449,41.6c-7.84,0-11.27,7.35-12,13.72,1.37.1,2.65.1,3.92.1,8.53,0,14.11-2.16,14.11-8C455,43.27,452.59,41.6,449,41.6Z" transform="translate(548.5 -0.68)"/></g><g id="logo-copy-4"><g id="Oval-Copy-2"><ellipse id="path-1" class="cls-4" cx="599.38" cy="49.8" rx="50.1" ry="49.8"/></g><g id="Oval-Copy-3"><g id="Mask"><path id="path-3" class="cls-5" d="M83,89q-15-15.9-18-15.9c-2,0-5.3,2.4-9.7,7.1l-8.5,8.4c-7-6.4-11.3-9.7-12.8-9.7-2.2,0-7.2,8.2-12.4,8.2-5.4-.3-6.9-4.9-6.9-8.6,0-2.1.7-6.7,3.9-9.7a17.33,17.33,0,0,1,8.1-4.7c5.5-1.5,13-1.3,23.6,1.3s17.2,3.7,24.8,1,10.7-8.4,10.7-12.6-4.1-9.6-12.1-11.4-14.8-2-20.2-3.6-4.5-2.7-3.2-3.6c3.3-2.1,7.5-2.3,13.9-1.6s11.3,1.6,18.6,1.6,12.3-.8,16.9-3.5a25.39,25.39,0,0,0,10.4-11.8c1.4-3.2,2.1-7.5,2-12.8H76.45c.3,2.8-.9,4.9-3.7,6.3-4.2,2.1-11.2,2.6-23,2.6s-20.3,4-23,9.9A10.84,10.84,0,0,0,29,38.69c2.4,2.3,5.2,3.2,10.4,4.6s9.2,1.8,12.8,2.5,8.8,2.1,10.4,4c.8,1.2,1.5,4.5-5.4,4.5-12.2-.6-19.9-.5-24.8.5-6.3,1.3-11.1,3.6-14.5,6.9a18.51,18.51,0,0,0-7.1,14.9c0,5,1.6,7.5,3.4,9.4a10.54,10.54,0,0,0,8.5,3c3.1-.5,7.3-3.3,8-3.3,1,0,2.1.7,3.2,2.1,1.7-2,2.8-2.9,3.3-2.9.1,0,.5-.5,3.8,1.8.8.6,2.7,2.1,5.7,4.6q11.4-9.3,13.2-9.6c1.2-.3,2.8,1.1,4.9,4.1,1.7-2.7,3-4.1,4-4.1C69.05,81.49,73.75,84,83,89Z" transform="translate(548.5 -0.68)"/></g></g></g></g></g></g><g class="cls-6"><path class="cls-3" d="M-378,1382.4c0-5.6-4.8-7.4-11.3-9.3-8.8-2.4-18.5-6.3-18.5-19,0-12.5,9.3-19.8,23.4-19.8,7.1,0,14.1,1.4,18.9,3.7v15.6l-10.7.8v-5.7c0-1.6-.2-2.4-1.7-2.8a27.44,27.44,0,0,0-6.3-.7c-4.7,0-9.1,1.8-9.1,7.3,0,5.7,4.7,7.2,11.8,9.5,8.9,2.8,18.3,6.1,18.3,19.1,0,13.3-9.1,20.9-24.9,20.9-6.7,0-14.2-.9-20.1-3.6V1382l10.9-.8v6.2c0,1.6.1,2.4,1.6,2.7a25.34,25.34,0,0,0,7,.9C-383,1391.1-378,1389.1-378,1382.4Z" transform="translate(548.5 -0.68)"/><path class="cls-3" d="M-338.4,1392.2l4.4.3v8.1h-23.4v-7.7l3.1-.3c1.7-.3,2.3-.8,2.3-3v-47.4c0-2.1-.4-2.7-2.3-2.8l-3.3-.3v-8.2h19.2v39.8c6-.8,12.9-5,12.9-9.5,0-1.3-.8-1.6-2.1-1.9l-2.5-.3v-7.9h21.7v8l-4.4.6a21.5,21.5,0,0,1-8,13.4l8.9,19.2,5.3.3v8.1h-16.5l-9.4-22.1a24.15,24.15,0,0,1-5.9,1.4v12.2Z" transform="translate(548.5 -0.68)"/><path class="cls-3" d="M-272.2,1400.9c-5,13.3-9.6,21.2-21.5,21.2a26.83,26.83,0,0,1-12.8-3.4l3.2-9.8a19.45,19.45,0,0,0,8.6,2.1c3.5,0,5.8-2.2,7.6-7l1.4-3.5-15-40.8-4.5-.6V1351h23.1v8.2l-2.4.3c-1.5.2-2.1,1.1-1.6,2.7l7.4,23.4h.3l8.6-26-4.4-.3v-8.4h21.4v8.1l-2.2.2c-2,.3-2.5.9-3.2,2.9Z" transform="translate(548.5 -0.68)"/><path class="cls-3" d="M-230.4,1392.2l5.1.3v8.1h-24.1v-7.7l3.1-.4c1.9-.3,2.3-.7,2.3-3.1v-47.2c0-2.1-.5-2.7-2.4-2.8l-3.2-.3v-8.2h19.2v61.3Z" transform="translate(548.5 -0.68)"/><path class="cls-3" d="M-175.8,1389.9c0,2,.5,2.6,2.2,2.7l2.7.2v7.8h-15.9l-.4-4.9-.4-.1c-2.4,3.6-6.8,6.3-13,6.3-14.5,0-19.6-10.6-19.6-23.9,0-17.2,8.6-28.3,26.4-28.3a55,55,0,0,1,18,3.5Zm-13.6-29.1a18.33,18.33,0,0,0-6.1-1c-8.5,0-11,8.2-11,17.5,0,7.5,1.8,14.6,8.8,14.6,5.4,0,8.2-3.6,8.2-7.5v-23.6Z" transform="translate(548.5 -0.68)"/><path class="cls-3" d="M-147.2,1392.2l4.4.3v8.1h-23.4v-7.7l3.1-.3c1.7-.3,2.3-.8,2.3-3v-47.4c0-2.1-.4-2.7-2.3-2.8l-3.3-.3v-8.2h19.2v39.8c6-.8,12.9-5,12.9-9.5,0-1.3-.8-1.6-2.1-1.9l-2.5-.3v-7.9h21.7v8l-4.4.6a21.5,21.5,0,0,1-8,13.4l8.9,19.2,5.3.3v8.1h-16.5l-9.4-22.1a24.15,24.15,0,0,1-5.9,1.4v12.2Z" transform="translate(548.5 -0.68)"/><path class="cls-3" d="M-69.8,1364c0,14-12.3,17.6-27.6,17.2.5,5.7,3.5,10.4,11.1,10.4a21.83,21.83,0,0,0,12.3-3.9l3.9,9.3a33.53,33.53,0,0,1-18,5.1c-16.8,0-23.1-10.8-23.1-24.9,0-15,8.7-27.4,24.8-27.4C-76.3,1349.7-69.8,1354.2-69.8,1364Zm-17.4-4.4c-6.5,0-10.1,5.9-10.4,12.5,9.8.4,15.8-1.3,15.8-7.4C-81.8,1361.1-84,1359.6-87.2,1359.6Z" transform="translate(548.5 -0.68)"/></g><g class="cls-7"><g class="cls-8"><g class="cls-9"><g class="cls-10"><rect class="cls-4" y="1312.02" width="110.1" height="109.7"/></g><g class="cls-9"><g class="cls-11"><g class="cls-2"><g class="cls-10"><g class="cls-2"><g class="cls-12"><g class="cls-13"><rect class="cls-5" x="10" y="1318.52" width="111.3" height="94"/></g></g></g></g></g></g></g></g></g></g></svg>