<?xml version="1.0" encoding="UTF-8"?>
<svg width="474px" height="106px" viewBox="0 0 474 106" version="1.1" xmlns="http://www.w3.org/2000/svg" xmlns:xlink="http://www.w3.org/1999/xlink">
    <!-- Generator: Sketch 50 (54983) - http://www.bohemiancoding.com/sketch -->
    <title>Group 3</title>
    <desc>Created with Sketch.</desc>
    <defs>
        <ellipse id="path-1" cx="50.0660032" cy="49.8384304" rx="50.0660032" ry="49.8384304"></ellipse>
        <path d="M72.1782315,81.7667254 C62.1963534,71.199177 56.1911156,65.9154028 54.1625183,65.9154028 C52.1339211,65.9154028 48.894753,68.2800273 44.4450142,73.0092763 L36.0298332,81.4111625 C28.9573294,74.9579491 24.6898326,71.7313424 23.2273426,71.7313424 C21.0336077,71.7313424 16.0716183,79.9399011 10.8173345,79.9399011 C5.37274735,79.598901 3.8939035,75.0589145 3.8939035,71.3172652 C3.8939035,69.1728867 4.62964771,64.6138859 7.77005331,61.5886436 C10.9104589,58.5634014 13.2385333,57.5992218 15.8859294,56.866922 C21.3401788,55.3582148 28.9353301,55.5196663 39.4941419,58.2009277 C50.0529537,60.8821891 56.7163642,61.8798141 64.329536,59.1985527 C71.9427078,56.5172913 75.0761785,50.7796355 75.0761785,46.6389337 C75.0761785,42.4982319 70.9150952,37.0260708 62.8955497,35.189505 C54.8760043,33.3529393 48.1170189,33.1948414 42.6586853,31.539748 C37.2003518,29.8846545 38.1491861,28.8677597 39.4941419,27.8909202 C42.8301497,25.7946187 47.0298148,25.6253698 53.4404621,26.287334 C59.8511094,26.9492982 64.6915028,28.0186705 72.0192739,28.0186705 C79.347045,28.0186705 84.2736585,27.1761262 88.9005385,24.5549656 C93.5274185,21.9338049 97.1827812,17.5846402 99.2765275,12.7555598 C100.672358,9.53617281 101.353902,5.28431955 101.321157,0 L65.6507215,0 C65.9856226,2.74290972 64.7533571,4.81353432 61.9539252,6.2118738 C57.7547773,8.30938303 50.7787638,8.82744721 39.0182783,8.82744721 C27.2577928,8.82744721 18.7606783,12.8385028 16.0347901,18.7141868 C13.308902,24.5898707 15.8066837,29.1738978 18.1914635,31.539748 C20.5762433,33.9055981 23.3569988,34.7832952 28.5471995,36.1400949 C33.7374003,37.4968945 37.6989447,37.8982345 41.3313847,38.6327829 C44.9638247,39.3673313 50.1468099,40.7228183 51.7280453,42.6642098 C52.542175,43.8923283 53.2402439,47.1855323 46.334226,47.1855323 C34.1096901,46.5465881 26.4650104,46.6784691 21.4890395,47.6906917 C15.1961247,48.9708099 10.3391264,51.3358331 6.9447341,54.6218904 C1.55925789,59.053874 3.51532285e-16,64.4301167 0,69.4488046 C0,74.4674925 1.63479245,76.9265816 3.44732128,78.8027158 C5.25985011,80.6788501 8.82531431,82.2892739 11.9480852,81.7667254 C15.070856,81.244177 19.2594338,78.4444691 19.9777924,78.4444691 C20.9714756,78.4444691 22.054659,79.1432549 23.2273426,80.5408264 C24.952684,78.5755515 26.0522114,77.5929141 26.5259249,77.5929141 C26.6026064,77.5929141 27.0063719,77.088378 30.3335284,79.3470097 C31.1603455,79.9082924 33.0591137,81.4517508 36.0298332,83.977385 C43.6553798,77.818109 48.0569003,74.6076462 49.2343948,74.3459965 C50.4118893,74.0843469 52.0545971,75.4505044 54.1625183,78.4444691 C55.8309154,75.7121541 57.155238,74.3459965 58.1354861,74.3459965 C58.2975139,74.3459965 62.978429,76.8195728 72.1782315,81.7667254 Z" id="path-3"></path>
        <ellipse id="path-5" cx="40.0974379" cy="43.3216669" rx="50.0660032" ry="49.8384304"></ellipse>
    </defs>
    <g id="Page-1" stroke="none" stroke-width="1" fill="none" fill-rule="evenodd">
        <g id="logo-color" transform="translate(-128.000000, -1052.000000)">
            <g id="Group-3" transform="translate(94.000000, 1031.000000)">
                <text id="Skylake-Copy-2" font-family="BreeSerifSb, Bree Serif" font-size="98" font-weight="500" fill="#4B4B4B">
                    <tspan x="165.447283" y="104.644295">Skylake</tspan>
                </text>
                <g id="logo-copy-4" transform="translate(34.778250, 21.677145)">
                    <mask id="mask-2" fill="white">
                        <use xlink:href="#path-1"></use>
                    </mask>
                    <use id="Oval-Copy-2" fill="#F85991" xlink:href="#path-1"></use>
                    <g id="Oval-Copy-3" mask="url(#mask-2)">
                        <g transform="translate(9.968565, 6.516764)">
                            <mask id="mask-4" fill="white">
                                <use xlink:href="#path-3"></use>
                            </mask>
                            <use id="Mask" stroke="none" fill="#FFFFFF" fill-rule="evenodd" xlink:href="#path-3"></use>
                            <mask id="mask-6" fill="white">
                                <use xlink:href="#path-5"></use>
                            </mask>
                            <g id="Oval-Copy-3" stroke="none" fill="none"></g>
                        </g>
                    </g>
                </g>
            </g>
        </g>
    </g>
</svg>