<svg xmlns="http://www.w3.org/2000/svg" xmlns:xlink="http://www.w3.org/1999/xlink" viewBox="0 0 478.67 109.68"><defs><style>.cls-1,.cls-2{fill:none;}.cls-2{clip-rule:evenodd;}.cls-3{clip-path:url(#clip-path);}.cls-4{fill:#4b4b4b;}.cls-5{clip-path:url(#clip-path-2);}.cls-6{clip-path:url(#clip-path-3);}.cls-7{isolation:isolate;}.cls-8{clip-path:url(#clip-path-4);}.cls-9{clip-path:url(#clip-path-5);}.cls-10{fill:#f85991;}.cls-11{clip-path:url(#clip-path-6);}.cls-12{clip-path:url(#clip-path-8);}.cls-13{clip-path:url(#clip-path-9);}.cls-14{fill:#fff;}</style><clipPath id="clip-path" transform="translate(-123.78 -1047.68)"><rect class="cls-1" x="94.56" y="1031.64" width="676" height="126"/></clipPath><clipPath id="clip-path-2" transform="translate(-123.78 -1047.68)"><ellipse class="cls-1" cx="178.84" cy="1102.52" rx="50.07" ry="49.84"/></clipPath><clipPath id="clip-path-3" transform="translate(-123.78 -1047.68)"><rect class="cls-1" width="1366" height="1272"/></clipPath><clipPath id="clip-path-4" transform="translate(-123.78 -1047.68)"><rect class="cls-1" x="123" y="1047" width="118" height="111"/></clipPath><clipPath id="clip-path-5" transform="translate(-123.78 -1047.68)"><rect class="cls-1" x="128" y="1052" width="101" height="101"/></clipPath><clipPath id="clip-path-6" transform="translate(-123.78 -1047.68)"><path class="cls-2" d="M210.93,1141q-15-15.86-18-15.85t-9.72,7.09l-8.41,8.41q-10.62-9.69-12.81-9.68c-2.19,0-7.15,8.2-12.41,8.2-5.44-.34-6.92-4.88-6.92-8.62,0-2.14.74-6.7,3.88-9.73a17,17,0,0,1,8.11-4.72c5.46-1.51,13.05-1.35,23.61,1.33s17.22,3.68,24.84,1,10.74-8.42,10.74-12.56-4.16-9.61-12.18-11.45-14.78-2-20.23-3.65-4.51-2.67-3.17-3.65c3.34-2.09,7.54-2.26,13.95-1.6s11.25,1.73,18.58,1.73,12.25-.84,16.88-3.46A25.12,25.12,0,0,0,238,1072q2.1-4.83,2-12.76H204.4q.49,4.13-3.7,6.22c-4.2,2.09-11.17,2.61-22.93,2.61s-20.26,4-23,9.89a10.89,10.89,0,0,0,2.16,12.82c2.38,2.37,5.16,3.25,10.35,4.6s9.16,1.76,12.79,2.5,8.81,2.09,10.39,4c.82,1.23,1.52,4.52-5.39,4.52-12.22-.64-19.87-.51-24.84.5-6.3,1.28-11.15,3.65-14.55,6.94a18.29,18.29,0,0,0-6.94,14.82c0,5,1.63,7.48,3.44,9.36a10.55,10.55,0,0,0,8.5,3c3.13-.52,7.32-3.32,8-3.32,1,0,2.08.7,3.25,2.09q2.59-2.94,3.3-2.94c.08,0,.48-.51,3.81,1.75.83.56,2.73,2.11,5.7,4.63q11.43-9.24,13.2-9.63c1.18-.26,2.82,1.1,4.93,4.1q2.51-4.1,4-4.1Q197.12,1133.54,210.93,1141Z"/></clipPath><clipPath id="clip-path-8" transform="translate(-123.78 -1047.68)"><rect class="cls-1" x="133" y="1054" width="113" height="95"/></clipPath><clipPath id="clip-path-9" transform="translate(-123.78 -1047.68)"><rect class="cls-1" x="138" y="1059" width="91" height="85"/></clipPath></defs><title>Asset 2</title><g id="Layer_2" data-name="Layer 2"><g id="Layer_1-2" data-name="Layer 1"><g class="cls-3"><path class="cls-4" d="M294.24,1117.42c0-5.59-4.8-7.45-11.27-9.32-8.82-2.35-18.52-6.27-18.52-19,0-12.54,9.31-19.8,23.42-19.8,7.06,0,14.11,1.38,18.91,3.73v15.58l-10.68.78v-5.68c0-1.57-.19-2.35-1.66-2.84a27.94,27.94,0,0,0-6.28-.69c-4.7,0-9.11,1.77-9.11,7.25,0,5.69,4.7,7.16,11.76,9.51,8.92,2.84,18.33,6.08,18.33,19.11,0,13.33-9.12,20.88-24.9,20.88-6.66,0-14.21-.88-20.09-3.63V1117l10.88-.78v6.17c0,1.57.1,2.36,1.57,2.75a25.63,25.63,0,0,0,7,.88C289.24,1126,294.24,1124.08,294.24,1117.42Z" transform="translate(-123.78 -1047.68)"/><path class="cls-4" d="M333.83,1127.22l4.41.29v8.13H314.82v-7.74l3.13-.29c1.67-.3,2.26-.79,2.26-3v-47.44c0-2.05-.39-2.74-2.26-2.84l-3.33-.29v-8.23h19.21v39.79c6-.79,12.94-5,12.94-9.51,0-1.27-.79-1.57-2.06-1.86l-2.55-.3V1086h21.66v8l-4.41.59a21.61,21.61,0,0,1-8,13.43l8.92,19.21,5.29.29v8.13H349.12l-9.41-22.05a23.94,23.94,0,0,1-5.88,1.37Z" transform="translate(-123.78 -1047.68)"/><path class="cls-4" d="M400.08,1135.94c-5,13.33-9.61,21.17-21.46,21.17a26.39,26.39,0,0,1-12.84-3.43l3.23-9.8a19.59,19.59,0,0,0,8.63,2.06c3.52,0,5.78-2.16,7.64-7l1.37-3.53-15-40.77-4.51-.59V1086h23.13v8.23l-2.35.29c-1.47.2-2.06,1.08-1.57,2.75l7.45,23.42h.29l8.63-26-4.42-.3V1086h21.37v8.13l-2.16.2c-2,.29-2.54.88-3.23,2.94Z" transform="translate(-123.78 -1047.68)"/><path class="cls-4" d="M441.83,1127.22l5.09.29v8.13H422.81v-7.74l3.14-.39c1.86-.29,2.25-.69,2.25-3.14v-47.24c0-2.05-.49-2.74-2.35-2.84l-3.23-.29v-8.23h19.21Z" transform="translate(-123.78 -1047.68)"/><path class="cls-4" d="M496.41,1124.86c0,2,.49,2.65,2.16,2.75l2.74.19v7.84H485.44l-.4-4.9-.39-.09c-2.35,3.62-6.76,6.27-13,6.27-14.51,0-19.6-10.59-19.6-23.92,0-17.24,8.62-28.32,26.36-28.32a54.37,54.37,0,0,1,18,3.53Zm-13.52-29.1a18.68,18.68,0,0,0-6.08-1c-8.53,0-11,8.23-11,17.54,0,7.55,1.77,14.6,8.82,14.6,5.4,0,8.24-3.62,8.24-7.54Z" transform="translate(-123.78 -1047.68)"/><path class="cls-4" d="M525,1127.22l4.41.29v8.13H506v-7.74l3.14-.29c1.66-.3,2.25-.79,2.25-3v-47.44c0-2.05-.39-2.74-2.25-2.84l-3.33-.29v-8.23H525v39.79c6-.79,12.93-5,12.93-9.51,0-1.27-.78-1.57-2.06-1.86l-2.54-.3V1086H555v8l-4.41.59a21.66,21.66,0,0,1-8,13.43l8.92,19.21,5.29.29v8.13H540.31l-9.4-22.05A24,24,0,0,1,525,1115Z" transform="translate(-123.78 -1047.68)"/><path class="cls-4" d="M602.45,1099c0,14-12.25,17.64-27.64,17.15.49,5.69,3.53,10.39,11.07,10.39a21.68,21.68,0,0,0,12.35-3.92l3.92,9.31a33.8,33.8,0,0,1-18,5.1c-16.76,0-23.13-10.78-23.13-24.9,0-15,8.72-27.44,24.8-27.44C596,1084.68,602.45,1089.19,602.45,1099Zm-17.35-4.41c-6.47,0-10.09,5.88-10.39,12.54,9.8.4,15.78-1.27,15.78-7.44C590.49,1096.05,588.24,1094.58,585.1,1094.58Z" transform="translate(-123.78 -1047.68)"/></g><g class="cls-5"><g class="cls-6"><g class="cls-7"><g class="cls-8"><g class="cls-9"><rect class="cls-10" width="110.13" height="109.68"/></g><g class="cls-11"><g class="cls-9"><g class="cls-7"><g class="cls-12"><g class="cls-13"><rect class="cls-14" x="9.97" y="6.52" width="111.32" height="93.98"/></g></g></g></g></g></g></g></g></g></g></g></svg>