<?xml version="1.0" encoding="utf-8"?>
<!-- Generator: Adobe Illustrator 22.1.0, SVG Export Plug-In . SVG Version: 6.00 Build 0)  -->
<svg version="1.1" id="Layer_1" xmlns="http://www.w3.org/2000/svg" xmlns:xlink="http://www.w3.org/1999/xlink" x="0px" y="0px"
	 viewBox="0 0 474 106" style="enable-background:new 0 0 474 106;" xml:space="preserve">
<style type="text/css">
	.st0{fill:#4B4B4B;}
	.st1{font-family:'BreeSerif';}
	.st2{font-size:98px;}
	.st3{fill:#F85991;}
	.st4{filter:url(#Adobe_OpacityMaskFilter);}
	.st5{fill:#FFFFFF;}
	.st6{mask:url(#mask-2_1_);}
	.st7{clip-path:url(#SVGID_2_);}
	.st8{clip-path:url(#SVGID_4_);}
	.st9{clip-path:url(#SVGID_6_);enable-background:new    ;}
	.st10{clip-path:url(#SVGID_8_);}
	.st11{clip-path:url(#SVGID_10_);fill:#F85991;}
	.st12{clip-path:url(#SVGID_12_);}
	.st13{clip-path:url(#SVGID_14_);enable-background:new    ;}
	.st14{clip-path:url(#SVGID_16_);}
	.st15{clip-path:url(#SVGID_18_);fill:#FFFFFF;}
</style>
<title>Group 3</title>
<desc>Created with Sketch.</desc>
<g id="Page-1">
	<g id="logo-color" transform="translate(-128.000000, -1052.000000)">
		<g id="Group-3" transform="translate(94.000000, 1031.000000)">
			<text transform="matrix(1 0 0 1 165.4473 104.6443)" class="st0 st1 st2">Skylake</text>
			<g id="logo-copy-4" transform="translate(34.778250, 21.677145)">
				<g id="Oval-Copy-2">
					<ellipse id="path-1_1_" class="st3" cx="50.1" cy="49.8" rx="50.1" ry="49.8"/>
				</g>
				<defs>
					<filter id="Adobe_OpacityMaskFilter" filterUnits="userSpaceOnUse" x="10" y="6.5" width="101.3" height="84">
						<feColorMatrix  type="matrix" values="1 0 0 0 0  0 1 0 0 0  0 0 1 0 0  0 0 0 1 0"/>
					</filter>
				</defs>
				<mask maskUnits="userSpaceOnUse" x="10" y="6.5" width="101.3" height="84" id="mask-2_1_">
					<g class="st4">
						<ellipse id="path-1_2_" class="st5" cx="50.1" cy="49.8" rx="50.1" ry="49.8"/>
					</g>
				</mask>
				<g id="Oval-Copy-3_1_" class="st6">
					<g transform="translate(9.968565, 6.516764)">
						<g id="Mask">
							<path id="path-3_1_" class="st5" d="M72.2,81.8c-10-10.6-16-15.9-18-15.9c-2,0-5.3,2.4-9.7,7.1L36,81.4
								C29,75,24.7,71.7,23.2,71.7c-2.2,0-7.2,8.2-12.4,8.2c-5.4-0.3-6.9-4.9-6.9-8.6c0-2.1,0.7-6.7,3.9-9.7s5.5-4,8.1-4.7
								c5.5-1.5,13-1.3,23.6,1.3s17.2,3.7,24.8,1c7.6-2.7,10.7-8.4,10.7-12.6S70.9,37,62.9,35.2c-8-1.8-14.8-2-20.2-3.6
								c-5.5-1.7-4.5-2.7-3.2-3.6c3.3-2.1,7.5-2.3,13.9-1.6S64.7,28,72,28c7.3,0,12.3-0.8,16.9-3.5c4.6-2.6,8.3-7,10.4-11.8
								c1.4-3.2,2.1-7.5,2-12.8H65.7C66,2.7,64.8,4.8,62,6.2C57.8,8.3,50.8,8.8,39,8.8s-20.3,4-23,9.9s-0.2,10.5,2.2,12.8
								s5.2,3.2,10.4,4.6s9.2,1.8,12.8,2.5c3.6,0.7,8.8,2.1,10.4,4c0.8,1.2,1.5,4.5-5.4,4.5c-12.2-0.6-19.9-0.5-24.8,0.5
								c-6.3,1.3-11.1,3.6-14.5,6.9C1.6,59.1,0,64.4,0,69.4c0,5,1.6,7.5,3.4,9.4c1.8,1.9,5.4,3.5,8.5,3c3.1-0.5,7.3-3.3,8-3.3
								c1,0,2.1,0.7,3.2,2.1c1.7-2,2.8-2.9,3.3-2.9c0.1,0,0.5-0.5,3.8,1.8c0.8,0.6,2.7,2.1,5.7,4.6c7.6-6.2,12-9.4,13.2-9.6
								c1.2-0.3,2.8,1.1,4.9,4.1c1.7-2.7,3-4.1,4-4.1C58.3,74.3,63,76.8,72.2,81.8z"/>
						</g>
						<g id="Oval-Copy-3">
						</g>
					</g>
				</g>
			</g>
		</g>
	</g>
</g>
<g>
	<g>
		<defs>
			<rect id="SVGID_1_" x="-577.7" y="1296.7" width="676" height="126"/>
		</defs>
		<clipPath id="SVGID_2_">
			<use xlink:href="#SVGID_1_"  style="overflow:visible;"/>
		</clipPath>
		<g class="st7">
			<path class="st0" d="M-378,1382.4c0-5.6-4.8-7.4-11.3-9.3c-8.8-2.4-18.5-6.3-18.5-19c0-12.5,9.3-19.8,23.4-19.8
				c7.1,0,14.1,1.4,18.9,3.7v15.6l-10.7,0.8v-5.7c0-1.6-0.2-2.4-1.7-2.8c-1.5-0.4-4-0.7-6.3-0.7c-4.7,0-9.1,1.8-9.1,7.3
				c0,5.7,4.7,7.2,11.8,9.5c8.9,2.8,18.3,6.1,18.3,19.1c0,13.3-9.1,20.9-24.9,20.9c-6.7,0-14.2-0.9-20.1-3.6V1382l10.9-0.8v6.2
				c0,1.6,0.1,2.4,1.6,2.7c1.5,0.5,4.3,0.9,7,0.9C-383,1391.1-378,1389.1-378,1382.4z"/>
			<path class="st0" d="M-338.4,1392.2l4.4,0.3v8.1h-23.4v-7.7l3.1-0.3c1.7-0.3,2.3-0.8,2.3-3v-47.4c0-2.1-0.4-2.7-2.3-2.8l-3.3-0.3
				v-8.2h19.2v39.8c6-0.8,12.9-5,12.9-9.5c0-1.3-0.8-1.6-2.1-1.9l-2.5-0.3v-7.9h21.7v8l-4.4,0.6c-0.7,4.7-3.3,9.6-8,13.4l8.9,19.2
				l5.3,0.3v8.1h-16.5l-9.4-22.1c-2,0.8-3.8,1.1-5.9,1.4V1392.2z"/>
			<path class="st0" d="M-272.2,1400.9c-5,13.3-9.6,21.2-21.5,21.2c-4.8,0-9.8-1.6-12.8-3.4l3.2-9.8c2.4,1.1,5,2.1,8.6,2.1
				c3.5,0,5.8-2.2,7.6-7l1.4-3.5l-15-40.8l-4.5-0.6v-8.1h23.1v8.2l-2.4,0.3c-1.5,0.2-2.1,1.1-1.6,2.7l7.4,23.4h0.3l8.6-26l-4.4-0.3
				v-8.4h21.4v8.1l-2.2,0.2c-2,0.3-2.5,0.9-3.2,2.9L-272.2,1400.9z"/>
			<path class="st0" d="M-230.4,1392.2l5.1,0.3v8.1h-24.1v-7.7l3.1-0.4c1.9-0.3,2.3-0.7,2.3-3.1v-47.2c0-2.1-0.5-2.7-2.4-2.8
				l-3.2-0.3v-8.2h19.2V1392.2z"/>
			<path class="st0" d="M-175.8,1389.9c0,2,0.5,2.6,2.2,2.7l2.7,0.2v7.8h-15.9l-0.4-4.9l-0.4-0.1c-2.4,3.6-6.8,6.3-13,6.3
				c-14.5,0-19.6-10.6-19.6-23.9c0-17.2,8.6-28.3,26.4-28.3c3.4,0,10.6,0.7,18,3.5V1389.9z M-189.4,1360.8c-1.3-0.5-3.6-1-6.1-1
				c-8.5,0-11,8.2-11,17.5c0,7.5,1.8,14.6,8.8,14.6c5.4,0,8.2-3.6,8.2-7.5V1360.8z"/>
			<path class="st0" d="M-147.2,1392.2l4.4,0.3v8.1h-23.4v-7.7l3.1-0.3c1.7-0.3,2.3-0.8,2.3-3v-47.4c0-2.1-0.4-2.7-2.3-2.8l-3.3-0.3
				v-8.2h19.2v39.8c6-0.8,12.9-5,12.9-9.5c0-1.3-0.8-1.6-2.1-1.9l-2.5-0.3v-7.9h21.7v8l-4.4,0.6c-0.7,4.7-3.3,9.6-8,13.4l8.9,19.2
				l5.3,0.3v8.1h-16.5l-9.4-22.1c-2,0.8-3.8,1.1-5.9,1.4V1392.2z"/>
			<path class="st0" d="M-69.8,1364c0,14-12.3,17.6-27.6,17.2c0.5,5.7,3.5,10.4,11.1,10.4c5.5,0,9.6-2.1,12.3-3.9l3.9,9.3
				c-1.3,0.8-7.9,5.1-18,5.1c-16.8,0-23.1-10.8-23.1-24.9c0-15,8.7-27.4,24.8-27.4C-76.3,1349.7-69.8,1354.2-69.8,1364z
				 M-87.2,1359.6c-6.5,0-10.1,5.9-10.4,12.5c9.8,0.4,15.8-1.3,15.8-7.4C-81.8,1361.1-84,1359.6-87.2,1359.6z"/>
		</g>
	</g>
	<g>
		<defs>
			<ellipse id="SVGID_3_" cx="-493.4" cy="1367.5" rx="50.1" ry="49.8"/>
		</defs>
		<clipPath id="SVGID_4_">
			<use xlink:href="#SVGID_3_"  style="overflow:visible;"/>
		</clipPath>
		<g class="st8">
			<defs>
				<rect id="SVGID_5_" x="-672.3" y="265" width="1366" height="1272"/>
			</defs>
			<clipPath id="SVGID_6_">
				<use xlink:href="#SVGID_5_"  style="overflow:visible;"/>
			</clipPath>
			<g class="st9">
				<g>
					<defs>
						<rect id="SVGID_7_" x="-549.3" y="1312" width="118" height="111"/>
					</defs>
					<clipPath id="SVGID_8_">
						<use xlink:href="#SVGID_7_"  style="overflow:visible;"/>
					</clipPath>
					<g class="st10">
						<defs>
							<rect id="SVGID_9_" x="-544.3" y="1317" width="101" height="101"/>
						</defs>
						<clipPath id="SVGID_10_">
							<use xlink:href="#SVGID_9_"  style="overflow:visible;"/>
						</clipPath>
						<rect x="-548.5" y="1312.7" class="st11" width="110.1" height="109.7"/>
					</g>
					<g class="st10">
						<defs>
							<path id="SVGID_11_" d="M-461.3,1406c-10-10.6-16-15.9-18-15.9c-2,0-5.3,2.4-9.7,7.1l-8.4,8.4c-7.1-6.5-11.3-9.7-12.8-9.7
								c-2.2,0-7.2,8.2-12.4,8.2c-5.4-0.3-6.9-4.9-6.9-8.6c0-2.1,0.7-6.7,3.9-9.7c3.1-3,5.5-4,8.1-4.7c5.5-1.5,13-1.3,23.6,1.3
								s17.2,3.7,24.8,1c7.6-2.7,10.7-8.4,10.7-12.6c0-4.1-4.2-9.6-12.2-11.4c-8-1.8-14.8-2-20.2-3.6c-5.5-1.7-4.5-2.7-3.2-3.6
								c3.3-2.1,7.5-2.3,13.9-1.6c6.4,0.7,11.3,1.7,18.6,1.7c7.3,0,12.3-0.8,16.9-3.5c4.6-2.6,8.3-7,10.4-11.8
								c1.4-3.2,2.1-7.5,2-12.8h-35.7c0.3,2.7-0.9,4.8-3.7,6.2c-4.2,2.1-11.2,2.6-22.9,2.6c-11.8,0-20.3,4-23,9.9
								c-2.7,5.9-0.2,10.5,2.2,12.8c2.4,2.4,5.2,3.2,10.4,4.6c5.2,1.4,9.2,1.8,12.8,2.5c3.6,0.7,8.8,2.1,10.4,4
								c0.8,1.2,1.5,4.5-5.4,4.5c-12.2-0.6-19.9-0.5-24.8,0.5c-6.3,1.3-11.1,3.6-14.5,6.9c-5.4,4.4-6.9,9.8-6.9,14.8
								c0,5,1.6,7.5,3.4,9.4c1.8,1.9,5.4,3.5,8.5,3c3.1-0.5,7.3-3.3,8-3.3c1,0,2.1,0.7,3.2,2.1c1.7-2,2.8-2.9,3.3-2.9
								c0.1,0,0.5-0.5,3.8,1.8c0.8,0.6,2.7,2.1,5.7,4.6c7.6-6.2,12-9.4,13.2-9.6c1.2-0.3,2.8,1.1,4.9,4.1c1.7-2.7,3-4.1,4-4.1
								C-475.2,1398.6-470.5,1401-461.3,1406z"/>
						</defs>
						<clipPath id="SVGID_12_">
							<use xlink:href="#SVGID_11_"  style="overflow:visible;"/>
						</clipPath>
						<g class="st12">
							<defs>
								<rect id="SVGID_13_" x="-544.3" y="1317" width="101" height="101"/>
							</defs>
							<clipPath id="SVGID_14_">
								<use xlink:href="#SVGID_13_"  style="overflow:visible;"/>
							</clipPath>
							<g class="st13">
								<g>
									<defs>
										<rect id="SVGID_15_" x="-539.3" y="1319" width="113" height="95"/>
									</defs>
									<clipPath id="SVGID_16_">
										<use xlink:href="#SVGID_15_"  style="overflow:visible;"/>
									</clipPath>
									<g class="st14">
										<defs>
											<rect id="SVGID_17_" x="-534.3" y="1324" width="91" height="85"/>
										</defs>
										<clipPath id="SVGID_18_">
											<use xlink:href="#SVGID_17_"  style="overflow:visible;"/>
										</clipPath>
										<rect x="-538.5" y="1319.2" class="st15" width="111.3" height="94"/>
									</g>
								</g>
							</g>
						</g>
					</g>
				</g>
			</g>
		</g>
	</g>
</g>
</svg>
