<svg xmlns="http://www.w3.org/2000/svg" xmlns:xlink="http://www.w3.org/1999/xlink" viewBox="0 0 633.1 764.31"><defs><style>.cls-1,.cls-4{fill:none;}.cls-2{clip-path:url(#clip-path);}.cls-3{fill:url(#linear-gradient);}.cls-4{stroke:#fff;stroke-miterlimit:10;stroke-width:12px;}.cls-5{fill:#fff;opacity:0.85;isolation:isolate;}.cls-6{fill:#fff7e9;}.cls-7{fill:url(#radial-gradient);}.cls-8{clip-path:url(#clip-path-3);}.cls-9{font-size:116.94px;fill:#3f3f3f;font-family:ExensaGrotesk-Black, Exensa Grotesk;}</style><clipPath id="clip-path"><circle class="cls-1" cx="329.24" cy="337.42" r="289.5"/></clipPath><linearGradient id="linear-gradient" x1="329.27" y1="558.98" x2="329.27" y2="1137.98" gradientTransform="translate(0 -511.06)" gradientUnits="userSpaceOnUse"><stop offset="0" stop-color="#d4dcff"/><stop offset="0.07" stop-color="#9ed9ff"/><stop offset="0.18" stop-color="#4ad5ff"/><stop offset="0.26" stop-color="#15d2ff"/><stop offset="0.3" stop-color="#00d1ff"/><stop offset="0.33" stop-color="#09d1ff"/><stop offset="0.42" stop-color="#27d2ff"/><stop offset="0.48" stop-color="#32d2ff"/><stop offset="0.57" stop-color="#37cffd"/><stop offset="0.67" stop-color="#44c8f5"/><stop offset="0.78" stop-color="#5abbe9"/><stop offset="0.89" stop-color="#78a9d8"/><stop offset="0.97" stop-color="#9698c8"/><stop offset="0.98" stop-color="#9497c8"/><stop offset="0.99" stop-color="#8d95c9"/><stop offset="0.99" stop-color="#8192cb"/><stop offset="1" stop-color="#708ccd"/><stop offset="1" stop-color="#5b85d0"/><stop offset="1" stop-color="#5082d2"/></linearGradient><radialGradient id="radial-gradient" cx="329.91" cy="747.49" r="86.32" gradientTransform="translate(0 -514.38) scale(1 1.01)" gradientUnits="userSpaceOnUse"><stop offset="0.61" stop-color="#ffcd3c"/><stop offset="0.71" stop-color="#ffcb38"/><stop offset="0.81" stop-color="#ffc42b"/><stop offset="0.92" stop-color="#ffb816"/><stop offset="1" stop-color="#ffac00"/></radialGradient><clipPath id="clip-path-3"><rect class="cls-1" x="55.16" y="666.24" width="548.14" height="82.83"/></clipPath></defs><title>Asset 1</title><g id="Layer_2" data-name="Layer 2"><g id="Layer_1-2" data-name="Layer 1"><g id="Layer_2-2" data-name="Layer 2"><g id="Layer_1-2-2" data-name="Layer 1-2"><g class="cls-2"><g id="Layer_2-2-2" data-name="Layer 2-2"><circle class="cls-3" cx="329.27" cy="337.42" r="289.5"/><path class="cls-4" d="M83,578.47c-8.13-13.15-19-35.08-20-63.25-.29-7.52-.67-15.41,2-25.36,6.69-24.54,25.86-39.77,35.47-47.22,33.67-26.06,73.51-32,95.91-34.68,48.09-5.71,99.88-3.33,192.19,10.42,70.55,10.51,117.46,21.23,171.86,4,16-5.06,33.61-12.83,47.23-29.62,23.7-29.21,19.78-66.51,18.16-77.83"/><path class="cls-4" d="M108.81,667.36c-7.44-13.15-17.37-35.09-18.35-63.25-.27-7.53-.62-15.42,1.86-25.36C98.46,554.2,116,539,124.84,531.53c20.4-17.23,47-28.56,87.91-34.69,70.12-10.52,133.64,1.82,176.17,10.42,20.72,4.19,45.55,10.42,82,11.79,25,1,50.87.39,75.05-10.46,54.35-24.39,70.58-91.25,74-107"/><path class="cls-4" d="M158.09,642a54.15,54.15,0,0,1,4.18-30.65c5.43-11.85,13.82-18.43,19.29-22.62,16.57-12.69,33.79-15.53,49.2-17.93,22.6-3.51,40.24-1.77,58.76.18,19.86,2.09,30.44,4.11,49.55,8.54,10.86,2.51,48.11,11.14,81.25,11.91,21.76.51,66.87,1.56,106.67-27.16a142,142,0,0,0,41.66-48.34"/><circle class="cls-5" cx="329.27" cy="240.69" r="86.57"/><g id="Layer_1-2-2-2" data-name="Layer 1-2-2"><g class="cls-2"><path class="cls-6" d="M62.79,450.75c-3.76-6.94-11.29-23.17-8.52-43.33,3-22.12,16.72-36,25.78-45,28.63-28.28,64.23-35,83.87-38.74,37.38-7.08,68-3.68,123.53,2.46h0c16.44,1.79,40.52,4.41,63.16-1.93a89.5,89.5,0,0,0,38.7-21.43c5.31-5.07,18.59-18.14,23.48-40.06a75.34,75.34,0,0,0-2.69-42c-2-5.34-9.76-25.65-30.78-36.09-15-7.42-29.48-6.18-38.46-5.42a82.08,82.08,0,0,0-26.11,6.52h0c-9.61,4.81-11.4,11.4-20.76,13.48-11.7,2.59-13.18,26.64-23.74,27.68-9.8,1-19.92-18.61-24-31.33-7.26-22.64-1.4-42.68,1-50.34,8-26.16,25-41.57,31.55-47.33,26.78-23.64,57.42-28,76-30.41,66.79-8.62,119.52,21.74,134.12,30.41,50.45,30,69.56,67.58,74.33,64.34,6.89-4.69-16.87-94.31-85.06-137.34C350.66-55.53,158,84,147.27,91.92c-29.27,21.7-84.83,63.61-116,140.5-7.53,18.57-61.35,139-7.81,195.4C36.16,441.2,51.58,447.47,62.79,450.75Z"/><path class="cls-7" d="M380.27,184.47c-15.06-7.47-29.7-6.23-38.75-5.46a82.74,82.74,0,0,0-26.25,6.59h0c-9.68,4.84-11.48,11.48-20.92,13.58-11.78,2.61-13.28,26.84-23.91,27.89-7.21.72-15.29-9.56-20.46-21.16a87.25,87.25,0,0,0,79.9,122.25,88.9,88.9,0,0,0,9.78-.54,105,105,0,0,0,11.75-2.52,90.17,90.17,0,0,0,39-21.59q3.6-3.4,6.85-7.16a87.26,87.26,0,0,0,15-26.73c.66-2.08,1.27-4.21,1.77-6.47a75.75,75.75,0,0,0-2.71-42.3C409.27,215.47,401.49,195,380.27,184.47Z"/></g></g></g></g></g></g><g class="cls-8"><text class="cls-9" transform="translate(60.94 741.76)">F</text><text class="cls-9" transform="translate(112.96 741.76)">o</text><text class="cls-9" transform="translate(164.82 741.76)">u</text><text class="cls-9" transform="translate(213.19 741.76)">r</text><text class="cls-9" transform="translate(251.84 741.76)">t</text><text class="cls-9" transform="translate(282.23 741.76)">h </text><text class="cls-9" transform="translate(361.19 741.76)">W</text><text class="cls-9" transform="translate(446.37 741.76)">a</text><text class="cls-9" transform="translate(493.3 741.76)">v</text><text class="cls-9" transform="translate(540.37 741.76)">e</text></g></g></g></svg>