<svg xmlns="http://www.w3.org/2000/svg" xmlns:xlink="http://www.w3.org/1999/xlink" viewBox="0 0 102.61 145.16"><defs><style>.cls-1{fill:none;}.cls-2{fill:#00d4cb;}.cls-3{fill:#ff5f88;}.cls-4{isolation:isolate;}.cls-5{clip-path:url(#clip-path);}.cls-6{fill:#3fb0ff;}</style><clipPath id="clip-path" transform="translate(-0.03)"><polygon class="cls-1" points="0.12 132.64 0 2.75 19.17 8.25 19.29 138.15 0.12 132.64"/></clipPath></defs><title>Asset 5</title><g id="Layer_2" data-name="Layer 2"><g id="Layer_2-2" data-name="Layer 2"><polygon class="cls-2" points="38.78 0 19.36 3.79 83.14 15.62 102.61 11.86 38.78 0"/><polygon class="cls-3" points="102.61 11.86 102.56 36.22 83.1 39.98 83.17 15.63 102.61 11.86"/><polygon class="cls-3" points="60.22 35.77 40.81 32.19 40.78 61.94 60.17 58.23 60.22 35.77"/><polygon class="cls-3" points="94.35 64.56 94.39 88.89 74.88 92.65 74.96 68.35 94.35 64.56"/><polygon class="cls-3" points="60.07 89.98 40.7 86.36 40.55 145.16 59.94 141.49 60.07 89.98"/><polygon class="cls-2" points="94.35 64.56 60.17 58.23 40.78 61.94 74.96 68.35 94.35 64.56"/><g class="cls-4"><g class="cls-5"><path class="cls-6" d="M1.39,117.58a11,11,0,0,0-.76,4.73,14,14,0,0,0,.83,5.13,5.57,5.57,0,0,0,3.94,3.62l1.5.43v3.1l2.78.8v-3.1L19,135v-5.28L9.68,127v-4.42l-2.79-.8v4.42l-1.16-.34a2.92,2.92,0,0,1-1.89-1.19,4.31,4.31,0,0,1-.49-2.12A7.89,7.89,0,0,1,3.79,120l-2.4-2.46" transform="translate(-0.03)"/><path class="cls-6" d="M7,107a7.59,7.59,0,0,0-.41,2.79,8.91,8.91,0,0,0,.64,3.6,13.57,13.57,0,0,0,1.32,2.44l-1.62-.47v5.28l12.05,3.46v-5.28l-7.12-2a12.52,12.52,0,0,1-1.44-2.56A7.67,7.67,0,0,1,9.69,111a5,5,0,0,1,.29-1.82L7,107" transform="translate(-0.03)"/><path class="cls-6" d="M11.31,104.29a4.69,4.69,0,0,1-1.73-1.82A6,6,0,0,1,9,99.73a3.75,3.75,0,0,1,.59-2.31,1.84,1.84,0,0,1,1.75-.74v7.61m2.31-12.07-.34-.09c-2.83-.82-4.38.21-5.15,1.12-1.34,1.52-1.6,3.89-1.59,5.94a14.49,14.49,0,0,0,1.68,7.15,8.79,8.79,0,0,0,4.88,4.32,4.17,4.17,0,0,0,4.61-1.44c1.39-1.77,1.55-4.32,1.54-6.57,0-4.19-.67-6.72-2-8.88l-1.81,2.52a11.38,11.38,0,0,1,1.17,5.17,4.62,4.62,0,0,1-.82,3.15,2.15,2.15,0,0,1-2.17.54V92.22" transform="translate(-0.03)"/><path class="cls-6" d="M13.08,85.28a5.08,5.08,0,0,1-3.23-2.52,5.68,5.68,0,0,1-.65-2.71,3.51,3.51,0,0,1,1.55-3.23L14.92,78a7,7,0,0,1,1.68,4.52,2.91,2.91,0,0,1-1,2.52,2.9,2.9,0,0,1-2.57.23m5.81-11.4L.83,68.7V74L8,76c-1.24,1.12-1.44,3.11-1.44,4.71A12.68,12.68,0,0,0,8,87a8.4,8.4,0,0,0,5,4.1,4.37,4.37,0,0,0,4.89-1.23c1.16-1.41,1.29-3.32,1.29-5.1a10.41,10.41,0,0,0-1.55-5.95l1.29.37V73.88" transform="translate(-0.03)"/><polyline class="cls-6" points="18.83 44.63 11.46 50.07 6.79 41.4 6.79 47.92 11.08 55.86 0.79 52.9 0.79 58.18 18.85 63.36 18.85 58.09 15.23 57.05 13.86 54.44 18.84 50.79 18.83 44.63"/><path class="cls-6" d="M18.86,39.23l-12-3.46v5.28l12,3.46V39.23M2.14,33.88C1,33.55,0,34.72,0,36.46s1,3.45,2.12,3.79,2.11-.83,2.11-2.57-1-3.46-2.12-3.8" transform="translate(-0.03)"/><path class="cls-6" d="M18.83,8.15l-7-2c-1.62-.47-3.22-.85-4.3.59a7,7,0,0,0-1,4.25,10.8,10.8,0,0,0,.56,3.65,11.25,11.25,0,0,0,1.25,2.53,2.9,2.9,0,0,0-1.39,1.58,7.72,7.72,0,0,0-.47,2.93A10.33,10.33,0,0,0,7,25a9.43,9.43,0,0,0,1.19,2.4L6.81,27v5.19l12.05,3.46v-5.2l-7.77-2.23A9.8,9.8,0,0,1,10,26.39,5.41,5.41,0,0,1,9.36,24a2.11,2.11,0,0,1,.36-1.3c.46-.61,1.28-.53,2.24-.25l6.89,2V19.33L11.07,17.1a8.6,8.6,0,0,1-1.13-1.84,5.71,5.71,0,0,1-.59-2.42,2.05,2.05,0,0,1,.33-1.27c.54-.69,1.52-.41,2.42-.15l6.74,1.93V8.15" transform="translate(-0.03)"/></g></g></g></g></svg>