<?xml version="1.0" encoding="UTF-8"?>
<svg width="381px" height="344px" viewBox="0 0 381 344" version="1.1" xmlns="http://www.w3.org/2000/svg" xmlns:xlink="http://www.w3.org/1999/xlink">
    <!-- Generator: Sketch 52.6 (67491) - http://www.bohemiancoding.com/sketch -->
    <title>Group 2</title>
    <desc>Created with Sketch.</desc>
    <defs>
        <polygon id="path-1" points="0 0.457295192 90.9258664 0.457295192 90.9258664 83.710573 0 83.710573"></polygon>
        <polygon id="path-3" points="0.0157542607 0.18428042 31.0621769 0.18428042 31.0621769 8.72144289 0.0157542607 8.72144289"></polygon>
    </defs>
    <g id="Page-1" stroke="none" stroke-width="1" fill="none" fill-rule="evenodd">
        <g id="Group-2" transform="translate(-107.000000, -1.000000)">
            <g id="Group" transform="translate(0.000000, 290.000000)" fill="#333333" font-family="Hikaru-Regular-Yandidesigns, Hikaru" font-size="60" font-weight="normal">
                <text id="pANDA-GLOBAL">
                    <tspan x="137.039368" y="53.0990267">pANDA GLOBAL</tspan>
                </text>
            </g>
            <g id="Group-25" transform="translate(107.749354, 0.662403)">
                <g id="Group-3" transform="translate(0.000000, 0.055920)">
                    <mask id="mask-2" fill="white">
                        <use xlink:href="#path-1"></use>
                    </mask>
                    <g id="Clip-2"></g>
                    <path d="M4.07148225,72.4881186 C8.48712079,77.1463952 17.8131258,79.4160224 26.6828532,81.5748361 C32.3852969,82.9630846 35.2362624,83.6572088 38.5701643,83.7074854 C59.5896907,84.0240224 88.7160894,59.9384754 90.8800753,41.0216657 C91.0728397,39.3374012 90.6468098,35.9529683 89.7942373,29.1846156 C88.0726869,15.5170886 87.2119116,8.68306854 85.1155984,5.93837916 C76.5442457,-5.28201363 35.2793268,0.485938277 14.1695703,25.4487599 C1.41481919,40.5312128 -4.59471465,63.3459944 4.07148225,72.4881186" id="Fill-1" fill="#333333" mask="url(#mask-2)"></path>
                </g>
                <path d="M233.9017,170.986196 C233.357243,167.634597 225.072987,166.730132 208.504473,164.922228 C202.225787,164.237339 188.259593,163.002485 167.735307,164.922228 C153.83166,166.222749 146.880349,166.872754 146.348196,169.470204 C145.645836,172.897218 152.536139,179.098677 162.875183,183.806717 C168.503289,186.439567 176.547616,189.302766 186.448838,189.93584 C187.786398,190.021515 190.721954,190.166188 194.469069,189.93584 C200.307883,189.576721 208.900768,188.258758 218.960406,183.720529 C228.239758,179.559375 234.439493,174.298806 233.9017,170.986196" id="Fill-4" fill="#333333"></path>
                <path d="M158.683941,103.877207 C149.873683,90.2296882 117.339045,92.5665218 97.4473956,107.468903 C77.5490816,122.376414 66.1729038,152.952766 76.7211173,165.243331 C87.1591065,177.40564 117.378521,169.694859 135.364058,155.639484 C152.096626,142.563476 167.167114,117.017857 158.683941,103.877207" id="Fill-6" fill="#333333"></path>
                <path d="M187.494636,216.082879 C186.317543,217.423416 184.701603,219.264154 182.518135,220.805797 C180.023476,222.567016 179.013514,222.366422 178.753077,223.321164 C178.188625,225.391737 182.308965,228.869028 186.452888,230.174679 C187.017852,230.352186 192.657237,232.03132 197.775235,228.831577 C199.509603,227.74704 202.840429,225.066992 202.31289,222.768122 C201.951456,221.192619 200.212988,221.700515 197.57837,218.9194 C196.402301,217.676851 195.614325,216.426607 193.185801,213.888667 C192.451656,213.121693 191.983587,212.668178 191.303272,212.630727 C190.115925,212.566086 189.469959,213.832747 187.494636,216.082879" id="Fill-8" fill="#FFB4E2"></path>
                <path d="M128.866871,218.871432 C129.293413,218.493845 132.64731,221.764386 137.673027,224.268467 C151.102966,230.958839 166.269324,227.093701 167.075243,226.876691 C170.026179,226.081501 177.661394,224.029396 183.276171,218.007497 C189.648164,211.174503 189.696355,203.262615 191.676804,203.400619 C193.553182,203.530927 192.536554,210.568106 197.67711,217.486262 C200.982815,221.934711 205.296945,224.265388 207.277907,225.311962 C217.798949,230.86906 231.037662,230.143641 240.280101,226.354943 C246.56494,223.778527 250.400234,220.02215 250.86574,220.462839 C251.352778,220.924563 247.773306,225.650559 242.32566,228.948803 C231.316042,235.614038 215.195091,234.922992 206.33613,230.539184 C200.790563,227.796034 198.017524,226.424202 195.965813,224.175096 C194.484705,222.551368 193.139968,220.479769 191.086207,220.462839 C189.551781,220.450014 188.278306,221.589958 187.426246,222.584202 C185.934372,223.955008 172.529041,235.896715 154.486597,233.721485 C144.213688,232.48304 136.894792,227.119352 135.873038,226.354943 C131.749109,223.269605 128.416745,219.270054 128.866871,218.871432" id="Fill-10" fill="#333333"></path>
                <path d="M180.539788,227.315328 C181.407228,225.893733 189.010657,232.201901 195.91429,229.44336 C199.643974,227.954046 201.299902,224.565509 201.564953,224.797909 C201.897677,225.090334 199.692678,230.828018 194.212733,232.905773 C193.433985,233.201789 188.985536,234.789092 184.701654,232.248074 C182.293124,230.819809 180.033781,228.143865 180.539788,227.315328" id="Fill-12" fill="#333333"></path>
                <g id="Group-16" transform="translate(176.358953, 246.308425)">
                    <mask id="mask-4" fill="white">
                        <use xlink:href="#path-3"></use>
                    </mask>
                    <g id="Clip-15"></g>
                    <path d="M0.0834628997,0.477319439 C0.957567592,-1.16846814 10.0298002,4.74261804 22.5359057,2.80132745 C28.0717312,1.94200882 30.8647649,0.075107014 31.0524026,0.477319439 C31.4456215,1.31970822 19.9028255,10.9933275 9.37409354,8.22503888 C3.53425392,6.68903888 -0.566604402,1.70088657 0.0834628997,0.477319439" id="Fill-14" fill="#333333" mask="url(#mask-4)"></path>
                </g>
                <path d="M150.012053,117.349887 C150.92307,116.819931 147.224659,113.712019 140.71322,112.139594 C137.843285,111.446496 134.795454,111.204861 131.744034,111.340813 C121.618774,111.790737 114.416254,116.268941 113.854366,116.628059 C109.201874,119.599506 107.571579,123.023442 108.018628,123.105013 C108.17448,123.13323 108.633321,122.762825 109.414632,122.226713 C109.414632,122.226713 112.092827,120.388027 116.616127,118.363626 C120.372983,116.68244 127.789287,114.66317 135.070758,114.652396 C144.444955,114.638544 149.045667,117.912164 150.012053,117.349887" id="Fill-17" fill="#FFFFFF"></path>
                <path d="M375.712396,72.5440385 C371.296757,77.202315 361.970239,79.4719423 353.101025,81.6307559 C347.398068,83.0190044 344.547615,83.7131287 341.213201,83.7634052 C320.193674,84.0799423 291.067788,59.9943952 288.903802,41.0775856 C288.711038,39.393321 289.137068,36.0088882 289.98964,29.2405355 C291.710678,15.5730084 292.571453,8.73898838 294.668279,5.994299 C303.239632,-5.22609379 344.504551,0.541858116 365.614307,25.5046798 C378.369059,40.5871327 384.37808,63.4019142 375.712396,72.5440385" id="Fill-19" fill="#333333"></path>
                <path d="M219.750176,103.877207 C228.560946,90.2296882 261.095072,92.5665218 280.986721,107.468903 C300.885548,122.376414 312.261213,152.952766 301.713512,165.243331 C291.275523,177.40564 261.055596,169.694859 243.070059,155.639484 C226.338003,142.563476 211.267003,117.017857 219.750176,103.877207" id="Fill-21" fill="#333333"></path>
                <path d="M228.422012,117.349887 C227.510995,116.819931 231.209407,113.712019 237.721358,112.139594 C240.59078,111.446496 243.639124,111.204861 246.690544,111.340813 C256.815804,111.790737 264.018324,116.268941 264.579699,116.628059 C269.232704,119.599506 270.862487,123.023442 270.41595,123.105013 C270.259585,123.13323 269.800744,122.762825 269.019946,122.226713 C269.019946,122.226713 266.34175,120.388027 261.818451,118.363626 C258.061082,116.68244 250.645291,114.66317 243.363307,114.652396 C233.989623,114.638544 229.388911,117.912164 228.422012,117.349887" id="Fill-23" fill="#FFFFFF"></path>
            </g>
        </g>
    </g>
</svg>