<svg xmlns="http://www.w3.org/2000/svg" xmlns:xlink="http://www.w3.org/1999/xlink" viewBox="0 0 677.06 791.12"><defs><style>.cls-1{fill:none;}.cls-2{fill:url(#linear-gradient);}.cls-3{fill:url(#linear-gradient-2);}.cls-4{fill:#ff9e00;}.cls-5{fill:#ffe715;}.cls-6{fill:#ff5e55;}.cls-7{fill:#d8403d;}.cls-8{fill:url(#radial-gradient);}.cls-9{fill:url(#radial-gradient-2);}.cls-10{fill:#100055;}.cls-11{fill:url(#linear-gradient-3);}.cls-12{fill:#ffd28a;}.cls-12,.cls-23,.cls-24{opacity:0.6;}.cls-13,.cls-24{fill:#fff;}.cls-14{fill:#754c24;}.cls-15{opacity:0.9;}.cls-16{clip-path:url(#clip-path);}.cls-17{fill:#5ab4dc;opacity:0.3;}.cls-18{fill:#fff08a;}.cls-19{fill:#ffce4a;}.cls-20{fill:#ffaba9;}.cls-21{fill:#ffcfcf;}.cls-22{opacity:0.07;}.cls-25{font-size:150px;fill:#474747;font-family:Effra-Bold, Effra;font-weight:700;letter-spacing:-0.03em;}</style><linearGradient id="linear-gradient" x1="339.49" y1="570.68" x2="339.49" gradientUnits="userSpaceOnUse"><stop offset="0" stop-color="#454cff"/><stop offset="1" stop-color="#1e92ff"/></linearGradient><linearGradient id="linear-gradient-2" x1="303.23" y1="87.94" x2="527.41" y2="149.9" gradientUnits="userSpaceOnUse"><stop offset="0" stop-color="#e5e5e5"/><stop offset="1" stop-color="#989898"/></linearGradient><radialGradient id="radial-gradient" cx="340.11" cy="336.87" fx="487.791218433523" fy="158.89008151564576" r="231.27" gradientTransform="translate(0 39.98) scale(1 0.88)" gradientUnits="userSpaceOnUse"><stop offset="0" stop-color="#f1f1f1"/><stop offset="0.48" stop-color="#efefef"/><stop offset="0.66" stop-color="#e8e8e8"/><stop offset="0.78" stop-color="#ddd"/><stop offset="0.88" stop-color="#ccc"/><stop offset="0.88" stop-color="#cbcbcb"/><stop offset="0.92" stop-color="#c7c7c7"/><stop offset="0.95" stop-color="#bcbcbc"/><stop offset="0.98" stop-color="#aaa"/><stop offset="1" stop-color="#989898"/></radialGradient><radialGradient id="radial-gradient-2" cx="334.82" cy="404.54" fx="448.65771308639125" fy="302.5981255888022" r="163.54" gradientTransform="translate(0 -0.12)" gradientUnits="userSpaceOnUse"><stop offset="0.42" stop-color="#ff5e55"/><stop offset="0.64" stop-color="#fd5c54"/><stop offset="0.76" stop-color="#f5564f"/><stop offset="0.85" stop-color="#e74c46"/><stop offset="0.92" stop-color="#d8403d"/></radialGradient><linearGradient id="linear-gradient-3" x1="395.55" y1="114.18" x2="280.04" y2="237.77" gradientUnits="userSpaceOnUse"><stop offset="0.01" stop-color="#fff"/><stop offset="0.52" stop-color="#fdfdfd"/><stop offset="0.7" stop-color="#f6f6f6"/><stop offset="0.83" stop-color="#ebebeb"/><stop offset="0.94" stop-color="#dadada"/><stop offset="1" stop-color="#cbcbcb"/></linearGradient><clipPath id="clip-path"><path class="cls-1" d="M481,203.85c-1.63,14.62-64,26.38-140.66,26.38s-139-11.76-140.67-26.38c-25-42.68-21.87-69.77-17-84.42C212.19,29.74,440-1.08,491,79.56,497.14,89.29,516.51,125.64,481,203.85Z"/></clipPath></defs><title>Asset 2</title><g id="Layer_2" data-name="Layer 2"><g id="Layer_3" data-name="Layer 3"><circle class="cls-2" cx="339.49" cy="285.34" r="285.34"/></g><g id="Layer_2-2" data-name="Layer 2"><path class="cls-3" d="M516.63,148.37c0-.08.08-.15.11-.22a4.72,4.72,0,0,0-3.53-6,5.8,5.8,0,0,0-4.68.73,3.52,3.52,0,0,0-1-1.64,4.85,4.85,0,0,0,2-2.49,4.7,4.7,0,0,0-3.53-6,5.85,5.85,0,0,0-1.94-.19,5.18,5.18,0,0,0-2.95-2.06,5.87,5.87,0,0,0-1.71-.19,7.24,7.24,0,0,0-4.93-5.72c1-3-.89-6.21-4.25-7.13a7.05,7.05,0,0,0-4.46.24,15.43,15.43,0,0,0-8.36-5.58,17.12,17.12,0,0,0-2.31-.45c-.21-7.69-5.82-14.75-14.47-17.13a22.63,22.63,0,0,0-13.56.5C444.22,85.4,436,77.19,424.54,74a37,37,0,0,0-19.48,0,37.34,37.34,0,0,0-15.12-8.16,39.41,39.41,0,0,0-36.3,8,43.68,43.68,0,0,0-9-3.6c-21.54-5.92-44.35,4.94-50.95,24.26s5.5,39.79,27,45.71a45,45,0,0,0,26.55-.82A40.64,40.64,0,0,0,368.41,153a44.27,44.27,0,0,0,38.91-7.52,18.89,18.89,0,0,0,7.68,4.15c9.75,2.68,20.08-2.24,23.07-11a15,15,0,0,0,.8-5.21,13.29,13.29,0,0,0,9.94-3.59,22.58,22.58,0,0,0,9.44.45,14.86,14.86,0,0,0,10,8.57,16.68,16.68,0,0,0,16.37-4.27,7.7,7.7,0,0,0,4.62,3.41,8.7,8.7,0,0,0,5.74-.41,5.17,5.17,0,0,0,3,2.11,5.83,5.83,0,0,0,1.94.19,4.82,4.82,0,0,0,1.62,1.48,3.4,3.4,0,0,0-1,3.32,4.14,4.14,0,0,0,4.92,2.76,4,4,0,0,0,.87-.28,4.92,4.92,0,0,0,3.74,4.15,5.54,5.54,0,0,0,.69.12,3.71,3.71,0,0,0,2.89,3.78,4.21,4.21,0,0,0,5.13-2.44A3.56,3.56,0,0,0,516.63,148.37Z"/></g><g id="Layer_1-2" data-name="Layer 1"><path id="fire" class="cls-4" d="M248.8,149.31c-17.15-15.93-23.25-40.32-3.74-55.72C262.37,79.94,294,77.91,295,79c.35.38-2.83,1.2-4.82,4a8,8,0,0,0-.79,7.57c1.15,3,4.86,8.23,9.38,8.62,6.34.55,6.78-9,18.65-17,12.49-8.36,30.1-9.84,40-10.68,22.58-1.9,46,1.77,46.51,4.4.31,1.58-8,1.15-15.26,5.61-7,4.26-11.27,11.92-7.17,19.49.7,1.31,4.57,8.46,15.68,11.53.66.19,12.39,3.33,18.33.11,7.87-4.26-1.82-15.67,2.49-16.83,4-1.07,17.17,7.42,24.61,17.41,7.91,10.63,7.3,20.28,6.88,25.46a33.1,33.1,0,0,1-5.43,17c-12.43,18.22-44.87,23.6-51.76,24.74-26.91,4.47-50.2,0-69.34-3.62C295.19,171.53,266.91,166.14,248.8,149.31Z"/><path id="fire-2" data-name="fire" class="cls-5" d="M270.75,150c-14.58-11.37-15.16-23.28-15.23-26.35-.23-9.47,5.23-19.26,10.09-19,2.48.14,2.63,2.79,9,7.37,3.14,2.27,10,7.23,19.1,7.94a29.35,29.35,0,0,0,10.67-1.2c10.23-2.79,10.52-7.85,20.35-15,2.92-2.11,13.81-10,20-8.24,4.65,1.33,1,6.55,7.31,13.77,6.82,7.78,19.86,11.75,26.58,13.79,5.6,1.7,10.26,3.12,16.72,3.32a47.13,47.13,0,0,0,21.62-4.37c6.39-3.1,6.89-5.83,8.91-5.5,4.65.76,10.53,16.68-.9,26.56-6.5,5.62-12.25,3.81-30.23,10.93-20.61,8.16-18.51,13.33-32.85,15.71-17.08,2.83-31.86,0-44-2.3C304.19,164.86,285.17,161.25,270.75,150Z"/><path id="wing_left" data-name="wing left" class="cls-6" d="M157.54,262.25a67.47,67.47,0,0,1-27.41,3.38c-7.24-.69-17.67-1.66-27.16-9.54a41.63,41.63,0,0,1-12.28-17.84c-5-14.26-.53-27.28,1.9-34,13.25-36.89,54.95-51.93,67.16-55.71,24.9-7.71,48-6,48.89-2.16.67,2.84-10.88,6.36-10.63,13.25.14,3.56,3.38,6.78,6.54,8.14,8.39,3.6,16-6,19.72-3.78,7.51,4.57-5.93,55.08-38.88,82.6A83.67,83.67,0,0,1,157.54,262.25Z"/><path class="cls-7" d="M170.23,243.18c-9-6.11-24,14.62-49.68,11-3.06-.43-13.81-2.1-22.36-10.12a37.67,37.67,0,0,1-9.52-15,39.65,39.65,0,0,0,2,9.18A41.63,41.63,0,0,0,103,256.09c9.49,7.88,19.92,8.85,27.16,9.54a67.47,67.47,0,0,0,27.41-3.38,78.67,78.67,0,0,0,17.39-8.15C174.59,249.13,173,245.07,170.23,243.18Z"/><path id="wing_right" data-name="wing right" class="cls-6" d="M527,268.25a67.44,67.44,0,0,0,27.4,3.38c7.25-.69,17.67-1.66,27.17-9.54a41.56,41.56,0,0,0,12.27-17.84c5-14.26.53-27.28-1.89-34-13.25-36.89-55-51.93-67.16-55.71-24.9-7.71-48-6-48.89-2.16-.67,2.84,10.88,6.36,10.63,13.25-.14,3.56-3.38,6.78-6.54,8.14-8.39,3.6-16-6-19.72-3.78-7.51,4.57,5.93,55.08,38.88,82.6A83.67,83.67,0,0,0,527,268.25Z"/><path class="cls-7" d="M514.2,250.18c9-6.11,24,14.62,49.69,11,3.05-.43,13.81-2.1,22.35-10.12a37.59,37.59,0,0,0,9.53-15,40.22,40.22,0,0,1-2,9.18,41.64,41.64,0,0,1-12.27,17.84c-9.5,7.88-19.92,8.85-27.17,9.54a67.5,67.5,0,0,1-27.41-3.38,78.67,78.67,0,0,1-17.38-8.15C509.85,256.13,511.42,252.07,514.2,250.18Z"/><ellipse id="body" class="cls-8" cx="338.11" cy="335.87" rx="223.3" ry="203.33"/><ellipse class="cls-9" cx="336.32" cy="401.04" rx="132.91" ry="128.5"/><ellipse class="cls-10" cx="340.25" cy="203.16" rx="140.59" ry="27.07"/><g id="head"><path class="cls-11" d="M258,223a23.37,23.37,0,0,0,4,3,625.1,625.1,0,0,0,78.29,4.58,640.08,640.08,0,0,0,72.7-3.89,24,24,0,0,0,7.32-5.18c16.9-17.08,15.15-42.79,14.75-48.69-2.37-35.1-29.88-55.19-35.41-59-22.05-15.28-45.15-15-63.44-14.75a149.57,149.57,0,0,0-56.06,11.8c-24.48,12.48-40.32,36.15-41.31,62C238.64,176.79,238.05,204.75,258,223Z"/><path class="cls-12" d="M354.08,146.56a178.51,178.51,0,0,1-32,0c-26.82-2.56-32.14-10-42.2-4.78-14.1,7.36-17.11,29.11-17.46,31.89-.45,3.62-1.65,16.27,3.93,27.4,12.5,24.93,50.13,24.7,71,24.41,17.82-.25,60.59-.84,72.41-27.46a46.08,46.08,0,0,0,3.48-17.54c.23-13.46-4.92-32.14-17-38.7C386.67,136.54,381.88,144.05,354.08,146.56Z"/><ellipse cx="299.88" cy="170.03" rx="7.07" ry="8.66"/><ellipse class="cls-13" cx="302.31" cy="167.93" rx="2.43" ry="4.09"/><path class="cls-14" d="M339,190a13,13,0,0,1,8.17-2.43c12.42.19,16.35,11.72,27.48,11.29,6.08-.24,9.58-3.79,10.56-2.52,1.3,1.69-3.87,9.24-11,13.76-10.13,6.47-21.17,4.81-25.43,3.84-5.44-1.24-11.25-2.56-13.74-7.76S334.39,193.55,339,190Z"/><path class="cls-14" d="M337.06,190a13,13,0,0,0-8.17-2.43c-12.43.19-16.35,11.72-27.48,11.29-6.08-.24-9.58-3.79-10.56-2.52-1.3,1.69,3.87,9.24,10.95,13.76,10.14,6.47,21.17,4.81,25.44,3.84,5.44-1.24,11.25-2.56,13.74-7.76S341.64,193.55,337.06,190Z"/><ellipse cx="374.73" cy="170.03" rx="7.07" ry="8.66"/><ellipse class="cls-13" cx="377.36" cy="167.93" rx="2.43" ry="4.09"/></g><g class="cls-15"><g class="cls-16"><ellipse id="window" class="cls-17" cx="340.33" cy="193.26" rx="140.7" ry="138.36"/></g></g><path class="cls-18" d="M179.36,105.82a22.86,22.86,0,0,1-.76-3.18h-.06a20.49,20.49,0,0,1-.73,3c-1.61,5-4.74,8.67-7.67,9.38,3.13.24,6.64,4.09,8.38,9.5a19.47,19.47,0,0,1,.63,2.47,21,21,0,0,1,.64-2.48c1.56-4.84,4.54-8.44,7.4-9.31C184.21,114.61,181,110.9,179.36,105.82Z"/><path class="cls-18" d="M203.75,62.36a46.72,46.72,0,0,1-1.69-7h-.13a48.52,48.52,0,0,1-1.64,6.74c-3.57,11.1-10.52,19.25-17,20.84C190.2,83.42,198,92,201.87,104a46.31,46.31,0,0,1,1.41,5.5A49.26,49.26,0,0,1,204.7,104c3.45-10.76,10.09-18.75,16.44-20.68C214.52,81.91,207.38,73.66,203.75,62.36Z"/><path class="cls-19" d="M557.27,296.79q-1.72,5.18-3.77,10.87C552,312,541,342.25,537.78,340.81c-.8-.35-.72-2.47-1.14-15.78-.48-15.41-.71-16.47-1.3-16.82-3.15-1.87-11.39,19.32-25,41.93-18,29.88-34.88,44.75-33.55,47.37,1,1.93,10.66-5.26,16.25-9.91,18.69-15.58,27.79-32.92,31.6-29.8.79.64,1.18,3.91,2,10.45,1.29,10.83.64,13.19,1.65,14.07,3.15,2.75,17-13.62,27.41-35.26a142.63,142.63,0,0,0,5.72-14.7A186.61,186.61,0,0,0,557.27,296.79Z"/><path class="cls-19" d="M137.37,308.21c-.59.35-.82,1.42-1.3,16.82-.42,13.31-.34,15.43-1.15,15.79-3.26,1.44-14.17-28.87-15.72-33.15-.53-1.47-1-2.91-1.53-4.33a187,187,0,0,0-2.86,32.53c0,2.09,0,4.16.12,6.24,1.19,2.94,2,4.67,2.14,5,10.41,21.63,24.26,38,27.41,35.26,1-.89.36-3.25,1.65-14.07.78-6.54,1.17-9.81,2-10.45C151.9,354.68,161,372,179.69,387.6c5.59,4.66,15.27,11.85,16.25,9.92,1.32-2.62-15.54-17.49-33.55-47.37C148.76,327.53,140.52,306.34,137.37,308.21Z"/><path class="cls-20" d="M418.86,328.24c-.25-7.9-1.76-14.25,1.05-15.65,4.5-2.25,15.18,10.71,17.1,13,2.87,3.48,10.94,13.27,13,22.91,6.33,29.48-42.53,61.94-52.54,68.59-27.39,18.19-52.18,24.19-52.83,22.71C343.5,437.2,366,431,391.5,398.76,400.28,386.55,419.82,359.37,418.86,328.24Z"/><circle class="cls-21" cx="336.32" cy="441.56" r="4.21"/><path class="cls-22" d="M327.36,447.54c1.69,2.89-12.67,9.74-20,27.5-1.73,4.2-7.41,18-2,30.5,4.6,10.66,14.71,14.61,13.53,16.95s-11.84-.08-22-4c-14.82-5.62-28.22-10.71-42.5-22.5-34.72-28.66-44.61-72-41.5-73.66,1.75-1,6,12.16,21.5,22.66,22,14.92,48.61,12.23,55,11.5C311,454.06,325.59,444.52,327.36,447.54Z"/><g class="cls-23"><path class="cls-13" d="M461.18,207.35c-3.28,3.56-4.38,1.26-3.58-5.28,3.18-27.8-8.5-58-35-86.47-6.18-6.72-12-15-11.82-18.54a1.58,1.58,0,0,1,.95-1.51c2.05-.84,7.36,1.66,12.79,6.79,29.35,27.79,43.84,58,43.47,86.46C467.94,195.52,464.41,203.78,461.18,207.35Z"/></g><ellipse class="cls-24" cx="400.18" cy="89.83" rx="5" ry="8.02" transform="translate(139.86 406.77) rotate(-63.25)"/><text class="cls-25" transform="translate(105.06 688.22)">Quasar</text></g></g></svg>