<?xml version="1.0" encoding="UTF-8"?>
<svg width="381px" height="511px" viewBox="0 0 381 511" version="1.1" xmlns="http://www.w3.org/2000/svg" xmlns:xlink="http://www.w3.org/1999/xlink">
    <!-- Generator: Sketch 52.6 (67491) - http://www.bohemiancoding.com/sketch -->
    <title>Group 2</title>
    <desc>Created with Sketch.</desc>
    <defs>
        <ellipse id="path-1" cx="182.950086" cy="182.118495" rx="182.950086" ry="182.118495"></ellipse>
        <path d="M263.752104,298.790167 C227.276545,260.174464 205.332337,240.866613 197.919482,240.866613 C190.506626,240.866613 178.67013,249.507372 162.409992,266.788889 L131.659423,297.490877 C105.815235,273.909687 90.2210423,262.119091 84.8768437,262.119091 C76.8605459,262.119091 58.7285537,292.114626 39.5284656,292.114626 C19.632975,290.868551 14.2290164,274.278632 14.2290164,260.60598 C14.2290164,252.770039 16.9175567,236.110639 28.3931577,225.055865 C39.8687587,214.001091 48.3759567,210.477808 58.0500133,207.801854 C77.9808113,202.288769 105.734846,202.878742 144.318624,212.676548 C182.902401,222.474354 207.251689,226.119854 235.071574,216.322048 C262.891458,206.524241 274.341718,185.557825 274.341718,170.426964 C274.341718,155.296103 259.136379,135.299852 229.831533,128.588714 C200.526686,121.877576 175.828151,121.299858 155.882428,115.251852 C135.936706,109.203846 139.403916,105.487932 144.318624,101.918386 C156.50899,94.2581277 171.855313,93.6396619 195.280959,96.0585968 C218.706606,98.4775317 236.394265,102.385209 263.171244,102.385209 C289.948224,102.385209 307.950947,99.3064016 324.85839,89.7282143 C341.765833,80.1500269 355.123179,64.257405 362.7741,46.6110856 C367.874715,34.8468726 370.365195,19.3098441 370.24554,0 L239.89942,0 C241.123209,10.0230803 236.620291,17.5895111 226.390669,22.6992924 C211.046235,30.3639644 185.55464,32.2570632 142.579733,32.2570632 C99.6048259,32.2570632 68.5548574,46.9141742 58.5939769,68.3849691 C48.6330964,89.8557641 57.7604354,106.606615 66.4748452,115.251852 C75.1892549,123.89709 85.3506306,127.104351 104.316548,132.062339 C123.282465,137.020326 137.758653,138.486894 151.032236,141.171064 C164.305818,143.855235 183.245368,148.808426 189.023484,155.902616 C191.998459,160.390379 194.549327,172.424333 169.313508,172.424333 C124.642878,170.089517 96.707858,170.571434 78.5247749,174.270275 C55.5293442,178.948055 37.7810078,187.59027 25.3772944,199.598109 C5.69780584,215.793366 1.28456153e-15,235.439113 0,253.778292 C0,272.117471 5.97382258,281.10342 12.5971255,287.959149 C19.2204284,294.814877 32.2492692,300.699652 43.6604296,298.790167 C55.07159,296.880682 70.3773987,286.650051 73.0024088,286.650051 C76.6335042,286.650051 80.5916492,289.203539 84.8768437,294.310514 C91.1815482,287.12905 95.1994171,283.538318 96.9304505,283.538318 C97.2106584,283.538318 98.6860893,281.694653 110.844111,289.948095 C113.865448,291.999122 120.803885,297.639194 131.659423,306.868311 C159.524527,284.36122 175.608467,272.629617 179.911241,271.673503 C184.214015,270.717389 190.216762,275.709571 197.919482,286.650051 C204.016101,276.665686 208.855412,271.673503 212.437413,271.673503 C213.029491,271.673503 230.134388,280.712391 263.752104,298.790167 Z" id="path-3"></path>
        <ellipse id="path-5" cx="146.523174" cy="158.305081" rx="182.950086" ry="182.118495"></ellipse>
    </defs>
    <g id="Page-1" stroke="none" stroke-width="1" fill="none" fill-rule="evenodd">
        <g id="logo-color" transform="translate(-501.000000, -66.000000)">
            <g id="Group-2" transform="translate(353.000000, 66.000000)">
                <text id="Skylake" font-family="BreeSerifSb, Bree Serif" font-size="110" font-weight="500" fill="#4B4B4B">
                    <tspan x="143.685" y="486">Skylake</tspan>
                </text>
                <g id="logo-copy-2" transform="translate(154.601562, 0.000000)">
                    <mask id="mask-2" fill="white">
                        <use xlink:href="#path-1"></use>
                    </mask>
                    <use id="Oval-Copy-2" fill="#F85991" xlink:href="#path-1"></use>
                    <g id="Oval-Copy-3" mask="url(#mask-2)">
                        <g transform="translate(36.426912, 23.813414)">
                            <mask id="mask-4" fill="white">
                                <use xlink:href="#path-3"></use>
                            </mask>
                            <use id="Mask" stroke="none" fill="#FFFFFF" fill-rule="evenodd" xlink:href="#path-3"></use>
                            <mask id="mask-6" fill="white">
                                <use xlink:href="#path-5"></use>
                            </mask>
                            <g id="Oval-Copy-3" stroke="none" fill="none"></g>
                        </g>
                    </g>
                </g>
            </g>
        </g>
    </g>
</svg>