<svg xmlns="http://www.w3.org/2000/svg" viewBox="0 0 1280 582"><title>Asset 1</title><g id="Layer_2" data-name="Layer 2"><g id="Layer_1-2" data-name="Layer 1"><g id="Layer_2-2" data-name="Layer 2"><g id="Layer_1-2-2" data-name="Layer 1-2"><path d="M631,251.64a1.06,1.06,0,0,0,1,.72c.48.24.72-.48.48-1-.24-7.68,1.68-15.36,3.84-22.8l.72-3.12c0-.24.24-1-.48-1-.24,0-.48.48-.48.72a91.34,91.34,0,0,0-5.76,21.36A10.66,10.66,0,0,0,631,251.64Z"/><path d="M597.4,218c.48.23.72-.25.72-.73l1.44-6.72c.24-1.19.72-2.4,1-3.36,0-.48-.24-1-.48-.72a.52.52,0,0,0-.48.48,37.86,37.86,0,0,0-3.12,8.16,5.22,5.22,0,0,0,0,1.93C596.44,217.31,596.92,217.79,597.4,218Z"/><path d="M599.56,250.44a21.18,21.18,0,0,0-2.4,7.2v.72a1.08,1.08,0,0,0,1,1.2c.72.24,1-.48,1.2-1l1.44-7.68c0-.24-.24-.48-.48-.72C600,250.2,599.8,250.44,599.56,250.44Z"/><path d="M644.92,228.36c4.8-.72,9.6-1.92,12.48-6,3.84-5,5.76-11,6.72-17.28v-.72c-.24-2.16-1.2-2.88-3.12-1.68l-1.44,1a56.36,56.36,0,0,0-15.12,19.93,13.47,13.47,0,0,0-1,2.88C643.24,227.64,643.72,228.36,644.92,228.36Z"/><path d="M516.52,291a27.8,27.8,0,0,0-2.64,7c0,.72-.24,1.44.48,1.68,1,.24,1-.72,1.2-1.2.48-2.4,1.2-4.56,1.68-7a.91.91,0,0,0-.24-.72C516.76,290.76,516.52,290.76,516.52,291Z"/><path d="M510.28,278.28a119.15,119.15,0,0,0-4.56,13l-.72,3.6a3.1,3.1,0,0,1,.24,1.2c.24.48.48,1,1,1s.72-.48.72-1c.24-1.2.24-2.64.48-4.08a62,62,0,0,1,3.84-13c.24-.72,1-1.2.24-1.92C511,277.56,510.52,277.8,510.28,278.28Z"/><path d="M712.43,336.15c-.48-.24-1,.24-1.2.73A16.44,16.44,0,0,1,710,341c-1.2,4.32-2.16,8.16-3.6,12,0,.48-.24,1.2.48,1.43.24,0,.72-.23.72-.47a66.65,66.65,0,0,0,5-16.56C713.15,336.88,713.15,336.39,712.43,336.15Z"/><path d="M751.31,337.59a1.73,1.73,0,0,0-1.44,1c-1.44,5-3.12,10.57-4.56,16.08,0,.25.24.49.24.73.24-.24.72-.24.72-.48,2.16-5.28,4.32-10.33,5.52-15.84C751.79,338.55,751.79,337.83,751.31,337.59Z"/><path d="M0,0V582H1280V0ZM675.4,244.2c.72-14.16,4.08-27.6,11.52-40.09a38.67,38.67,0,0,1,7.44-9.12c8.64-7.44,18.24-8.64,28.56-4.08a10.2,10.2,0,0,0,1.68,1,1.68,1.68,0,0,0,2.16-1h0a11.22,11.22,0,0,0,1.2-2.4c3.12-7.44,7-14.4,10.56-21.36a52.45,52.45,0,0,1,3.12-4.56c1.68-1.92,3.36-3.36,6.24-2.16,1.92.72,3.84-.72,5.76.24,2.4,1.2,1.2,3.84,2.64,5,2.16,1.44,1.44,2.88.72,4.8a83.53,83.53,0,0,1-4.08,9.6c-6.72,14.4-12.48,29-18.24,43.93-3.36,9.36-5.28,19.44-7.44,29.28,0,.72-.24,1.44-.24,2.16.24,1-.48,2.64,1,2.64,2.4.24.24,1.2.48,1.92a.68.68,0,0,0,.92.28.63.63,0,0,0,.28-.28c1.44-1.44,2.88-3.12,4.32-4.8,4.8-6,9.12-12.48,13.44-19,.48-1,1.2-1.68,1.68-2.64a2.27,2.27,0,0,1,2.88-.48c1.2.72,1.68,1.68,1.2,2.64a14.08,14.08,0,0,1-1.44,3.36c-5.28,8.16-10.8,15.84-16.56,23.76a6.39,6.39,0,0,1-1.2,1.44c-4.32,4.8-7.92,5.28-13.68,2.16a8.48,8.48,0,0,0-1.92-1.2c-3.84-1.44-5.76-4.32-7.2-7.92-.24-1.44-.24-3.6-1.68-4.08-1.92-.48-2.64,1.92-3.6,3.12l-3.36,4.32c-3.6,4.8-7.92,6-13.2,3.6-1.68-.72-3.36-1.68-5-2.4-5.52-2.16-8.16-6.48-8.88-12.24Zm-80.64-55.45c.24-.24,1-.72,1.2-.48.72.24.24,1,0,1.44-.72,2.16-2.64,4.08-2.4,6.72,1.2-1.92,2.4-3.84,3.84-5.76a8.48,8.48,0,0,1,1.2-1.92c1.68-2.16,4.32-1.92,5.52.48a8.62,8.62,0,0,1,1,2.64c.24,1.68,1,1.92,2.4,1.2,1-.48,1.44.48,1.44,1.2.24,1.44-.48,2.64-1,4.08l-4.32,11.05a56.79,56.79,0,0,0-1.68,6c-1,4.8,0,8.64,4.08,11.28a6.39,6.39,0,0,1,1.44,1.2c3.36,2.64,4.32,5,2.88,9.12-1,2.4-2.16,4.56-3.12,6.72-1.68,3.12-3.12,6-4.56,9.12a22.13,22.13,0,0,0-1,3.84c0,1,.48,1.68,1.44,1.2a25.06,25.06,0,0,0,2.64-1.68,24.32,24.32,0,0,0,5.52-6.72,133.35,133.35,0,0,0,10.08-18c.58-1.3,1.16-2,1.84-2.23A61.12,61.12,0,0,1,633.64,207,49.07,49.07,0,0,1,650,193.55c3.84-2.16,8.16-1.92,12.24-1.2,3.12.48,6.48,1,9.12,3.6,2.4,2.4,3.84,5.28,3.36,8.64a18.22,18.22,0,0,1-.48,3.6,57.05,57.05,0,0,1-6,15.37,18,18,0,0,1-8.88,7.44,29.25,29.25,0,0,1-12,2.64H644.2a3.27,3.27,0,0,0-3.83,2.61v0c-1.2,4.56-2.64,9.36-2.4,14.4a14.9,14.9,0,0,0,2.16,7.2c1.44,2.64,2.64,2.88,5.28,1.92a24.5,24.5,0,0,0,12.24-8.4l11-15.12a14.08,14.08,0,0,1,2.4-2.88,2.29,2.29,0,0,1,3.12-.72c1.2.48,1.2,1.44,1,2.64-.48,5-.48,5-2.4,7.92-2.64,3.84-5,7.68-7.92,11.28-6,7-13.2,11.28-22.56,11.76-5.76.48-13.68-2.64-17.76-10.56,0-1.44.24-3.12.24-4.56a45,45,0,0,1,1.2-13.92c1.2-5,2.64-9.84,3.84-14.64l.72-3.12c0-.25-.24-.48-.72-.48a9.92,9.92,0,0,0-1.2,2.16c-1.09,2.85-2.08,5.75-3,8.68,1,.8,1.34,2.06.57,3.8-1,2.1-2.06,4.21-3.13,6.31-.17.85-.33,1.71-.47,2.57a23.34,23.34,0,0,0,.48,10.8c-2-2.64-2.34-5.89-2.2-9.18a83.2,83.2,0,0,1-13.16,18.78c-2.16,2.16-4.56,3.84-7.92,3.84-5-.24-7.2-2.16-7.92-7a29.46,29.46,0,0,1,.72-13.68l.72-3.12c0-.24-.24-.48-.48-.72-.24.24-.72.24-.72.48A25,25,0,0,0,589,256v2.64a2.57,2.57,0,0,1-1.2-2.64,19.41,19.41,0,0,1,.24-7.44c1-4.56,3.12-8.88,4.8-13.2,3.12-8.16,2.64-6.48-3.12-11.76-1.2-1-2.16-1-3.12.48-1.44,1.92-2.64,4.08-4.08,6s-2.88,3.84-4.56,5.76a6.63,6.63,0,0,1-2.88,2.16c-1.44.72-3.12,1-4.08-.25-1.2-1.43.24-2.63,1.2-3.59,4.08-4.32,7.44-9.6,10.56-14.89a13.08,13.08,0,0,0,2.16-6.71c.48-8.65,4.32-16.09,9.12-23.29C594.28,189,594.52,188.75,594.76,188.75ZM669,296.07v1c-.24,1.68-5.52,8.16-7.2,8.64a2,2,0,0,1-2.71-.8,1.78,1.78,0,0,1-.17-.4c-.24-.48-.24-1-.48-1.2-.72-1.2-1.44-2.16-2.88-1a3,3,0,0,1-4.24.08l-.08-.08c-1.44-1.2-1.2-2.64-.48-4.08,1-2.88,1.92-5.52,3.84-7.68a3.94,3.94,0,0,1,5.29-1.44,18.34,18.34,0,0,0,3.35,1.2C667.55,290.55,669,292.23,669,296.07Zm-149.6,9.57c1.2,2.16.24,2.88-2.16,2.88-4.32,0-7.68-1.44-9.84-5.52a6.45,6.45,0,0,0-1.68-1.92c-2.88-2.16-3.36-5-2.64-8.16a65.84,65.84,0,0,1,2.64-9.84c4.8-12,10.8-23.52,16.8-35a27,27,0,0,0,1.92-3.6c.48-1.2-.24-1.92-1.44-1.68h-.48c-7,2.16-14.4,4.08-20.88,7.92l-2.88,2.4c-.72.72-1.44,2.64-2.88.48l-1,.72c-1.2,1.44-1.68.72-2.16-.48a11.29,11.29,0,0,1,3.6-13.68,28.7,28.7,0,0,1,7.44-4.32c7.92-3.36,16.08-5.52,24.48-7.92a22.13,22.13,0,0,1,3.84-1,6.75,6.75,0,0,0,4.32-3.36c9.6-16.33,21.36-31.21,32.4-46.57a60,60,0,0,0,7.2-11.28c1.44-3.36.72-4.8-2.88-5.28a53.19,53.19,0,0,0-15.12.24,129.32,129.32,0,0,0-41,12.48l-7,3.36a32.72,32.72,0,0,0-7.68,5,10.48,10.48,0,0,0-2.64,4.8c-.24,2.4-1.44,2.64-3.12,1-2.88-2.4-3.36-7.44-1.44-11a34.85,34.85,0,0,1,3.84-4.56,72.39,72.39,0,0,1,13.92-9.84c12-7,25.2-10.8,38.88-13a47.84,47.84,0,0,1,11-1c4.8,0,8.16,0,11.52,1a16.71,16.71,0,0,1,10.8,7.92,11.38,11.38,0,0,0,1.68,2.88c4.32,5,4.32,10.8,2.64,16.8a49,49,0,0,1-4.32,9.6,209.49,209.49,0,0,1-13,19.44,57.93,57.93,0,0,1-4.56,6.24c-3.36,5-3.36,5,.72,9.61a2.1,2.1,0,0,1,1.2,2.16c-.72,1.44-3.12,2.64-.24,4.32.48.24,0,1.2-.48,1.68a11.4,11.4,0,0,1-4.56,2.88,84.77,84.77,0,0,1-8.88,2.4,9.07,9.07,0,0,0-6.24,4.08c-9.84,16.32-19.2,32.64-26.64,50.16-1.2,3.12-2.16,6.24-3.36,9.36A9.37,9.37,0,0,0,519.4,305.64ZM620,453.52c-1.2,0-1.2.48-.48,1.68.48.72-.24,1.44-1,1.68C614,459,608,458.32,604.44,455.2a33.8,33.8,0,0,1-6.48-7.92,143.47,143.47,0,0,1-11.76-23.52c-5.76-13.68-10.56-27.6-13.2-42l-1.44-10.32c0-.48-.24-1-.72-1a1.31,1.31,0,0,0-1.2.72,59,59,0,0,0-2.16,7c-3.12,12.24-6.48,24.48-8.4,37a1.42,1.42,0,0,1-.24,1c-.24,1-.48,2.16-1.92,1.92-1.2,0-1.68-1.2-1.68-2.16a52,52,0,0,1,.24-8.64c1.44-7,2.64-13.92,3.84-20.88,0-.48-.24-.72-.24-1.2-.24.24-.72.72-.72,1-1.92,7.2-3.36,14.4-4.56,21.6-.48,2.16-.72,4.56-1.2,6.72a2.33,2.33,0,0,1-1.68,1.92,2.43,2.43,0,0,1-2.64-1.44,12.66,12.66,0,0,1-1-8.88c.72-5,1.68-10.32,2.64-15.36,6.24-31.44,14.4-62.41,26.16-92.41.48-1.2,1.44-2.4.72-3.84-1.92.24-1.92,2.16-2.4,3.36A581.17,581.17,0,0,0,547,393.64a7.08,7.08,0,0,1-.48,2.4,1.81,1.81,0,0,1-.48,1v-2.16c5.28-31.68,12.72-62.65,25.2-92.17l2.16-6c.48-1.2-.48-1.92-1.68-1.44a3.37,3.37,0,0,0-1.44.48c-8.88,4.32-17.28,9.12-24.24,16.08-.24.48-.72.72-1,1-.24-.48,0-.72.24-1.2.48-1.2,1.92-1.92,1.68-3.36-1.68-.24-2.4,1.44-3.36,2.4-2.16,1.44-1.92,4.08-2.64,6-.72,1.68-1.2,1.92-2.4.72-3.12-2.64-3.6-5.52-1.92-9.36a30.14,30.14,0,0,1,3.12-4.56Q543,300.23,547,297a170.71,170.71,0,0,1,27.6-17,8.65,8.65,0,0,0,2.16-1c4.56-1.68,7.68-.48,10.08,4.08.24.72.48,1.44,1.2,1.68,4.32,1.2,4.56,4.8,4.8,8.16s-1,6.72-2.16,9.84c-2.88,8.88-6,17.76-9.12,26.88A54.16,54.16,0,0,0,580,335.2c0,.23.24.47.24.71a1.42,1.42,0,0,0,1-.24l3.12-3.12c7.68-9.12,15.36-17.76,24.24-25.68A129.77,129.77,0,0,1,630.36,291a31.5,31.5,0,0,1,13.44-4c4.56-.24,7.2,3.12,6.48,7.92a2.55,2.55,0,0,1-2.16,2.4c-11,3.6-20.4,10.08-29.28,17.52a264.24,264.24,0,0,0-25.92,25.92,14.35,14.35,0,0,0-3.36,7.21c-1.44,7.44-1.2,14.63-.72,22.08a162.54,162.54,0,0,0,6.24,30c0,.72.48,1.44.48,2.16a.91.91,0,0,1-.24.72c0-.24-.48-.48-.48-.72-1.2-3.84-2.4-7.68-3.36-11.52-2.4-9.6-4.56-19.2-4.32-28.56v-7.92c0-.48-.24-1.2-.48-1.2-.72-.25-1,.48-1.2,1a10.12,10.12,0,0,0-.72,4.55,76.18,76.18,0,0,0,2.4,23.29,212.4,212.4,0,0,0,18,50.64,75.27,75.27,0,0,0,5.28,9.6c2.4,3.84,5.28,7.2,9.84,8.64.72.24,1.44.48,1.44,1.44S621,453.28,620,453.52Zm7.91-64.8c0,.24-.24.48-.48,1V385.6a58.92,58.92,0,0,1,1.2-7.92,263.79,263.79,0,0,1,12.48-42c1.2-2.88,1.68-6.24,4.56-8.4.24,3.36-1.44,6.24-2.4,9.12-5.27,14.15-9.27,28.8-13.4,43.2-.72,2.88-1.2,6-1.87,9.12Zm150-20.4A152.92,152.92,0,0,1,751.79,399a26.48,26.48,0,0,1-4.32,3.36c-3.12,2.4-5,2.4-8.16.48-2.64-1.44-4.08-3.84-4.8-7.2a31.79,31.79,0,0,1,1.2-9.6c1-4.08,2.64-8.4,3.6-12.48,0-.48.72-1.2-.24-1.68,0,0-.72.72-.72,1.2-2.64,7-6.24,13.68-5.76,21.84,0,.48,0,.72-.48.48-.24,0-.72-.24-.72-.48a16.77,16.77,0,0,1-.72-8.4,141.33,141.33,0,0,1,6.24-21.12c2.64-6.48,5-13,7.44-19.44.72-1.93,1.92-3.85,1.2-6-2.88-.71-4.08,1.93-5.76,3.13-8.88,7-15.84,15.84-21.6,25.67-3.84,6.73-6,13.93-8.16,21.13-1,3.12-1.92,6.48-3.12,9.36-1,1.44-1.68,1.92-2.4,0-.72-1.68-1.68-1.44-2.88,0-1.92,2.4-3.12,2.4-5,0a8.13,8.13,0,0,1-1.2-4.56,18,18,0,0,1,1.2-6.24c1.68-6.24,2.88-12.24,5.28-18.24,0-.48.24-1-.24-1.45-.24,0-.72.73-1,1.21A149.2,149.2,0,0,0,694,389.92c-.48,1.92-.24,3.84-1.92,5-1.92-1.68-1.2-3.6-1-5.52,1.44-8.4,4.08-16.08,7-24,2.16-6,4.32-12,6.72-17.77l.72-2.63c0-.49.24-1.45-.48-1.68a1.31,1.31,0,0,0-1.2.71c-2.88,3.6-6,7-8.88,10.81a327.72,327.72,0,0,0-17.76,29.28c-1.92,3.12-2.64,7.2-3.84,10.8-.48,1.68-1.44,3.6-2.16,5.52-.48.72-1,1.68-2.4,1-1-.48-1.68-.24-2.64.48-3.12,2.16-5.52,1-6.24-2.64a12.32,12.32,0,0,1,.48-6.48c.72-3.36,1.44-7,2.4-10.32,3.84-12.24,7.44-24.24,11-36.25a13.6,13.6,0,0,0,1-3.35c.24-.25,0-.49-.24-.73-.24.24-.48.24-.48.48a66.38,66.38,0,0,0-3.12,7.68q-2.69,8.07-5.18,16.21a2.4,2.4,0,0,1-.34,2l-.59,1.06q-4,13.23-7.33,26.54c-.24.48,0,1.2-1,1.2-.24,0-.48-1-.48-1.2a18.43,18.43,0,0,1,.24-8.16c.54-2.19,1.09-4.37,1.64-6.56a88.86,88.86,0,0,1-6.68,9.44,21.64,21.64,0,0,0-2.16,2.88c-1.44,1.92-2.64,3.84-5,4.56-3.36.72-6.72,1.2-9.84,0a4.66,4.66,0,0,1-3.36-3.6,21.78,21.78,0,0,1-.48-3.6,78.42,78.42,0,0,1,2.16-13.44,379.09,379.09,0,0,1,15.12-48.49,30.06,30.06,0,0,1,1.68-4.31c1-1.69,2.16-2.17,3.6-1.69a3,3,0,0,1,2.16,3.6q-.79,3.4-1.92,6.72c0,.24-.24,1,.48,1,.24,0,.48-.24.72-.48.72-2.16,1.68-4.08,2.4-6,.48-.72.72-1.44,1.68-1.44,1,.24,1.2,1.2,1.45,2.16a14.07,14.07,0,0,1-1,5.52l-5,16.56-10.8,34.57a28,28,0,0,0-1,4.8,1.83,1.83,0,0,0,.48,1.2,1.06,1.06,0,0,0,1.2-.24,27.41,27.41,0,0,0,2.64-2.64,72.16,72.16,0,0,0,9.12-13.2c1.44-2.4,2.88-4.8,4.08-7.2a8.12,8.12,0,0,1,2.41-2.64l.14-.06a267.74,267.74,0,0,1,10.89-31.63,28.43,28.43,0,0,1,2.88-5.28c.72-1.43,1.68-2.16,3.36-1a1.44,1.44,0,0,0,1.68,0c3.6-2.16,5-1.68,7,1.92.48.48.48,1.2,1.68,1.45q3.6.71,2.88,4.32c-.48,2.16-1.44,4.31-2.16,6.72a62.87,62.87,0,0,1-2.88,8.87.88.88,0,0,0,.37,1.2l.1.05c.48,0,.72,0,1-.25,1-1,1.68-2.15,2.64-3.12,6-6.71,11-14.4,17.76-20.64,1.92-1.44,3.84-2.88,6.24-2.16a6.07,6.07,0,0,1,5,6.48c-.24,3.84-.72,7.68-1,11.52V345c.72.24,1-.25,1-1a44.32,44.32,0,0,0,2.59-10c0-.24.24-.48.48-.71.48,0,.72.47,1,.71a10.12,10.12,0,0,1,.48,7c-.24,1.92-1.2,4.08,0,6,2.16-.49,3.12-2.17,4.56-3.84,5.76-5.53,12-10.33,18.24-15.37,4.08-3.6,10.08-1,11,4.56.72,2.4-.48,4.81-.24,7.2,0,1.93-.24,3.37-.24,5.28a2.65,2.65,0,0,0,.24,1.21c.24-.25,1-.48,1-1a29.3,29.3,0,0,0,1.68-9.13c0-.48,0-1.44.72-1.2.24,0,1,.72,1.2,1a15.85,15.85,0,0,1,.72,6,36.69,36.69,0,0,1-2.4,11.29c-2.88,10.56-7,20.64-10.8,30.48A26.34,26.34,0,0,0,748,391.4c0,.48,0,.72.24,1a.79.79,0,0,0,1.11.09l.09-.09c2.88-2.64,5.76-5.28,8.4-7.92,4.08-4.56,7.68-9.84,11.52-14.64a31.15,31.15,0,0,1,3.36-4.56,3.21,3.21,0,0,1,3.6-1c2.6.43,3.32,2.12,1.69,4Z"/><path d="M583.32,395.68A137.73,137.73,0,0,1,579,362.79c0-1-.24-1.67-.24-2.63l-.72-.48c-.48,0-1,.24-1,.72a16.46,16.46,0,0,0-.48,3.12c-.24,5.76.72,11.27,1.68,16.8,1.2,6,2.88,12,4.56,17.76.24.24.48,1,.72,1,.48-.24.24-.72.24-1A10.36,10.36,0,0,1,583.32,395.68Z"/><path d="M696.52,254.52,709,241.08a5.62,5.62,0,0,1,.72-1.2,24.34,24.34,0,0,0,3.6-9.84c1.44-8.16,4.32-15.85,7.44-23.53,1.2-3.12.72-5.28-1.2-7.44-1.2-1.44-2.16-1.68-3.6-.72a21.93,21.93,0,0,0-6,5.52c-6.24,7.44-9.84,15.85-12.72,24.73a85,85,0,0,0-4.08,20.64,23.23,23.23,0,0,0,.24,4.08C693.64,255.72,694.84,256.2,696.52,254.52Z"/><path d="M717.64,243c-.72-.24-1,.48-1.2,1A30.64,30.64,0,0,0,715,254.28c.24,1,.24,1.92.48,2.64.24,1,.24,2.16,1.2,2.16,1.2,0,1-1.44,1-2.16a78.4,78.4,0,0,1,.24-13A1.45,1.45,0,0,0,717.64,243Z"/><path d="M690,254.28c.24-.48.72-1,.72-1.2A43.6,43.6,0,0,1,691,239.4c.24-1.44.24-2.88.48-4.32,0-.48,0-1-.48-1a.52.52,0,0,0-.48.48c-1.68,4.32-2.16,8.64-2.64,13a22.3,22.3,0,0,0,1.2,5.76C689.32,253.8,689.8,253.8,690,254.28Z"/><path d="M724.84,260c1,.24.72-.72,1-1.2v-1.92c-.48-5.76.48-11.52,1.68-17,1-3.36,1.44-6.48,2.16-9.84v-1.2c-1-.24-1,.48-1.2,1L727,234.12c-1.2,5.52-2.4,10.8-3.36,16.08a11.33,11.33,0,0,0-.48,3.84,12.82,12.82,0,0,0,.72,5.28C724.12,259.56,724.36,260,724.84,260Z"/><path d="M681.88,253.08c.48.24.72-.48.72-.72V250a69.52,69.52,0,0,1,1-17.28c.72-2.88,1.44-6,1.92-8.88.24-.48.48-1.45,0-1.68-.72-.24-1,.71-1,1.2A73.83,73.83,0,0,0,680,245.88a17.45,17.45,0,0,0,1,6.48C681.16,252.84,681.4,253.08,681.88,253.08Z"/><path d="M662.18,365.38c-1.51,5.32-2.92,10.68-4.27,16.06,2.41-3.85,4.66-7.86,6.89-11.82l.93-3.1a2.22,2.22,0,0,0-.34-.6A2.84,2.84,0,0,0,662.18,365.38Z"/></g></g></g></g></svg>