<svg id="Layer_1" data-name="Layer 1" xmlns="http://www.w3.org/2000/svg" viewBox="0 0 245.44 259.75"><defs><style>.cls-1{fill:ivory;}</style></defs><title>fred-logo</title><path class="cls-1" d="M613.8-215a5.39,5.39,0,0,0-1.4-1.6c-2.4-1.8-2.8-4.2-2.2-6.8a54.91,54.91,0,0,1,2.2-8.2c4-10,9-19.6,14-29.2a21.86,21.86,0,0,0,1.6-3c.4-1-.2-1.6-1.2-1.4h-.4c-5.8,1.8-12,3.4-17.4,6.6l-2.4,2c-.6.6-1.2,2.2-2.4.4l-.8.6c-1,1.2-1.4.6-1.8-.4a9.41,9.41,0,0,1,3-11.4,23.94,23.94,0,0,1,6.2-3.6c6.6-2.8,13.4-4.6,20.4-6.6a18.73,18.73,0,0,1,3.2-.8,5.65,5.65,0,0,0,3.6-2.8c8-13.6,17.8-26,27-38.8a50.18,50.18,0,0,0,6-9.4c1.2-2.8.6-4-2.4-4.4a44.34,44.34,0,0,0-12.6.2,107.64,107.64,0,0,0-34.2,10.4l-5.8,2.8a27.22,27.22,0,0,0-6.4,4.2,8.67,8.67,0,0,0-2.2,4c-.2,2-1.2,2.2-2.6.8-2.4-2-2.8-6.2-1.2-9.2a29.24,29.24,0,0,1,3.2-3.8,60.53,60.53,0,0,1,11.6-8.2c10-5.8,21-9,32.4-10.8a39.85,39.85,0,0,1,9.2-.8c4,0,6.8,0,9.6.8a13.9,13.9,0,0,1,9,6.6,9.46,9.46,0,0,0,1.4,2.4c3.6,4.2,3.6,9,2.2,14a40.89,40.89,0,0,1-3.6,8,175.37,175.37,0,0,1-10.8,16.2A49.52,49.52,0,0,1,664-291c-2.8,4.2-2.8,4.2.6,8a1.75,1.75,0,0,1,1,1.8c-.6,1.2-2.6,2.2-.2,3.6.4.2,0,1-.4,1.4a9.48,9.48,0,0,1-3.8,2.4c-2.4.8-4.8,1.4-7.4,2a7.57,7.57,0,0,0-5.2,3.4c-8.2,13.6-16,27.2-22.2,41.8-1,2.6-1.8,5.2-2.8,7.8a7.81,7.81,0,0,0,.2,6c1,1.8.2,2.4-1.8,2.4C618.4-210.38,615.6-211.58,613.8-215Zm-.4-5.8c.2-1,.2-2.2.4-3.4A51.49,51.49,0,0,1,617-235c.2-.6.8-1,.2-1.6-.4.4-.8.6-1,1a98.56,98.56,0,0,0-3.8,10.8l-.6,3a2.68,2.68,0,0,1,.2,1c.2.4.4.8.8.8S613.4-220.38,613.4-220.78Zm7.2,2c.4-2,1-3.8,1.4-5.8a.73.73,0,0,0-.2-.6c-.2,0-.4,0-.4.2a23,23,0,0,0-2.2,5.8c0,.6-.2,1.2.4,1.4C620.4-217.58,620.4-218.38,620.6-218.78Z" transform="translate(-600.77 344.23)"/><path class="cls-1" d="M684.2-251a24.5,24.5,0,0,1,.6-11.4l.6-2.6c0-.2-.2-.4-.4-.6-.2.2-.6.2-.6.4a20.82,20.82,0,0,0-2.6,11v2.2a2.14,2.14,0,0,1-1-2.2,16.19,16.19,0,0,1,.2-6.2c.8-3.8,2.6-7.4,4-11,2.6-6.8,2.2-5.4-2.6-9.8-1-.8-1.8-.8-2.6.4-1.2,1.6-2.2,3.4-3.4,5s-2.4,3.2-3.8,4.8a5.46,5.46,0,0,1-2.4,1.8c-1.2.6-2.6.8-3.4-.2-1-1.2.2-2.2,1-3a69.3,69.3,0,0,0,8.8-12.4,10.93,10.93,0,0,0,1.8-5.6c.4-7.2,3.6-13.4,7.6-19.4.2-.2.4-.4.6-.4.2-.2.8-.6,1-.4.6.2.2.8,0,1.2-.6,1.8-2.2,3.4-2,5.6,1-1.6,2-3.2,3.2-4.8a7,7,0,0,1,1-1.6,2.58,2.58,0,0,1,4.6.4,7.16,7.16,0,0,1,.8,2.2c.2,1.4.8,1.6,2,1,.8-.4,1.2.4,1.2,1,.2,1.2-.4,2.2-.8,3.4L694-293a46.69,46.69,0,0,0-1.4,5c-.8,4,0,7.2,3.4,9.4a5.3,5.3,0,0,1,1.2,1c2.8,2.2,3.6,4.2,2.4,7.6-.8,2-1.8,3.8-2.6,5.6-1.4,2.6-2.6,5-3.8,7.6a18.73,18.73,0,0,0-.8,3.2c0,.8.4,1.4,1.2,1a21.08,21.08,0,0,0,2.2-1.4,20.23,20.23,0,0,0,4.6-5.6,110.44,110.44,0,0,0,8.4-15c.8-1.8,1.6-2.2,2.8-1.8,1.4.6,2,1.8,1.2,3.6-4.2,8.6-8.6,17.4-15.4,24.4-1.8,1.8-3.8,3.2-6.6,3.2C686.6-245.38,684.8-247,684.2-251Zm5.2-35.4,1.2-5.6c.2-1,.6-2,.8-2.8,0-.4-.2-.8-.4-.6a.43.43,0,0,0-.4.4,31.61,31.61,0,0,0-2.6,6.8,4.3,4.3,0,0,0,0,1.6c0,.2.4.6.8.8S689.4-286,689.4-286.38Zm1,34.4,1.2-6.4c0-.2-.2-.4-.4-.6-.2,0-.4.2-.6.2a17.69,17.69,0,0,0-2,6v.6c0,.4.2,1,.8,1C690-251,690.2-251.58,690.4-252Z" transform="translate(-600.77 344.23)"/><path class="cls-1" d="M711.39-254.38c0-1.2.21-2.6.21-3.8a37.18,37.18,0,0,1,1-11.6c1-4.2,2.19-8.2,3.19-12.2l.6-2.6c0-.2-.19-.4-.6-.4a8.53,8.53,0,0,0-1,1.8,95.2,95.2,0,0,0-5,17.8,19.48,19.48,0,0,0,.41,9c-1.81-2.4-2-5.4-1.81-8.4,1-10.8,3.81-21.2,10.61-30.2a40.85,40.85,0,0,1,13.59-11.2c3.2-1.8,6.8-1.6,10.2-1,2.6.4,5.41.8,7.6,3,2,2,3.2,4.4,2.8,7.2a15.44,15.44,0,0,1-.4,3,47.36,47.36,0,0,1-5,12.8,15,15,0,0,1-7.4,6.2,24.28,24.28,0,0,1-10,2.2h-2.6a2.72,2.72,0,0,0-3.19,2.2c-1,3.8-2.21,7.8-2,12a12.38,12.38,0,0,0,1.79,6c1.2,2.2,2.2,2.4,4.4,1.6a20.45,20.45,0,0,0,10.2-7l9.21-12.6a11,11,0,0,1,2-2.4,1.89,1.89,0,0,1,2.59-.6c1,.4,1,1.2.8,2.2-.4,4.2-.4,4.2-2,6.6-2.2,3.2-4.2,6.4-6.6,9.4-5,5.8-11,9.4-18.79,9.8A15.81,15.81,0,0,1,711.39-254.38ZM718-258c-.21-6.4,1.39-12.8,3.2-19l.59-2.6c0-.2.21-.8-.4-.8-.19,0-.39.4-.39.6a76.13,76.13,0,0,0-4.8,17.8,8.91,8.91,0,0,0,.59,4.2.91.91,0,0,0,.81.6C718-257,718.2-257.58,718-258Zm20.79-24.2a31.1,31.1,0,0,0,5.6-14.4v-.6c-.19-1.8-1-2.4-2.6-1.4l-1.2.8A47.06,47.06,0,0,0,728-281.18a10.26,10.26,0,0,0-.8,2.4c-.2,1,.19,1.6,1.19,1.6C732.39-277.78,736.39-278.78,738.79-282.18Z" transform="translate(-600.77 344.23)"/><path class="cls-1" d="M789.59-246.38c-3.2-1.2-4.8-3.6-6-6.6-.2-1.2-.2-3-1.4-3.4-1.6-.4-2.2,1.6-3,2.6l-2.8,3.6c-3,4-6.6,5-11,3-1.4-.6-2.8-1.4-4.19-2-4.61-1.8-6.81-5.4-7.41-10.2V-264c.6-11.8,3.41-23,9.6-33.4a32.53,32.53,0,0,1,6.2-7.6c7.2-6.2,15.2-7.2,23.8-3.4a8.7,8.7,0,0,0,1.4.8,1.4,1.4,0,0,0,1.8-.8,9.34,9.34,0,0,0,1-2c2.6-6.2,5.8-12,8.8-17.8A42.83,42.83,0,0,1,809-332c1.4-1.6,2.8-2.8,5.2-1.8,1.6.6,3.2-.6,4.8.2,2,1,1,3.2,2.2,4.2,1.8,1.2,1.2,2.4.6,4a68.47,68.47,0,0,1-3.4,8c-5.6,12-10.4,24.2-15.2,36.6-2.8,7.8-4.4,16.2-6.2,24.4,0,.6-.2,1.2-.2,1.8.2.8-.4,2.2.8,2.2,2,.2.2,1,.4,1.6a.57.57,0,0,0,1,0c1.2-1.2,2.4-2.6,3.6-4,4-5,7.6-10.4,11.2-15.8.4-.8,1-1.4,1.4-2.2a1.88,1.88,0,0,1,2.4-.4c1,.6,1.4,1.4,1,2.2a11.82,11.82,0,0,1-1.2,2.8c-4.4,6.8-9,13.2-13.8,19.8a5.3,5.3,0,0,1-1,1.2c-3.6,4-6.6,4.4-11.4,1.8A7,7,0,0,0,789.59-246.38Zm-29.8-10.8v-2a58.09,58.09,0,0,1,.8-14.4c.61-2.4,1.2-5,1.61-7.4.19-.4.39-1.2,0-1.4-.61-.2-.81.6-.81,1a61.56,61.56,0,0,0-3.8,18.8,14.64,14.64,0,0,0,.8,5.4c.2.4.4.6.81.6C759.59-256.38,759.79-257,759.79-257.18Zm6.8.6a36.64,36.64,0,0,1,.2-11.4c.2-1.2.2-2.4.41-3.6,0-.4,0-.8-.41-.8a.43.43,0,0,0-.4.4,41.07,41.07,0,0,0-2.19,10.8,17.81,17.81,0,0,0,1,4.8c.19.4.59.4.79.8C766.2-256,766.59-256.38,766.59-256.58Zm15.2-10a4.37,4.37,0,0,1,.6-1,20.34,20.34,0,0,0,3-8.2c1.2-6.8,3.6-13.2,6.2-19.6,1-2.6.6-4.4-1-6.2-1-1.2-1.8-1.4-3-.6a18.31,18.31,0,0,0-5,4.6c-5.2,6.2-8.2,13.2-10.6,20.6a71.37,71.37,0,0,0-3.4,17.2,19.4,19.4,0,0,0,.2,3.4c.2,2,1.2,2.4,2.6,1Zm7.2,13.2a65.33,65.33,0,0,1,.2-10.8,1.2,1.2,0,0,0-.2-.8c-.6-.2-.8.4-1,.8a25.56,25.56,0,0,0-1.2,8.6c.2.8.2,1.6.4,2.2.2.8.2,1.8,1,1.8C789.19-251.58,789-252.78,789-253.38Zm6.8,1.6v-1.6a48.3,48.3,0,0,1,1.4-14.2c.8-2.8,1.2-5.4,1.8-8.2v-1c-.8-.2-.8.4-1,.8l-1.2,3.6c-1,4.6-2,9-2.8,13.4a9.36,9.36,0,0,0-.4,3.2,10.69,10.69,0,0,0,.6,4.4c.2.2.4.6.8.6C795.79-250.58,795.59-251.38,795.79-251.78Z" transform="translate(-600.77 344.23)"/><path class="cls-1" d="M700.87-86.92a28.87,28.87,0,0,1-5.4-6.6,119.56,119.56,0,0,1-9.8-19.6c-4.8-11.4-8.8-23-11-35l-1.2-8.59c0-.4-.2-.8-.6-.8a1.11,1.11,0,0,0-1,.59,49.91,49.91,0,0,0-1.8,5.81c-2.6,10.19-5.4,20.39-7,30.79a1.2,1.2,0,0,1-.2.8c-.2.8-.4,1.8-1.6,1.6-1,0-1.4-1-1.4-1.8a43.32,43.32,0,0,1,.2-7.2c1.2-5.8,2.2-11.6,3.2-17.39,0-.4-.2-.61-.2-1-.2.19-.6.6-.6.79-1.6,6-2.8,12-3.8,18-.4,1.8-.6,3.8-1,5.6a1.94,1.94,0,0,1-1.4,1.6,2,2,0,0,1-2.2-1.2,10.54,10.54,0,0,1-.8-7.4c.6-4.2,1.4-8.6,2.2-12.8,5.2-26.19,12-52,21.8-77,.4-1,1.2-2,.6-3.2-1.6.2-1.6,1.8-2,2.8a484,484,0,0,0-22.8,79.8,5.91,5.91,0,0,1-.4,2,1.52,1.52,0,0,1-.4.8v-1.8c4.4-26.39,10.6-52.19,21-76.79l1.8-5c.4-1-.4-1.6-1.4-1.2a2.84,2.84,0,0,0-1.2.4c-7.4,3.6-14.4,7.6-20.2,13.4-.2.4-.6.6-.8.8-.2-.4,0-.6.2-1,.4-1,1.6-1.6,1.4-2.8-1.4-.2-2,1.2-2.8,2-1.8,1.2-1.6,3.4-2.2,5-.6,1.4-1,1.6-2,.6-2.6-2.2-3-4.6-1.6-7.8a25.47,25.47,0,0,1,2.6-3.8q2.7-2.7,6-5.4a142.2,142.2,0,0,1,23-14.2,7.1,7.1,0,0,0,1.8-.8c3.8-1.4,6.4-.4,8.4,3.4.2.6.4,1.2,1,1.4,3.6,1,3.8,4,4,6.8s-.8,5.6-1.8,8.2c-2.4,7.4-5,14.8-7.6,22.4a43.44,43.44,0,0,0-1.4,4.8c0,.2.2.4.2.6a1.2,1.2,0,0,0,.8-.2l2.6-2.6a204.47,204.47,0,0,1,20.2-21.4,108.73,108.73,0,0,1,18.19-13.2,26.3,26.3,0,0,1,11.21-3.4c3.79-.2,6,2.6,5.39,6.6a2.12,2.12,0,0,1-1.79,2c-9.2,3-17,8.4-24.4,14.6a220.2,220.2,0,0,0-21.6,21.6,11.86,11.86,0,0,0-2.8,6c-1.2,6.2-1,12.2-.6,18.39a135.53,135.53,0,0,0,5.2,25c0,.6.4,1.2.4,1.8a.73.73,0,0,1-.2.6c0-.2-.4-.4-.4-.6-1-3.2-2-6.4-2.8-9.6-2-8-3.8-16-3.6-23.79v-6.6c0-.4-.2-1-.4-1-.6-.2-.8.4-1,.8a8.43,8.43,0,0,0-.6,3.8,63.42,63.42,0,0,0,2,19.39,176.94,176.94,0,0,0,15,42.2,62.26,62.26,0,0,0,4.4,8c2,3.2,4.4,6,8.2,7.2.6.2,1.2.4,1.2,1.2s-.6,1-1.4,1.2c-1,0-1,.4-.41,1.4.41.6-.19,1.2-.79,1.4A11.38,11.38,0,0,1,700.87-86.92Zm-17.2-47.6a8.8,8.8,0,0,1-.4-2,114.39,114.39,0,0,1-3.6-27.39c0-.8-.2-1.4-.2-2.2l-.6-.4c-.4,0-.8.2-.8.6a13.76,13.76,0,0,0-.4,2.6,65.27,65.27,0,0,0,1.4,14c1,5,2.4,10,3.8,14.79.2.2.4.8.6.8C683.87-133.92,683.67-134.32,683.67-134.52Z" transform="translate(-600.77 344.23)"/><path class="cls-1" d="M720.06-144.92a48.63,48.63,0,0,1,1-6.6,219.36,219.36,0,0,1,10.4-35c1-2.4,1.4-5.2,3.8-7,.2,2.8-1.2,5.2-2,7.6-4.4,11.8-7.8,24-11.2,36-.6,2.4-1,5-1.6,7.61,0,.19-.2.39-.4.79Zm2.8,7.6a17.64,17.64,0,0,1-.4-3,65.61,65.61,0,0,1,1.8-11.21,315.4,315.4,0,0,1,12.6-40.39,26.71,26.71,0,0,1,1.4-3.6c.8-1.4,1.8-1.8,3-1.4a2.52,2.52,0,0,1,1.8,3c-.4,1.8-1,3.8-1.6,5.6,0,.2-.2.8.4.8.2,0,.4-.2.6-.4.6-1.8,1.4-3.4,2-5,.4-.6.6-1.2,1.4-1.2.8.2,1,1,1.2,1.8a11.73,11.73,0,0,1-.8,4.6l-4.2,13.8-9,28.79a23.59,23.59,0,0,0-.8,4,1.51,1.51,0,0,0,.4,1,.89.89,0,0,0,1-.19,24.06,24.06,0,0,0,2.2-2.21,59.82,59.82,0,0,0,7.6-11c1.2-2,2.4-4,3.4-6a6.92,6.92,0,0,1,2-2.2,2.42,2.42,0,0,1,2.8.4c.6.8.4,1.39,0,2.2-3.6,6.4-7.2,13-11.8,18.59a18.76,18.76,0,0,0-1.8,2.4c-1.2,1.6-2.2,3.2-4.2,3.8-2.8.6-5.6,1-8.2,0A3.89,3.89,0,0,1,722.86-137.32Zm23.4-75.19c-.2-.4-.2-.8-.4-1-.6-1-1.2-1.8-2.4-.8a2.53,2.53,0,0,1-3.6,0c-1.2-1-1-2.2-.4-3.4a17.52,17.52,0,0,1,3.2-6.4,3.27,3.27,0,0,1,4.4-1.2,15.68,15.68,0,0,0,2.8,1c3.6.2,4.8,1.6,4.8,4.8v.8c-.2,1.4-4.6,6.8-6,7.2A1.64,1.64,0,0,1,746.26-212.51Z" transform="translate(-600.77 344.23)"/><path class="cls-1" d="M809.26-136.52a26.66,26.66,0,0,1,1-8c.8-3.4,2.2-7,3-10.4,0-.39.6-1-.2-1.39,0,0-.6.6-.6,1-2.2,5.79-5.2,11.39-4.8,18.19,0,.4,0,.6-.4.4-.2,0-.6-.2-.6-.4a14,14,0,0,1-.6-7,117.11,117.11,0,0,1,5.2-17.59c2.2-5.4,4.2-10.8,6.2-16.2.6-1.6,1.6-3.2,1-5-2.4-.6-3.4,1.6-4.8,2.6-7.4,5.8-13.2,13.2-18,21.39-3.2,5.61-5,11.61-6.8,17.61-.8,2.59-1.6,5.39-2.6,7.79-.8,1.2-1.4,1.6-2,0-.6-1.4-1.4-1.2-2.4,0-1.6,2-2.6,2-4.2,0a6.79,6.79,0,0,1-1-3.8,15,15,0,0,1,1-5.2c1.4-5.19,2.4-10.19,4.4-15.19,0-.4.2-.8-.2-1.21-.2,0-.6.61-.8,1a124.27,124.27,0,0,0-5.6,16.61c-.4,1.59-.2,3.19-1.6,4.19-1.6-1.4-1-3-.8-4.6a114.75,114.75,0,0,1,5.8-20c1.8-5,3.6-10,5.6-14.8l.6-2.2c0-.4.2-1.2-.4-1.4a1.1,1.1,0,0,0-1,.6c-2.4,3-5,5.8-7.4,9a272.8,272.8,0,0,0-14.8,24.39c-1.6,2.6-2.2,6-3.2,9-.4,1.4-1.2,3-1.8,4.6-.4.6-.8,1.4-2,.8a1.87,1.87,0,0,0-2.2.4c-2.6,1.8-4.6.8-5.2-2.2a10.24,10.24,0,0,1,.4-5.4c.6-2.8,1.2-5.79,2-8.6,3.2-10.19,6.2-20.19,9.2-30.19a11.46,11.46,0,0,0,.8-2.8c.2-.2,0-.4-.2-.6-.2.2-.4.2-.4.4a53.85,53.85,0,0,0-2.6,6.4c-4.2,12.6-8,25.39-11.2,38.19-.2.4,0,1-.8,1-.2,0-.4-.8-.4-1a15.42,15.42,0,0,1,.2-6.8c3.8-15.39,7.8-30.59,14-45.19a23.89,23.89,0,0,1,2.4-4.4c.6-1.2,1.4-1.8,2.8-.8a1.19,1.19,0,0,0,1.4,0c3-1.8,4.2-1.4,5.8,1.6.4.4.4,1,1.4,1.2q3,.6,2.4,3.6c-.4,1.8-1.2,3.6-1.8,5.6a53.08,53.08,0,0,1-2.4,7.4.73.73,0,0,0,.4,1c.4,0,.6,0,.8-.2.8-.8,1.4-1.8,2.2-2.6,5-5.6,9.2-12,14.8-17.2,1.6-1.2,3.2-2.4,5.2-1.8a5,5,0,0,1,4.2,5.4c-.2,3.2-.6,6.4-.8,9.6v1c.6.2.8-.2.8-.8a37,37,0,0,0,2.2-8.4c0-.2.2-.4.4-.6.4,0,.6.4.8.6a8.4,8.4,0,0,1,.4,5.8c-.2,1.6-1,3.4,0,5,1.8-.4,2.6-1.8,3.8-3.2,4.8-4.6,10-8.6,15.2-12.8,3.4-3,8.4-.8,9.2,3.8.6,2-.4,4-.2,6,0,1.6-.2,2.8-.2,4.4a2.17,2.17,0,0,0,.2,1c.2-.2.8-.4.8-.8a24.34,24.34,0,0,0,1.4-7.6c0-.4,0-1.2.6-1,.2,0,.8.6,1,.8a13.23,13.23,0,0,1,.6,5,30.38,30.38,0,0,1-2,9.4c-2.4,8.8-5.8,17.19-9,25.4a21.93,21.93,0,0,0-2.4,6.59c0,.4,0,.6.2.81a.67.67,0,0,0,1,0c2.4-2.21,4.8-4.4,7-6.61,3.4-3.79,6.4-8.19,9.6-12.19a27.28,27.28,0,0,1,2.8-3.81,2.7,2.7,0,0,1,3-.79c2.2.4,2.8,1.79,1.4,3.4a127.6,127.6,0,0,1-21.8,25.59,22,22,0,0,1-3.6,2.8c-2.6,2-4.2,2-6.8.4C811.06-131.72,809.86-133.72,809.26-136.52Zm-22.4-34.79a55.09,55.09,0,0,0,4.2-13.8c.4-.4.4-.8-.2-1-.4-.2-.8.2-1,.6a13.73,13.73,0,0,1-1,3.4c-1,3.6-1.8,6.8-3,10,0,.4-.2,1,.4,1.2C786.46-170.91,786.86-171.11,786.86-171.31Zm32.2.8a79.46,79.46,0,0,0,4.6-13.2c0-.4,0-1-.4-1.2a1.45,1.45,0,0,0-1.2.8c-1.2,4.2-2.6,8.8-3.8,13.4,0,.2.2.4.2.6C818.66-170.31,819.06-170.31,819.06-170.51Z" transform="translate(-600.77 344.23)"/></svg>