<svg xmlns="http://www.w3.org/2000/svg" viewBox="0 0 131.33 124.57"><defs><style>.cls-1{fill:#ffc823;}.cls-2{fill:none;}.cls-3{fill:#fffcf5;}.cls-4{fill:#ff5a43;}</style></defs><title>Asset 11</title><g id="Layer_2" data-name="Layer 2"><g id="Layer_1-2" data-name="Layer 1"><path class="cls-1" d="M0,82.62c3.24-.25,6.34.21,9.46-1.38l-2.23-.37,4.67-2-1.69-.6c6.12,0,12.41.06,18.7,0a66.05,66.05,0,0,0,7-.49c.53-.06,1-.73,1.46-1.12-.47-.41-.88-1-1.43-1.18a25.29,25.29,0,0,0-12.25-.58c-5.94,1.14-11.8,1.22-17.56-.91l-1.65-.61,0-.56c1.7,0,3.4-.18,5.1-.12,3.29.11,6.57.46,9.86.44a17.08,17.08,0,0,0,4.14-1.07l0-.73a14.79,14.79,0,0,0-2.06-1,23.52,23.52,0,0,0-10.46-.19c-1.82.29-3.67.43-5.49.54l9.91-2.6-.09-.85c-1.64,0-3.27,0-4.91,0s-3.29.15-4.94.13c-.36,0-.72-.41-1.07-.63.35-.23.7-.67,1-.68,2.31,0,4.62.1,6.93.1a24.42,24.42,0,0,0,5.22-.5c-4.58-1.85-9.64-.18-14.23-2l6.76-1.37-.06-.69c-1.44,0-2.88-.06-4.32,0s-2.19-.41-2.29-2.11C1.92,29.5,24.76,2.94,54.74.24A56.42,56.42,0,0,1,116.53,58.1c0,1-.19,1.94-.26,2.63l2.38,2.73c-3,2.21-6.86.13-9.5,2.9l4.5-.48c-1.66,2.92-5.08,1.41-7,2.9.51.76,1.49,1.62,1.32,2.06A5.59,5.59,0,0,1,106,73a12.76,12.76,0,0,1-2.4,1.07c2.79,1.3,5.36,1,7.89.9s5.12-.29,7.88-.45c-4.82,2.78-9.89,2.14-14.89,2.5l6.28.64v.45H101l-.21.76,9,4.67-.11.49A23.06,23.06,0,0,1,107,84a43,43,0,0,0-15.25.86A15.6,15.6,0,0,1,79.86,83.2a20.39,20.39,0,0,0-11.62-3.13A16.61,16.61,0,0,0,58.46,84a5,5,0,0,0-1.26,2.61c-10.07-2.75-19.76-.27-29.38,2.95l0,.58a8.68,8.68,0,0,0,1.55.31c6.65-.12,13.32,0,19.94-.47a91.93,91.93,0,0,1,20,1.19,123.29,123.29,0,0,0,17.41,1,54.78,54.78,0,0,1,19.23,3.52,10.5,10.5,0,0,1-1.58.63c-8.67,1.49-17.3,3.5-26.18,3-7-.42-13.92-1.07-20.87-1.79A98,98,0,0,0,37,97.71c-8.53.89-17,.13-25.52-.55a5.53,5.53,0,0,1-.88-.33,53.44,53.44,0,0,0,13.2-6.14c-4.55-.77-8.63-1.43-12.69-2.14C6.9,87.8,3.5,85.43,0,82.62Zm29.55-.81a5,5,0,0,0-.63-.58,2.19,2.19,0,0,0-.76-.28c-3.87-.29-7.74-.61-11.61-.81a6.23,6.23,0,0,0-2.71.57,2.39,2.39,0,0,0-1.33,1.43c-.09.42.53,1.14,1,1.47a5.39,5.39,0,0,0,2.12.82A22.81,22.81,0,0,0,27.89,83,8.57,8.57,0,0,0,29.55,81.81ZM79.1,68.33c.19.29.24.44.31.46,5.25,1.42,10.52,2.71,16,1.78a8.06,8.06,0,0,0,1.81-.75l-.09-.68A27.21,27.21,0,0,0,79.1,68.33Zm-38.34.57c3.45,1.59,19.13,1.09,21.92-.45-3-.35-6.06-.58-9.07-1.09A22.91,22.91,0,0,0,42.85,68C42.25,68.21,41.69,68.51,40.76,68.9Zm2.53-2.58c-2.21-1.51-11.36-1.41-13.43.15C32.43,68.52,40.67,68.42,43.29,66.32Zm49,9.46c-2.34-2.56-12.68-3.1-16-.87ZM55.92,72.33l0-.55H50v.55Z"/><path class="cls-1" d="M131.33,114.36c-1.63.59-3.22,1.31-4.89,1.77a91.84,91.84,0,0,1-21.71,2.79c-7.47.22-15-.22-22.35,1.45-5,1.13-10.06,2.46-15.15,3.27-10.89,1.72-21.78.92-32.49-1.23-8.18-1.63-16.2-4-24.28-6.17a10.2,10.2,0,0,1-3.09-1.51c-1.62-1.09-1.62-2.56.17-3.24a50.56,50.56,0,0,1,8.82-2.57c5.63-1,11.18.16,16.68,1.3,11.4,2.35,22.85,2.17,34.3.56a63.16,63.16,0,0,1,26.31,1.6,69.54,69.54,0,0,0,29.76,1.49c2.06-.31,4.16-.38,6.24-.49a6.68,6.68,0,0,1,1.63.3Z"/><path class="cls-2" d="M29.58,81.87A9,9,0,0,1,27.93,83a22.83,22.83,0,0,1-12.25,1.48,5.59,5.59,0,0,1-2.13-.82c-.48-.33-1.1-1-1-1.47a2.39,2.39,0,0,1,1.33-1.43,6.09,6.09,0,0,1,2.71-.57c3.87.19,7.74.5,11.6.79a2.15,2.15,0,0,1,.77.27A4.59,4.59,0,0,1,29.58,81.87Z"/><path class="cls-2" d="M79.11,68.31a27.21,27.21,0,0,1,18,.78l.1.68a8.9,8.9,0,0,1-1.82.76c-5.5.93-10.77-.35-16-1.76C79.35,68.75,79.3,68.6,79.11,68.31Z"/><path class="cls-2" d="M40.77,68.94c.93-.39,1.49-.69,2.09-.88a23.17,23.17,0,0,1,10.76-.69c3,.51,6.08.74,9.07,1.08C59.9,70,44.22,70.53,40.77,68.94Z"/><path class="cls-2" d="M43.3,66.35c-2.62,2.11-10.86,2.22-13.44.17C31.94,65,41.08,64.85,43.3,66.35Z"/><path class="cls-2" d="M92.31,75.74l-16-.85C79.63,72.66,90,73.19,92.31,75.74Z"/><path class="cls-2" d="M55.93,72.34H50v-.55h5.95Z"/><path class="cls-3" d="M16.22,65.6a2.24,2.24,0,0,0-.59-.67,2.57,2.57,0,0,1-.92-2.86,24.15,24.15,0,0,1,.92-3.44c1.68-4.19,3.78-8.22,5.88-12.25a8.92,8.92,0,0,0,.67-1.25c.16-.42-.09-.68-.51-.59h-.16a33.13,33.13,0,0,0-7.3,2.77l-1,.84c-.25.25-.5.92-1,.16l-.33.26c-.42.5-.59.25-.76-.17a4,4,0,0,1,1.26-4.78A9.93,9.93,0,0,1,15,42.11a71.86,71.86,0,0,1,8.56-2.77A8.23,8.23,0,0,1,24.86,39a2.38,2.38,0,0,0,1.51-1.17c3.36-5.71,7.47-10.91,11.33-16.28a21.7,21.7,0,0,0,2.52-3.94c.5-1.18.25-1.68-1-1.85a18.4,18.4,0,0,0-5.29.09,45,45,0,0,0-14.34,4.36l-2.44,1.17a11.93,11.93,0,0,0-2.68,1.76,3.62,3.62,0,0,0-.92,1.68c-.09.84-.51.93-1.1.34a3.27,3.27,0,0,1-.5-3.86,12.9,12.9,0,0,1,1.34-1.6,25.85,25.85,0,0,1,4.87-3.44,39,39,0,0,1,13.59-4.53,16.45,16.45,0,0,1,3.86-.33,14.7,14.7,0,0,1,4,.33A5.84,5.84,0,0,1,43.4,14.5a4,4,0,0,0,.59,1c1.51,1.76,1.51,3.77.92,5.87a16.56,16.56,0,0,1-1.51,3.36,71.55,71.55,0,0,1-4.53,6.79,20.4,20.4,0,0,1-1.59,2.19c-1.18,1.76-1.18,1.76.25,3.35a.75.75,0,0,1,.42.76c-.25.5-1.09.92-.08,1.51.16.08,0,.42-.17.58a3.9,3.9,0,0,1-1.6,1,31.16,31.16,0,0,1-3.1.84,3.19,3.19,0,0,0-2.18,1.43,140.05,140.05,0,0,0-9.31,17.53c-.42,1.09-.76,2.18-1.18,3.27a3.29,3.29,0,0,0,.09,2.52c.41.76.08,1-.76,1A3.53,3.53,0,0,1,16.22,65.6Zm-.17-2.44c.09-.41.09-.92.17-1.42a21.82,21.82,0,0,1,1.34-4.53c.09-.25.34-.42.09-.67-.17.16-.34.25-.42.42a40.47,40.47,0,0,0-1.6,4.53l-.25,1.26a1,1,0,0,1,.09.41c.08.17.16.34.33.34S16.05,63.33,16.05,63.16Zm3,.84c.17-.84.42-1.59.59-2.43a.31.31,0,0,0-.08-.25c-.09,0-.17,0-.17.08a9.36,9.36,0,0,0-.92,2.44c0,.25-.09.5.16.58S19,64.17,19.07,64Z"/><path class="cls-3" d="M45.75,50.5A10.38,10.38,0,0,1,46,45.71l.25-1.09c0-.08-.09-.17-.17-.25-.08.08-.25.08-.25.17a8.64,8.64,0,0,0-1.09,4.61v.93a.91.91,0,0,1-.42-.93,6.7,6.7,0,0,1,.08-2.6,30.65,30.65,0,0,1,1.68-4.61c1.09-2.85.92-2.27-1.09-4.11-.42-.34-.76-.34-1.09.16-.51.68-.93,1.43-1.43,2.1s-1,1.34-1.59,2a2.34,2.34,0,0,1-1,.75c-.5.25-1.09.34-1.43-.08s.09-.93.42-1.26a29.59,29.59,0,0,0,3.7-5.2A4.57,4.57,0,0,0,43.32,34a16.34,16.34,0,0,1,3.19-8.14c.08-.08.17-.17.25-.17s.34-.25.42-.17c.25.09.08.34,0,.51-.25.75-.92,1.42-.84,2.35.42-.68.84-1.35,1.34-2a3.08,3.08,0,0,1,.42-.67,1.08,1.08,0,0,1,1.93.17,3.14,3.14,0,0,1,.34.92c.08.59.33.67.84.42.33-.17.5.17.5.42A3,3,0,0,1,51.37,29l-1.51,3.86A18.1,18.1,0,0,0,49.28,35a3.43,3.43,0,0,0,1.42,4,2.1,2.1,0,0,1,.51.42,2.45,2.45,0,0,1,1,3.19c-.33.83-.75,1.59-1.09,2.34C50.54,46,50,47,49.53,48.06a8.5,8.5,0,0,0-.34,1.34c0,.34.17.59.51.42a9.23,9.23,0,0,0,.92-.58,8.38,8.38,0,0,0,1.93-2.35,46.27,46.27,0,0,0,3.52-6.29c.34-.76.67-.93,1.18-.76a1,1,0,0,1,.5,1.51C56,45,54.14,48.65,51.29,51.59a3.82,3.82,0,0,1-2.77,1.34C46.76,52.84,46,52.17,45.75,50.5Zm2.18-14.85.51-2.35c.08-.42.25-.84.33-1.18,0-.17-.08-.33-.16-.25a.18.18,0,0,0-.17.17,12.82,12.82,0,0,0-1.09,2.85c0,.25-.09.42,0,.67,0,.09.17.25.33.34S47.93,35.81,47.93,35.65Zm.42,14.43.51-2.69c0-.08-.09-.17-.17-.25s-.17.08-.25.08a7.35,7.35,0,0,0-.84,2.52V50c0,.17.08.42.33.42S48.27,50.24,48.35,50.08Z"/><path class="cls-3" d="M57.16,49.07c0-.5.09-1.09.09-1.59a15.54,15.54,0,0,1,.42-4.87c.42-1.76.92-3.44,1.34-5.12l.25-1.09c0-.08-.08-.17-.25-.17a3.2,3.2,0,0,0-.42.76,39.9,39.9,0,0,0-2.1,7.46,8.15,8.15,0,0,0,.17,3.78,5.11,5.11,0,0,1-.76-3.52A24.1,24.1,0,0,1,60.35,32a17.05,17.05,0,0,1,5.71-4.7,6.27,6.27,0,0,1,4.28-.42,5.27,5.27,0,0,1,3.18,1.26,3.49,3.49,0,0,1,1.18,3,6.81,6.81,0,0,1-.17,1.26,19.68,19.68,0,0,1-2.1,5.37,6.33,6.33,0,0,1-3.1,2.6,10.17,10.17,0,0,1-4.2.92H64a1.15,1.15,0,0,0-1.34.92,16.85,16.85,0,0,0-.84,5,5.16,5.16,0,0,0,.76,2.51c.5.93.92,1,1.84.68a8.59,8.59,0,0,0,4.28-2.94l3.86-5.29a4.75,4.75,0,0,1,.84-1A.79.79,0,0,1,74.53,41c.42.16.42.5.34.92-.17,1.76-.17,1.76-.84,2.77-.93,1.34-1.76,2.68-2.77,3.94a10.84,10.84,0,0,1-7.89,4.11A6.63,6.63,0,0,1,57.16,49.07Zm2.77-1.51a26.28,26.28,0,0,1,1.34-8l.26-1.09c0-.09.08-.34-.17-.34-.09,0-.17.17-.17.25a31.6,31.6,0,0,0-2,7.47,3.61,3.61,0,0,0,.25,1.76.37.37,0,0,0,.33.25C59.93,48,60,47.73,59.93,47.56Zm8.73-10.15a13.12,13.12,0,0,0,2.35-6v-.26c-.09-.75-.42-1-1.09-.58l-.51.33a19.78,19.78,0,0,0-5.28,7,4.92,4.92,0,0,0-.34,1c-.08.42.09.67.51.67C66,39.25,67.65,38.83,68.66,37.41Z"/><path class="cls-3" d="M90,52.43a4.36,4.36,0,0,1-2.52-2.77c-.08-.51-.08-1.26-.59-1.43-.67-.17-.92.67-1.25,1.09l-1.18,1.51a3.43,3.43,0,0,1-4.61,1.26c-.59-.25-1.18-.59-1.77-.84A4.82,4.82,0,0,1,75,47V45a29.71,29.71,0,0,1,4-14,13.67,13.67,0,0,1,2.6-3.19,8.78,8.78,0,0,1,10-1.42,3.88,3.88,0,0,0,.59.33.59.59,0,0,0,.76-.33,4.32,4.32,0,0,0,.41-.84c1.1-2.6,2.44-5,3.7-7.47a16.69,16.69,0,0,1,1.09-1.59c.58-.67,1.17-1.18,2.18-.76.67.25,1.34-.25,2,.09.84.41.42,1.34.92,1.76.76.5.51,1,.26,1.67a27.75,27.75,0,0,1-1.43,3.36c-2.35,5-4.36,10.15-6.38,15.35a85.27,85.27,0,0,0-2.6,10.24c0,.25-.08.5-.08.76s-.17.92.33.92c.84.08.09.42.17.67a.24.24,0,0,0,.42,0c.51-.5,1-1.09,1.51-1.68,1.68-2.1,3.19-4.36,4.7-6.63.17-.33.42-.58.59-.92a.8.8,0,0,1,1-.17c.42.25.59.59.42.93a4.74,4.74,0,0,1-.5,1.17c-1.85,2.85-3.77,5.54-5.79,8.31a2.27,2.27,0,0,1-.42.5c-1.51,1.68-2.77,1.85-4.78.75A3,3,0,0,0,90,52.43Zm-12.5-4.54v-.83a24.5,24.5,0,0,1,.33-6c.25-1,.51-2.1.67-3.11.09-.17.17-.5,0-.59s-.33.26-.33.42a26,26,0,0,0-1.6,7.89,6,6,0,0,0,.34,2.26c.08.17.17.26.34.26S77.47,48,77.47,47.89Zm2.85.26a15.4,15.4,0,0,1,.08-4.79c.09-.5.09-1,.17-1.51,0-.16,0-.33-.17-.33a.17.17,0,0,0-.16.17,17.4,17.4,0,0,0-.93,4.53,8.16,8.16,0,0,0,.42,2c.09.17.25.17.34.34C80.15,48.4,80.32,48.23,80.32,48.15ZM86.7,44a1.6,1.6,0,0,1,.25-.42,8.57,8.57,0,0,0,1.26-3.44,40.48,40.48,0,0,1,2.6-8.22,2.25,2.25,0,0,0-.42-2.6c-.42-.5-.76-.59-1.26-.25A7.59,7.59,0,0,0,87,31a24.76,24.76,0,0,0-4.44,8.64,29.64,29.64,0,0,0-1.43,7.21,8.52,8.52,0,0,0,.08,1.43c.09.84.51,1,1.09.42Zm3,5.54A26.51,26.51,0,0,1,89.8,45a.54.54,0,0,0-.08-.34c-.25-.08-.34.17-.42.34a10.7,10.7,0,0,0-.51,3.61c.09.33.09.67.17.92s.09.75.42.75S89.72,49.74,89.72,49.49Zm2.85.67v-.67a20.21,20.21,0,0,1,.59-6c.33-1.17.5-2.26.75-3.44v-.42c-.33-.08-.33.17-.42.34L93,41.52c-.42,1.93-.84,3.77-1.18,5.62a4.08,4.08,0,0,0-.16,1.34,4.54,4.54,0,0,0,.25,1.85c.08.08.17.25.33.25C92.57,50.66,92.49,50.33,92.57,50.16Z"/><path class="cls-3" d="M49.35,116.36a12.4,12.4,0,0,1-2.26-2.77A49.39,49.39,0,0,1,43,105.36a70.24,70.24,0,0,1-4.62-14.68l-.5-3.61c0-.16-.09-.33-.25-.33a.45.45,0,0,0-.42.25,19.7,19.7,0,0,0-.76,2.43c-1.09,4.28-2.26,8.56-2.94,12.92a.52.52,0,0,1-.08.34c-.08.34-.17.75-.67.67s-.59-.42-.59-.75a18.06,18.06,0,0,1,.09-3c.5-2.43.92-4.86,1.34-7.29,0-.17-.09-.26-.09-.42-.08.08-.25.25-.25.33-.67,2.52-1.17,5-1.59,7.55-.17.76-.25,1.6-.42,2.35a.79.79,0,0,1-.59.67.83.83,0,0,1-.92-.5,4.44,4.44,0,0,1-.34-3.1c.26-1.77.59-3.61.93-5.37a188.92,188.92,0,0,1,9.14-32.31c.17-.42.51-.83.25-1.34-.67.09-.67.76-.84,1.18A202.73,202.73,0,0,0,29.3,94.79a2.32,2.32,0,0,1-.17.84A.61.61,0,0,1,29,96v-.76c1.85-11.07,4.45-21.9,8.81-32.22l.76-2.09c.17-.42-.17-.67-.59-.51a1.24,1.24,0,0,0-.5.17A30.55,30.55,0,0,0,29,66.18c-.08.17-.25.25-.33.34-.09-.17,0-.25.08-.42.17-.42.67-.67.59-1.18-.59-.08-.84.51-1.17.84-.76.51-.68,1.43-.93,2.1s-.42.67-.84.25a2.48,2.48,0,0,1-.67-3.27,10.62,10.62,0,0,1,1.09-1.59c.76-.76,1.6-1.51,2.52-2.27A60.18,60.18,0,0,1,39,55a2.73,2.73,0,0,0,.75-.33c1.6-.59,2.69-.17,3.53,1.42.08.26.17.51.42.59,1.51.42,1.59,1.68,1.68,2.85A8.24,8.24,0,0,1,44.57,63c-1,3.11-2.1,6.21-3.19,9.4a19.07,19.07,0,0,0-.59,2c0,.09.09.17.09.26a.46.46,0,0,0,.33-.09l1.09-1.09a85.76,85.76,0,0,1,8.48-9A45.57,45.57,0,0,1,58.41,59a11,11,0,0,1,4.7-1.43c1.6-.08,2.52,1.09,2.27,2.77-.09.42-.25.75-.76.84a31,31,0,0,0-10.23,6.12,92.24,92.24,0,0,0-9.06,9.06,5,5,0,0,0-1.18,2.52,29.82,29.82,0,0,0-.25,7.72,56.23,56.23,0,0,0,2.18,10.49c0,.25.17.5.17.75a.28.28,0,0,1-.09.25c0-.08-.16-.16-.16-.25-.42-1.34-.84-2.68-1.18-4a38.12,38.12,0,0,1-1.51-10V81c0-.16-.08-.42-.17-.42-.25-.08-.33.17-.42.34a3.54,3.54,0,0,0-.25,1.59,26.58,26.58,0,0,0,.84,8.14,74.11,74.11,0,0,0,6.29,17.7,26.75,26.75,0,0,0,1.85,3.36,6.41,6.41,0,0,0,3.44,3c.25.08.5.17.5.5s-.25.42-.58.51-.42.17-.17.59c.17.25-.09.5-.34.58A4.76,4.76,0,0,1,49.35,116.36Zm-7.21-20a3.46,3.46,0,0,1-.17-.84,48.17,48.17,0,0,1-1.51-11.5c0-.33-.09-.58-.09-.92L40.12,83c-.16,0-.33.09-.33.25a5.38,5.38,0,0,0-.17,1.1,27.32,27.32,0,0,0,.59,5.87c.42,2.1,1,4.19,1.59,6.21.08.08.17.33.25.33S42.14,96.47,42.14,96.39Z"/><path class="cls-3" d="M57.4,92a21.46,21.46,0,0,1,.42-2.76,92.19,92.19,0,0,1,4.37-14.69c.42-1,.58-2.18,1.59-2.93a8.11,8.11,0,0,1-.84,3.18c-1.84,5-3.27,10.07-4.7,15.11-.25,1-.42,2.09-.67,3.18,0,.09-.08.17-.17.34Zm1.18,3.19A7.85,7.85,0,0,1,58.41,94a27.67,27.67,0,0,1,.76-4.69,131.48,131.48,0,0,1,5.28-17A11.22,11.22,0,0,1,65,70.8c.34-.59.75-.76,1.26-.59a1,1,0,0,1,.75,1.26,23.76,23.76,0,0,1-.67,2.35c0,.08-.08.33.17.33.08,0,.17-.08.25-.16.25-.76.59-1.43.84-2.1.17-.25.25-.51.59-.51s.42.42.5.76a5,5,0,0,1-.33,1.93l-1.77,5.79L62.86,91.94a10.18,10.18,0,0,0-.34,1.68.67.67,0,0,0,.17.42.36.36,0,0,0,.42-.09A8,8,0,0,0,64,93a25.25,25.25,0,0,0,3.19-4.61c.5-.84,1-1.68,1.43-2.52a2.81,2.81,0,0,1,.84-.92,1,1,0,0,1,1.17.16.77.77,0,0,1,0,.93,53.63,53.63,0,0,1-5,7.8,7.31,7.31,0,0,0-.75,1,3.64,3.64,0,0,1-1.77,1.59,6,6,0,0,1-3.44,0A1.63,1.63,0,0,1,58.58,95.21ZM68.4,63.67c-.09-.17-.09-.34-.17-.42-.25-.42-.51-.76-1-.34a1.11,1.11,0,0,1-1.68-1.43,7.29,7.29,0,0,1,1.35-2.68,1.36,1.36,0,0,1,1.84-.5,7.94,7.94,0,0,0,1.18.42c1.51.08,2,.67,2,2v.33a8,8,0,0,1-2.52,3A.69.69,0,0,1,68.4,63.67Z"/><path class="cls-3" d="M94.82,95.55a11.35,11.35,0,0,1,.42-3.36c.34-1.42.93-2.93,1.26-4.36,0-.17.25-.42-.08-.59,0,0-.25.25-.25.42-.93,2.43-2.19,4.78-2,7.64,0,.16,0,.25-.17.16s-.25-.08-.25-.16a5.92,5.92,0,0,1-.25-2.94A48.73,48.73,0,0,1,95.66,85c.93-2.27,1.76-4.53,2.6-6.8a3,3,0,0,0,.42-2.1c-1-.25-1.42.67-2,1.09a31.32,31.32,0,0,0-7.55,9,34.42,34.42,0,0,0-2.85,7.38c-.34,1.09-.68,2.27-1.1,3.28-.33.5-.58.67-.83,0s-.59-.51-1,0c-.67.84-1.09.84-1.76,0a2.83,2.83,0,0,1-.42-1.6A6.35,6.35,0,0,1,81.57,93a54.09,54.09,0,0,1,1.84-6.38c0-.16.09-.33-.08-.5-.08,0-.25.25-.34.42a53.75,53.75,0,0,0-2.35,7c-.16.68-.08,1.35-.67,1.77-.67-.59-.42-1.26-.33-1.93A47.45,47.45,0,0,1,82.07,85c.76-2.1,1.51-4.2,2.35-6.21l.25-.92c0-.17.09-.51-.17-.59a.47.47,0,0,0-.42.25c-1,1.26-2.09,2.43-3.1,3.77a115.23,115.23,0,0,0-6.21,10.24,18.38,18.38,0,0,0-1.34,3.78c-.17.58-.5,1.25-.76,1.93-.16.25-.33.58-.83.33a.8.8,0,0,0-.93.17c-1.09.75-1.93.33-2.18-.92a4.31,4.31,0,0,1,.17-2.27c.25-1.17.5-2.43.84-3.61,1.34-4.28,2.6-8.47,3.86-12.67a4.87,4.87,0,0,0,.33-1.17c.09-.08,0-.17-.08-.25-.09.08-.17.08-.17.17a21.91,21.91,0,0,0-1.09,2.68c-1.76,5.29-3.36,10.66-4.7,16-.08.16,0,.42-.33.42-.09,0-.17-.34-.17-.42a6.5,6.5,0,0,1,.08-2.86,123.83,123.83,0,0,1,5.88-19,9.51,9.51,0,0,1,1-1.84c.25-.51.59-.76,1.18-.34a.49.49,0,0,0,.58,0c1.26-.75,1.77-.59,2.44.67.16.17.16.42.58.5a1.14,1.14,0,0,1,1,1.51c-.17.76-.5,1.52-.75,2.35a23.45,23.45,0,0,1-1,3.11.31.31,0,0,0,.17.42c.16,0,.25,0,.33-.09.34-.33.59-.75.93-1.09,2.09-2.35,3.85-5,6.2-7.21.68-.51,1.35-1,2.19-.76A2.12,2.12,0,0,1,90,73.4c-.09,1.34-.25,2.68-.34,4v.42c.25.08.34-.09.34-.34A15.68,15.68,0,0,0,90.88,74c0-.09.08-.17.17-.26s.25.17.33.26a3.49,3.49,0,0,1,.17,2.43c-.08.67-.42,1.43,0,2.1.76-.17,1.09-.76,1.6-1.35,2-1.93,4.19-3.6,6.37-5.37a2.36,2.36,0,0,1,3.86,1.6c.25.84-.17,1.68-.08,2.52,0,.67-.09,1.17-.09,1.84a.85.85,0,0,0,.09.42c.08-.08.33-.17.33-.33a10.12,10.12,0,0,0,.59-3.19c0-.17,0-.51.25-.42.09,0,.34.25.42.33a5.62,5.62,0,0,1,.25,2.1,12.4,12.4,0,0,1-.84,3.94,104.72,104.72,0,0,1-3.77,10.66,9.3,9.3,0,0,0-1,2.77c0,.17,0,.25.09.33a.27.27,0,0,0,.42,0c1-.92,2-1.84,2.93-2.77,1.43-1.59,2.69-3.44,4-5.11a11,11,0,0,1,1.17-1.6,1.13,1.13,0,0,1,1.26-.33c.92.16,1.18.75.59,1.42a52.94,52.94,0,0,1-9.15,10.74,8.75,8.75,0,0,1-1.51,1.18,2.07,2.07,0,0,1-2.85.16A3.47,3.47,0,0,1,94.82,95.55ZM85.43,81a23.35,23.35,0,0,0,1.76-5.79c.17-.17.17-.34-.09-.42s-.33.08-.41.25a6.42,6.42,0,0,1-.42,1.43c-.42,1.51-.76,2.85-1.26,4.19,0,.17-.09.42.16.51C85.26,81.12,85.43,81,85.43,81Zm13.5.33a32.68,32.68,0,0,0,1.93-5.53c0-.17,0-.42-.16-.51a.63.63,0,0,0-.51.34c-.5,1.76-1.09,3.69-1.59,5.62,0,.08.08.17.08.25C98.77,81.37,98.93,81.37,98.93,81.28Z"/><path class="cls-4" d="M15.21,64.28a2.12,2.12,0,0,0-.58-.68,2.55,2.55,0,0,1-.9-2.86,21.71,21.71,0,0,1,.95-3.43,133.57,133.57,0,0,1,6-12.21,9.61,9.61,0,0,0,.68-1.25c.17-.42-.08-.67-.5-.59h-.17A33.47,33.47,0,0,0,13.33,46l-1,.83c-.25.25-.51.92-1,.16l-.34.25c-.42.5-.59.25-.75-.17a4,4,0,0,1,1.29-4.77,9.92,9.92,0,0,1,2.61-1.49,72.54,72.54,0,0,1,8.58-2.71,8.3,8.3,0,0,1,1.35-.33,2.35,2.35,0,0,0,1.52-1.16C29,30.9,33.11,25.73,37,20.39a21.18,21.18,0,0,0,2.54-3.93c.52-1.17.27-1.68-1-1.85a18.32,18.32,0,0,0-5.28,0A45.3,45.3,0,0,0,18.9,18.91l-2.44,1.16a11.24,11.24,0,0,0-2.7,1.74,3.65,3.65,0,0,0-.94,1.67c-.09.84-.51.92-1.09.33A3.26,3.26,0,0,1,11.25,20a12.25,12.25,0,0,1,1.36-1.59A25.07,25.07,0,0,1,17.5,15a38.88,38.88,0,0,1,13.62-4.43A16.94,16.94,0,0,1,35,10.22a14.51,14.51,0,0,1,4,.36,5.9,5.9,0,0,1,3.76,2.8,3.7,3.7,0,0,0,.58,1c1.49,1.77,1.48,3.79.88,5.88a17.44,17.44,0,0,1-1.54,3.35,75,75,0,0,1-4.58,6.76,21.77,21.77,0,0,1-1.61,2.17c-1.19,1.75-1.19,1.75.23,3.36.25.17.5.42.41.75-.25.51-1.09.92-.09,1.51.17.09,0,.42-.17.59a4,4,0,0,1-1.61,1,30.66,30.66,0,0,1-3.11.82A3.21,3.21,0,0,0,30,42a140.81,140.81,0,0,0-9.44,17.47c-.42,1.09-.77,2.18-1.19,3.26a3.29,3.29,0,0,0,.06,2.52c.41.76.08,1-.76,1A3.52,3.52,0,0,1,15.21,64.28Zm-.15-2.44c.09-.42.09-.92.18-1.42a21.25,21.25,0,0,1,1.38-4.52c.08-.25.33-.42.08-.67-.16.16-.33.25-.42.41a41.13,41.13,0,0,0-1.62,4.52l-.27,1.26a.82.82,0,0,1,.08.42c.09.17.17.34.34.34S15.06,62,15.06,61.84Zm3,.86c.17-.83.43-1.59.6-2.43A.32.32,0,0,0,18.6,60c-.08,0-.17,0-.17.09a9.53,9.53,0,0,0-.94,2.42c0,.25-.09.5.16.59S18,62.87,18.08,62.7Z"/><path class="cls-4" d="M44.85,49.39a10.34,10.34,0,0,1,.29-4.78l.26-1.09c0-.08-.08-.17-.17-.25-.08.08-.25.08-.25.16A8.81,8.81,0,0,0,43.86,48V49a.89.89,0,0,1-.41-.92,6.9,6.9,0,0,1,.1-2.6,30.38,30.38,0,0,1,1.71-4.61c1.11-2.84.94-2.25-1.06-4.12-.42-.33-.75-.34-1.09.16-.51.67-.93,1.42-1.44,2.09s-1,1.34-1.61,2a2.24,2.24,0,0,1-1,.75c-.51.25-1.1.33-1.43-.09s.09-.92.43-1.26a29.12,29.12,0,0,0,3.73-5.17,4.59,4.59,0,0,0,.77-2.35,16.25,16.25,0,0,1,3.25-8.11c.08-.08.17-.17.25-.17s.34-.25.42-.16c.25.08.08.33,0,.5-.26.75-.94,1.42-.86,2.34.43-.66.85-1.33,1.36-2a2.74,2.74,0,0,1,.42-.67,1.08,1.08,0,0,1,1.93.18,2.93,2.93,0,0,1,.33.93c.08.59.33.67.84.42.33-.16.5.18.5.43A3,3,0,0,1,50.63,28L49.09,31.8a20.51,20.51,0,0,0-.6,2.09,3.43,3.43,0,0,0,1.4,4,2.07,2.07,0,0,1,.5.42,2.45,2.45,0,0,1,1,3.2c-.34.83-.76,1.58-1.11,2.34-.59,1.08-1.1,2.09-1.61,3.17a8.27,8.27,0,0,0-.35,1.34c0,.34.17.59.5.43a10.21,10.21,0,0,0,.93-.58,8.6,8.6,0,0,0,2-2.34,47.33,47.33,0,0,0,3.57-6.27c.34-.75.67-.91,1.18-.74a1,1,0,0,1,.49,1.51c-1.79,3.6-3.66,7.27-6.54,10.19a3.8,3.8,0,0,1-2.77,1.32C45.84,51.75,45.09,51.07,44.85,49.39Zm2.29-14.84.52-2.34c.09-.42.26-.84.35-1.17,0-.17-.08-.34-.17-.26a.19.19,0,0,0-.17.17,13.22,13.22,0,0,0-1.11,2.85c0,.25-.09.41,0,.67,0,.08.16.25.33.33S47.14,34.72,47.14,34.55ZM47.46,49,48,46.31c0-.09-.08-.17-.17-.26s-.16.09-.25.09a7.25,7.25,0,0,0-.85,2.51v.25c0,.17.08.42.34.42S47.37,49.16,47.46,49Z"/><path class="cls-4" d="M56.27,48.05c0-.51.1-1.09.1-1.6a15.78,15.78,0,0,1,.45-4.86c.44-1.76,1-3.43,1.38-5.11l.26-1.09c0-.08-.08-.17-.25-.17a3.15,3.15,0,0,0-.42.75,39.11,39.11,0,0,0-2.15,7.46,8.12,8.12,0,0,0,.14,3.77,5.07,5.07,0,0,1-.73-3.53A24,24,0,0,1,59.59,31a17,17,0,0,1,5.73-4.66A6.3,6.3,0,0,1,69.61,26a5.3,5.3,0,0,1,3.18,1.28,3.54,3.54,0,0,1,1.15,3,6.08,6.08,0,0,1-.18,1.26,19.82,19.82,0,0,1-2.13,5.35,6.3,6.3,0,0,1-3.13,2.58,10,10,0,0,1-4.2.89H63.21a1.14,1.14,0,0,0-1.35.91,16.44,16.44,0,0,0-.87,5,5.1,5.1,0,0,0,.73,2.52c.5.93.92,1,1.84.68a8.51,8.51,0,0,0,4.3-2.9l3.9-5.26a4.79,4.79,0,0,1,.85-1,.79.79,0,0,1,1.09-.24c.42.17.42.5.33.92-.18,1.76-.18,1.76-.86,2.76-.93,1.34-1.78,2.68-2.8,3.93a10.77,10.77,0,0,1-7.91,4.05A6.64,6.64,0,0,1,56.27,48.05Zm2.78-1.49a26.36,26.36,0,0,1,1.4-8l.26-1.08c0-.09.09-.34-.16-.34-.09,0-.17.17-.17.25a31.54,31.54,0,0,0-2.07,7.45,3.8,3.8,0,0,0,.24,1.77.38.38,0,0,0,.33.25C59.05,47,59.14,46.72,59.05,46.56Zm8.8-10.09a13.15,13.15,0,0,0,2.4-6v-.25c-.08-.75-.41-1-1.09-.59l-.5.33a19.67,19.67,0,0,0-5.34,6.92,4.45,4.45,0,0,0-.34,1c-.09.42.08.67.49.67C65.15,38.29,66.84,37.89,67.85,36.47Z"/><path class="cls-4" d="M89.05,51.64a4.35,4.35,0,0,1-2.49-2.79c-.08-.5-.08-1.26-.58-1.43-.67-.17-.93.67-1.27,1.08L83.53,50a3.45,3.45,0,0,1-4.63,1.23c-.58-.26-1.17-.6-1.75-.85a4.82,4.82,0,0,1-3.07-4.3V44.15a29.76,29.76,0,0,1,4.13-14A13.5,13.5,0,0,1,80.84,27a8.81,8.81,0,0,1,10-1.36,2.77,2.77,0,0,0,.58.34.58.58,0,0,0,.76-.33,3.6,3.6,0,0,0,.42-.83c1.11-2.6,2.47-5,3.75-7.44a17.44,17.44,0,0,1,1.1-1.59c.59-.67,1.19-1.17,2.19-.74.67.26,1.34-.24,2,.1.84.42.41,1.34.91,1.77.75.51.5,1,.24,1.68a28.36,28.36,0,0,1-1.45,3.34C99,27,96.91,32.06,94.86,37.25a84.19,84.19,0,0,0-2.67,10.22c0,.25-.09.5-.09.75s-.18.92.33.93c.84.09.08.42.16.67a.24.24,0,0,0,.42,0c.51-.5,1-1.08,1.52-1.67,1.7-2.08,3.22-4.34,4.75-6.59.17-.33.42-.58.59-.92a.8.8,0,0,1,1-.16c.42.26.58.59.41.93a4.76,4.76,0,0,1-.51,1.17c-1.86,2.84-3.81,5.51-5.85,8.26a1.89,1.89,0,0,1-.42.5c-1.52,1.67-2.78,1.83-4.79.72A2.57,2.57,0,0,0,89.05,51.64ZM76.59,47v-.84a24.53,24.53,0,0,1,.38-6c.26-1,.52-2.09.69-3.1.09-.17.18-.5,0-.59s-.34.25-.34.42a25.6,25.6,0,0,0-1.65,7.88A6.18,6.18,0,0,0,76,47c.08.17.16.26.33.26S76.59,47.1,76.59,47Zm2.85.27a15,15,0,0,1,.12-4.78c.08-.5.09-1,.17-1.51,0-.17,0-.34-.16-.34a.18.18,0,0,0-.17.17,17.4,17.4,0,0,0-1,4.52,7.79,7.79,0,0,0,.41,2c.08.17.25.17.33.34C79.27,47.54,79.44,47.37,79.44,47.29Zm6.4-4.15a1.92,1.92,0,0,1,.26-.42,8.51,8.51,0,0,0,1.28-3.43A41.12,41.12,0,0,1,90,31.09a2.24,2.24,0,0,0-.4-2.6c-.41-.51-.75-.6-1.26-.26a7.7,7.7,0,0,0-2.11,1.91,24.88,24.88,0,0,0-4.51,8.61A29.52,29.52,0,0,0,80.29,46a7.58,7.58,0,0,0,.07,1.43c.08.84.5,1,1.09.43Zm3,5.56a27.66,27.66,0,0,1,.12-4.53.55.55,0,0,0-.08-.34c-.25-.08-.34.17-.42.34a10.45,10.45,0,0,0-.53,3.6c.08.34.08.67.16.93s.08.75.41.75S88.82,49,88.82,48.7Zm2.85.69v-.67a19.83,19.83,0,0,1,.63-5.95c.34-1.17.52-2.26.78-3.44v-.42c-.34-.08-.34.17-.42.34l-.52,1.5c-.43,1.93-.86,3.77-1.21,5.62a3.88,3.88,0,0,0-.18,1.34A4.54,4.54,0,0,0,91,49.56c.08.08.17.25.33.25C91.67,49.9,91.59,49.56,91.67,49.39Z"/><path class="cls-4" d="M48,115.27a12.19,12.19,0,0,1-2.25-2.78,50.06,50.06,0,0,1-4-8.25,71.22,71.22,0,0,1-4.51-14.72l-.48-3.61c0-.17-.08-.34-.25-.34a.47.47,0,0,0-.42.25,21,21,0,0,0-.77,2.43c-1.12,4.27-2.33,8.54-3,12.9a.46.46,0,0,1-.09.33c-.08.34-.17.76-.67.67s-.59-.43-.58-.76a17.94,17.94,0,0,1,.1-3c.52-2.43,1-4.86,1.4-7.29,0-.17-.08-.25-.08-.42-.09.08-.26.25-.26.33-.69,2.52-1.21,5-1.65,7.54-.17.76-.26,1.6-.43,2.35a.78.78,0,0,1-1.51.16,4.41,4.41,0,0,1-.32-3.11c.27-1.76.62-3.6,1-5.36a190.24,190.24,0,0,1,9.38-32.24c.17-.42.51-.83.26-1.34-.67.08-.67.75-.84,1.17a202.62,202.62,0,0,0-9.81,33.41,2.54,2.54,0,0,1-.17.83.68.68,0,0,1-.17.34V94c1.93-11.06,4.61-21.86,9-32.15l.77-2.09c.18-.42-.16-.67-.58-.51a1.17,1.17,0,0,0-.5.16A30.57,30.57,0,0,0,28,65c-.08.17-.25.25-.34.34-.08-.17,0-.25.09-.42.17-.42.68-.67.6-1.17-.59-.09-.85.5-1.18.83-.76.5-.69,1.42-.94,2.09s-.43.67-.84.25a2.47,2.47,0,0,1-.65-3.28A10.67,10.67,0,0,1,25.79,62c.76-.75,1.61-1.5,2.54-2.25A59,59,0,0,1,38,53.87a3.07,3.07,0,0,0,.75-.33c1.6-.58,2.69-.15,3.52,1.45.08.25.16.5.41.59,1.51.43,1.58,1.69,1.66,2.86a8.11,8.11,0,0,1-.78,3.44c-1,3.1-2.14,6.19-3.26,9.37a19.15,19.15,0,0,0-.6,2c0,.09.09.17.08.25s.26,0,.34-.08l1.1-1.08a85.71,85.71,0,0,1,8.54-8.92A45.62,45.62,0,0,1,57.45,58a11.06,11.06,0,0,1,4.71-1.39c1.6-.07,2.51,1.11,2.25,2.78-.09.42-.26.76-.76.84a31,31,0,0,0-10.28,6.05,91.18,91.18,0,0,0-9.13,9,4.92,4.92,0,0,0-1.19,2.51,29.41,29.41,0,0,0-.31,7.72A56.78,56.78,0,0,0,44.84,96c0,.25.17.51.17.76a.29.29,0,0,1-.09.25c0-.08-.17-.17-.17-.25-.41-1.35-.82-2.69-1.14-4a37.57,37.57,0,0,1-1.44-10l0-2.77c0-.17-.08-.42-.16-.42-.25-.09-.34.16-.43.33a3.7,3.7,0,0,0-.26,1.59,26.64,26.64,0,0,0,.78,8.15,74,74,0,0,0,6.17,17.74,24.35,24.35,0,0,0,1.82,3.37,6.4,6.4,0,0,0,3.42,3c.25.08.5.17.49.51s-.25.41-.59.49-.42.17-.17.59c.17.25-.09.5-.34.59A4.77,4.77,0,0,1,48,115.27Zm-7.07-20a3.37,3.37,0,0,1-.17-.84,48.16,48.16,0,0,1-1.42-11.5c0-.34-.08-.59-.08-.93L39,81.81c-.17,0-.34.09-.34.25a5.39,5.39,0,0,0-.17,1.09A27.33,27.33,0,0,0,39,89c.41,2.1,1,4.2,1.55,6.22.08.08.17.34.25.34S40.9,95.34,40.91,95.25Z"/><path class="cls-4" d="M56.2,91a22.26,22.26,0,0,1,.44-2.77,92.87,92.87,0,0,1,4.47-14.65c.43-1,.61-2.17,1.62-2.92a8.3,8.3,0,0,1-.86,3.18c-1.89,4.94-3.35,10-4.81,15.07-.26,1-.44,2.09-.7,3.18,0,.09-.08.17-.17.34Zm1.16,3.2a7.89,7.89,0,0,1-.16-1.26,27.6,27.6,0,0,1,.79-4.7,131.3,131.3,0,0,1,5.4-16.9,12.81,12.81,0,0,1,.6-1.51,1,1,0,0,1,1.27-.58A1.06,1.06,0,0,1,66,70.52a23,23,0,0,1-.69,2.34c0,.08-.08.33.17.34.08,0,.17-.09.25-.17.26-.75.6-1.42.86-2.09.17-.25.25-.5.59-.5s.41.42.49.76a5,5,0,0,1-.34,1.93L65.52,78.9,61.66,91a10.26,10.26,0,0,0-.35,1.67.6.6,0,0,0,.17.42A.37.37,0,0,0,61.9,93a11.53,11.53,0,0,0,.93-.91,25.63,25.63,0,0,0,3.22-4.6c.51-.83,1-1.67,1.44-2.5a3,3,0,0,1,.85-.92,1,1,0,0,1,1.17.18.75.75,0,0,1,0,.92,54.47,54.47,0,0,1-5,7.77,6.87,6.87,0,0,0-.77,1A3.58,3.58,0,0,1,62,95.49a6,6,0,0,1-3.44,0A1.61,1.61,0,0,1,57.36,94.2Zm10-31.48c-.08-.17-.08-.33-.16-.42-.25-.42-.5-.76-1-.34a1.07,1.07,0,0,1-1.51,0,1.06,1.06,0,0,1-.16-1.43,7.44,7.44,0,0,1,1.37-2.67,1.36,1.36,0,0,1,1.85-.49,5.86,5.86,0,0,0,1.17.42c1.51.1,2,.69,2,2v.34a8,8,0,0,1-2.54,3A.68.68,0,0,1,67.4,62.72Z"/><path class="cls-4" d="M93.6,94.8A11,11,0,0,1,94,91.44c.35-1.42.95-2.93,1.29-4.35,0-.17.26-.42-.08-.59,0,0-.25.25-.25.42-.94,2.42-2.22,4.76-2.07,7.62,0,.17,0,.25-.17.17s-.25-.09-.25-.17a5.8,5.8,0,0,1-.23-2.94,48.88,48.88,0,0,1,2.23-7.37c.94-2.26,1.8-4.52,2.65-6.78a3.09,3.09,0,0,0,.44-2.09c-1-.26-1.43.66-2,1.07A31.22,31.22,0,0,0,88,85.36a34.8,34.8,0,0,0-2.91,7.36c-.34,1.09-.68,2.26-1.11,3.26-.34.5-.59.67-.84,0s-.58-.51-1,0c-.67.83-1.09.83-1.76,0a2.92,2.92,0,0,1-.41-1.6,6.37,6.37,0,0,1,.44-2.18,56,56,0,0,1,1.89-6.36c0-.17.09-.34-.08-.5-.08,0-.25.25-.34.41a52.86,52.86,0,0,0-2.4,7c-.17.67-.09,1.34-.68,1.76-.67-.6-.41-1.27-.32-1.94a47.41,47.41,0,0,1,2.49-8.37c.77-2.09,1.54-4.18,2.4-6.19l.25-.92c0-.17.09-.5-.16-.59a.45.45,0,0,0-.42.25c-1,1.25-2.12,2.42-3.13,3.75a116.06,116.06,0,0,0-6.29,10.19,18.33,18.33,0,0,0-1.36,3.77c-.18.58-.52,1.25-.77,1.92-.17.25-.34.59-.85.33a.78.78,0,0,0-.92.16c-1.1.75-1.93.33-2.17-.94a4.19,4.19,0,0,1,.18-2.26c.26-1.17.52-2.43.87-3.6,1.37-4.27,2.66-8.46,4-12.64a5,5,0,0,0,.34-1.17c.08-.09,0-.17-.08-.26-.09.09-.17.09-.17.17a22.18,22.18,0,0,0-1.11,2.68c-1.8,5.27-3.43,10.63-4.82,16-.08.17,0,.42-.33.42-.09,0-.17-.34-.17-.43a6.44,6.44,0,0,1,.11-2.85,123.48,123.48,0,0,1,6-18.92,9.33,9.33,0,0,1,1-1.83c.25-.51.59-.76,1.17-.33a.49.49,0,0,0,.59,0c1.26-.74,1.77-.57,2.43.69.17.17.16.42.58.51a1.14,1.14,0,0,1,1,1.52c-.18.75-.52,1.5-.77,2.34a23.45,23.45,0,0,1-1,3.1.3.3,0,0,0,.16.42c.17,0,.25,0,.34-.08.34-.34.59-.75.93-1.09,2.11-2.33,3.89-5,6.26-7.17a2.47,2.47,0,0,1,2.19-.74,2.13,2.13,0,0,1,1.74,2.28c-.09,1.34-.27,2.68-.36,4v.42c.25.08.34-.09.34-.34a15.56,15.56,0,0,0,1-3.52c0-.08.08-.16.17-.25s.25.17.33.26a3.44,3.44,0,0,1,.15,2.43c-.09.67-.43,1.43,0,2.1.75-.16,1.09-.75,1.6-1.33,2-1.92,4.22-3.58,6.42-5.32a2.35,2.35,0,0,1,3.84,1.62c.25.84-.17,1.67-.1,2.51,0,.68-.09,1.18-.09,1.85a.84.84,0,0,0,.08.42c.08-.08.33-.17.33-.33a9.87,9.87,0,0,0,.61-3.19c0-.17,0-.5.26-.42.08,0,.33.26.42.34a5.63,5.63,0,0,1,.23,2.1,12.7,12.7,0,0,1-.86,3.94,107.86,107.86,0,0,1-3.86,10.63,9.1,9.1,0,0,0-1,2.76c0,.17,0,.25.08.34a.29.29,0,0,0,.42,0c1-.92,2-1.83,3-2.75,1.44-1.58,2.71-3.42,4.07-5.09A11.6,11.6,0,0,1,107,84.24a1.13,1.13,0,0,1,1.27-.33c.92.17,1.16.76.57,1.43A53.18,53.18,0,0,1,99.63,96a9.11,9.11,0,0,1-1.52,1.17,2.08,2.08,0,0,1-2.85.14A3.43,3.43,0,0,1,93.6,94.8ZM84.31,80.13a23.24,23.24,0,0,0,1.8-5.78c.17-.16.17-.33-.08-.42s-.34.08-.42.25a5.69,5.69,0,0,1-.43,1.42c-.43,1.51-.78,2.85-1.29,4.19,0,.17-.09.42.16.5C84.14,80.3,84.31,80.21,84.31,80.13Zm13.5.43a32.74,32.74,0,0,0,2-5.52c0-.17,0-.42-.16-.51a.63.63,0,0,0-.51.34c-.52,1.75-1.12,3.68-1.63,5.61,0,.08.08.16.08.25C97.64,80.65,97.81,80.65,97.81,80.56Z"/></g></g></svg>