<svg xmlns="http://www.w3.org/2000/svg" viewBox="0 0 99.29 106.12"><defs><style>.cls-1{fill:#817872;}</style></defs><title>Asset 12</title><g id="Layer_2" data-name="Layer 2"><g id="Layer_1-2" data-name="Layer 1"><path class="cls-1" d="M5.33,54.08a2.34,2.34,0,0,0-.58-.67,2.54,2.54,0,0,1-.91-2.86,23.72,23.72,0,0,1,1-3.43c1.71-4.19,3.84-8.2,6-12.21a9.09,9.09,0,0,0,.68-1.25c.17-.42-.08-.68-.5-.59h-.16a33.31,33.31,0,0,0-7.32,2.72l-1,.83c-.25.25-.51.92-1,.16L1.09,37c-.42.5-.59.25-.75-.17a4,4,0,0,1,1.29-4.78,10.34,10.34,0,0,1,2.61-1.49,72.5,72.5,0,0,1,8.58-2.7,7.28,7.28,0,0,1,1.34-.33,2.36,2.36,0,0,0,1.52-1.16c3.4-5.68,7.55-10.86,11.45-16.2a20.77,20.77,0,0,0,2.54-3.92c.51-1.17.26-1.68-1-1.85a18.39,18.39,0,0,0-5.29,0A45.38,45.38,0,0,0,9,8.72L6.57,9.88a11.33,11.33,0,0,0-2.7,1.74,3.64,3.64,0,0,0-.93,1.67c-.09.84-.51.92-1.09.33a3.27,3.27,0,0,1-.48-3.87A12.78,12.78,0,0,1,2.72,8.17a25.45,25.45,0,0,1,4.9-3.4A38.62,38.62,0,0,1,21.24.33,16.28,16.28,0,0,1,25.1,0a14.58,14.58,0,0,1,4,.36,5.81,5.81,0,0,1,3.75,2.8,4.36,4.36,0,0,0,.58,1C35,6,34.94,8,34.34,10.08a17,17,0,0,1-1.53,3.34,73.72,73.72,0,0,1-4.58,6.77,21.77,21.77,0,0,1-1.61,2.17c-1.19,1.75-1.19,1.75.23,3.35a.73.73,0,0,1,.41.76c-.26.5-1.1.92-.1,1.51.17.09,0,.42-.17.59a4,4,0,0,1-1.6,1c-1,.33-2,.57-3.11.82a3.15,3.15,0,0,0-2.19,1.41,139.5,139.5,0,0,0-9.44,17.47c-.43,1.08-.77,2.17-1.2,3.26A3.24,3.24,0,0,0,9.52,55c.41.76.07,1-.77,1A3.49,3.49,0,0,1,5.33,54.08Zm-.15-2.43c.09-.42.09-.92.18-1.43A21.4,21.4,0,0,1,6.73,45.7c.09-.25.34-.41.09-.67-.17.17-.34.25-.42.42A41.18,41.18,0,0,0,4.77,50l-.26,1.26a1.15,1.15,0,0,1,.08.42c.08.16.17.33.33.33S5.18,51.82,5.18,51.65Zm3,.86c.18-.84.43-1.59.61-2.43a.31.31,0,0,0-.08-.25c-.09,0-.17,0-.17.08a9.37,9.37,0,0,0-.94,2.43c0,.25-.09.5.16.59S8.11,52.68,8.19,52.51Z"/><path class="cls-1" d="M35,39.2a10.34,10.34,0,0,1,.29-4.78l.26-1.09c0-.09-.09-.17-.17-.26-.08.09-.25.09-.25.17A8.72,8.72,0,0,0,34,37.85v.92a.91.91,0,0,1-.42-.93,6.71,6.71,0,0,1,.11-2.6,29.61,29.61,0,0,1,1.71-4.6c1.11-2.84.94-2.26-1.06-4.12-.42-.34-.76-.34-1.09.16-.51.67-.94,1.42-1.45,2.09s-1,1.33-1.6,2a2.43,2.43,0,0,1-1,.75c-.5.25-1.09.33-1.42-.1s.09-.92.43-1.25A29.15,29.15,0,0,0,31.88,25a4.54,4.54,0,0,0,.78-2.34,16.33,16.33,0,0,1,3.24-8.11c.09-.09.17-.17.26-.17s.33-.25.42-.17c.25.09.08.34,0,.51-.25.75-.93,1.42-.85,2.34.42-.67.85-1.34,1.35-2a3.15,3.15,0,0,1,.43-.67,1.08,1.08,0,0,1,1.93.18,3.09,3.09,0,0,1,.33.93c.08.58.33.67.83.42.34-.16.5.17.5.43a3,3,0,0,1-.34,1.42l-1.54,3.85a18.23,18.23,0,0,0-.6,2.09A3.41,3.41,0,0,0,40,27.65a2.17,2.17,0,0,1,.5.43,2.45,2.45,0,0,1,1,3.19c-.34.84-.77,1.59-1.11,2.34-.59,1.09-1.11,2.09-1.62,3.18a7.32,7.32,0,0,0-.34,1.34c0,.34.16.59.5.42a7.87,7.87,0,0,0,.93-.58,8.52,8.52,0,0,0,1.94-2.33,46.39,46.39,0,0,0,3.57-6.27c.34-.75.68-.92,1.18-.75A1,1,0,0,1,47,30.14c-1.78,3.59-3.66,7.27-6.53,10.19a3.8,3.8,0,0,1-2.78,1.32C36,41.55,35.21,40.88,35,39.2Zm2.29-14.84L37.78,22c.09-.42.26-.84.34-1.18,0-.16-.08-.33-.16-.25a.18.18,0,0,0-.17.17,13.35,13.35,0,0,0-1.11,2.84,1.89,1.89,0,0,0,0,.67c0,.09.17.26.34.34S37.26,24.53,37.26,24.36Zm.31,14.44.53-2.69c0-.08-.09-.16-.17-.25s-.17.08-.25.08a7.65,7.65,0,0,0-.86,2.51v.26c0,.16.08.42.33.42S37.49,39,37.57,38.8Z"/><path class="cls-1" d="M46.39,37.85c0-.5.09-1.09.1-1.59a15.48,15.48,0,0,1,.45-4.86c.43-1.76,1-3.44,1.38-5.11l.26-1.09c0-.08-.08-.17-.25-.17a3.6,3.6,0,0,0-.43.75,40,40,0,0,0-2.15,7.45A8.29,8.29,0,0,0,45.89,37a5.18,5.18,0,0,1-.73-3.53A24.17,24.17,0,0,1,49.7,20.84a17.23,17.23,0,0,1,5.74-4.65,6.27,6.27,0,0,1,4.28-.39,5.21,5.21,0,0,1,3.18,1.28,3.51,3.51,0,0,1,1.15,3,6.81,6.81,0,0,1-.17,1.26,20,20,0,0,1-2.14,5.35,6.28,6.28,0,0,1-3.12,2.58,10.18,10.18,0,0,1-4.2.89H53.33A1.15,1.15,0,0,0,52,31.1a16.69,16.69,0,0,0-.88,5,5.22,5.22,0,0,0,.74,2.53c.5.92.91,1,1.84.68a8.57,8.57,0,0,0,4.3-2.9l3.9-5.26a4.79,4.79,0,0,1,.84-1,.81.81,0,0,1,1.1-.25c.41.17.41.51.32.93-.18,1.76-.18,1.76-.85,2.76-.94,1.34-1.79,2.67-2.8,3.93a10.86,10.86,0,0,1-7.92,4.05A6.65,6.65,0,0,1,46.39,37.85Zm2.78-1.49a26.35,26.35,0,0,1,1.4-8l.26-1.09c0-.08.09-.33-.17-.33-.08,0-.16.16-.17.25a32,32,0,0,0-2.06,7.45,3.64,3.64,0,0,0,.24,1.76.36.36,0,0,0,.33.26C49.17,36.78,49.25,36.53,49.17,36.36ZM58,26.27a13.06,13.06,0,0,0,2.39-6V20c-.07-.76-.41-1-1.08-.6l-.51.34a19.53,19.53,0,0,0-5.33,6.92,5,5,0,0,0-.35,1c-.08.42.08.68.5.68C55.27,28.1,57,27.69,58,26.27Z"/><path class="cls-1" d="M79.17,41.45a4.39,4.39,0,0,1-2.5-2.79c-.08-.51-.07-1.26-.57-1.43-.67-.17-.93.66-1.27,1.08l-1.19,1.5A3.43,3.43,0,0,1,69,41c-.58-.26-1.17-.6-1.75-.86a4.82,4.82,0,0,1-3.08-4.3l0-1.93a29.7,29.7,0,0,1,4.12-14A13.5,13.5,0,0,1,71,16.8a8.79,8.79,0,0,1,10-1.35,4.91,4.91,0,0,0,.59.34.6.6,0,0,0,.76-.33,4.7,4.7,0,0,0,.42-.84c1.11-2.59,2.47-5,3.75-7.44a18.82,18.82,0,0,1,1.1-1.58c.59-.67,1.18-1.17,2.19-.74.66.25,1.34-.24,2,.1.83.42.41,1.34.91,1.76.75.51.49,1,.24,1.68a30.27,30.27,0,0,1-1.45,3.35C89.08,16.77,87,21.87,85,27.06A82.73,82.73,0,0,0,82.3,37.27c0,.25-.08.51-.08.76s-.18.92.32.92c.84.09.09.42.17.68a.24.24,0,0,0,.42,0c.5-.5,1-1.08,1.52-1.67,1.69-2.08,3.22-4.34,4.75-6.59.17-.34.42-.59.59-.92a.8.8,0,0,1,1-.16c.41.25.58.59.41.92a5.25,5.25,0,0,1-.51,1.18c-1.87,2.83-3.82,5.51-5.85,8.26a2.32,2.32,0,0,1-.42.5c-1.53,1.67-2.79,1.83-4.79.72A2.74,2.74,0,0,0,79.17,41.45ZM66.7,36.82V36a24.05,24.05,0,0,1,.38-6c.26-1,.52-2.1.69-3.1.09-.17.17-.5,0-.59s-.34.25-.34.42a25.6,25.6,0,0,0-1.65,7.87,6.16,6.16,0,0,0,.31,2.27c.09.17.17.25.34.25S66.7,36.91,66.7,36.82Zm2.85.28a15.33,15.33,0,0,1,.12-4.78c.09-.51.09-1,.18-1.51,0-.17,0-.34-.17-.34a.17.17,0,0,0-.16.17,17.31,17.31,0,0,0-1,4.52,8.22,8.22,0,0,0,.4,2c.09.17.26.17.34.33C69.38,37.35,69.55,37.18,69.55,37.1ZM76,33a1.71,1.71,0,0,1,.25-.42A8.58,8.58,0,0,0,77.5,29.1a40.28,40.28,0,0,1,2.66-8.2,2.27,2.27,0,0,0-.4-2.61c-.42-.5-.75-.59-1.26-.26A7.75,7.75,0,0,0,76.39,20a24.88,24.88,0,0,0-4.51,8.61,30,30,0,0,0-1.48,7.2,7.67,7.67,0,0,0,.08,1.43c.07.84.49,1,1.08.43Zm3,5.56A27.66,27.66,0,0,1,79.06,34a.49.49,0,0,0-.09-.34c-.25-.08-.33.17-.42.33A11,11,0,0,0,78,37.58c.08.33.08.67.16.92s.08.76.42.76S78.94,38.76,78.94,38.51Zm2.85.69v-.67a20.43,20.43,0,0,1,.63-6c.35-1.18.52-2.27.78-3.44v-.42c-.34-.08-.34.17-.43.33l-.51,1.51c-.43,1.93-.87,3.77-1.22,5.61a3.91,3.91,0,0,0-.17,1.34,4.35,4.35,0,0,0,.24,1.85c.08.09.16.26.33.26C81.78,39.7,81.7,39.37,81.79,39.2Z"/><path class="cls-1" d="M38.09,105.08a11.74,11.74,0,0,1-2.24-2.79A49.68,49.68,0,0,1,31.8,94a70.35,70.35,0,0,1-4.51-14.71l-.48-3.61c0-.17-.08-.34-.25-.34a.45.45,0,0,0-.42.25,19.19,19.19,0,0,0-.77,2.43C24.25,82.33,23,86.6,22.34,91a.48.48,0,0,1-.09.34c-.09.33-.17.75-.68.67S21,91.53,21,91.2a17.91,17.91,0,0,1,.11-3c.52-2.43,1-4.86,1.39-7.29,0-.17-.08-.26-.08-.42-.08.08-.25.25-.25.33-.69,2.51-1.21,5-1.65,7.54-.17.75-.26,1.59-.44,2.35a.79.79,0,0,1-.59.66.85.85,0,0,1-.92-.51,4.43,4.43,0,0,1-.31-3.1c.26-1.76.61-3.61,1-5.37a188.58,188.58,0,0,1,9.38-32.23c.17-.42.51-.84.26-1.34-.67.08-.68.75-.85,1.17a202.48,202.48,0,0,0-9.8,33.4,2.54,2.54,0,0,1-.18.84.64.64,0,0,1-.17.34v-.76c1.92-11.06,4.6-21.87,9-32.15l.77-2.09c.17-.42-.16-.68-.58-.51a1.26,1.26,0,0,0-.51.16,30.66,30.66,0,0,0-8.51,5.56c-.09.17-.26.25-.34.33-.08-.16,0-.25.09-.41.17-.42.67-.67.59-1.17-.58-.09-.84.49-1.18.83-.76.49-.68,1.42-.94,2.09s-.42.66-.84.24a2.47,2.47,0,0,1-.64-3.27,10.67,10.67,0,0,1,1.1-1.59,33.82,33.82,0,0,1,2.53-2.25,59.85,59.85,0,0,1,9.69-5.88,3.37,3.37,0,0,0,.76-.33c1.6-.58,2.69-.15,3.51,1.45.09.25.17.5.42.59,1.51.43,1.58,1.69,1.66,2.86a8.42,8.42,0,0,1-.78,3.44c-1,3.09-2.15,6.19-3.26,9.37a17,17,0,0,0-.6,2c0,.08.08.17.08.25a.55.55,0,0,0,.34-.08l1.1-1.08a85.62,85.62,0,0,1,8.53-8.92,45.54,45.54,0,0,1,7.68-5.48,10.92,10.92,0,0,1,4.71-1.39c1.59-.08,2.51,1.11,2.24,2.78a.88.88,0,0,1-.76.84,31,31,0,0,0-10.28,6,91.06,91.06,0,0,0-9.12,9,5,5,0,0,0-1.2,2.51,30.28,30.28,0,0,0-.31,7.72A57.13,57.13,0,0,0,35,85.76c0,.25.16.5.16.76a.32.32,0,0,1-.08.25c0-.09-.17-.17-.17-.26-.41-1.34-.82-2.69-1.14-4a37.59,37.59,0,0,1-1.44-10l0-2.76c0-.17-.08-.43-.17-.43-.25-.08-.33.17-.42.34a3.55,3.55,0,0,0-.26,1.59,26.57,26.57,0,0,0,.78,8.14A74.28,74.28,0,0,0,38.4,97.11a27.38,27.38,0,0,0,1.82,3.37,6.43,6.43,0,0,0,3.42,3c.25.08.5.17.5.5s-.25.42-.59.5-.42.17-.17.59c.16.25-.09.5-.34.58A4.77,4.77,0,0,1,38.09,105.08ZM31,85.06a3.93,3.93,0,0,1-.16-.84,47.69,47.69,0,0,1-1.43-11.51c0-.33-.08-.58-.07-.92l-.25-.17c-.17,0-.34.08-.34.25A5.36,5.36,0,0,0,28.59,73a27.39,27.39,0,0,0,.55,5.88c.4,2.1,1,4.2,1.55,6.22.08.08.16.33.25.33S31,85.14,31,85.06Z"/><path class="cls-1" d="M46.32,80.81A20.29,20.29,0,0,1,46.76,78a92.87,92.87,0,0,1,4.47-14.65c.43-1,.6-2.18,1.61-2.92A8,8,0,0,1,52,63.65c-1.88,4.94-3.34,10-4.8,15.07-.26,1-.44,2.09-.7,3.18,0,.08-.08.17-.17.33ZM47.47,84a7.75,7.75,0,0,1-.16-1.26,27.65,27.65,0,0,1,.79-4.69,132.55,132.55,0,0,1,5.41-16.91,10.42,10.42,0,0,1,.6-1.5,1,1,0,0,1,1.26-.58,1.05,1.05,0,0,1,.75,1.26c-.18.76-.43,1.59-.69,2.35,0,.08-.09.33.17.33.08,0,.16-.08.25-.16.26-.76.6-1.42.85-2.09.17-.25.26-.51.59-.5s.42.42.5.76a4.72,4.72,0,0,1-.35,1.92l-1.8,5.78L51.77,80.76a10.4,10.4,0,0,0-.34,1.68.65.65,0,0,0,.16.42.38.38,0,0,0,.42-.08,8.11,8.11,0,0,0,.93-.92,24.58,24.58,0,0,0,3.22-4.59c.51-.83,1-1.67,1.45-2.51a2.88,2.88,0,0,1,.84-.91,1,1,0,0,1,1.18.17c.25.34.16.59,0,.93a53,53,0,0,1-5,7.76,9.12,9.12,0,0,0-.76,1,3.64,3.64,0,0,1-1.77,1.59,6,6,0,0,1-3.44,0A1.65,1.65,0,0,1,47.47,84ZM57.52,52.53c-.09-.17-.08-.34-.17-.42-.25-.42-.5-.76-1-.34a1.07,1.07,0,0,1-1.51,0,1,1,0,0,1-.16-1.43A7.38,7.38,0,0,1,56,47.65a1.38,1.38,0,0,1,1.85-.49,6.91,6.91,0,0,0,1.17.43c1.51.1,2,.69,2,2V50a8,8,0,0,1-2.54,3A.69.69,0,0,1,57.52,52.53Z"/><path class="cls-1" d="M83.71,84.6a11.34,11.34,0,0,1,.45-3.35c.34-1.42.94-2.93,1.29-4.35,0-.17.25-.42-.08-.59,0,0-.26.25-.26.42-.94,2.42-2.21,4.76-2.07,7.62,0,.16,0,.25-.17.16s-.25-.08-.25-.17a6,6,0,0,1-.23-2.94A50.37,50.37,0,0,1,84.63,74c.94-2.26,1.79-4.52,2.65-6.78a3,3,0,0,0,.43-2.09c-1-.26-1.43.66-2,1.07a31.14,31.14,0,0,0-7.61,8.92,34.35,34.35,0,0,0-2.91,7.37c-.34,1.08-.69,2.26-1.11,3.26-.34.5-.6.67-.84,0s-.59-.5-1,0c-.68.83-1.1.83-1.76,0A2.87,2.87,0,0,1,70,84.17,6.32,6.32,0,0,1,70.48,82a53.44,53.44,0,0,1,1.89-6.36c0-.17.08-.34-.08-.51-.09,0-.26.25-.34.42a51.44,51.44,0,0,0-2.4,6.95c-.17.67-.09,1.34-.68,1.75-.67-.59-.42-1.26-.33-1.93A48.3,48.3,0,0,1,71,73.94c.77-2.09,1.54-4.19,2.39-6.19l.26-.92c0-.17.09-.51-.16-.59a.48.48,0,0,0-.43.25c-1,1.25-2.11,2.41-3.13,3.75a114.51,114.51,0,0,0-6.28,10.19,18.35,18.35,0,0,0-1.37,3.77c-.17.58-.51,1.25-.77,1.92-.17.25-.34.58-.84.33a.78.78,0,0,0-.92.16c-1.1.75-1.94.32-2.18-.94a4.3,4.3,0,0,1,.19-2.26c.26-1.18.52-2.43.86-3.6,1.37-4.27,2.66-8.46,4-12.64A5.09,5.09,0,0,0,63,66c.08-.08,0-.16-.09-.25-.08.08-.16.08-.16.17a21.16,21.16,0,0,0-1.11,2.67c-1.81,5.28-3.44,10.64-4.82,16-.08.16,0,.41-.34.41-.08,0-.16-.33-.16-.42a6.44,6.44,0,0,1,.1-2.85,124.59,124.59,0,0,1,6-18.92,10.94,10.94,0,0,1,1-1.84c.26-.5.59-.75,1.18-.32a.51.51,0,0,0,.59,0c1.26-.75,1.76-.57,2.42.69.17.17.17.42.59.51a1.12,1.12,0,0,1,1,1.51c-.17.76-.51,1.51-.77,2.35a22,22,0,0,1-1,3.09.32.32,0,0,0,.17.43c.17,0,.25,0,.33-.09.34-.33.6-.75.93-1.08,2.12-2.33,3.9-5,6.27-7.17.67-.5,1.34-1,2.18-.74A2.12,2.12,0,0,1,79,62.42c-.1,1.34-.27,2.68-.37,4v.42c.25.09.34-.08.34-.33a15.56,15.56,0,0,0,1-3.52c0-.08.08-.17.17-.25s.25.17.33.26a3.55,3.55,0,0,1,.15,2.43c-.09.67-.43,1.42,0,2.1.76-.17,1.1-.75,1.61-1.33,2-1.92,4.22-3.58,6.41-5.33a2.36,2.36,0,0,1,3.85,1.63c.25.84-.18,1.67-.1,2.51,0,.67-.09,1.18-.1,1.85a1,1,0,0,0,.08.42c.09-.09.34-.17.34-.34a10.31,10.31,0,0,0,.61-3.18c0-.17,0-.5.26-.42.08,0,.33.26.41.34a5.6,5.6,0,0,1,.24,2.1,12.78,12.78,0,0,1-.87,3.94,105.13,105.13,0,0,1-3.85,10.62,9.36,9.36,0,0,0-1,2.77c0,.16,0,.25.08.33a.28.28,0,0,0,.42,0c1-.92,2-1.84,3-2.75,1.44-1.59,2.71-3.42,4.06-5.09A11.17,11.17,0,0,1,97.13,74a1.13,1.13,0,0,1,1.26-.32c.92.17,1.17.76.58,1.43a53.78,53.78,0,0,1-9.22,10.67A9.45,9.45,0,0,1,88.23,87a2.09,2.09,0,0,1-2.86.15A3.46,3.46,0,0,1,83.71,84.6ZM74.42,69.94a23.26,23.26,0,0,0,1.81-5.78c.17-.17.17-.33-.08-.42s-.34.08-.43.25a5.42,5.42,0,0,1-.43,1.42c-.43,1.51-.77,2.85-1.28,4.19,0,.17-.09.42.16.5C74.25,70.1,74.42,70,74.42,69.94Zm13.51.43a34,34,0,0,0,2-5.52c0-.17,0-.42-.17-.51a.61.61,0,0,0-.5.33c-.52,1.76-1.12,3.69-1.64,5.61,0,.09.09.17.08.26C87.76,70.45,87.93,70.45,87.93,70.37Z"/></g></g></svg>