<svg xmlns="http://www.w3.org/2000/svg" viewBox="0 0 119.31 135.38"><defs><style>.cls-1{fill:#ff5858;}</style></defs><title>Asset 7</title><g id="Layer_2" data-name="Layer 2"><g id="Layer_1-2" data-name="Layer 1"><path class="cls-1" d="M3.84,132.52A32.42,32.42,0,0,1,4,128c.23-3,1.34-6.14,2-9.1.25-.41.08-1.07-.13-1.09-.41-.25-.68.38-.69.59a55.28,55.28,0,0,0-3.35,9.65,14.71,14.71,0,0,1-.67,3,.46.46,0,0,1-.46.4c-.2-.23-.4-.46-.38-.68-.56-1.12-.24-2.39-.14-3.67a42,42,0,0,1,3.13-12.25c4.21-12.38,8.42-24.76,13.05-36.9a493.82,493.82,0,0,1,29-64.71c2-3.29,4-6.37,6.16-9.64A18.25,18.25,0,0,1,55.27.19a1.28,1.28,0,0,1,1.5.12c.41.24.15.87-.12,1.5,0,.21-.48.6-.07.85.2.23.65,0,.66-.16.7-.59,1.19-1.41,1.65-1.81a3,3,0,0,1,4.83,1.68,7.2,7.2,0,0,1-.84,5.1c-2.28,4.35-4.35,8.71-6.63,13.05a10.73,10.73,0,0,0-1.3,2.7c-.23.2-.71.81.13,1.09,0,.21.47-.4.71-.81l6.8-12.39c.5-.82,1-1.86,1.49-2.47S64.86,7,65.49,7.25c.83.28.13,1.08-.14,1.71-2.45,6.49-5.75,12.69-8.82,18.91C52.87,36,48.79,43.85,44.92,52c-3.38,7.27-3.39,7.49,4.81,7.28a61.68,61.68,0,0,1,11,.43c.85.07,2.14.17,2.09.81a4.1,4.1,0,0,0,.2,2.82c.17.66-.71.81-1.13.77-4.77.27-9.35,1-14.08.83a35.74,35.74,0,0,0-4.74,0c-1.09.13-1.57.74-1.21,1.63a2.83,2.83,0,0,0,.51,1.76,32,32,0,0,1-.27,22.4A93.76,93.76,0,0,1,12.41,133.2a10,10,0,0,1-5.13,2.18C5.34,135.44,4.1,134.69,3.84,132.52Zm11.9-8.76a19.72,19.72,0,0,0,2.33-2.18C27.43,112.19,33.49,101,37.7,88.66a37.89,37.89,0,0,0,2-8.68c0-2.59.21-5.37-.64-8.24a2.58,2.58,0,0,0-1-1.16c-.84-.28-1.34.54-1.6,1.17-1.81,3.73-3.42,7.7-5.22,11.44C26.47,94.45,22.11,106,16.5,116.93l-2.39,5.63c-.26.62-.31,1.27.31,1.53C14.82,124.55,15.28,124.16,15.74,123.76Z"/><path class="cls-1" d="M53.19,89.21c-.42-1.09-.51-1.71-2-1.17-1.32.57-2.16-.39-2.11-1.81a18,18,0,0,1,1.41-4.42c3.69-8.07,7.94-15.84,12-23.65C69,45.52,75.73,32.92,81.72,20c2.34-5.07,5.43-9.79,7.6-15.09a4.78,4.78,0,0,1,1.84-2.31,1.68,1.68,0,0,1,1.68-.31,1.52,1.52,0,0,1,.74,1.56l-.14.79c-1.73,4-2.67,8.05-4.57,11.77-8.48,17.78-8,20.51-.51,4,2.11-4.9,5-9.47,6.51-14.68a1.47,1.47,0,0,1,.34-.75c.57-.91,1-2,2.52-1.57s2.79,2.53,2.15,3.84c-2.12,3.88-2.71,8.25-4.79,11.94-4.66,8.91-4.92,13.74-1.53,6.22,1.39-3.2,3.17-6.33,4.76-9.5a10.39,10.39,0,0,0,1.25-2.42c.37-.95.19-2.2,1.48-2.58a19.39,19.39,0,0,1-.61,3.35L98.23,19.7C95,26.63,91.67,33.56,88.59,40.52l-.91,1.67c-.07.39-.14.79.21,1.05A.74.74,0,0,0,89,43c1.7-1.53,3.56-2.82,5.25-4.34a32,32,0,0,1,10.48-6.24,12.36,12.36,0,0,1,10.57,1.09c3.36,1.63,4.55,4.07,3.87,7.82a14.53,14.53,0,0,1-2.74,6.21,34.83,34.83,0,0,1-11.27,9.55A105.37,105.37,0,0,1,89.7,63.69c-2.78.72-2.81.91-2.88,3.54l-.25,11.54a19,19,0,0,0,1.39,7c.72,2.77,1.5,2.91,4.19,1.57a26.39,26.39,0,0,0,4.48-3.46c4.66-4.45,9.16-9.12,13.83-13.56a27,27,0,0,1,2.62-2.17,2.69,2.69,0,0,1,2.54-.56,1.22,1.22,0,0,1,.86,2,8,8,0,0,1-1.77,1.92L101.28,85.08a12.64,12.64,0,0,0-2.6,3.19c-1.43,3.4-4.47,4.48-7.73,4.5a20.46,20.46,0,0,1-6-.47c-4.25-1.18-8-3.07-10.06-7.3a30.94,30.94,0,0,1-2.54-9.61,9.55,9.55,0,0,0-.39-2.3c-.13-.43-.72-.54-1.18-.22a13.62,13.62,0,0,0-1.45,2.39c-2,3.29-4.23,6.55-6.08,10.07C61.75,87.91,59,88.63,57,90.51,56,91.55,53.73,90.73,53.19,89.21ZM76,77.88c.1-2.83.24-5.85.15-8.72a6.51,6.51,0,0,0-.27-1.87.58.58,0,0,0-1,0,2.46,2.46,0,0,0-.41,1.14,29.1,29.1,0,0,0,.3,9.61c.12.42.45.89.64.92A.79.79,0,0,0,76,77.88ZM82.42,77c.17-3.22.31-6.25.29-9.5,0-.2-.13-.43-.09-.63-.17-.23-.52-.5-.76-.34a.44.44,0,0,0-.46.33l-.18,1c-.17,3.22-.7,6.17.18,9.18.12.43.28.66.71.53A.38.38,0,0,0,82.42,77Zm2.88-19.4a113.39,113.39,0,0,0,12.48-6.08,37.1,37.1,0,0,0,10.68-9.66,5.4,5.4,0,0,0,1.38-2,1,1,0,0,0-1.2-1.23,12,12,0,0,0-5.49,2.26c-7.06,4.22-13,9.86-18.81,15.31-.47.32-.77.88-.45,1.34S84.64,57.9,85.3,57.61Z"/></g></g></svg>