<svg id="Layer_2" data-name="Layer 2" xmlns="http://www.w3.org/2000/svg" xmlns:xlink="http://www.w3.org/1999/xlink" viewBox="0 0 445.84 630.64"><defs><style>.cls-1{fill:none;}.cls-2{fill:#ffd7e9;}.cls-3{fill:#ff5f88;}.cls-4{isolation:isolate;}.cls-5{clip-path:url(#clip-path);}</style><clipPath id="clip-path" transform="translate(-135.89 -191.99)"><polygon class="cls-1" points="136.27 768.26 135.75 203.9 219.04 227.81 219.56 792.18 136.27 768.26"/></clipPath></defs><title>personal-pink</title><polygon class="cls-2" points="168.52 0 84.12 16.49 361.23 67.86 445.84 51.54 168.52 0"/><polygon class="cls-3" points="445.81 51.51 445.58 157.34 361.07 173.69 361.37 67.92 445.81 51.51"/><polygon class="cls-3" points="261.66 155.42 177.34 139.86 177.21 269.12 261.43 252.99 261.66 155.42"/><polygon class="cls-3" points="409.93 280.48 410.13 386.2 325.37 402.51 325.71 296.97 409.93 280.48"/><polygon class="cls-3" points="261 390.94 176.86 375.2 176.2 630.64 260.42 614.7 261 390.94"/><polygon class="cls-2" points="409.93 280.48 261.43 252.99 177.21 269.12 325.71 296.97 409.93 280.48"/><g class="cls-4"><g class="cls-5"><path class="cls-3" d="M141.82,702.78c-1.9,4.17-3.35,10-3.34,20.61,0,6.24.57,14.83,3.6,22.27,4.5,11.06,11.67,14.14,17.16,15.71l6.5,1.87,0,13.49,12.1,3.47V766.72l40.24,11.55,0-22.92-40.24-11.56,0-19.21-12.1-3.48v19.22l-5-1.45c-2.92-.84-6.17-1.94-8.19-5.22a18.83,18.83,0,0,1-2.14-9.21,33.06,33.06,0,0,1,1.9-10.91l-10.43-10.75" transform="translate(-135.89 -191.99)"/><path class="cls-3" d="M166,656.64a34,34,0,0,0-1.78,12.13A38.61,38.61,0,0,0,167,684.4,58.06,58.06,0,0,0,172.74,695l-7.06-2,0,22.92,52.34,15L218,708l-30.93-8.88A54.85,54.85,0,0,1,180.8,688a34.06,34.06,0,0,1-2.93-13.64,21.91,21.91,0,0,1,1.23-7.91L166,656.64" transform="translate(-135.89 -191.99)"/><path class="cls-3" d="M184.91,645.05a19.74,19.74,0,0,1-7.52-7.89,26.45,26.45,0,0,1-2.7-11.9c0-4,.67-7.56,2.57-10a8.05,8.05,0,0,1,7.62-3.21l0,33m10-52.39-1.46-.42c-12.33-3.54-19.05.93-22.41,4.86-5.82,6.58-6.93,16.88-6.92,25.82,0,9.94,1.58,20.67,7.31,31.08,5.61,10,13.68,16.57,21.19,18.72s15,.28,20.06-6.2c6-7.7,6.7-18.8,6.69-28.58,0-18.2-2.94-29.16-8.66-38.55l-7.83,10.89A50.36,50.36,0,0,1,208,632.81c0,5.39-.55,10.28-3.57,13.63a9.23,9.23,0,0,1-9.41,2.35L195,592.66" transform="translate(-135.89 -191.99)"/><path class="cls-3" d="M192.56,562.48a22.1,22.1,0,0,1-14-10.93,24.7,24.7,0,0,1-2.81-11.77c0-7.75,3.23-11.87,6.7-14.08l18.16,5.22a30.62,30.62,0,0,1,7.31,19.62c0,5.56-1.45,8.86-4.14,11-3.59,2.68-8.18,1.86-11.21,1M217.84,513l-78.46-22.53,0,22.92,31.17,8.95c-5.38,4.87-6.27,13.54-6.26,20.45,0,8.09,1.13,17.68,6.3,27.09,3.59,6.42,10.21,14.56,21.53,17.81,11.54,3.31,18.26-1.66,21.29-5.35,5-6.14,5.58-14.4,5.58-22.15,0-6.58-.58-16.69-6.75-25.87l5.6,1.61,0-22.93" transform="translate(-135.89 -191.99)"/><polyline class="cls-3" points="81.84 193.86 49.81 217.53 29.5 179.84 29.52 208.16 48.15 242.67 3.43 229.82 3.45 252.75 81.91 275.28 81.89 252.35 66.2 247.85 60.25 236.54 81.86 220.66 81.84 193.86"/><path class="cls-3" d="M217.7,362.42l-52.34-15,0,22.92,52.35,15,0-22.93m-72.63-23.21c-5-1.45-9.19,3.59-9.18,11.17s4.16,15,9.21,16.46,9.18-3.59,9.17-11.18-4.15-15-9.2-16.45" transform="translate(-135.89 -191.99)"/><path class="cls-3" d="M217.58,227.39l-30.49-8.75c-7.06-2-14-3.68-18.71,2.55-3.8,5-4.36,12.06-4.35,18.47a46.44,46.44,0,0,0,2.48,15.88,48,48,0,0,0,5.39,11,12.72,12.72,0,0,0-6.05,6.86c-1.67,3.9-2,8.86-2,12.73A44.46,44.46,0,0,0,166,300.38a42.52,42.52,0,0,0,5.16,10.42l-5.82-1.67,0,22.58,52.34,15,0-22.58-33.74-9.69a42.86,42.86,0,0,1-4.94-7.83,23.66,23.66,0,0,1-2.58-10.35,9.51,9.51,0,0,1,1.56-5.61c2-2.63,5.6-2.27,9.75-1.08l29.93,8.59,0-22.25-33.74-9.69a36.2,36.2,0,0,1-4.94-8,24.61,24.61,0,0,1-2.59-10.52,9,9,0,0,1,1.45-5.47c2.36-3,6.62-1.81,10.53-.68L217.6,250l0-22.6" transform="translate(-135.89 -191.99)"/></g></g></svg>