<svg xmlns="http://www.w3.org/2000/svg" xmlns:xlink="http://www.w3.org/1999/xlink" viewBox="0 0 445.84 630.64"><defs><style>.cls-1{fill:none;}.cls-2{fill:#00d4cb;}.cls-3{fill:#ff5f88;}.cls-4{isolation:isolate;}.cls-5{clip-path:url(#clip-path);}.cls-6{fill:#3fb0ff;}</style><clipPath id="clip-path" transform="translate(-0.13)"><polygon class="cls-1" points="0.52 576.27 0 11.91 83.28 35.83 83.8 600.19 0.52 576.27"/></clipPath></defs><title>greyAsset 8</title><g id="Layer_2" data-name="Layer 2"><g id="Layer_2-2" data-name="Layer 2"><polygon class="cls-2" points="168.52 0 84.12 16.49 361.23 67.86 445.84 51.54 168.52 0"/><polygon class="cls-3" points="445.81 51.51 445.58 157.34 361.06 173.69 361.36 67.92 445.81 51.51"/><polygon class="cls-3" points="261.65 155.42 177.34 139.86 177.2 269.12 261.42 252.99 261.65 155.42"/><polygon class="cls-3" points="409.93 280.48 410.12 386.2 325.36 402.51 325.71 296.97 409.93 280.48"/><polygon class="cls-3" points="261 390.94 176.86 375.2 176.19 630.64 260.41 614.7 261 390.94"/><polygon class="cls-2" points="409.93 280.48 261.42 252.99 177.2 269.12 325.71 296.97 409.93 280.48"/><g class="cls-4"><g class="cls-5"><path class="cls-6" d="M6.06,510.79c-1.9,4.18-3.35,10-3.34,20.61,0,6.24.57,14.83,3.6,22.28,4.49,11.06,11.67,14.13,17.16,15.71l6.5,1.87,0,13.48,12.1,3.47V574.73l40.24,11.56,0-22.93L42.07,551.8l0-19.22-12.11-3.47,0,19.21-5-1.45c-2.92-.83-6.17-1.93-8.18-5.21a18.69,18.69,0,0,1-2.14-9.21,32.86,32.86,0,0,1,1.89-10.91L6.06,510.79" transform="translate(-0.13)"/><path class="cls-6" d="M30.22,464.65a34,34,0,0,0-1.78,12.12,38.5,38.5,0,0,0,2.82,15.64A57.84,57.84,0,0,0,37,503l-7.06-2,0,22.93,52.34,15,0-22.92-30.93-8.89A55,55,0,0,1,45,496a34.06,34.06,0,0,1-2.92-13.65,22.17,22.17,0,0,1,1.22-7.91l-13.12-9.83" transform="translate(-0.13)"/><path class="cls-6" d="M49.15,453.06a19.74,19.74,0,0,1-7.52-7.89,26.4,26.4,0,0,1-2.7-11.89c0-4,.67-7.56,2.57-10A8.05,8.05,0,0,1,49.12,420l0,33m10-52.39-1.46-.42c-12.33-3.54-19,.93-22.41,4.86-5.82,6.58-6.93,16.88-6.92,25.81,0,9.95,1.58,20.68,7.31,31.09,5.61,10,13.69,16.57,21.2,18.72s15,.27,20-6.2c6.05-7.7,6.7-18.81,6.69-28.58,0-18.21-2.94-29.15-8.66-38.55l-7.83,10.89a50.35,50.35,0,0,1,5.06,22.52c0,5.4-.55,10.29-3.57,13.64a9.25,9.25,0,0,1-9.41,2.35l-.05-56.13" transform="translate(-0.13)"/><path class="cls-6" d="M56.81,370.49a22.09,22.09,0,0,1-14-10.93A24.81,24.81,0,0,1,40,347.8c0-7.76,3.24-11.88,6.72-14.09l18.16,5.22a30.69,30.69,0,0,1,7.3,19.62c0,5.57-1.45,8.85-4.14,10.95-3.58,2.67-8.18,1.86-11.2,1M82.08,321,3.62,298.43l0,22.92,31.17,8.95c-5.38,4.86-6.27,13.54-6.26,20.45,0,8.09,1.14,17.69,6.3,27.09,3.59,6.42,10.21,14.56,21.53,17.81C67.92,399,74.65,394,77.67,390.31c5-6.14,5.58-14.41,5.58-22.17,0-6.57-.58-16.67-6.75-25.86l5.6,1.6,0-22.92" transform="translate(-0.13)"/><polyline class="cls-6" points="81.83 193.86 49.81 217.53 29.49 179.84 29.52 208.16 48.15 242.67 3.43 229.83 3.45 252.75 81.91 275.28 81.89 252.36 66.19 247.85 60.25 236.54 81.86 220.66 81.83 193.86"/><path class="cls-6" d="M81.94,170.43l-52.34-15,0,22.92,52.35,15,0-22.92M9.31,147.21c-5-1.45-9.18,3.61-9.18,11.18s4.16,15,9.21,16.47,9.18-3.6,9.17-11.19-4.15-15-9.2-16.46" transform="translate(-0.13)"/><path class="cls-6" d="M81.82,35.41,51.33,26.66c-7.06-2-14-3.7-18.7,2.54-3.81,5-4.36,12.07-4.36,18.47a46.8,46.8,0,0,0,2.48,15.87,47.47,47.47,0,0,0,5.39,11,12.67,12.67,0,0,0-6,6.86c-1.68,3.9-2,8.86-2,12.74a44.78,44.78,0,0,0,2.14,14.27,42.46,42.46,0,0,0,5.16,10.41l-5.82-1.68,0,22.6,52.34,15,0-22.6-33.74-9.68a43.16,43.16,0,0,1-4.93-7.82,23.55,23.55,0,0,1-2.59-10.35,9.57,9.57,0,0,1,1.56-5.62c2-2.62,5.6-2.27,9.75-1.07l29.93,8.59,0-22.25L48.13,74.27a36.66,36.66,0,0,1-4.94-8,24.85,24.85,0,0,1-2.58-10.52,8.86,8.86,0,0,1,1.45-5.48c2.35-3,6.61-1.81,10.53-.69L81.84,58l0-22.58" transform="translate(-0.13)"/></g></g></g></g></svg>