<svg xmlns="http://www.w3.org/2000/svg" viewBox="0 0 24 24"><defs><style>.cls-1{fill:#817872;}</style></defs><title>greyAsset 1</title><g id="Layer_2" data-name="Layer 2"><g id="Layer_1-2" data-name="Layer 1"><g id="Layer_2-2" data-name="Layer 2"><g id="Layer_1-2-2" data-name="Layer 1-2"><g id="Layer_2-2-2" data-name="Layer 2-2"><g id="Layer_1-2-2-2" data-name="Layer 1-2-2"><path class="cls-1" d="M19.62,22H4.38A2.4,2.4,0,0,1,2,19.62V4.38A2.4,2.4,0,0,1,4.38,2H19.62A2.4,2.4,0,0,1,22,4.38V19.62A2.4,2.4,0,0,1,19.62,22Zm0,2A4.38,4.38,0,0,0,24,19.62V4.38A4.38,4.38,0,0,0,19.62,0H4.38A4.38,4.38,0,0,0,0,4.38H0V19.62A4.38,4.38,0,0,0,4.38,24Z"/><path class="cls-1" d="M9.77,12.42,8.29,7.62l-1.42,4.8Zm2.84,5.08H11.24l-1.17-3.82H6.55L5.43,17.5H4.11L7.6,5.65H9Z"/><path class="cls-1" d="M18,13V11.64a1.43,1.43,0,0,0-.56-1.27A2.29,2.29,0,0,0,16.1,10a1.9,1.9,0,0,0-1.27.45,1.72,1.72,0,0,0-.51,1.34v1.35Zm-3.64,2.21c0,1,.56,1.44,1.69,1.44a4.82,4.82,0,0,0,2.3-.69l.46,1A5.15,5.15,0,0,1,16,17.7c-2,0-2.94-.82-2.94-2.47V11.76A2.7,2.7,0,0,1,14,9.63a3.27,3.27,0,0,1,2.26-.76,3,3,0,0,1,2.19.75,2.71,2.71,0,0,1,.79,2.09V14l-4.87.25Z"/></g></g></g></g></g></g></svg>