<svg id="Layer_1" data-name="Layer 1" xmlns="http://www.w3.org/2000/svg" viewBox="0 0 33.04 22.89"><defs><style>.cls-1{fill:#ff5858;}</style></defs><title>arrow</title><g id="Page-1"><g id="Case-studies"><g id="noun_Hand-drawn-arrow_1724670" data-name="noun Hand-drawn-arrow 1724670"><g id="Group"><path id="Shape" class="cls-1" d="M23.71.93s0,0,0,0,0,0,0,0h0" transform="translate(-0.7 -0.71)"/><path id="Shape-2" data-name="Shape" class="cls-1" d="M33.69,10.66a.54.54,0,0,0-.29-.55A3.08,3.08,0,0,0,33,9.76c-.34-.29-.72-.59-1.06-.93C31,8,30.07,7.2,29.17,6.39s-2-1.75-2.9-2.64c-.42-.38-.81-.81-1.19-1.2A5.45,5.45,0,0,1,24.61,2c0-.08-.13-.13-.17-.21s0,0,0-.09-.09-.08-.09-.12-.21-.26-.3-.39a0,0,0,0,0,0,0,0,0,0,0,0,0,0h0c-.05,0-.05,0-.05-.09l0,0V1h0V1s0,0,0-.09h0c-.13-.21-.51-.25-.56,0-.17,0-.38.13-.38.3,0,.55,0,1.15,0,1.71a7.23,7.23,0,0,0,0,.93c.05.26.05.47.09.73l-1.37-.13a6,6,0,0,0-.85,0h-.94c-1.19,0-2.35,0-3.54,0-2.39,0-4.73,0-7.12,0-1.33,0-2.65,0-4,0-.64,0-1.32,0-2,0-.34,0-.64,0-1,0a1.84,1.84,0,0,0-.52,0c-.17,0-.34.12-.51.17s0,0-.08,0-.09,0-.13,0a2.86,2.86,0,0,0-.17.6,3.88,3.88,0,0,0,0,.68,14.93,14.93,0,0,0-.05,1.5c0,1,0,1.92,0,2.9,0,1.92,0,3.84,0,5.76v0a.39.39,0,0,0,.3.59s.09.05.13.05a0,0,0,0,1,0,0c.05,0,.13,0,.17.09a.37.37,0,0,0,.17.08c.05,0,.05,0,.09,0s0,.05.08.05a2.46,2.46,0,0,1,.39.29,5.61,5.61,0,0,1,.68.6l.09.09v0a.26.26,0,0,0,.29.26h.09a2.33,2.33,0,0,0,.3.12.31.31,0,0,0,.25-.08,11.93,11.93,0,0,1,1.2,0H6.82c1.19,0,2.39,0,3.58,0h10c.47,0,.94,0,1.41,0s.72,0,1.06-.08a5.14,5.14,0,0,0,.17,1.62v.81a13.92,13.92,0,0,0,.17,2.22c.05.17.13.34.3.38l0,0a.36.36,0,0,0,.52-.13,33.08,33.08,0,0,1,2-2.64,1.6,1.6,0,0,0,.3-.26l.81-.68c.56-.47,1.11-1,1.67-1.49s1.06-1,1.58-1.58a6.94,6.94,0,0,0,.72-.81,1.54,1.54,0,0,0,.26-.43s0,0,.08,0,.3-.17.43-.26a.21.21,0,0,0,.21-.17c.21-.59.39-1.23.56-1.87l.25-.77c.09-.17.22-.39.3-.56s.3-.51.43-.72h0a1.27,1.27,0,0,0-.05-.47M3.45,16.76a1,1,0,0,0-.51.17l0,0-.26-.21a.35.35,0,0,0-.17-.09H3.75c-.13,0-.21,0-.3.09m1,1H3.75a1.38,1.38,0,0,0-.3-.34,1.58,1.58,0,0,0,.21,0,3.44,3.44,0,0,0,1.24.34h0a1.8,1.8,0,0,1-.51,0m18.34-.38a.2.2,0,0,0-.25,0,3.28,3.28,0,0,1-1.45.26H19.4c-1.15,0-2.34,0-3.49-.09s-2.35-.08-3.5-.17c-.51,0-1.07-.08-1.58-.08H9.34c-1,0-1.92.08-2.9.08-.47,0-.94,0-1.45-.08a.22.22,0,0,1-.17-.05c.12,0,.25,0,.38,0l2.64-.13c1.92,0,3.89.09,5.81.17,1.49.05,3,.13,4.47.13.73,0,1.46,0,2.22-.08a13.29,13.29,0,0,1,1.41-.05,8.78,8.78,0,0,1,1,.09h0m1.8,3.54c-.05.09-.13.21-.17.3a.56.56,0,0,0-.09.21,2.77,2.77,0,0,0-.34.47v-.34h0v-.17a.17.17,0,0,1,0-.13v0s0,0,0-.09a5.86,5.86,0,0,1,.35-.64,0,0,0,0,1,0,0l0,0a.63.63,0,0,0,.13-.17c.08-.13.17-.22.25-.34s.09-.13.13-.17.17.17.26.08a1.92,1.92,0,0,0,.17-.13,5.63,5.63,0,0,0-.38.6,2.61,2.61,0,0,0-.47.64m3.84-5.33c.72-.68,1.49-1.41,2.26-2l-.09.09c-.3.38-.64.72-1,1.1-.09.13-.21.22-.3.35l-.21.12a2.19,2.19,0,0,0-.68.39m3.83-3.33a9,9,0,0,0-.42.81,1.75,1.75,0,0,0-.22.81c-.29.26-.59.51-.89.81-.09,0-.17.13-.26.17l.64-.77a4.47,4.47,0,0,0,.77-1.23.21.21,0,0,0-.08-.26c.21-.17.38-.34.59-.51-.08.09-.13.13-.13.17m.35-1.45c-.22.13-.39.3-.6.43-.43.3-.81.64-1.2.94-.81.64-1.62,1.32-2.34,2a38.39,38.39,0,0,0-4.27,4.48c-.21.26-.38.47-.55.72a12.42,12.42,0,0,1-.09-2.21.52.52,0,0,0,0-.35v-.59A.32.32,0,0,0,23,16a1.87,1.87,0,0,0-.68-.13H19.62c-1.2,0-2.39,0-3.59,0-2.38,0-4.77,0-7.16,0H5a31.4,31.4,0,0,0-3.5.09c0-1.84,0-3.63,0-5.46,0-1,0-1.92,0-2.9,0-.47,0-.94,0-1.41,0-.22-.05-.47-.05-.68a2.66,2.66,0,0,0-.12-.56,2.34,2.34,0,0,0,.81.17c.29,0,.59,0,.93,0,.6,0,1.2,0,1.8,0,1.19,0,2.34,0,3.54,0,2.39,0,4.73,0,7.12,0,1.32,0,2.64,0,4,0,.64,0,1.32,0,2,0A12,12,0,0,0,23.2,4.9c.09,0,.17,0,.21,0s.17-.17.13-.26A1.53,1.53,0,0,0,23.63,4a3.66,3.66,0,0,1-.09-1V2.13c.26.34.51.64.77.94a27.94,27.94,0,0,0,2.52,2.47c1.75,1.62,3.58,3.16,5.41,4.74.17.12.3.25.47.38h0c0,.08-.08.13-.12.17" transform="translate(-0.7 -0.71)"/><path id="Shape-3" data-name="Shape" class="cls-1" d="M23.8,1h0" transform="translate(-0.7 -0.71)"/><path id="Shape-4" data-name="Shape" class="cls-1" d="M20.56,15.1c-4.74-.17-9.47-.22-14.21-.3-1.28,0-2.52-.05-3.8-.05h0V14a58.22,58.22,0,0,0,6.61-.05c2.31-.08,4.65-.25,7-.38.59,0,1.23-.08,1.83-.08,0,0,0-.05,0-.05-4.61.17-9.26.6-13.86.43-.51,0-1,0-1.54,0V13.3H5.88s0,0,0,0H2.51v-.64c1.84,0,3.67,0,5.55,0,.08,0,0-.13,0-.13-1.84,0-3.67,0-5.55,0,0-.43,0-.9,0-1.32V9.81c.3,0,.6-.05.9-.05a10.11,10.11,0,0,1,1.1,0c.86,0,1.75,0,2.61-.08,1.75-.05,3.49-.05,5.29-.17h.21s0-.05,0-.05l-5.2.13c-1.58,0-3.16,0-4.74.21H2.51a23.62,23.62,0,0,1,.22-2.51.1.1,0,0,0-.09-.09s0-.08,0-.13a1.48,1.48,0,0,0,.13-.21.56.56,0,0,1,.34-.17s0,0,0,0H2.94c-.09,0-.13.08-.21.13a.54.54,0,0,0-.22.46h0a22.21,22.21,0,0,0-.29,3.72c0,.76,0,1.53,0,2.3H2.09a0,0,0,0,0,0,.08H2.3v.52H2.17c-.13,0-.08.17,0,.21h.09c0,.3,0,.6,0,.85,0,0,0,.09.08,0s.05,0,.09,0c4.73.13,9.47.21,14.2.3,1.28,0,2.52,0,3.76,0,.25,0,.21-.17.13-.17" transform="translate(-0.7 -0.71)"/><path id="Shape-5" data-name="Shape" class="cls-1" d="M26.87,13.94a10.19,10.19,0,0,0-2.3,2.56V16a3.48,3.48,0,0,0-.09-1s-.08,0-.08,0a3.33,3.33,0,0,0-.09.94V17.1c0,.13.21.21.26.09a7.82,7.82,0,0,1,1-1.71A14.65,14.65,0,0,1,27,14a.1.1,0,0,0-.08-.09" transform="translate(-0.7 -0.71)"/><path id="Shape-6" data-name="Shape" class="cls-1" d="M31.14,10.66c-.13,0-.22-.21-.3-.3s-.13-.17-.26-.21-.21.08-.08.17a.82.82,0,0,1,.25.3s.09.08.09.12a6.9,6.9,0,0,0-.77.47c-.3.22-.56.47-.81.69l-.13.12h0a9.09,9.09,0,0,0-2.6.13s0,0,0,0a15.15,15.15,0,0,1,2.52-.13c-.47.42-.9.94-1.33,1.41-.08.08.05.17.13.12.51-.47,1-1,1.49-1.45.26-.25.52-.47.81-.72s.64-.39.94-.6c.17,0,.13-.17.05-.17" transform="translate(-0.7 -0.71)"/><path id="Shape-7" data-name="Shape" class="cls-1" d="M23.58,6.05c-4.69-.13-9.38.17-14.07.34-2,.09-4,.13-6.06.13-.08,0,0,.13,0,.13,4.74,0,9.43-.26,14.16-.38,2,0,4,0,6,0,.13,0,.09-.17,0-.17" transform="translate(-0.7 -0.71)"/><path id="Shape-8" data-name="Shape" class="cls-1" d="M24.05,4.18h0c0,.51,0,1,0,1.49,0,0,0,0,0,0V4.18" transform="translate(-0.7 -0.71)"/><path id="Shape-9" data-name="Shape" class="cls-1" d="M29.22,8.78a8.72,8.72,0,0,0-1-.81h.22s0,0,0,0h-.26a0,0,0,0,1,0,0c-.38-.3-.73-.64-1.11-1-.68-.64-1.36-1.33-2-2-.05,0-.09,0-.05,0,.64.69,1.32,1.37,2,2a11.86,11.86,0,0,0,1.06.94,5.29,5.29,0,0,0-.89,0c-.43,0-.9,0-1.32,0-.86,0-1.75.13-2.61.17,0,0,0,0,0,0,.9,0,1.75-.08,2.61-.13.42,0,.89,0,1.32,0s.64,0,.94,0c.17.17.38.3.55.47-1,0-2,0-2.94,0s-2,.13-3.07.21c0,0,0,0,0,0,1,0,2-.13,3.07-.17s2,0,3-.13a1,1,0,0,0,.52.38c0,.09,0,.05,0,0" transform="translate(-0.7 -0.71)"/><path id="Shape-10" data-name="Shape" class="cls-1" d="M28.45,10.62c-1.2.12-2.39.21-3.54.34h0c1.19-.09,2.34-.22,3.54-.34h0" transform="translate(-0.7 -0.71)"/><path id="Shape-11" data-name="Shape" class="cls-1" d="M11,8.87C8.27,9,5.54,9,2.81,9.08v0C5.54,9,8.27,9,11,8.87h0" transform="translate(-0.7 -0.71)"/></g></g></g></g></svg>