<?xml version="1.0" encoding="UTF-8"?>
<svg width="34px" height="24px" viewBox="0 0 34 24" version="1.1" xmlns="http://www.w3.org/2000/svg" xmlns:xlink="http://www.w3.org/1999/xlink">
    <!-- Generator: Sketch 50 (54983) - http://www.bohemiancoding.com/sketch -->
    <title>noun_Hand drawn arrow_1724670</title>
    <desc>Created with Sketch.</desc>
    <defs></defs>
    <g id="Page-1" stroke="none" stroke-width="1" fill="none" fill-rule="evenodd">
        <g id="Case-studies" transform="translate(-820.000000, -12073.000000)" fill="#FFC823" fill-rule="nonzero">
            <g id="noun_Hand-drawn-arrow_1724670" transform="translate(820.507265, 12073.421666)">
                <g id="Group">
                    <path d="M23.2055889,0.511887991 C23.2055889,0.469230658 23.1629316,0.469230658 23.2055889,0.511887991 C23.1629316,0.469230658 23.2055889,0.469230658 23.2055889,0.511887991 C23.2055889,0.511887991 23.2055889,0.511887991 23.2055889,0.511887991" id="Shape"></path>
                    <path d="M33.1874047,10.2377598 C33.2300621,9.98181582 33.0594327,9.81118649 32.8888034,9.68321449 C32.7608314,9.55524249 32.6328594,9.42727049 32.5048874,9.34195583 C32.1636287,9.0433545 31.7797127,8.74475317 31.4384541,8.40349451 C30.4999928,7.59300519 29.5615315,6.78251587 28.6657275,5.97202656 C27.6846088,5.11887991 26.7034902,4.22307592 25.7650289,3.32727194 C25.3384555,2.94335595 24.9545395,2.51678262 24.5706235,2.13286663 C24.3999942,1.9622373 24.2293649,1.79160797 24.1013929,1.62097864 C24.0587356,1.53566397 23.9734209,1.49300664 23.9307636,1.40769197 C23.9307636,1.36503464 23.8881062,1.36503464 23.8881062,1.32237731 C23.8454489,1.27971998 23.8027916,1.23706264 23.8027916,1.19440531 C23.7174769,1.06643331 23.5895049,0.938461316 23.5041902,0.810489318 C23.5041902,0.810489318 23.5041902,0.767831986 23.4615329,0.767831986 C23.4615329,0.767831986 23.4615329,0.725174653 23.4188756,0.725174653 C23.4188756,0.725174653 23.4188756,0.725174653 23.4188756,0.725174653 C23.3762182,0.682517321 23.3762182,0.682517321 23.3762182,0.639859988 C23.3762182,0.639859988 23.3335609,0.597202656 23.3335609,0.597202656 C23.3335609,0.597202656 23.3335609,0.597202656 23.3335609,0.639859988 C23.3335609,0.639859988 23.3335609,0.597202656 23.3335609,0.597202656 C23.3335609,0.597202656 23.3335609,0.597202656 23.3335609,0.597202656 C23.3335609,0.597202656 23.3335609,0.597202656 23.3335609,0.554545323 C23.3335609,0.511887991 23.2909036,0.511887991 23.2909036,0.469230658 C23.2909036,0.469230658 23.2909036,0.469230658 23.2909036,0.469230658 C23.2909036,0.469230658 23.2909036,0.469230658 23.2909036,0.469230658 C23.2909036,0.469230658 23.2909036,0.469230658 23.2909036,0.469230658 C23.2909036,0.469230658 23.2909036,0.469230658 23.2909036,0.469230658 C23.2909036,0.469230658 23.2909036,0.469230658 23.2909036,0.469230658 C23.2909036,0.469230658 23.2909036,0.469230658 23.2909036,0.469230658 C23.1629316,0.255943995 22.7790156,0.213286663 22.7363582,0.469230658 C22.5657289,0.469230658 22.3524423,0.597202656 22.3524423,0.767831986 C22.3097849,1.32237731 22.3524423,1.91957996 22.3524423,2.47412529 C22.3524423,2.77272662 22.3524423,3.11398528 22.3950996,3.4125866 C22.4377569,3.6685306 22.4377569,3.88181726 22.4804143,4.13776126 C22.0111836,4.09510392 21.5846103,4.05244659 21.1153796,4.00978926 C20.8167783,3.96713193 20.5608343,4.00978926 20.262233,4.00978926 C19.9636316,4.00978926 19.6650303,4.00978926 19.3237716,4.00978926 C18.1293663,4.00978926 16.9776184,3.96713193 15.783213,3.96713193 C13.3944024,3.92447459 11.0482491,3.92447459 8.65943851,3.92447459 C7.3370612,3.92447459 6.01468389,3.92447459 4.69230658,3.96713193 C4.05244659,3.96713193 3.36992927,4.00978926 2.73006928,4.00978926 C2.38881062,4.00978926 2.09020929,4.05244659 1.74895063,4.05244659 C1.5783213,4.05244659 1.40769197,4.05244659 1.23706264,4.09510392 C1.06643331,4.13776126 0.895803983,4.22307592 0.725174653,4.26573325 C0.682517321,4.26573325 0.682517321,4.30839059 0.639859988,4.30839059 C0.597202656,4.26573325 0.554545323,4.30839059 0.511887991,4.35104792 C0.426573325,4.56433458 0.383915993,4.73496391 0.34125866,4.94825058 C0.298601328,5.16153724 0.298601328,5.41748123 0.298601328,5.6307679 C0.255943995,6.14265589 0.255943995,6.61188654 0.255943995,7.12377454 C0.255943995,8.10489318 0.255943995,9.0433545 0.213286663,10.0244731 C0.213286663,11.9440531 0.213286663,13.8636331 0.255943995,15.783213 C0.255943995,15.783213 0.255943995,15.783213 0.255943995,15.8258704 C0.0853146651,16.039157 0.255943995,16.3804157 0.554545323,16.423073 C0.597202656,16.423073 0.639859988,16.4657304 0.682517321,16.4657304 C0.682517321,16.4657304 0.725174653,16.4657304 0.725174653,16.5083877 C0.767831986,16.551045 0.853146651,16.551045 0.895803983,16.5937024 C0.938461316,16.6363597 1.02377598,16.679017 1.06643331,16.679017 C1.10909065,16.679017 1.10909065,16.7216744 1.15174798,16.7216744 C1.15174798,16.7216744 1.19440531,16.7643317 1.23706264,16.7643317 C1.36503464,16.8496464 1.49300664,16.934961 1.62097864,17.062933 C1.87692263,17.2335623 2.09020929,17.446849 2.30349596,17.6601357 C2.34615329,17.702793 2.34615329,17.702793 2.38881062,17.7454503 C2.38881062,17.7454503 2.38881062,17.7881077 2.38881062,17.7881077 C2.38881062,17.958737 2.51678262,18.0440517 2.68741195,18.0440517 C2.73006928,18.0440517 2.73006928,18.0440517 2.77272662,18.0440517 C2.85804128,18.086709 2.94335595,18.1293663 3.07132794,18.1720237 C3.15664261,18.1720237 3.24195727,18.1720237 3.32727194,18.086709 C3.71118793,18.086709 4.13776126,18.086709 4.52167725,18.1293663 C5.11887991,18.1293663 5.71608256,18.1293663 6.31328522,18.1293663 C7.50769053,18.1293663 8.70209584,18.1293663 9.89650115,18.1720237 C12.2853118,18.1720237 14.6314651,18.1720237 17.0202757,18.1720237 C18.0013943,18.1720237 18.982513,18.1720237 19.9209743,18.1720237 C20.390205,18.1720237 20.8594356,18.1720237 21.3286663,18.1293663 C21.6699249,18.086709 22.0538409,18.086709 22.3950996,18.0440517 C22.3950996,18.598597 22.3950996,19.1531423 22.5657289,19.6650303 C22.5657289,19.9209743 22.5657289,20.2195756 22.5657289,20.4755196 C22.5657289,21.2006943 22.6083862,21.9685263 22.7363582,22.6937009 C22.7790156,22.8643302 22.8643302,23.0349596 23.0349596,23.0776169 C23.0349596,23.0776169 23.0776169,23.1202742 23.0776169,23.1202742 C23.2909036,23.2482462 23.4615329,23.1629316 23.5895049,22.9923022 C24.2293649,22.0538409 24.9118822,21.2006943 25.6370569,20.3475476 C25.7650289,20.262233 25.8503435,20.1769183 25.9356582,20.0916036 C26.1916022,19.878317 26.4902035,19.622373 26.7461475,19.4090863 C27.3006928,18.9398557 27.8552382,18.4279677 28.4097835,17.9160797 C28.9643288,17.4041917 29.4762168,16.8923037 29.9881048,16.3377584 C30.2440488,16.0818144 30.4999928,15.8258704 30.7132794,15.527269 C30.7985941,15.399297 30.9265661,15.2713251 30.9692234,15.1006957 C31.0118808,15.1006957 31.0118808,15.0580384 31.0545381,15.0580384 C31.1825101,14.9727237 31.3531394,14.8874091 31.4811114,14.8020944 C31.5664261,14.8020944 31.6517407,14.7594371 31.6943981,14.6314651 C31.9076847,14.0342624 32.0783141,13.3944024 32.2489434,12.7545424 C32.3342581,12.4985984 32.4195727,12.2426544 32.5048874,11.9867104 C32.5902021,11.8160811 32.7181741,11.6027945 32.8034887,11.4321651 C32.9314607,11.1762211 33.1020901,10.9202771 33.2300621,10.7069905 C33.2300621,10.7069905 33.2300621,10.7069905 33.2300621,10.7069905 C33.2300621,10.4937038 33.2300621,10.3657318 33.1874047,10.2377598 M2.94335595,16.3377584 C2.77272662,16.3804157 2.55943995,16.3804157 2.43146796,16.5083877 C2.43146796,16.5083877 2.38881062,16.551045 2.38881062,16.551045 C2.30349596,16.4657304 2.21818129,16.423073 2.13286663,16.3377584 C2.09020929,16.295101 2.00489463,16.2524437 1.9622373,16.2524437 C2.38881062,16.2524437 2.81538395,16.2524437 3.24195727,16.2524437 C3.11398528,16.295101 3.02867061,16.295101 2.94335595,16.3377584 M3.92447459,17.3615343 C3.71118793,17.3615343 3.45524394,17.3615343 3.24195727,17.3615343 C3.15664261,17.2335623 3.07132794,17.1055904 2.94335595,17.0202757 C3.02867061,17.0202757 3.11398528,16.9776184 3.15664261,16.9776184 C3.5405586,17.190905 4.00978926,17.2762197 4.39370525,17.318877 C4.39370525,17.318877 4.43636258,17.318877 4.43636258,17.318877 C4.30839059,17.3615343 4.13776126,17.3615343 3.92447459,17.3615343 M22.2671276,16.9776184 C22.1818129,16.934961 22.0964983,16.934961 22.0111836,17.0202757 C21.5419529,17.2335623 21.0727223,17.2762197 20.5608343,17.2762197 C20.006289,17.2762197 19.4517436,17.2762197 18.8971983,17.2762197 C17.7454503,17.2762197 16.551045,17.2335623 15.399297,17.190905 C14.2475491,17.1482477 13.0531438,17.1055904 11.9013958,17.0202757 C11.3895078,16.9776184 10.8349625,16.934961 10.3230745,16.934961 C9.81118649,16.934961 9.34195583,16.934961 8.83006784,16.934961 C7.84894919,16.9776184 6.91048787,17.0202757 5.92936922,17.0202757 C5.46013857,17.0202757 4.99090791,16.9776184 4.47901992,16.934961 C4.43636258,16.934961 4.35104792,16.934961 4.30839059,16.8923037 C4.43636258,16.8923037 4.56433458,16.8496464 4.69230658,16.8496464 C5.58811056,16.806989 6.44125721,16.7643317 7.3370612,16.7216744 C9.25664116,16.7216744 11.2188785,16.806989 13.1384584,16.8923037 C14.6314651,16.934961 16.1244717,17.0202757 17.6174783,17.0202757 C18.342653,17.0202757 19.0678276,16.9776184 19.8356596,16.934961 C20.3048903,16.8923037 20.774121,16.8923037 21.2433516,16.8923037 C21.5846103,16.8923037 21.9258689,16.934961 22.2671276,16.9776184 C22.2671276,16.9776184 22.2671276,16.9776184 22.2671276,16.9776184 M24.0587356,20.518177 C24.0160782,20.6034916 23.9307636,20.7314636 23.8881062,20.8167783 C23.8454489,20.9020929 23.8027916,20.9874076 23.8027916,21.0300649 C23.6748196,21.2006943 23.5468476,21.3286663 23.4615329,21.4992956 C23.4615329,21.4566383 23.4615329,21.4139809 23.4615329,21.4139809 C23.4615329,21.3286663 23.4615329,21.2433516 23.4615329,21.1580369 C23.4615329,21.1580369 23.4615329,21.1580369 23.4615329,21.1580369 C23.4615329,21.1580369 23.4615329,21.1153796 23.4615329,21.1153796 C23.4615329,21.0727223 23.4615329,21.0300649 23.4615329,20.9874076 C23.4615329,20.9447503 23.4615329,20.9020929 23.5041902,20.8594356 C23.5041902,20.8594356 23.5041902,20.8594356 23.5041902,20.8167783 C23.5041902,20.774121 23.5041902,20.774121 23.5468476,20.7314636 C23.6321622,20.518177 23.7601342,20.3048903 23.8881062,20.0916036 C23.8881062,20.0916036 23.8881062,20.0489463 23.9307636,20.0489463 C23.9307636,20.0489463 23.9734209,20.006289 23.9734209,20.006289 C24.0160782,19.9636316 24.0587356,19.9209743 24.1013929,19.8356596 C24.1867076,19.7076876 24.2720222,19.622373 24.3573369,19.494401 C24.3999942,19.4517436 24.4426515,19.366429 24.4853089,19.3237716 C24.5279662,19.4090863 24.6559382,19.494401 24.7412529,19.4090863 C24.7839102,19.366429 24.8692249,19.3237716 24.9118822,19.2811143 C24.7839102,19.4517436 24.6559382,19.6650303 24.5279662,19.878317 C24.3146796,20.0916036 24.1867076,20.3048903 24.0587356,20.518177 M27.8978955,15.1860104 C28.6230701,14.5034931 29.3909021,13.7783184 30.1587341,13.1384584 C30.1160768,13.1811158 30.1160768,13.1811158 30.0734194,13.2237731 C29.7748181,13.6076891 29.4335595,13.9489477 29.0923008,14.3328637 C29.0069861,14.4608357 28.8790141,14.5461504 28.7936995,14.6741224 C28.7083848,14.7167797 28.6657275,14.7594371 28.5804128,14.8020944 C28.3244688,14.8874091 28.1111821,15.0153811 27.8978955,15.1860104 M31.7370554,11.8587384 C31.5664261,12.1146824 31.4384541,12.4132838 31.3104821,12.6692278 C31.1825101,12.9251718 31.0971954,13.1811158 31.0971954,13.4797171 C30.7985941,13.7356611 30.4999928,13.9916051 30.2013914,14.2902064 C30.1160768,14.3328637 30.0307621,14.4181784 29.9454474,14.4608357 C30.1587341,14.2048917 30.3720208,13.9489477 30.5853074,13.6930037 C30.8839088,13.3090878 31.1825101,12.9251718 31.3531394,12.4559411 C31.3957968,12.3706264 31.3531394,12.2426544 31.2678248,12.1999971 C31.4811114,12.0293678 31.6517407,11.8587384 31.8650274,11.6881091 C31.7797127,11.7734238 31.7370554,11.8160811 31.7370554,11.8587384 M32.0783141,10.4083891 C31.8650274,10.5363611 31.6943981,10.7069905 31.4811114,10.8349625 C31.0545381,11.1335638 30.6706221,11.4748225 30.2867061,11.7734238 C29.4762168,12.4132838 28.6657275,13.0958011 27.9405528,13.7783184 C26.4048888,15.1860104 24.9545395,16.6363597 23.6748196,18.2573383 C23.4615329,18.5132823 23.2909036,18.726569 23.1202742,18.982513 C22.9923022,18.2573383 23.0349596,17.5321637 23.0349596,16.7643317 C23.0776169,16.679017 23.0776169,16.551045 23.0349596,16.423073 C23.0349596,16.2097864 23.0349596,15.9964997 23.0349596,15.8258704 C23.0349596,15.527269 22.6937009,15.4419544 22.5230716,15.5699264 C22.3097849,15.4846117 22.0964983,15.4419544 21.8405543,15.4419544 C21.5419529,15.4419544 21.2006943,15.4419544 20.9020929,15.4419544 C20.3048903,15.4419544 19.7076876,15.4419544 19.110485,15.4419544 C17.9160797,15.4419544 16.7216744,15.399297 15.527269,15.399297 C13.1384584,15.3566397 10.7496478,15.399297 8.36083718,15.399297 C7.0811172,15.399297 5.75873989,15.399297 4.47901992,15.399297 C3.32727194,15.399297 2.13286663,15.3566397 0.981118649,15.4846117 C1.02377598,13.6503464 1.02377598,11.8587384 1.02377598,10.0244731 C1.02377598,9.0433545 1.02377598,8.10489318 0.981118649,7.12377454 C0.981118649,6.65454388 0.981118649,6.18531322 0.938461316,5.71608256 C0.938461316,5.5027959 0.895803983,5.2468519 0.895803983,5.03356524 C0.895803983,4.86293591 0.810489318,4.64964925 0.767831986,4.47901992 C1.02377598,4.56433458 1.27971998,4.64964925 1.5783213,4.64964925 C1.87692263,4.64964925 2.17552396,4.69230658 2.51678262,4.69230658 C3.11398528,4.69230658 3.71118793,4.73496391 4.30839059,4.73496391 C5.5027959,4.77762125 6.65454388,4.77762125 7.84894919,4.77762125 C10.2377598,4.77762125 12.5839131,4.77762125 14.9727237,4.73496391 C16.295101,4.73496391 17.6174783,4.69230658 18.9398557,4.69230658 C19.5797156,4.69230658 20.262233,4.69230658 20.9020929,4.64964925 C21.4992956,4.64964925 22.0964983,4.56433458 22.6937009,4.47901992 C22.7790156,4.52167725 22.8643302,4.52167725 22.9069876,4.47901992 C23.0776169,4.47901992 23.0776169,4.30839059 23.0349596,4.22307592 C23.1202742,4.00978926 23.1202742,3.7965026 23.1202742,3.58321593 C23.0349596,3.28461461 23.0349596,2.94335595 23.0349596,2.55943995 C23.0349596,2.26083862 23.0349596,1.9622373 23.0349596,1.7062933 C23.2909036,2.04755196 23.5468476,2.34615329 23.8027916,2.64475462 C24.5706235,3.5405586 25.4664275,4.35104792 26.3195742,5.11887991 C28.0685248,6.73985854 29.9027901,8.27552251 31.7370554,9.85384382 C31.9076847,9.98181582 32.0356567,10.1097878 32.2062861,10.2377598 C32.2062861,10.2377598 32.2062861,10.2377598 32.2062861,10.2377598 C32.2062861,10.3230745 32.1209714,10.3657318 32.0783141,10.4083891" id="Shape"></path>
                    <path d="M23.2909036,0.597202656 C23.2482462,0.554545323 23.2482462,0.554545323 23.2909036,0.597202656 C23.2482462,0.597202656 23.2482462,0.597202656 23.2909036,0.597202656 C23.2909036,0.597202656 23.2909036,0.597202656 23.2909036,0.597202656" id="Shape"></path>
                    <path d="M20.0489463,14.6741224 C15.3139824,14.5034931 10.5790185,14.4608357 5.84405456,14.3755211 C4.56433458,14.3755211 3.32727194,14.3328637 2.04755196,14.3328637 C2.04755196,14.3328637 2.00489463,14.3328637 2.00489463,14.3328637 C2.00489463,14.0769197 2.00489463,13.8209757 2.00489463,13.5650317 C4.22307592,13.6930037 6.44125721,13.6503464 8.61678117,13.5223744 C10.9202771,13.4370598 13.2664304,13.2664304 15.5699264,13.1384584 C16.167129,13.0958011 16.806989,13.0531438 17.4041917,13.0531438 C17.446849,13.0531438 17.446849,13.0104864 17.4041917,13.0104864 C12.7971998,13.1811158 8.14755052,13.6076891 3.5405586,13.4370598 C3.02867061,13.4370598 2.51678262,13.3944024 2.00489463,13.3944024 C2.00489463,13.2237731 2.00489463,13.0531438 2.00489463,12.8825144 C3.11398528,12.8825144 4.26573325,12.8825144 5.3748239,12.8825144 C5.41748123,12.8825144 5.41748123,12.8398571 5.3748239,12.8398571 C4.26573325,12.8398571 3.11398528,12.8398571 2.00489463,12.8398571 C2.00489463,12.6265704 2.00489463,12.4132838 2.00489463,12.1999971 C3.83915993,12.2426544 5.67342523,12.2426544 7.55034786,12.1573398 C7.63566253,12.1573398 7.59300519,12.0293678 7.55034786,12.0293678 C5.71608256,11.9867104 3.88181726,11.9867104 2.00489463,11.9867104 C2.00489463,11.5601371 2.00489463,11.0909065 1.9622373,10.6643331 C1.9622373,10.2377598 1.9622373,9.81118649 1.9622373,9.38461316 C2.26083862,9.38461316 2.55943995,9.34195583 2.85804128,9.34195583 C3.24195727,9.2992985 3.58321593,9.2992985 3.96713193,9.2992985 C4.82027858,9.25664116 5.71608256,9.25664116 6.56922921,9.21398383 C8.31817985,9.1713265 10.0671305,9.1713265 11.8587384,9.0433545 C11.9440531,9.0433545 11.9867104,9.0433545 12.0720251,9.0433545 C12.1146824,9.0433545 12.1146824,9.00069717 12.0720251,9.00069717 C10.3230745,9.0433545 8.57412384,9.08601183 6.86783054,9.12866916 C5.28950924,9.1713265 3.71118793,9.1713265 2.13286663,9.34195583 C2.09020929,9.34195583 2.04755196,9.34195583 2.00489463,9.34195583 C2.04755196,8.48880918 2.09020929,7.67831986 2.21818129,6.82517321 C2.21818129,6.78251587 2.17552396,6.73985854 2.13286663,6.73985854 C2.13286663,6.69720121 2.17552396,6.65454388 2.17552396,6.61188654 C2.21818129,6.52657188 2.26083862,6.48391455 2.30349596,6.39859988 C2.38881062,6.31328522 2.51678262,6.22797055 2.64475462,6.22797055 C2.68741195,6.22797055 2.64475462,6.18531322 2.64475462,6.18531322 C2.55943995,6.18531322 2.51678262,6.18531322 2.43146796,6.18531322 C2.34615329,6.18531322 2.30349596,6.27062788 2.21818129,6.31328522 C2.09020929,6.39859988 1.9622373,6.65454388 2.00489463,6.78251587 C2.00489463,6.78251587 2.00489463,6.78251587 2.04755196,6.78251587 C1.8342653,8.01957852 1.74895063,9.25664116 1.74895063,10.4937038 C1.74895063,11.2615358 1.74895063,12.0293678 1.79160797,12.7971998 C1.7062933,12.7971998 1.66363597,12.7971998 1.5783213,12.7971998 C1.53566397,12.7971998 1.53566397,12.8825144 1.5783213,12.8825144 C1.66363597,12.8825144 1.7062933,12.8825144 1.79160797,12.8825144 C1.79160797,13.0531438 1.79160797,13.2237731 1.79160797,13.3944024 C1.74895063,13.3944024 1.7062933,13.3944024 1.66363597,13.3944024 C1.53566397,13.3944024 1.5783213,13.5650317 1.66363597,13.6076891 C1.7062933,13.6076891 1.74895063,13.6076891 1.74895063,13.6076891 C1.74895063,13.9062904 1.79160797,14.2048917 1.79160797,14.4608357 C1.79160797,14.5034931 1.8342653,14.5461504 1.87692263,14.5034931 C1.87692263,14.5461504 1.91957996,14.5461504 1.9622373,14.5461504 C6.69720121,14.6741224 11.4321651,14.7594371 16.167129,14.8447517 C17.446849,14.8447517 18.6839117,14.8874091 19.9209743,14.8447517 C20.1769183,14.8447517 20.134261,14.6741224 20.0489463,14.6741224" id="Shape"></path>
                    <path d="M26.3622315,13.5223744 C25.5090849,14.2902064 24.6132809,15.0580384 24.0587356,16.0818144 C24.0587356,15.911185 24.0587356,15.783213 24.0587356,15.6125837 C24.0587356,15.2713251 24.0587356,14.9300664 23.9734209,14.6314651 C23.9734209,14.5888077 23.8881062,14.5888077 23.8881062,14.6314651 C23.8027916,14.9300664 23.8027916,15.2713251 23.8027916,15.5699264 C23.8027916,15.9538424 23.8027916,16.3377584 23.8027916,16.679017 C23.8027916,16.806989 24.0160782,16.8923037 24.0587356,16.7643317 C24.3146796,16.167129 24.6559382,15.5699264 25.0398542,15.0580384 C25.4664275,14.5461504 25.9356582,14.0769197 26.4475462,13.6076891 C26.4475462,13.5650317 26.4048888,13.5223744 26.3622315,13.5223744" id="Shape"></path>
                    <path d="M30.6279648,10.2377598 C30.4999928,10.1951025 30.4146781,10.0244731 30.3293634,9.93915848 C30.2440488,9.85384382 30.2013914,9.76852915 30.0734194,9.72587182 C29.9454474,9.64055716 29.8601328,9.81118649 29.9881048,9.89650115 C30.1160768,9.98181582 30.1587341,10.0671305 30.2440488,10.1951025 C30.2867061,10.2377598 30.3293634,10.2804171 30.3293634,10.3230745 C30.0734194,10.4510465 29.8174754,10.6216758 29.5615315,10.7923051 C29.2629301,11.0055918 29.0069861,11.2615358 28.7510421,11.4748225 C28.7083848,11.5174798 28.6657275,11.5601371 28.6230701,11.6027945 C28.6230701,11.6027945 28.6230701,11.6027945 28.6230701,11.6027945 C27.7699235,11.5174798 26.8741195,11.5601371 26.0209729,11.7307665 C25.9783155,11.7307665 26.0209729,11.7734238 26.0209729,11.7734238 C26.8741195,11.6881091 27.6846088,11.6027945 28.5377555,11.6454518 C28.0685248,12.0720251 27.6419515,12.5839131 27.2153782,13.0531438 C27.1300635,13.1384584 27.2580355,13.2237731 27.3433502,13.1811158 C27.8552382,12.7118851 28.3244688,12.1999971 28.8363568,11.7307665 C29.0923008,11.4748225 29.3482448,11.2615358 29.6468461,11.0055918 C29.9454474,10.7923051 30.2867061,10.6216758 30.5853074,10.4083891 C30.7559368,10.3657318 30.7132794,10.2377598 30.6279648,10.2377598" id="Shape"></path>
                    <path d="M23.0776169,5.6307679 C18.3853103,5.5027959 13.6930037,5.80139723 9.00069717,5.97202656 C6.99580254,6.05734122 4.99090791,6.09999855 2.94335595,6.09999855 C2.85804128,6.09999855 2.90069861,6.22797055 2.94335595,6.22797055 C7.67831986,6.22797055 12.3706264,5.97202656 17.1055904,5.84405456 C19.110485,5.80139723 21.0727223,5.80139723 23.0776169,5.80139723 C23.2055889,5.75873989 23.1629316,5.6307679 23.0776169,5.6307679" id="Shape"></path>
                    <path d="M23.5468476,3.75384526 C23.5468476,3.75384526 23.5041902,3.75384526 23.5468476,3.75384526 C23.5041902,4.26573325 23.5041902,4.77762125 23.5041902,5.2468519 C23.5041902,5.28950924 23.5468476,5.28950924 23.5468476,5.2468519 C23.5468476,4.77762125 23.5468476,4.26573325 23.5468476,3.75384526" id="Shape"></path>
                    <path d="M28.7083848,8.36083718 C28.4097835,8.06223585 28.0685248,7.80629186 27.7272662,7.55034786 C27.8125808,7.55034786 27.8978955,7.55034786 27.9405528,7.55034786 C27.9832102,7.55034786 27.9405528,7.50769053 27.9405528,7.50769053 C27.8552382,7.50769053 27.7699235,7.50769053 27.6846088,7.50769053 C27.6846088,7.50769053 27.6419515,7.50769053 27.6419515,7.4650332 C27.2580355,7.16643187 26.9167768,6.82517321 26.5328608,6.48391455 C25.8503435,5.84405456 25.1678262,5.16153724 24.5279662,4.47901992 C24.4853089,4.43636258 24.4426515,4.47901992 24.4853089,4.52167725 C25.1251689,5.20419457 25.8076862,5.88671189 26.4902035,6.52657188 C26.8314622,6.86783054 27.1727208,7.16643187 27.5566368,7.4650332 C27.2580355,7.4650332 26.9594342,7.42237586 26.6608328,7.4650332 C26.2342595,7.4650332 25.7650289,7.50769053 25.3384555,7.50769053 C24.4853089,7.55034786 23.5895049,7.63566253 22.7363582,7.67831986 C22.6937009,7.67831986 22.6937009,7.72097719 22.7363582,7.72097719 C23.6321622,7.72097719 24.4853089,7.63566253 25.3384555,7.59300519 C25.7650289,7.55034786 26.2342595,7.55034786 26.6608328,7.55034786 C26.9594342,7.55034786 27.3006928,7.50769053 27.5992942,7.50769053 C27.7699235,7.67831986 27.9832102,7.80629186 28.1538395,7.97692119 C27.1727208,7.93426385 26.1916022,7.97692119 25.2104835,8.01957852 C24.1867076,8.06223585 23.1629316,8.14755052 22.1391556,8.23286518 C22.0964983,8.23286518 22.0964983,8.27552251 22.1391556,8.27552251 C23.1629316,8.23286518 24.1867076,8.14755052 25.2104835,8.10489318 C26.1916022,8.06223585 27.2153782,8.06223585 28.1964968,7.97692119 C28.3671261,8.19020785 28.5377555,8.31817985 28.7083848,8.36083718 C28.7083848,8.44615184 28.7510421,8.40349451 28.7083848,8.36083718" id="Shape"></path>
                    <path d="M27.9405528,10.1951025 C26.7461475,10.3230745 25.5517422,10.4083891 24.3999942,10.5363611 C24.3999942,10.5363611 24.3999942,10.5363611 24.3999942,10.5363611 C25.5943995,10.4510465 26.7461475,10.3230745 27.9405528,10.1951025 C27.9832102,10.2377598 27.9405528,10.1951025 27.9405528,10.1951025" id="Shape"></path>
                    <path d="M10.4937038,8.44615184 C7.76363452,8.53146651 5.03356524,8.53146651 2.30349596,8.65943851 C2.30349596,8.65943851 2.30349596,8.70209584 2.30349596,8.70209584 C5.03356524,8.57412384 7.76363452,8.57412384 10.4937038,8.44615184 C10.5363611,8.48880918 10.4937038,8.44615184 10.4937038,8.44615184" id="Shape"></path>
                </g>
            </g>
        </g>
    </g>
</svg>