<svg xmlns="http://www.w3.org/2000/svg" viewBox="0 0 88.7 76"><defs><style>.cls-1{fill:#817872;}</style></defs><title>brain-grey</title><g id="Layer_2" data-name="Layer 2"><g id="Layer_1-2" data-name="Layer 1"><path class="cls-1" d="M88.7,29.6a11.21,11.21,0,0,0-6.6-10.2A13.7,13.7,0,0,0,69.8,7.9a10.35,10.35,0,0,0-9.3-5.8h0c-.5,0-1,.1-1.5.1h-.1a9.36,9.36,0,0,0-1.6.4A11.47,11.47,0,0,0,50.2,0a10.27,10.27,0,0,0-5.9,1.8A14.48,14.48,0,0,0,38.4.6,14.12,14.12,0,0,0,27.7,5.4a11.53,11.53,0,0,0-2.6-.3A10.23,10.23,0,0,0,16.3,10h-.9c-.2,0-.4.1-.6.1s-.3.1-.5.1a1.42,1.42,0,0,0-.6.2c-.2,0-.3.1-.5.1s-.4.1-.5.2-.4.1-.5.2-.3.1-.4.2l-.6.3h0A12.13,12.13,0,0,0,5,21.2v.1A16.2,16.2,0,0,0,16.2,49.2,26.35,26.35,0,0,0,19,49a16,16,0,0,0,3.8.7c2.6,6.4,7.8,9.8,14.9,9.8,6.8,0,15,6.9,15,15V76H64.1l-1.3-9.3A16.29,16.29,0,0,0,80.2,54.5a20,20,0,0,0,.5-4.1,12.1,12.1,0,0,0,8-11.3,11.17,11.17,0,0,0-1-4.8A12.78,12.78,0,0,0,88.7,29.6ZM84.4,35a8.3,8.3,0,0,1,1,4.1A8.68,8.68,0,0,1,80.3,47,16.28,16.28,0,0,0,68.5,34.8a1.65,1.65,0,1,0-.8,3.2,12.78,12.78,0,0,1,9.7,11.2,13.68,13.68,0,0,1-.3,4.5,12.94,12.94,0,0,1-15.8,9.4L59,62.5l1.4,10.2H55.8C54.8,63.3,45.4,56,37.6,56q-8.1,0-11.4-6.6a.37.37,0,0,0-.1-.3,7.11,7.11,0,0,1,3.4-9.5,1.66,1.66,0,0,0-1.4-3,10.43,10.43,0,0,0-5.9,9.5,11,11,0,0,1-2.6-.6l-.4-.2-.4.1a10.9,10.9,0,0,1-2.6.3,13,13,0,0,1-13-13,12.65,12.65,0,0,1,2.3-7.3,11.85,11.85,0,0,0,8.3,7.8,4.71,4.71,0,0,0-.6,1.5,6.79,6.79,0,0,0,.8,5.2,1.6,1.6,0,0,0,1.4.8,1.88,1.88,0,0,0,.8-.2,1.66,1.66,0,0,0,.6-2.2,3.64,3.64,0,0,1-.4-2.7A3.56,3.56,0,0,1,18,33.4a1.66,1.66,0,0,0,.6-2.2,1.62,1.62,0,0,0-1.8-.7,8.82,8.82,0,0,1-8.6-8.7,8.71,8.71,0,0,1,8.7-8.7h.2l1.3.1.5-1a7.06,7.06,0,0,1,6.4-4,8,8,0,0,1,2.6.5l1.1.4.7-1a11.08,11.08,0,0,1,8.9-4.4A12.19,12.19,0,0,1,43.9,5l1,.5.8-.7a7.07,7.07,0,0,1,4.6-1.7,6.67,6.67,0,0,1,3.9,1.2,10.33,10.33,0,0,0-4,8.1,1.6,1.6,0,0,0,3.2,0A7.15,7.15,0,0,1,57,6.2l.5-.2a8.19,8.19,0,0,1,3-.7A7.23,7.23,0,0,1,67.2,10l.4,1.1h1.1A10.44,10.44,0,0,1,79,20.7l.1,1.1,1,.3a8,8,0,0,1,5.4,7.5,7.21,7.21,0,0,1-1,3.8l-.4.8ZM50,43.3a9.08,9.08,0,0,0-4-7.5h0A13.89,13.89,0,0,1,38.1,25a1.32,1.32,0,0,1,2.6-.4,11.43,11.43,0,0,0,7.6,9.3,11.68,11.68,0,0,0,8.8-.5,11.14,11.14,0,0,0,5.8-6.6,1.33,1.33,0,0,1,2.5.9,13.54,13.54,0,0,1-7.2,8,14.34,14.34,0,0,1-6.1,1.4,6.15,6.15,0,0,1-1.3-.1,11.84,11.84,0,0,1,1.8,6.2,1.32,1.32,0,0,1-1.3,1.3A1.24,1.24,0,0,1,50,43.3Zm24.7-15a1.3,1.3,0,0,1-2.6,0A10.71,10.71,0,0,0,61.4,17.6a1.3,1.3,0,1,1,0-2.6A13.36,13.36,0,0,1,74.7,28.3ZM40.3,14.9a1.32,1.32,0,0,1,1.3-1.3A10.39,10.39,0,0,1,52,24a1.3,1.3,0,1,1-2.6,0,7.81,7.81,0,0,0-7.8-7.8A1.32,1.32,0,0,1,40.3,14.9ZM37.2,44.6a1.25,1.25,0,0,1-1.1.6,1.85,1.85,0,0,1-.7-.2,1.3,1.3,0,0,1-.4-1.8,7.47,7.47,0,0,0-2.4-10.3A1.3,1.3,0,1,1,34,30.7,10.17,10.17,0,0,1,37.2,44.6ZM36,21.6a7.69,7.69,0,0,1-5.2-2.2,12.12,12.12,0,0,1-15.9,3.5,1.32,1.32,0,1,1,1.3-2.3,9.53,9.53,0,0,0,13-3.5,8.53,8.53,0,0,1-.8-3.5,1.3,1.3,0,0,1,2.6,0,5.21,5.21,0,0,0,5,5.3,1.32,1.32,0,0,1,1.3,1.3A1.29,1.29,0,0,1,36,21.6ZM66.5,47a1.28,1.28,0,0,1,.3,1.8,12.92,12.92,0,0,1-10.6,5.6A12.69,12.69,0,0,1,49,52.2a1.29,1.29,0,1,1,1.5-2.1,10.49,10.49,0,0,0,7.7,1.6,10.2,10.2,0,0,0,6.6-4.3A1.17,1.17,0,0,1,66.5,47Z"/></g></g></svg>