<svg xmlns="http://www.w3.org/2000/svg" viewBox="0 0 94.9 70.6"><defs><style>.cls-1{fill:#817872;}</style></defs><title>break-grey</title><g id="Layer_2" data-name="Layer 2"><g id="Layer_1-2" data-name="Layer 1"><path class="cls-1" d="M40,48.5l8.4-7a1.46,1.46,0,0,0-.1-2.3l-9-5.8a1.4,1.4,0,0,1-.1-2.3L43,27.9a1.31,1.31,0,0,0,.2-1.9l-3-3.7a1.38,1.38,0,0,0-1.1-.6H3.7A3.76,3.76,0,0,0,0,25.4V45.1a3.76,3.76,0,0,0,3.7,3.7H39A1,1,0,0,0,40,48.5Z"/><path class="cls-1" d="M91.3,21.7H52.6A1.41,1.41,0,0,0,51.5,24l1.6,2.1a1.5,1.5,0,0,1-.2,1.9l-3.8,3.2a1.46,1.46,0,0,0,.1,2.3l9,5.8a1.4,1.4,0,0,1,.1,2.3l-5.8,4.8a1.42,1.42,0,0,0,.9,2.5H91.2a3.76,3.76,0,0,0,3.7-3.7V25.4A3.61,3.61,0,0,0,91.3,21.7Z"/><path class="cls-1" d="M47.5,13.6a2.69,2.69,0,0,0,2.7-2.7V2.7a2.7,2.7,0,0,0-5.4,0v8.2A2.69,2.69,0,0,0,47.5,13.6Z"/><path class="cls-1" d="M36.1,16.8a2.66,2.66,0,0,0,3.8,0,2.78,2.78,0,0,0,0-3.8L34.1,7.2a2.78,2.78,0,0,0-3.8,0,2.78,2.78,0,0,0,0,3.8Z"/><path class="cls-1" d="M57,17.5a2.73,2.73,0,0,0,1.9-.8l5.8-5.8a2.78,2.78,0,0,0,0-3.8,2.78,2.78,0,0,0-3.8,0l-5.8,5.8a2.78,2.78,0,0,0,0,3.8A2.36,2.36,0,0,0,57,17.5Z"/><path class="cls-1" d="M47.5,57a2.69,2.69,0,0,0-2.7,2.7v8.2a2.7,2.7,0,1,0,5.4,0V59.7A2.69,2.69,0,0,0,47.5,57Z"/><path class="cls-1" d="M58.9,53.8a2.69,2.69,0,0,0-3.8,3.8l5.8,5.8a2.66,2.66,0,0,0,3.8,0,2.78,2.78,0,0,0,0-3.8Z"/><path class="cls-1" d="M36.1,53.8l-5.8,5.8a2.78,2.78,0,0,0,0,3.8,2.66,2.66,0,0,0,3.8,0l5.8-5.8a2.69,2.69,0,0,0-3.8-3.8Z"/></g></g></svg>