<svg xmlns="http://www.w3.org/2000/svg" viewBox="0 0 59.73 90"><defs><style>.cls-1{fill:#fff;}</style></defs><title>Asset 2</title><g id="Layer_2" data-name="Layer 2"><g id="Layer_1-2" data-name="Layer 1"><path class="cls-1" d="M9.33,51.55a20.67,20.67,0,0,1,6.24,15v6.11A11.63,11.63,0,0,0,23.7,83.76v.07a6.17,6.17,0,0,0,12.34,0v-.07a11.65,11.65,0,0,0,8.13-11.08V66.56a21.33,21.33,0,0,1,6.57-15.34,29.61,29.61,0,0,0,9-21.35A29.87,29.87,0,1,0,9.33,51.55ZM24.57,67h1.62l-7.62,1.87V67Zm5.3-13.59a6,6,0,0,0-.85.06l-5.18-21.3.59.59a1.51,1.51,0,0,0,2.12,0l3.31-3.28,3.32,3.28a1.48,1.48,0,0,0,2.11,0l.61-.6L30.72,53.44A6.07,6.07,0,0,0,29.87,53.38Zm0,3a3.8,3.8,0,0,1,3.79,3.8V64H26.07V60.18A3.8,3.8,0,0,1,29.87,56.38Zm4.4,24.74h0a8.55,8.55,0,0,1-1.68.17H29.31l9-2.2A8.42,8.42,0,0,1,34.27,81.12Zm6.9-11.81L18.84,74.77a8.49,8.49,0,0,1-.27-2.09v-.75L38.8,67h2.37v2.34ZM20.09,77.56l21.08-5.17v.29a8.61,8.61,0,0,1-.46,2.74L22.47,79.88A8.48,8.48,0,0,1,20.09,77.56ZM29.87,87a3.15,3.15,0,0,1-2.23-.92,3.19,3.19,0,0,1-.9-1.8l.45,0h5.36c.15,0,.3,0,.45,0A3.17,3.17,0,0,1,29.87,87ZM3.12,27.32A26.83,26.83,0,0,1,26.8,3.17,29.57,29.57,0,0,1,29.9,3,26.56,26.56,0,0,1,47.78,9.85a26.86,26.86,0,0,1,.86,39.23A24.4,24.4,0,0,0,41.31,64H36.66V60.18a6.8,6.8,0,0,0-3.11-5.71l6.52-26.78c0-.11,0-.22,0-.33s0,0,0,0a1.35,1.35,0,0,0-.1-.53v0a1.44,1.44,0,0,0-.31-.46v0l0,0a1.77,1.77,0,0,0-.45-.3l-.06,0a1.27,1.27,0,0,0-.18-.06,1.22,1.22,0,0,0-.32,0h-.06a1.71,1.71,0,0,0-.51.1l0,0a1.51,1.51,0,0,0-.45.29h0l-3.31,3.29-3.32-3.29a1.5,1.5,0,0,0-2.11,0l-3.32,3.29-3.31-3.29h0a1.52,1.52,0,0,0-.46-.3l0,0a1.78,1.78,0,0,0-.52-.1h0a1.24,1.24,0,0,0-.33,0,.85.85,0,0,0-.17.06l-.06,0a1.77,1.77,0,0,0-.45.3l0,0s0,0,0,0a1.41,1.41,0,0,0-.3.46l0,0a1.55,1.55,0,0,0-.1.52v.05a1.24,1.24,0,0,0,0,.33l6.51,26.78a6.8,6.8,0,0,0-3.11,5.71V64H18.43a23.49,23.49,0,0,0-7-14.6A26.75,26.75,0,0,1,3.12,27.32Z"/></g></g></svg>