<?xml version="1.0" encoding="UTF-8"?>
<svg width="38px" height="62px" viewBox="0 0 38 62" version="1.1" xmlns="http://www.w3.org/2000/svg" xmlns:xlink="http://www.w3.org/1999/xlink">
    <!-- Generator: Sketch 50 (54983) - http://www.bohemiancoding.com/sketch -->
    <title>noun_Light Bulb_1176</title>
    <desc>Created with Sketch.</desc>
    <defs></defs>
    <g id="Page-1" stroke="none" stroke-width="1" fill="none" fill-rule="evenodd">
        <g id="Connect-Copy" transform="translate(-664.000000, -112.000000)" fill="#FFC823" fill-rule="nonzero">
            <g id="noun_Light-Bulb_1176" transform="translate(664.000000, 112.000000)">
                <g id="Group">
                    <path d="M5.00209115,13.1912137 C5.30125961,13.1912137 5.59916041,13.0771241 5.82797357,12.8489447 C6.28433224,12.3932199 6.28433224,11.6529047 5.82797357,11.1978137 L2.37929646,7.7491366 C1.92293779,7.29277793 1.18389028,7.29277793 0.72816544,7.7491366 C0.271806771,8.20486144 0.271806771,8.94517662 0.72816544,9.40026762 L4.17684255,12.8489447 C4.40438806,13.0771241 4.70355652,13.1912137 5.00209115,13.1912137 Z" id="Shape"></path>
                    <path d="M36.8654338,7.74850277 C36.4090751,7.2921441 35.6700276,7.2921441 35.2143027,7.74850277 L31.7656256,11.1971799 C31.309267,11.6529047 31.309267,12.3932199 31.7656256,12.8483109 C31.993805,13.0764902 32.2929734,13.1905799 32.591508,13.1905799 C32.8906765,13.1905799 33.1892111,13.0764902 33.4173905,12.8483109 L36.8660676,9.39963379 C37.3217924,8.94454279 37.3217924,8.20422761 36.8654338,7.74850277 Z" id="Shape"></path>
                    <path d="M12.5148957,7.21925348 C12.6784243,7.70857139 13.1341491,8.01914882 13.623467,8.01914882 C13.7451627,8.01914882 13.8700275,7.99950004 13.9923569,7.95830099 C14.6040043,7.75484109 14.9348644,7.09375485 14.7314044,6.48147363 L13.0080166,1.30877488 C12.8045567,0.697127496 12.145372,0.366267461 11.5311893,0.569727368 C10.9189081,0.773821106 10.588048,1.43490735 10.7921418,2.04718856 L12.5148957,7.21925348 Z" id="Shape"></path>
                    <path d="M23.6006084,7.95830099 C23.7223041,7.99886621 23.8478027,8.01914882 23.9701322,8.01914882 C24.4588163,8.01914882 24.9151749,7.70983905 25.0774358,7.21988731 L26.8027251,2.04718856 C27.006185,1.43490735 26.6765926,0.773821106 26.0643114,0.569727368 C25.4520302,0.363732135 24.7896763,0.695859833 24.5868502,1.30814105 L22.8621947,6.4808398 C22.6587348,7.09312102 22.9883272,7.75484109 23.6006084,7.95830099 Z" id="Shape"></path>
                    <path d="M23.6006084,52.8696986 L13.2539433,56.3164742 C12.641662,56.5199341 12.3114358,57.1816542 12.5155296,57.7945692 C12.6784243,58.2832533 13.1341491,58.5931969 13.623467,58.5931969 C13.7451627,58.5931969 13.8700275,58.5735481 13.9923569,58.5323491 L24.3396559,55.0849396 C24.9506695,54.8814797 25.2815295,54.2197596 25.0774358,53.6068446 C24.8746097,52.995831 24.211622,52.6656048 23.6006084,52.8696986 Z" id="Shape"></path>
                    <path d="M21.6661547,56.9623485 L14.9690913,59.1940691 C14.3574439,59.3981629 14.0265838,60.0592491 14.2306776,60.6721641 C14.3942061,61.1608482 14.8492971,61.4707918 15.338615,61.4707918 C15.4609445,61.4707918 15.5851755,61.451143 15.7075049,61.409944 L22.4052022,59.1775895 C23.0168496,58.9741296 23.3470758,58.3124095 23.1429821,57.701396 C22.940156,57.0897486 22.2771683,56.7582547 21.6661547,56.9623485 Z" id="Shape"></path>
                    <path d="M18.7967996,11.4272607 C10.9658116,11.4272607 3.83457355,18.5584988 3.83457355,26.3888529 C3.83457355,31.8955809 6.1163669,35.5470841 8.3227343,39.0787931 C10.4479713,42.4786652 12.4559494,45.6909232 12.4559494,50.5295927 C12.4559494,51.1741993 12.9782266,51.6971103 13.6241008,51.6971103 L16.7729757,51.6971103 L13.2545771,52.8703324 C12.6422959,53.0737923 12.3120697,53.7348785 12.5161634,54.3465259 C12.6790581,54.8358438 13.1347829,55.1451536 13.6241008,55.1451536 C13.7457965,55.1451536 13.8706613,55.1267725 13.9929908,55.0855734 L24.3402898,51.6368963 C24.3536002,51.6324595 24.3650092,51.6242197 24.3789535,51.6204167 C24.418251,51.6052047 24.4569148,51.5868236 24.4943108,51.5690764 C24.5272701,51.5519629 24.5589616,51.5348495 24.5887517,51.5171022 C24.6210771,51.4974534 24.6508672,51.4746355 24.6812911,51.4511837 C24.711715,51.4270981 24.7415051,51.4042802 24.7700275,51.3782931 C24.7966484,51.3529398 24.820734,51.3250512 24.8448196,51.2977965 C24.8689052,51.2692741 24.8936247,51.2413855 24.9151749,51.2109616 C24.9379929,51.17927 24.9576416,51.1456769 24.9772904,51.1120838 C24.9950377,51.0816599 25.0134188,51.051236 25.0279969,51.0195445 C25.0444765,50.9840499 25.057787,50.9466538 25.0704636,50.9079901 C25.0818726,50.874397 25.0939154,50.8401701 25.102789,50.8046756 C25.1116627,50.7679134 25.1167333,50.731785 25.121804,50.6937551 C25.1281423,50.6544575 25.133213,50.6145261 25.1344806,50.5739609 C25.1351145,50.558749 25.1395513,50.5448047 25.1395513,50.5302265 C25.1395513,45.6909232 27.1468956,42.479299 29.2727664,39.0794269 C31.4785,35.5483517 33.7602933,31.8968485 33.7602933,26.3894868 C33.7583918,18.5584988 26.6271538,11.4272607 18.7967996,11.4272607 Z M26.3419296,33.1461304 C23.0618517,38.0652966 23.0244556,44.717358 23.0244556,44.7839103 C23.0244556,45.2142819 22.6758483,45.5628892 22.2454767,45.5628892 C21.8144713,45.5628892 21.4664978,45.2142819 21.4664978,44.7839103 C21.4664978,44.5145319 21.5013585,38.582503 24.3111335,33.4928362 L22.2448429,33.4928362 C22.1225134,33.4928362 22.0058884,33.4655815 21.9032077,33.4136073 L21.2167682,34.7871201 C21.0551412,35.111008 20.6881527,35.276438 20.3414469,35.1972091 C19.9896705,35.1135433 19.7418423,34.8004306 19.7418423,34.4385128 L19.7418423,34.2882947 L19.4921127,34.7871201 C19.3298519,35.111008 18.9704694,35.2777057 18.6161576,35.1972091 C18.265015,35.1135433 18.0171869,34.8004306 18.0171869,34.4385128 L18.0171869,34.2882947 L17.7674573,34.7871201 C17.6058302,35.111008 17.245814,35.2777057 16.8915022,35.1972091 C16.5403595,35.1135433 16.2925314,34.8004306 16.2925314,34.4385128 L16.2925314,34.2895624 L16.0440695,34.7871201 C15.8830763,35.1078388 15.52306,35.2777057 15.1687482,35.1959414 C14.8169717,35.1141772 14.5691436,34.7991629 14.5691436,34.4391466 L14.5691436,33.49347 L13.2818318,33.49347 C16.0916068,38.5831369 16.1264675,44.5157996 16.1264675,44.7845441 C16.1264675,45.2149157 15.7778602,45.563523 15.3481225,45.563523 L15.3474887,45.563523 C14.9177509,45.563523 14.5691436,45.2149157 14.5685098,44.7858118 C14.5685098,44.7192595 14.5228739,38.0551552 11.2504019,33.1467642 C11.0913102,32.9078098 11.0767321,32.6010353 11.2117382,32.3481366 C11.3473781,32.094604 11.611052,31.9361461 11.8981777,31.9361461 L15.3468548,31.9361461 C15.4685505,31.9361461 15.5851755,31.9653023 15.6872223,32.015375 L16.373028,30.6431299 C16.534655,30.3198758 16.8953051,30.150009 17.2483493,30.2330409 C17.6001258,30.3160728 17.8479539,30.6298194 17.8479539,30.9911033 L17.8479539,31.1413214 L18.0976835,30.642496 C18.2593105,30.319242 18.6199606,30.1506428 18.9730047,30.2330409 C19.3247812,30.3160728 19.5726093,30.6298194 19.5726093,30.9911033 L19.5726093,31.1413214 L19.8223389,30.642496 C19.9833321,30.319242 20.3471514,30.1493751 20.6976602,30.2330409 C21.0494367,30.3160728 21.2978986,30.6298194 21.2978986,30.9911033 L21.2978986,31.1413214 L21.5469944,30.642496 C21.7086214,30.319242 22.0724407,30.1493751 22.4223157,30.2330409 C22.7740922,30.3160728 23.0225541,30.6298194 23.0225541,30.9911033 L23.0225541,31.9361461 L25.6928862,31.9361461 C25.9800118,31.9361461 26.2436857,32.094604 26.3793257,32.3481366 C26.5168671,32.6004015 26.5010213,32.9071759 26.3419296,33.1461304 Z M18.7980673,14.3194338 C18.7980673,14.3194338 29.1434648,14.3194338 30.8662187,24.6641996 C30.8421331,24.6686343 29.1434648,17.7681109 18.7980673,14.3194338 Z" id="Shape"></path>
                </g>
            </g>
        </g>
    </g>
</svg>