<svg xmlns="http://www.w3.org/2000/svg" viewBox="0 0 310 240"><defs><style>.cls-1{fill:ivory;}</style></defs><title>camera-white</title><g id="Layer_2" data-name="Layer 2"><g id="Layer_1-2" data-name="Layer 1"><g id="Page-1"><g id="noun_Camera_2332773" data-name="noun Camera 2332773"><g id="Group"><path id="Shape" class="cls-1" d="M155,58c41,0,75,33,75,74a75,75,0,0,1-150,0C80,91,114,58,155,58Zm0,16a58,58,0,1,0,58,58A58,58,0,0,0,155,74Z"/><path id="Shape-2" data-name="Shape" class="cls-1" d="M27,25H87l8-13A25.09,25.09,0,0,1,117,0h77q13.5,0,21,12l8,13h60a26.89,26.89,0,0,1,27,27V213a26.89,26.89,0,0,1-27,27H27A26.89,26.89,0,0,1,0,213V52A26.89,26.89,0,0,1,27,25ZM92,41H27c-5,0-10,5-10,11V213c0,5,5,10,10,10H283a10,10,0,0,0,10-10V52c0-6-4-11-10-11H219c-4,0-6-1-8-4L201,21c-2-3-4-4-7-4H117c-4,0-6,1-8,4L99,37C97,40,95,41,92,41Z"/></g></g></g></g></g></svg>