<svg xmlns="http://www.w3.org/2000/svg" viewBox="0 0 1280 1024"><defs><style>.cls-1{fill:#030303;}</style></defs><title>Asset 1</title><g id="Layer_2" data-name="Layer 2"><g id="Layer_1-2" data-name="Layer 1"><path class="cls-1" d="M631,527.64a1.07,1.07,0,0,0,1,.72c.48.24.72-.48.48-1-.24-7.68,1.68-15.36,3.84-22.8l.72-3.12c0-.24.24-1-.48-1-.24,0-.48.48-.48.72a91.36,91.36,0,0,0-5.76,21.36A10.68,10.68,0,0,0,631,527.64Z"/><path class="cls-1" d="M597.4,494c.48.23.72-.25.72-.73l1.44-6.72c.24-1.19.72-2.4,1-3.36,0-.48-.24-1-.48-.72a.52.52,0,0,0-.48.48,38.14,38.14,0,0,0-3.12,8.16,5.22,5.22,0,0,0,0,1.93C596.44,493.31,596.92,493.79,597.4,494Z"/><path class="cls-1" d="M599.56,526.44a21.23,21.23,0,0,0-2.4,7.2v.72c0,.48.24,1.2,1,1.2.72.24,1-.48,1.2-1l1.44-7.68c0-.24-.24-.48-.48-.72C600,526.2,599.8,526.44,599.56,526.44Z"/><path class="cls-1" d="M644.92,504.36c4.8-.72,9.6-1.92,12.48-6,3.84-5,5.76-11,6.72-17.28v-.72c-.24-2.16-1.2-2.88-3.12-1.68l-1.44,1a56.31,56.31,0,0,0-15.12,19.93,13.53,13.53,0,0,0-1,2.88C643.24,503.64,643.72,504.36,644.92,504.36Z"/><path class="cls-1" d="M516.52,567a27.55,27.55,0,0,0-2.64,7c0,.72-.24,1.44.48,1.68,1,.24,1-.72,1.2-1.2.48-2.4,1.2-4.56,1.68-7a.88.88,0,0,0-.24-.72C516.76,566.76,516.52,566.76,516.52,567Z"/><path class="cls-1" d="M510.28,554.28a118.27,118.27,0,0,0-4.56,13l-.72,3.6a3.21,3.21,0,0,1,.24,1.2c.24.48.48,1,1,1s.72-.48.72-1c.24-1.2.24-2.64.48-4.08a61.79,61.79,0,0,1,3.84-13c.24-.72,1-1.2.24-1.92C511,553.56,510.52,553.8,510.28,554.28Z"/><path class="cls-1" d="M712.43,612.15c-.48-.24-1,.24-1.2.73A16.74,16.74,0,0,1,710,617c-1.2,4.32-2.16,8.16-3.6,12,0,.48-.24,1.2.48,1.43.24,0,.72-.23.72-.47a66.23,66.23,0,0,0,5-16.56C713.15,612.88,713.15,612.39,712.43,612.15Z"/><path class="cls-1" d="M751.31,613.59a1.74,1.74,0,0,0-1.44,1c-1.44,5-3.12,10.57-4.56,16.08,0,.25.24.49.24.73.24-.24.72-.24.72-.48,2.16-5.28,4.32-10.33,5.52-15.84C751.79,614.55,751.79,613.83,751.31,613.59Z"/><path class="cls-1" d="M0,0V1024H1280V0ZM675.4,520.2c.72-14.16,4.08-27.6,11.52-40.09a38.74,38.74,0,0,1,7.44-9.12c8.64-7.44,18.24-8.64,28.56-4.08a10.44,10.44,0,0,0,1.68,1,1.68,1.68,0,0,0,2.16-1,11.21,11.21,0,0,0,1.2-2.4c3.12-7.44,7-14.4,10.56-21.36a51.39,51.39,0,0,1,3.12-4.56c1.68-1.92,3.36-3.36,6.24-2.16,1.92.72,3.84-.72,5.76.24,2.4,1.2,1.2,3.84,2.64,5,2.16,1.44,1.44,2.88.72,4.8a82.17,82.17,0,0,1-4.08,9.6c-6.72,14.4-12.48,29-18.24,43.93-3.36,9.36-5.28,19.44-7.44,29.28,0,.72-.24,1.44-.24,2.16.24,1-.48,2.64,1,2.64,2.4.24.24,1.2.48,1.92a.68.68,0,0,0,1.2,0c1.44-1.44,2.88-3.12,4.32-4.8,4.8-6,9.12-12.48,13.44-19,.48-1,1.2-1.68,1.68-2.64a2.26,2.26,0,0,1,2.88-.48c1.2.72,1.68,1.68,1.2,2.64a14.18,14.18,0,0,1-1.44,3.36c-5.28,8.16-10.8,15.84-16.56,23.76a6.36,6.36,0,0,1-1.2,1.44c-4.32,4.8-7.92,5.28-13.68,2.16a8.42,8.42,0,0,0-1.92-1.2c-3.84-1.44-5.76-4.32-7.2-7.92-.24-1.44-.24-3.6-1.68-4.08-1.92-.48-2.64,1.92-3.6,3.12l-3.36,4.32c-3.6,4.8-7.92,6-13.2,3.6-1.68-.72-3.36-1.68-5-2.4-5.52-2.16-8.16-6.48-8.88-12.24Zm-80.64-55.45c.24-.24,1-.72,1.2-.48.72.24.24,1,0,1.44-.72,2.16-2.64,4.08-2.4,6.72,1.2-1.92,2.4-3.84,3.84-5.76a8.42,8.42,0,0,1,1.2-1.92c1.68-2.16,4.32-1.92,5.52.48a8.6,8.6,0,0,1,1,2.64c.24,1.68,1,1.92,2.4,1.2,1-.48,1.44.48,1.44,1.2.24,1.44-.48,2.64-1,4.08l-4.32,11a55.39,55.39,0,0,0-1.68,6c-1,4.8,0,8.64,4.08,11.28a6.36,6.36,0,0,1,1.44,1.2c3.36,2.64,4.32,5,2.88,9.12-1,2.4-2.16,4.56-3.12,6.72-1.68,3.12-3.12,6-4.56,9.12a22.47,22.47,0,0,0-1,3.84c0,1,.48,1.68,1.44,1.2a25.3,25.3,0,0,0,2.64-1.68,24.28,24.28,0,0,0,5.52-6.72,133.13,133.13,0,0,0,10.08-18c.58-1.3,1.16-2,1.84-2.23A61.2,61.2,0,0,1,633.64,483,49.06,49.06,0,0,1,650,469.55c3.84-2.16,8.16-1.92,12.24-1.2,3.12.48,6.48,1,9.12,3.6,2.4,2.4,3.84,5.28,3.36,8.64a18.53,18.53,0,0,1-.48,3.6,57,57,0,0,1-6,15.37,18,18,0,0,1-8.88,7.44,29.18,29.18,0,0,1-12,2.64H644.2a3.28,3.28,0,0,0-3.84,2.64c-1.2,4.56-2.64,9.36-2.4,14.4a14.87,14.87,0,0,0,2.16,7.2c1.44,2.64,2.64,2.88,5.28,1.92a24.54,24.54,0,0,0,12.24-8.4l11-15.12a13.92,13.92,0,0,1,2.4-2.88,2.29,2.29,0,0,1,3.12-.72c1.2.48,1.2,1.44,1,2.64-.48,5-.48,5-2.4,7.92-2.64,3.84-5,7.68-7.92,11.28-6,7-13.2,11.28-22.56,11.76-5.76.48-13.68-2.64-17.76-10.56,0-1.44.24-3.12.24-4.56a45,45,0,0,1,1.2-13.92c1.2-5,2.64-9.84,3.84-14.64l.72-3.12c0-.25-.24-.48-.72-.48a9.73,9.73,0,0,0-1.2,2.16c-1.09,2.85-2.08,5.75-3,8.68,1,.8,1.34,2.06.57,3.8-1,2.1-2.06,4.21-3.13,6.31-.17.85-.33,1.71-.47,2.57a23.38,23.38,0,0,0,.48,10.8c-2-2.64-2.34-5.89-2.2-9.18a83.24,83.24,0,0,1-13.16,18.78c-2.16,2.16-4.56,3.84-7.92,3.84-5-.24-7.2-2.16-7.92-7a29.4,29.4,0,0,1,.72-13.68l.72-3.12c0-.24-.24-.48-.48-.72-.24.24-.72.24-.72.48A25,25,0,0,0,589,532v2.64a2.57,2.57,0,0,1-1.2-2.64,19.43,19.43,0,0,1,.24-7.44c1-4.56,3.12-8.88,4.8-13.2,3.12-8.16,2.64-6.48-3.12-11.76-1.2-1-2.16-1-3.12.48-1.44,1.92-2.64,4.08-4.08,6s-2.88,3.84-4.56,5.76a6.55,6.55,0,0,1-2.88,2.16c-1.44.72-3.12,1-4.08-.25-1.2-1.43.24-2.63,1.2-3.59,4.08-4.32,7.44-9.6,10.56-14.89a13.09,13.09,0,0,0,2.16-6.71c.48-8.65,4.32-16.09,9.12-23.29C594.28,465,594.52,464.75,594.76,464.75ZM669,572.07v1c-.24,1.68-5.52,8.16-7.2,8.64a2,2,0,0,1-2.88-1.2c-.24-.48-.24-1-.48-1.2-.72-1.2-1.44-2.16-2.88-1a3,3,0,0,1-4.32,0c-1.44-1.2-1.2-2.64-.48-4.08,1-2.88,1.92-5.52,3.84-7.68a3.93,3.93,0,0,1,5.29-1.44,18.72,18.72,0,0,0,3.35,1.2C667.55,566.55,669,568.23,669,572.07ZM519.4,581.64c1.2,2.16.24,2.88-2.16,2.88-4.32,0-7.68-1.44-9.84-5.52a6.47,6.47,0,0,0-1.68-1.92c-2.88-2.16-3.36-5-2.64-8.16a65.9,65.9,0,0,1,2.64-9.84c4.8-12,10.8-23.52,16.8-35a26.23,26.23,0,0,0,1.92-3.6c.48-1.2-.24-1.92-1.44-1.68h-.48c-7,2.16-14.4,4.08-20.88,7.92l-2.88,2.4c-.72.72-1.44,2.64-2.88.48l-1,.72c-1.2,1.44-1.68.72-2.16-.48a11.3,11.3,0,0,1,3.6-13.68,28.73,28.73,0,0,1,7.44-4.32c7.92-3.36,16.08-5.52,24.48-7.92a22.47,22.47,0,0,1,3.84-1,6.79,6.79,0,0,0,4.32-3.36c9.6-16.33,21.36-31.21,32.4-46.57a60.21,60.21,0,0,0,7.2-11.28c1.44-3.36.72-4.8-2.88-5.28a53.21,53.21,0,0,0-15.12.24,129.17,129.17,0,0,0-41,12.48l-7,3.36a32.67,32.67,0,0,0-7.68,5,10.4,10.4,0,0,0-2.64,4.8c-.24,2.4-1.44,2.64-3.12,1-2.88-2.4-3.36-7.44-1.44-11a35.09,35.09,0,0,1,3.84-4.56,72.63,72.63,0,0,1,13.92-9.84c12-7,25.2-10.8,38.88-13a47.82,47.82,0,0,1,11-1c4.8,0,8.16,0,11.52,1a16.68,16.68,0,0,1,10.8,7.92,11.35,11.35,0,0,0,1.68,2.88c4.32,5,4.32,10.8,2.64,16.8a49.06,49.06,0,0,1-4.32,9.6,210.44,210.44,0,0,1-13,19.44,58.4,58.4,0,0,1-4.56,6.24c-3.36,5-3.36,5,.72,9.61a2.1,2.1,0,0,1,1.2,2.16c-.72,1.44-3.12,2.64-.24,4.32.48.24,0,1.2-.48,1.68a11.37,11.37,0,0,1-4.56,2.88c-2.88,1-5.76,1.68-8.88,2.4a9.08,9.08,0,0,0-6.24,4.08c-9.84,16.32-19.2,32.64-26.64,50.16-1.2,3.12-2.16,6.24-3.36,9.36A9.37,9.37,0,0,0,519.4,581.64ZM620,729.52c-1.2,0-1.2.48-.48,1.68.48.72-.24,1.44-1,1.68C614,735,608,734.32,604.44,731.2c-2.64-2.16-4.56-5-6.48-7.92a143.47,143.47,0,0,1-11.76-23.52c-5.76-13.68-10.56-27.6-13.2-42l-1.44-10.32c0-.48-.24-1-.72-1a1.3,1.3,0,0,0-1.2.72,59,59,0,0,0-2.16,7c-3.12,12.24-6.48,24.48-8.4,37a1.44,1.44,0,0,1-.24,1c-.24,1-.48,2.16-1.92,1.92-1.2,0-1.68-1.2-1.68-2.16a52,52,0,0,1,.24-8.64c1.44-7,2.64-13.92,3.84-20.88,0-.48-.24-.72-.24-1.2-.24.24-.72.72-.72,1-1.92,7.2-3.36,14.4-4.56,21.6-.48,2.16-.72,4.56-1.2,6.72a2.33,2.33,0,0,1-1.68,1.92,2.42,2.42,0,0,1-2.64-1.44,12.64,12.64,0,0,1-1-8.88c.72-5,1.68-10.32,2.64-15.36,6.24-31.44,14.4-62.41,26.16-92.41.48-1.2,1.44-2.4.72-3.84-1.92.24-1.92,2.16-2.4,3.36a581.16,581.16,0,0,0-27.36,95.77,7.1,7.1,0,0,1-.48,2.4,1.82,1.82,0,0,1-.48,1v-2.16c5.28-31.68,12.72-62.65,25.2-92.17l2.16-6c.48-1.2-.48-1.92-1.68-1.44a3.41,3.41,0,0,0-1.44.48c-8.88,4.32-17.28,9.12-24.24,16.08-.24.48-.72.72-1,1-.24-.48,0-.72.24-1.2.48-1.2,1.92-1.92,1.68-3.36-1.68-.24-2.4,1.44-3.36,2.4-2.16,1.44-1.92,4.08-2.64,6-.72,1.68-1.2,1.92-2.4.72-3.12-2.64-3.6-5.52-1.92-9.36a30.56,30.56,0,0,1,3.12-4.56q3.24-3.24,7.2-6.48a170.64,170.64,0,0,1,27.6-17,8.52,8.52,0,0,0,2.16-1c4.56-1.68,7.68-.48,10.08,4.08.24.72.48,1.44,1.2,1.68,4.32,1.2,4.56,4.8,4.8,8.16s-1,6.72-2.16,9.84c-2.88,8.88-6,17.76-9.12,26.88A51.66,51.66,0,0,0,580,611.2c0,.23.24.47.24.71a1.44,1.44,0,0,0,1-.24l3.12-3.12c7.68-9.12,15.36-17.76,24.24-25.68A130.08,130.08,0,0,1,630.36,567,31.46,31.46,0,0,1,643.8,563c4.56-.24,7.2,3.12,6.48,7.92a2.55,2.55,0,0,1-2.16,2.4c-11,3.6-20.4,10.08-29.28,17.52a264.24,264.24,0,0,0-25.92,25.92,14.3,14.3,0,0,0-3.36,7.21c-1.44,7.44-1.2,14.63-.72,22.08a162.64,162.64,0,0,0,6.24,30c0,.72.48,1.44.48,2.16a.88.88,0,0,1-.24.72c0-.24-.48-.48-.48-.72-1.2-3.84-2.4-7.68-3.36-11.52-2.4-9.6-4.56-19.2-4.32-28.56v-7.92c0-.48-.24-1.2-.48-1.2-.72-.25-1,.48-1.2,1a10.1,10.1,0,0,0-.72,4.55,76.18,76.18,0,0,0,2.4,23.29,212.33,212.33,0,0,0,18,50.64,74.72,74.72,0,0,0,5.28,9.6c2.4,3.84,5.28,7.2,9.84,8.64.72.24,1.44.48,1.44,1.44S621,729.28,620,729.52Zm7.91-64.8c0,.24-.24.48-.48,1V661.6a58.08,58.08,0,0,1,1.2-7.92,263.42,263.42,0,0,1,12.48-42c1.2-2.88,1.68-6.24,4.56-8.4.24,3.36-1.44,6.24-2.4,9.12C638,626.55,634,641.2,629.87,655.6,629.15,658.48,628.67,661.6,628,664.72Zm150-20.4A152.85,152.85,0,0,1,751.79,675a26.38,26.38,0,0,1-4.32,3.36c-3.12,2.4-5,2.4-8.16.48-2.64-1.44-4.08-3.84-4.8-7.2a31.94,31.94,0,0,1,1.2-9.6c1-4.08,2.64-8.4,3.6-12.48,0-.48.72-1.2-.24-1.68,0,0-.72.72-.72,1.2-2.64,7-6.24,13.68-5.76,21.84,0,.48,0,.72-.48.48-.24,0-.72-.24-.72-.48a16.78,16.78,0,0,1-.72-8.4,140.67,140.67,0,0,1,6.24-21.12c2.64-6.48,5-13,7.44-19.44.72-1.93,1.92-3.85,1.2-6-2.88-.71-4.08,1.93-5.76,3.13-8.88,7-15.84,15.84-21.6,25.67-3.84,6.73-6,13.93-8.16,21.13-1,3.12-1.92,6.48-3.12,9.36-1,1.44-1.68,1.92-2.4,0-.72-1.68-1.68-1.44-2.88,0-1.92,2.4-3.12,2.4-5,0a8.15,8.15,0,0,1-1.2-4.56,18,18,0,0,1,1.2-6.24c1.68-6.24,2.88-12.24,5.28-18.24,0-.48.24-1-.24-1.45-.24,0-.72.73-1,1.21A149.54,149.54,0,0,0,694,665.92c-.48,1.92-.24,3.84-1.92,5-1.92-1.68-1.2-3.6-1-5.52,1.44-8.4,4.08-16.08,7-24,2.16-6,4.32-12,6.72-17.77l.72-2.63c0-.49.24-1.45-.48-1.68a1.31,1.31,0,0,0-1.2.71c-2.88,3.6-6,7-8.88,10.81a327.56,327.56,0,0,0-17.76,29.28c-1.92,3.12-2.64,7.2-3.84,10.8-.48,1.68-1.44,3.6-2.16,5.52-.48.72-1,1.68-2.4,1-1-.48-1.68-.24-2.64.48-3.12,2.16-5.52,1-6.24-2.64a12.29,12.29,0,0,1,.48-6.48c.72-3.36,1.44-7,2.4-10.32,3.84-12.24,7.44-24.24,11-36.25a13.68,13.68,0,0,0,1-3.35c.24-.25,0-.49-.24-.73-.24.24-.48.24-.48.48a66,66,0,0,0-3.12,7.68q-2.68,8.07-5.18,16.21a2.41,2.41,0,0,1-.34,2l-.59,1.06q-4,13.23-7.33,26.54c-.24.48,0,1.2-1,1.2-.24,0-.48-1-.48-1.2a18.5,18.5,0,0,1,.24-8.16q.81-3.29,1.64-6.56a90,90,0,0,1-6.68,9.44,22.52,22.52,0,0,0-2.16,2.88c-1.44,1.92-2.64,3.84-5,4.56-3.36.72-6.72,1.2-9.84,0a4.67,4.67,0,0,1-3.36-3.6,21.3,21.3,0,0,1-.48-3.6,78.6,78.6,0,0,1,2.16-13.44,378.69,378.69,0,0,1,15.12-48.49,31.43,31.43,0,0,1,1.68-4.31c1-1.69,2.16-2.17,3.6-1.69a3,3,0,0,1,2.16,3.6,69.77,69.77,0,0,1-1.92,6.72c0,.24-.24,1,.48,1,.24,0,.48-.24.72-.48.72-2.16,1.68-4.08,2.4-6,.48-.72.72-1.44,1.68-1.44,1,.24,1.2,1.2,1.45,2.16a14.09,14.09,0,0,1-1,5.52l-5,16.56-10.8,34.57a28.31,28.31,0,0,0-1,4.8,1.83,1.83,0,0,0,.48,1.2,1.06,1.06,0,0,0,1.2-.24,27.38,27.38,0,0,0,2.64-2.64,71.78,71.78,0,0,0,9.12-13.2c1.44-2.4,2.88-4.8,4.08-7.2a8.22,8.22,0,0,1,2.41-2.64l.14-.06a267.85,267.85,0,0,1,10.89-31.63,28.67,28.67,0,0,1,2.88-5.28c.72-1.43,1.68-2.16,3.36-1a1.43,1.43,0,0,0,1.68,0c3.6-2.16,5-1.68,7,1.92.48.48.48,1.2,1.68,1.45q3.6.71,2.88,4.32c-.48,2.16-1.44,4.31-2.16,6.72a63.58,63.58,0,0,1-2.88,8.87A.89.89,0,0,0,688,628c.48,0,.72,0,1-.25,1-1,1.68-2.15,2.64-3.12,6-6.71,11-14.4,17.76-20.64,1.92-1.44,3.84-2.88,6.24-2.16a6.06,6.06,0,0,1,5,6.48c-.24,3.84-.72,7.68-1,11.52V621c.72.24,1-.25,1-1A44.24,44.24,0,0,0,723.23,610c0-.24.24-.48.48-.71.48,0,.72.47,1,.71a10.1,10.1,0,0,1,.48,7c-.24,1.92-1.2,4.08,0,6,2.16-.49,3.12-2.17,4.56-3.84,5.76-5.53,12-10.33,18.24-15.37,4.08-3.6,10.08-1,11,4.56.72,2.4-.48,4.81-.24,7.2,0,1.93-.24,3.37-.24,5.28a2.63,2.63,0,0,0,.24,1.21c.24-.25,1-.48,1-1a29.27,29.27,0,0,0,1.68-9.13c0-.48,0-1.44.72-1.2.24,0,1,.72,1.2,1a15.9,15.9,0,0,1,.72,6,36.46,36.46,0,0,1-2.4,11.29c-2.88,10.56-7,20.64-10.8,30.48a26.39,26.39,0,0,0-2.88,7.92c0,.48,0,.72.24,1a.79.79,0,0,0,1.2,0c2.88-2.64,5.76-5.28,8.4-7.92,4.08-4.56,7.68-9.84,11.52-14.64a31.38,31.38,0,0,1,3.36-4.56,3.22,3.22,0,0,1,3.6-1C778.91,640.71,779.63,642.4,778,644.32Z"/><path class="cls-1" d="M583.32,671.68A137.3,137.3,0,0,1,579,638.79c0-.95-.24-1.67-.24-2.63l-.72-.48c-.48,0-1,.24-1,.72a16.4,16.4,0,0,0-.48,3.12c-.24,5.76.72,11.27,1.68,16.8,1.2,6,2.88,12,4.56,17.76.24.24.48,1,.72,1,.48-.24.24-.72.24-1A10.56,10.56,0,0,1,583.32,671.68Z"/><path class="cls-1" d="M696.52,530.52,709,517.08a5.25,5.25,0,0,1,.72-1.2,24.4,24.4,0,0,0,3.6-9.84c1.44-8.16,4.32-15.85,7.44-23.53,1.2-3.12.72-5.28-1.2-7.44-1.2-1.44-2.16-1.68-3.6-.72a22,22,0,0,0-6,5.52c-6.24,7.44-9.84,15.85-12.72,24.73a85.07,85.07,0,0,0-4.08,20.64,23.28,23.28,0,0,0,.24,4.08C693.64,531.72,694.84,532.2,696.52,530.52Z"/><path class="cls-1" d="M717.64,519c-.72-.24-1,.48-1.2,1A30.67,30.67,0,0,0,715,530.28c.24,1,.24,1.92.48,2.64.24,1,.24,2.16,1.2,2.16,1.2,0,1-1.44,1-2.16a78.4,78.4,0,0,1,.24-13A1.44,1.44,0,0,0,717.64,519Z"/><path class="cls-1" d="M690,530.28c.24-.48.72-1,.72-1.2A43.61,43.61,0,0,1,691,515.4c.24-1.44.24-2.88.48-4.32,0-.48,0-1-.48-1a.52.52,0,0,0-.48.48c-1.68,4.32-2.16,8.64-2.64,13a22.33,22.33,0,0,0,1.2,5.76C689.32,529.8,689.8,529.8,690,530.28Z"/><path class="cls-1" d="M724.84,536c1,.24.72-.72,1-1.2v-1.92c-.48-5.76.48-11.52,1.68-17,1-3.36,1.44-6.48,2.16-9.84v-1.2c-1-.24-1,.48-1.2,1L727,510.12c-1.2,5.52-2.4,10.8-3.36,16.08a11.23,11.23,0,0,0-.48,3.84,12.83,12.83,0,0,0,.72,5.28C724.12,535.56,724.36,536,724.84,536Z"/><path class="cls-1" d="M681.88,529.08c.48.24.72-.48.72-.72V526a69.71,69.71,0,0,1,1-17.28c.72-2.88,1.44-6,1.92-8.88.24-.48.48-1.45,0-1.68-.72-.24-1,.71-1,1.2A73.88,73.88,0,0,0,680,521.88a17.56,17.56,0,0,0,1,6.48C681.16,528.84,681.4,529.08,681.88,529.08Z"/><path class="cls-1" d="M662.18,641.38c-1.51,5.32-2.92,10.68-4.27,16.06,2.41-3.85,4.66-7.86,6.89-11.82l.93-3.1a2.32,2.32,0,0,0-.34-.6A2.84,2.84,0,0,0,662.18,641.38Z"/></g></g></svg>