<?xml version="1.0" encoding="UTF-8"?>
<svg width="24px" height="24px" viewBox="0 0 24 24" version="1.1" xmlns="http://www.w3.org/2000/svg" xmlns:xlink="http://www.w3.org/1999/xlink">
    <!-- Generator: Sketch 50 (54983) - http://www.bohemiancoding.com/sketch -->
    <title>noun_design_762931</title>
    <desc>Created with Sketch.</desc>
    <defs></defs>
    <g id="Page-1" stroke="none" stroke-width="1" fill="none" fill-rule="evenodd">
        <g id="Landing-Page-Copy-4" transform="translate(-308.000000, -1198.000000)" fill="#FFFFFF" fill-rule="nonzero">
            <g id="Group-7" transform="translate(302.000000, 1194.000000)">
                <g id="noun_design_762931" transform="translate(6.284076, 4.527137)">
                    <path d="M22.5650271,17.2739173 L19.7949755,14.5038657 C19.7949755,14.5038657 19.7949755,14.5038657 19.7949755,14.5038657 C19.7949755,14.5038657 19.7949755,14.5038657 19.7949755,14.5038657 L16.2779437,10.9868339 L22.5027787,4.76199882 C22.7828963,4.48188124 22.7828963,4.04614278 22.5027787,3.76602521 L19.2347403,0.52911098 C19.1102436,0.404614278 18.9234986,0.311241753 18.7367535,0.311241753 C18.5500085,0.311241753 18.3632634,0.373490103 18.2387667,0.52911098 L12.0139317,6.75394603 L11.6093174,6.34933175 C11.6093174,6.34933175 11.6093174,6.34933175 11.6093174,6.34933175 C11.6093174,6.34933175 11.6093174,6.34933175 11.6093174,6.34933175 L9.99086026,4.66862629 C9.99086026,4.66862629 9.99086026,4.66862629 9.99086026,4.66862629 C9.99086026,4.66862629 9.99086026,4.66862629 9.99086026,4.66862629 L5.75797242,0.466862629 C5.50897902,0.217869227 5.01099222,0.217869227 4.76199882,0.466862629 L0.466862629,4.76199882 C0.186745052,5.04211639 0.186745052,5.47785485 0.466862629,5.75797242 L6.75394603,12.0450558 L1.89857469,16.9004272 C1.86745052,16.9315513 1.83632634,16.9937997 1.80520217,17.0249239 C1.80520217,17.0249239 1.80520217,17.056048 1.77407799,17.056048 C1.74295381,17.0871722 1.74295381,17.1494206 1.71182964,17.1805447 C1.71182964,17.1805447 1.71182964,17.1805447 1.71182964,17.2116689 L0.311241753,21.8180469 C0.248993402,22.0670403 0.311241753,22.3471578 0.497986804,22.5339029 C0.622483505,22.6583996 0.809228557,22.7517721 0.995973608,22.7517721 C1.05822196,22.7517721 1.12047031,22.7517721 1.21384284,22.7206479 L5.85134495,21.3200601 C5.85134495,21.3200601 5.85134495,21.3200601 5.88246913,21.3200601 C5.9135933,21.3200601 5.97584165,21.2889359 6.00696583,21.2578117 C6.00696583,21.2578117 6.03809,21.2578117 6.03809,21.2266875 C6.06921418,21.1955634 6.13146253,21.1644392 6.1625867,21.133315 L11.017958,16.2779437 L17.3050414,22.5650271 C17.4295381,22.6895238 17.6162832,22.7828963 17.8030283,22.7828963 C17.9897733,22.7828963 18.1765184,22.7206479 18.3010151,22.5650271 L22.5961512,18.2698909 C22.7206479,18.1453942 22.8140205,17.9586491 22.8140205,17.7719041 C22.8140205,17.585159 22.6895238,17.398414 22.5650271,17.2739173 Z M17.2427931,3.5170318 L19.4837337,5.75797242 L18.9857469,6.2870834 L16.7136821,4.04614278 L17.2427931,3.5170318 Z M21.0088183,4.26401201 L20.5108315,4.76199882 L18.2698909,2.5210582 L18.7678777,2.02307139 L21.0088183,4.26401201 Z M15.7177085,5.04211639 L17.9586491,7.28305701 L15.2819701,9.95973608 L14.8773558,9.55512181 C14.8773558,9.55512181 14.8773558,9.55512181 14.8773558,9.55512181 C14.8773558,9.55512181 14.8773558,9.55512181 14.8773558,9.55512181 L13.2588987,7.93666469 C13.2588987,7.93666469 13.2588987,7.93666469 13.2588987,7.93666469 C13.2588987,7.93666469 13.2588987,7.93666469 13.2588987,7.93666469 L13.0099053,7.68767129 L15.7177085,5.04211639 Z M3.5170318,20.5419557 L2.48993402,19.5148579 L2.73892742,18.7367535 L4.32626036,20.3240864 L3.5170318,20.5419557 Z M5.63347572,19.6393546 L4.51300541,18.5188843 L3.3925351,17.398414 L7.74991964,13.0410294 L9.99086026,15.2819701 L5.63347572,19.6393546 Z M17.7719041,21.0710667 L8.24790645,11.547069 C8.24790645,11.547069 8.24790645,11.547069 8.24790645,11.547069 C8.24790645,11.547069 8.24790645,11.547069 8.24790645,11.547069 L1.96082304,5.25998562 L5.25998562,1.96082304 L6.84731856,3.54815598 L5.5401032,4.85537134 C5.25998562,5.13548892 5.25998562,5.57122737 5.5401032,5.85134495 C5.6645999,5.97584165 5.85134495,6.06921418 6.03809,6.06921418 C6.22483505,6.06921418 6.4115801,6.00696583 6.53607681,5.85134495 L7.84329217,4.54412959 L8.46577567,5.16661309 L7.15856031,6.47382846 C6.87844273,6.75394603 6.87844273,7.18968449 7.15856031,7.46980206 C7.28305701,7.59429876 7.46980206,7.68767129 7.65654712,7.68767129 C7.84329217,7.68767129 8.03003722,7.62542294 8.15453392,7.46980206 L9.46174928,6.1625867 L10.0842328,6.78507021 L8.77701742,8.09228557 C8.49689985,8.37240315 8.49689985,8.8081416 8.77701742,9.08825918 C8.90151413,9.21275588 9.08825918,9.3061284 9.27500423,9.3061284 C9.46174928,9.3061284 9.64849433,9.24388005 9.77299103,9.08825918 L11.0802064,7.78104382 L11.4848207,8.18565809 C11.4848207,8.18565809 11.4848207,8.18565809 11.4848207,8.18565809 C11.4848207,8.18565809 11.4848207,8.18565809 11.4848207,8.18565809 L11.7026899,8.40352732 L10.3954745,9.71074268 C10.115357,9.99086026 10.115357,10.4265987 10.3954745,10.7067163 C10.5199712,10.831213 10.7067163,10.9245855 10.8934613,10.9245855 C11.0802064,10.9245855 11.2669514,10.8623372 11.3914481,10.7067163 L12.6986635,9.39950093 L13.321147,10.0219844 L12.0139317,11.3291998 C11.7338141,11.6093174 11.7338141,12.0450558 12.0139317,12.3251734 C12.1384284,12.4496701 12.3251734,12.5430426 12.5119185,12.5430426 C12.6986635,12.5430426 12.8854086,12.4807943 13.0099053,12.3251734 L14.3171206,11.017958 L14.7217349,11.4225723 C14.7217349,11.4225723 14.7217349,11.4225723 14.7217349,11.4225723 C14.7217349,11.4225723 14.7217349,11.4225723 14.7217349,11.4225723 L14.9707283,11.6715657 L13.6635129,12.9787811 C13.3833954,13.2588987 13.3833954,13.6946371 13.6635129,13.9747547 C13.7880096,14.0992514 13.9747547,14.1926239 14.1614997,14.1926239 C14.3482448,14.1926239 14.5349898,14.1303756 14.6594865,13.9747547 L15.9667019,12.6675393 L16.5891854,13.2900228 L15.2819701,14.5972382 C15.0018525,14.8773558 15.0018525,15.3130942 15.2819701,15.5932118 C15.4064668,15.7177085 15.5932118,15.811081 15.7799569,15.811081 C15.9667019,15.811081 16.153447,15.7488327 16.2779437,15.5932118 L17.585159,14.2859964 L18.2076425,14.90848 L16.9004272,16.2156953 C16.6203096,16.4958129 16.6203096,16.9315513 16.9004272,17.2116689 C16.9315513,17.2427931 16.9626755,17.2739173 17.0249239,17.3050414 C17.1494206,17.398414 17.2739173,17.4295381 17.398414,17.4295381 C17.585159,17.4295381 17.7719041,17.3672898 17.8964008,17.2116689 L19.2036161,15.9044536 L20.9776941,17.6785316 L17.7719041,21.0710667 Z" id="Shape"></path>
                </g>
            </g>
        </g>
    </g>
</svg>