<?xml version="1.0" encoding="utf-8"?>
<!-- Generator: Adobe Illustrator 22.1.0, SVG Export Plug-In . SVG Version: 6.00 Build 0)  -->
<svg version="1.1" id="Layer_1" xmlns="http://www.w3.org/2000/svg" xmlns:xlink="http://www.w3.org/1999/xlink" x="0px" y="0px"
	 viewBox="0 0 24 24" style="enable-background:new 0 0 24 24;" xml:space="preserve">
<style type="text/css">
	.st0{fill:#817872;}
</style>
<title>noun_design_762931</title>
<desc>Created with Sketch.</desc>
<g id="Page-1">
	<g id="Landing-Page-Copy-4" transform="translate(-308.000000, -1198.000000)">
		<g id="Group-7" transform="translate(302.000000, 1194.000000)">
			<g id="noun_design_762931" transform="translate(6.284076, 4.527137)">
				<path id="Shape" class="st0" d="M22.6,17.3l-2.8-2.8l0,0l0,0L16.3,11l6.2-6.2c0.3-0.3,0.3-0.7,0-1l-3.3-3.2
					c-0.1-0.1-0.3-0.2-0.5-0.2s-0.4,0.1-0.5,0.2L12,6.8l-0.4-0.4l0,0l0,0L10,4.7l0,0l0,0L5.8,0.5c-0.2-0.2-0.7-0.2-1,0L0.5,4.8
					c-0.3,0.3-0.3,0.7,0,1L6.8,12l-4.9,4.9c0,0-0.1,0.1-0.1,0.1c0,0,0,0,0,0c0,0,0,0.1-0.1,0.1c0,0,0,0,0,0l-1.4,4.6
					c-0.1,0.2,0,0.5,0.2,0.7c0.1,0.1,0.3,0.2,0.5,0.2c0.1,0,0.1,0,0.2,0l4.6-1.4c0,0,0,0,0,0s0.1,0,0.1-0.1c0,0,0,0,0,0
					c0,0,0.1-0.1,0.1-0.1l4.9-4.9l6.3,6.3c0.1,0.1,0.3,0.2,0.5,0.2s0.4-0.1,0.5-0.2l4.3-4.3c0.1-0.1,0.2-0.3,0.2-0.5
					S22.7,17.4,22.6,17.3z M17.2,3.5l2.2,2.2L19,6.3L16.7,4L17.2,3.5z M21,4.3l-0.5,0.5l-2.2-2.2L18.8,2L21,4.3z M15.7,5L18,7.3
					L15.3,10l-0.4-0.4l0,0l0,0l-1.6-1.6l0,0l0,0L13,7.7L15.7,5z M3.5,20.5l-1-1l0.2-0.8l1.6,1.6L3.5,20.5z M5.6,19.6l-1.1-1.1
					l-1.1-1.1L7.7,13l2.2,2.2L5.6,19.6z M17.8,21.1l-9.5-9.5l0,0l0,0L2,5.3L5.3,2l1.6,1.6L5.5,4.9c-0.3,0.3-0.3,0.7,0,1
					C5.7,6,5.9,6.1,6,6.1c0.2,0,0.4-0.1,0.5-0.2l1.3-1.3l0.6,0.6L7.2,6.5c-0.3,0.3-0.3,0.7,0,1c0.1,0.1,0.3,0.2,0.5,0.2
					S8,7.6,8.2,7.5l1.3-1.3l0.6,0.6L8.8,8.1c-0.3,0.3-0.3,0.7,0,1c0.1,0.1,0.3,0.2,0.5,0.2c0.2,0,0.4-0.1,0.5-0.2l1.3-1.3l0.4,0.4
					l0,0l0,0l0.2,0.2l-1.3,1.3c-0.3,0.3-0.3,0.7,0,1c0.1,0.1,0.3,0.2,0.5,0.2c0.2,0,0.4-0.1,0.5-0.2l1.3-1.3l0.6,0.6L12,11.3
					c-0.3,0.3-0.3,0.7,0,1c0.1,0.1,0.3,0.2,0.5,0.2c0.2,0,0.4-0.1,0.5-0.2l1.3-1.3l0.4,0.4l0,0l0,0l0.2,0.2L13.7,13
					c-0.3,0.3-0.3,0.7,0,1c0.1,0.1,0.3,0.2,0.5,0.2c0.2,0,0.4-0.1,0.5-0.2l1.3-1.3l0.6,0.6l-1.3,1.3c-0.3,0.3-0.3,0.7,0,1
					c0.1,0.1,0.3,0.2,0.5,0.2s0.4-0.1,0.5-0.2l1.3-1.3l0.6,0.6l-1.3,1.3c-0.3,0.3-0.3,0.7,0,1c0,0,0.1,0.1,0.1,0.1
					c0.1,0.1,0.2,0.1,0.4,0.1c0.2,0,0.4-0.1,0.5-0.2l1.3-1.3l1.8,1.8L17.8,21.1z"/>
			</g>
		</g>
	</g>
</g>
</svg>
