<svg xmlns="http://www.w3.org/2000/svg" viewBox="0 0 48.28 48.65"><title>Asset 1</title><g id="Layer_2" data-name="Layer 2"><g id="Layer_1-2" data-name="Layer 1"><path d="M47.36,6a.75.75,0,0,0-.9,0l-7.8,3.6a8.37,8.37,0,0,0-4.8,7l-.2,2.5-2.5,4.1-1.5,2.5v-2.8h0v-.3L27.76,17l3.8-7.6a.92.92,0,0,0-.1-1l-6-8A1.09,1.09,0,0,0,24,.25a.1.1,0,0,0-.1.1l-6,8a.92.92,0,0,0-.1,1l3.8,7.6-1.9,5.6v.3h0v4l-6.2-9.5h0c-.1-.1-.1-.2-.2-.2h-.1l-3.7-2.1L8,12.75l-2.3-3.4A1.09,1.09,0,0,0,4.46,9l-3.8,1.3a1,1,0,0,0-.6,1.3c0,.1.1.1.1.2L3,16l1.5,2.3.5,4.2H5v.1c0,.1.1.2.1.3h0l14.8,22.4c.1.1.1.2.2.2a5,5,0,0,0,4.6,3.2,4.87,4.87,0,0,0,1.2-.1,4.8,4.8,0,0,0,3.1-2.3l10.8-18,2.5-4.1,2.1-1.3a8.06,8.06,0,0,0,2.7-2.8,7.89,7.89,0,0,0,1.2-4.7l-.4-8.5A1.05,1.05,0,0,0,47.36,6Zm-7.2,17.9-1.5,2.6-2.6-1.6-2.6-1.5,1.5-2.6,2.6,1.5ZM21.66,39V23.85h6v5.2Zm1.7-21.1H26l1.3,4h-5.2Zm1.3-7a.94.94,0,0,1-1-1,1,1,0,1,1,2,0A.94.94,0,0,1,24.66,10.85Zm0-8.3L29.46,9l-3.4,6.9h-.4v-3.2a2.93,2.93,0,0,0,1.8-3.8,3,3,0,0,0-3.8-1.8,3,3,0,0,0,0,5.6v3.2h-.4L19.86,9ZM10.66,18l-.3.2-3.7,2.4-.3-2.8a.52.52,0,0,0-.2-.4l-1.1-1.7,1.7-1.1,1.1,1.7.3.3Zm-6.2-6.9L5.66,13,4,14.05l-1.5-2.3ZM9.76,21l2.5-1.7,7.4,11.2v10.9L7.26,22.65Zm17.5,24.3a3,3,0,1,1-5.1-3.1h0l7.5-12.5h0l2.8-4.6,2.6,1.6,2.6,1.5Zm18.1-26.2a5.3,5.3,0,0,1-2.1,2.1l-1.8,1.1-2.9-1.7-2.9-1.7.2-2.1a6.48,6.48,0,0,1,3.7-5.3l6.4-3,.1,2.8h-.3l-2.4.6a6,6,0,0,0-4.5,4.6,1,1,0,0,0,.8,1.2h.2a1,1,0,0,0,1-.8,4.12,4.12,0,0,1,3-3.1l2.3-.6.1,2.3A6.44,6.44,0,0,1,45.36,19.05Z"/></g></g></svg>