<?xml version="1.0" encoding="UTF-8"?>
<svg width="66px" height="52px" viewBox="0 0 66 52" version="1.1" xmlns="http://www.w3.org/2000/svg" xmlns:xlink="http://www.w3.org/1999/xlink">
    <!-- Generator: Sketch 50 (54983) - http://www.bohemiancoding.com/sketch -->
    <title>noun_feedback_651868</title>
    <desc>Created with Sketch.</desc>
    <defs></defs>
    <g id="Page-1" stroke="none" stroke-width="1" fill="none" fill-rule="evenodd">
        <g id="Case-studies" transform="translate(-650.000000, -14630.000000)" fill="#FFFFFF" fill-rule="nonzero">
            <g id="noun_feedback_651868" transform="translate(650.500000, 14629.709454)">
                <path d="M64.3294278,21.351111 L58.3206239,30.1739066 C57.8418781,30.8763845 57.0904376,31.34969 56.2485522,31.4768568 C56.096224,31.4992981 55.9438958,31.5115387 55.7908876,31.5115387 C55.1026905,31.5115387 54.4294542,31.2789662 53.8840648,30.8451028 L45.6359001,24.2752686 C44.3139089,23.2218918 44.0949371,21.2967081 45.1489939,19.9747168 C46.2030507,18.6540856 48.1275544,18.4351138 49.4481856,19.4878105 L51.6644251,21.2525057 C49.5971137,12.7527275 41.92426,6.42158617 32.797488,6.42158617 C26.8512475,6.42158617 21.3116689,9.09209013 17.5993487,13.7483011 C16.545972,15.0702924 14.6207882,15.2872241 13.2987969,14.2331673 C11.9781657,13.1797905 11.7598739,11.2546067 12.8139308,9.93261544 C17.6938738,3.81160547 24.9777465,0.300576203 32.797488,0.300576203 C44.9429428,0.300576203 55.1298919,8.8261958 57.7031506,20.2059293 L59.2692751,17.9060453 C60.2192863,16.5085699 62.124749,16.1467904 63.5215443,17.0988418 C64.9183396,18.0508931 65.2801191,19.9543157 64.3294278,21.351111 Z M7.44844153,28.9076783 C8.96832346,41.5502399 19.7537049,51.3828899 32.7988481,51.3828899 C41.4890366,51.3828899 49.5046287,47.0224949 54.2397239,39.7202612 C55.1598135,38.3017048 54.7551917,36.4071226 53.3373153,35.487033 C51.9173987,34.5676235 50.0248567,34.9708852 49.103407,36.3894417 C45.5019329,41.9460212 39.4060843,45.26256 32.797488,45.26256 C22.8458316,45.26256 14.6235083,37.7386344 13.5096083,28.0793937 L15.7510091,30.2867927 C16.954674,31.4727766 18.8920984,31.4598559 20.0780824,30.2534709 C21.2640663,29.049126 21.2497855,27.1123816 20.0447606,25.9263976 L12.5337557,18.5282788 C11.927843,17.9312066 11.1002384,17.6122694 10.2495125,17.6510315 C9.3994667,17.6891136 8.60314378,18.0801347 8.05299412,18.7288896 L1.14926195,26.8709686 C0.0564430427,28.1603181 0.215571621,30.0909421 1.50424109,31.1851211 C2.0795521,31.6727074 2.78271001,31.9100402 3.48178769,31.9100402 C4.34951447,31.9100402 5.21180096,31.5428204 5.81771362,30.8287819 L7.44844153,28.9076783 Z" id="Shape"></path>
            </g>
        </g>
    </g>
</svg>