<svg id="Layer_1" data-name="Layer 1" xmlns="http://www.w3.org/2000/svg" viewBox="0 0 92.92 93"><defs><style>.cls-1{fill:#fff;}</style></defs><title>fingerprint</title><path class="cls-1" d="M6.35,57.81h.3A2.5,2.5,0,0,0,8.84,55v0a41.61,41.61,0,0,1,82.64-9.79,2.52,2.52,0,1,0,5-.59,46.61,46.61,0,1,0-92.57,11h0A2.49,2.49,0,0,0,6.35,57.81Z" transform="translate(-3.58 -3.5)"/><path class="cls-1" d="M41.51,95.82a2.51,2.51,0,0,0,3.35-1.12,79.37,79.37,0,0,0,7.78-44.88,2.52,2.52,0,1,0-5,.59,74.38,74.38,0,0,1-7.29,42.06,2.49,2.49,0,0,0,1.15,3.34Z" transform="translate(-3.58 -3.5)"/><path class="cls-1" d="M81.13,83.47a2.49,2.49,0,0,0,2.93-2v0a112.79,112.79,0,0,0,1.41-35.59A35.58,35.58,0,0,0,78.78,29a2.5,2.5,0,1,0-4,3,30.67,30.67,0,0,1,5.77,14.56,107.51,107.51,0,0,1-1.35,34A2.5,2.5,0,0,0,81.13,83.47Z" transform="translate(-3.58 -3.5)"/><path class="cls-1" d="M13.4,78.2a2.5,2.5,0,0,0,3.26-1.37h0a46.69,46.69,0,0,0,3.13-23.11A30.58,30.58,0,0,1,64.46,23.09a2.5,2.5,0,1,0,2.34-4.42,35.58,35.58,0,0,0-52,35.64A41.57,41.57,0,0,1,12,74.94a2.49,2.49,0,0,0,1.38,3.25Z" transform="translate(-3.58 -3.5)"/><path class="cls-1" d="M53.6,96.3A2.51,2.51,0,0,0,56.88,95a90.67,90.67,0,0,0,6.71-46.47,13.53,13.53,0,1,0-26.9,2.93l0,.26a64.28,64.28,0,0,1,.41,9.61,2.5,2.5,0,0,0,5,.16,70.32,70.32,0,0,0-.44-10.36A8.53,8.53,0,0,1,58.6,48.85l0,.28A85.73,85.73,0,0,1,52.29,93a2.5,2.5,0,0,0,1.29,3.29Z" transform="translate(-3.58 -3.5)"/><path class="cls-1" d="M30.74,92.49a2.5,2.5,0,0,0,3.38-1,68.6,68.6,0,0,0,5.8-14.82,2.5,2.5,0,1,0-4.84-1.27h0A63.56,63.56,0,0,1,29.7,89.14,2.5,2.5,0,0,0,30.74,92.49Z" transform="translate(-3.58 -3.5)"/><path class="cls-1" d="M69.58,47.88A2.5,2.5,0,0,0,72.05,50h.33a2.5,2.5,0,0,0,2.16-2.78A24.57,24.57,0,0,0,47.21,25.74a24.06,24.06,0,0,0-4.81,1.07A2.51,2.51,0,0,0,44,31.56,19.58,19.58,0,0,1,68.74,44a19.78,19.78,0,0,1,.86,3.88Z" transform="translate(-3.58 -3.5)"/><path class="cls-1" d="M66.88,93A2.5,2.5,0,0,0,70,91.4a100.77,100.77,0,0,0,5.16-29,2.5,2.5,0,0,0-5-.15,96,96,0,0,1-4.9,27.6A2.51,2.51,0,0,0,66.87,93Z" transform="translate(-3.58 -3.5)"/><path class="cls-1" d="M21.39,86.66a2.51,2.51,0,0,0,3.37-1.08h0a57.28,57.28,0,0,0,6-33.16,19.58,19.58,0,0,1,3-13,2.5,2.5,0,0,0-4.19-2.72A24.59,24.59,0,0,0,25.77,53a52.41,52.41,0,0,1-5.46,30.28,2.5,2.5,0,0,0,1.06,3.37Z" transform="translate(-3.58 -3.5)"/></svg>