<?xml version="1.0" encoding="utf-8"?>
<!-- Generator: Adobe Illustrator 22.1.0, SVG Export Plug-In . SVG Version: 6.00 Build 0)  -->
<svg version="1.1" id="Layer_1" xmlns="http://www.w3.org/2000/svg" xmlns:xlink="http://www.w3.org/1999/xlink" x="0px" y="0px"
	 viewBox="0 0 92.9 93" style="enable-background:new 0 0 92.9 93;" xml:space="preserve">
<style type="text/css">
	.st0{fill:#817872;}
</style>
<title>fingerprint</title>
<path class="st0" d="M2.8,54.3h0.3c1.4-0.2,2.4-1.4,2.2-2.8c0,0,0,0,0,0l0,0C2.7,28.7,19.2,8.1,42,5.5c22.6-2.5,43,13.6,45.9,36.2
	c0.1,1.4,1.3,2.4,2.7,2.3c1.4-0.1,2.4-1.3,2.3-2.7c0-0.1,0-0.2,0-0.2c-3-25.6-26.2-43.8-51.8-40.8S-2.7,26.6,0.3,52.1c0,0,0,0,0,0
	l0,0C0.5,53.4,1.5,54.3,2.8,54.3z"/>
<path class="st0" d="M37.9,92.3c1.2,0.6,2.7,0.1,3.3-1.1c6.9-13.9,9.6-29.5,7.8-44.9c-0.1-1.4-1.3-2.4-2.7-2.3
	c-1.4,0.1-2.4,1.3-2.3,2.7c0,0.1,0,0.2,0,0.2C45.8,61.3,43.3,76,36.8,89C36.2,90.2,36.7,91.7,37.9,92.3
	C37.9,92.3,37.9,92.3,37.9,92.3L37.9,92.3z"/>
<path class="st0" d="M77.5,80c1.3,0.3,2.7-0.6,2.9-2c0,0,0,0,0,0l0,0c2.4-11.7,2.8-23.7,1.4-35.6c-0.7-6.1-3-11.9-6.7-16.9
	c-0.8-1.1-2.4-1.3-3.5-0.5s-1.3,2.4-0.5,3.5c3.2,4.3,5.1,9.3,5.8,14.6c1.4,11.3,0.9,22.8-1.3,34C75.4,78.4,76.2,79.7,77.5,80z"/>
<path class="st0" d="M9.8,74.7c1.3,0.5,2.7-0.1,3.3-1.4c0,0,0,0,0,0l0,0c3-7.3,4.1-15.3,3.1-23.1c-2-16.8,10-32,26.8-34
	c6.2-0.7,12.4,0.4,17.9,3.3c1.2,0.6,2.7,0.2,3.4-1c0.6-1.2,0.2-2.7-1-3.4C45.9,6,24.3,12.6,15.1,29.9c-3.4,6.4-4.8,13.7-3.9,20.9
	c0.8,7-0.1,14.1-2.8,20.6C7.9,72.7,8.5,74.2,9.8,74.7C9.8,74.7,9.8,74.7,9.8,74.7L9.8,74.7z"/>
<path class="st0" d="M50,92.8c1.3,0.5,2.7,0,3.3-1.3C59.6,76.9,61.9,60.8,60,45c-0.7-7.4-7.4-12.9-14.8-12.1
	c-7.4,0.7-12.9,7.4-12.1,14.8c0,0.1,0,0.1,0,0.2v0.3c0.4,3.2,0.5,6.4,0.4,9.6c0,1.4,1,2.5,2.4,2.6c1.4,0,2.5-1,2.6-2.4
	c0.1-3.5,0-6.9-0.4-10.4c-0.6-4.7,2.7-9,7.3-9.6s9,2.7,9.6,7.3v0.3c1.8,14.9-0.4,30.1-6.3,43.9C48.2,90.8,48.7,92.2,50,92.8L50,92.8
	z"/>
<path class="st0" d="M27.2,89c1.2,0.7,2.7,0.2,3.4-1c2.5-4.7,4.4-9.7,5.8-14.8c0.4-1.3-0.4-2.7-1.8-3.1c-1.3-0.4-2.7,0.4-3.1,1.8
	l0,0l0,0c-1.3,4.8-3.1,9.4-5.4,13.7C25.5,86.9,26,88.3,27.2,89z"/>
<path class="st0" d="M66,44.4c0.2,1.2,1.2,2.1,2.5,2.1h0.3c1.4-0.2,2.3-1.4,2.2-2.8c-1.6-13.5-13.8-23.1-27.3-21.5c0,0,0,0,0,0
	c-1.6,0.2-3.2,0.5-4.8,1.1c-1.3,0.5-1.9,2-1.4,3.3c0.5,1.2,1.8,1.8,3,1.5c10.3-3.4,21.3,2.2,24.7,12.4c0,0,0,0,0,0
	C65.6,41.8,65.9,43.1,66,44.4L66,44.4z"/>
<path class="st0" d="M63.3,89.5c1.3,0.4,2.7-0.3,3.1-1.6c3.1-9.4,4.9-19.1,5.2-29c0-1.4-1-2.5-2.4-2.6c-1.4,0-2.5,1-2.6,2.4
	c-0.3,9.4-1.9,18.7-4.9,27.6C61.3,87.7,62,89.1,63.3,89.5L63.3,89.5z"/>
<path class="st0" d="M17.8,83.2c1.2,0.6,2.7,0.1,3.4-1.1l0,0c5.3-10.2,7.4-21.8,6-33.2c-0.6-4.6,0.5-9.2,3-13
	c0.7-1.2,0.3-2.7-0.9-3.4c-1.1-0.7-2.6-0.4-3.3,0.7c-3.1,4.8-4.5,10.6-3.8,16.3c1.3,10.4-0.7,21-5.5,30.3
	C16.1,81,16.6,82.5,17.8,83.2L17.8,83.2z"/>
</svg>
