<?xml version="1.0" encoding="UTF-8"?>
<svg width="82px" height="82px" viewBox="0 0 82 82" version="1.1" xmlns="http://www.w3.org/2000/svg" xmlns:xlink="http://www.w3.org/1999/xlink">
    <!-- Generator: Sketch 53.2 (72643) - https://sketchapp.com -->
    <title>noun_Happy_1147410</title>
    <desc>Created with Sketch.</desc>
    <g id="Page-1" stroke="none" stroke-width="1" fill="none" fill-rule="evenodd">
        <g id="noun_Happy_1147410" fill="#817872" fill-rule="nonzero">
            <path d="M41,0.667 C18.76,0.667 0.667,18.76 0.667,41 C0.667,63.24 18.76,81.333 41,81.333 C63.24,81.333 81.333,63.24 81.333,41 C81.333,18.76 63.24,0.667 41,0.667 Z M41,77.333 C20.966,77.333 4.667,61.034 4.667,41 C4.667,20.966 20.966,4.667 41,4.667 C61.034,4.667 77.333,20.966 77.333,41 C77.333,61.034 61.034,77.333 41,77.333 Z" id="Shape"></path>
            <path d="M58.353,49.944 C48.785,59.512 33.215,59.512 23.647,49.944 C22.867,49.163 21.599,49.163 20.819,49.944 C20.038,50.725 20.038,51.991 20.819,52.772 C26.21,58.163 33.377,61.131 41,61.131 C48.623,61.131 55.791,58.162 61.181,52.772 C61.962,51.991 61.962,50.725 61.181,49.944 C60.401,49.163 59.133,49.163 58.353,49.944 Z" id="Path"></path>
            <path d="M55.911,25.354 C51.293,25.354 47.536,29.111 47.536,33.729 L51.536,33.729 C51.536,31.316 53.498,29.354 55.911,29.354 C58.324,29.354 60.286,31.316 60.286,33.729 L64.286,33.729 C64.286,29.11 60.529,25.354 55.911,25.354 Z" id="Path"></path>
            <path d="M26.089,29.354 C28.502,29.354 30.464,31.316 30.464,33.729 L34.464,33.729 C34.464,29.111 30.707,25.354 26.089,25.354 C21.471,25.354 17.714,29.111 17.714,33.729 L21.714,33.729 C21.714,31.316 23.677,29.354 26.089,29.354 Z" id="Path"></path>
        </g>
    </g>
</svg>