<svg xmlns="http://www.w3.org/2000/svg" viewBox="0 0 80.67 80.67"><defs><style>.cls-1{fill:ivory;}</style></defs><title>dribbbleAsset 1</title><g id="Layer_2" data-name="Layer 2"><g id="Layer_1-2" data-name="Layer 1"><g id="Page-1"><g id="noun_Happy_1147410" data-name="noun Happy 1147410"><path id="Shape" class="cls-1" d="M40.33,0A40.34,40.34,0,1,0,80.67,40.33,40.37,40.37,0,0,0,40.33,0Zm0,76.67A36.34,36.34,0,1,1,76.67,40.33,36.38,36.38,0,0,1,40.33,76.67Z"/><path id="Path" class="cls-1" d="M57.69,49.28a24.57,24.57,0,0,1-34.71,0,2,2,0,1,0-2.83,2.82,28.54,28.54,0,0,0,40.36,0,2,2,0,0,0-2.82-2.82Z"/><path id="Path-2" data-name="Path" class="cls-1" d="M55.24,24.69a8.38,8.38,0,0,0-8.37,8.37h4a4.38,4.38,0,0,1,8.75,0h4A8.38,8.38,0,0,0,55.24,24.69Z"/><path id="Path-3" data-name="Path" class="cls-1" d="M25.42,28.69a4.38,4.38,0,0,1,4.38,4.37h4a8.38,8.38,0,0,0-16.75,0h4A4.37,4.37,0,0,1,25.42,28.69Z"/></g></g></g></g></svg>