<svg xmlns="http://www.w3.org/2000/svg" viewBox="0 0 20 20"><defs><style>.cls-1{fill:#565656;}</style></defs><title>greyAsset 1</title><g id="Layer_2" data-name="Layer 2"><g id="Layer_1-2" data-name="Layer 1"><g id="Layer_2-2" data-name="Layer 2"><g id="Layer_1-2-2" data-name="Layer 1-2"><path class="cls-1" d="M10,0A10,10,0,0,0,0,10v8a2,2,0,0,0,2,2H5a1,1,0,0,0,1-1V13a1,1,0,0,0-1-1H2V10a8,8,0,0,1,16,0v2H15a1,1,0,0,0-1,1v6a1,1,0,0,0,1,1h3a2,2,0,0,0,2-2V10A10,10,0,0,0,10,0Z"/></g></g></g></g></svg>