<?xml version="1.0" encoding="UTF-8"?>
<svg width="306px" height="305px" viewBox="0 0 306 305" version="1.1" xmlns="http://www.w3.org/2000/svg" xmlns:xlink="http://www.w3.org/1999/xlink">
    <!-- Generator: Sketch 50 (54983) - http://www.bohemiancoding.com/sketch -->
    <title>logo copy 2</title>
    <desc>Created with Sketch.</desc>
    <defs>
        <ellipse id="path-1" cx="152.52282" cy="151.829535" rx="152.52282" ry="151.829535"></ellipse>
        <path d="M219.886285,249.097008 C189.477143,216.903659 171.182577,200.806985 165.002587,200.806985 C158.822598,200.806985 148.954683,208.010659 135.398843,222.418009 L109.762542,248.013808 C88.2166195,228.354514 75.215968,218.524866 70.7605876,218.524866 C64.0775168,218.524866 48.9611392,243.531706 32.9543056,243.531706 C16.3677251,242.492871 11.8625236,228.662098 11.8625236,217.263407 C11.8625236,210.730697 14.1039204,196.841998 23.6709617,187.625795 C33.238003,178.409591 40.33033,175.472281 48.39545,173.241377 C65.0114658,168.645199 88.1496,169.13705 120.316333,177.305338 C152.483066,185.473627 172.782712,188.512827 195.975745,180.344538 C219.168777,172.17625 228.714692,154.696855 228.714692,142.082476 C228.714692,129.468098 216.038222,112.797515 191.607199,107.202537 C167.176176,101.607559 146.585366,101.125924 129.956909,96.0837895 C113.328451,91.0416549 116.219013,87.9437513 120.316333,84.9678733 C130.479264,78.5816272 143.27327,78.0660214 162.80289,80.0826521 C182.332509,82.0992829 197.078453,85.3570562 219.402031,85.3570562 C241.725608,85.3570562 256.734216,82.7902997 270.829705,74.8051045 C284.925193,66.8199093 296.061018,53.570462 302.43948,38.8589827 C306.691788,29.0513298 308.768065,16.0983356 308.668311,0 L200.00065,0 C201.020905,8.35609594 197.266888,14.664119 188.738601,18.9240693 C175.94617,25.3139946 154.694199,26.8922434 118.866645,26.8922434 C83.0390917,26.8922434 57.1531855,39.1116633 48.8489446,57.0115521 C40.5447036,74.9114409 48.1540331,88.8763809 55.4191095,96.0837895 C62.6841859,103.291198 71.1555768,105.965045 86.9671855,110.098447 C102.778794,114.231849 114.847381,115.454505 125.913374,117.692259 C136.979366,119.930013 152.768993,124.059416 157.586123,129.973738 C160.066317,133.715122 162.192938,143.747653 141.154204,143.747653 C103.912951,141.801151 80.6239317,142.202918 65.4649604,145.286589 C46.2940049,149.186385 31.4974755,156.391274 21.1566805,166.402034 C4.75017768,179.903784 1.07092023e-15,196.282157 0,211.571263 C0,226.860369 4.98028882,234.351824 10.5020399,240.067345 C16.023791,245.782866 26.8857457,250.688917 36.3990638,249.097008 C45.9123819,247.505098 58.6726116,238.97597 60.8610442,238.97597 C63.8882355,238.97597 67.1880833,241.104775 70.7605876,245.362386 C76.0167278,239.375304 79.3663665,236.381763 80.8095039,236.381763 C81.0431091,236.381763 82.2731543,234.844726 92.4091202,241.725501 C94.9279645,243.435412 100.712438,248.137458 109.762542,255.831638 C132.993273,237.067805 146.402219,227.287338 149.989379,226.49024 C153.57654,225.693141 158.580942,229.855051 165.002587,238.97597 C170.08525,230.65215 174.119713,226.49024 177.105975,226.49024 C177.599582,226.49024 191.859685,234.025829 219.886285,249.097008 Z" id="path-3"></path>
        <ellipse id="path-5" cx="122.154235" cy="131.976639" rx="152.52282" ry="151.829535"></ellipse>
    </defs>
    <g id="Page-2" stroke="none" stroke-width="1" fill="none" fill-rule="evenodd">
        <g id="Artboard" transform="translate(-76.000000, -107.000000)">
            <g id="logo-copy-2" transform="translate(76.908971, 107.884948)">
                <mask id="mask-2" fill="white">
                    <use xlink:href="#path-1"></use>
                </mask>
                <use id="Oval-Copy-2" fill="#F85991" xlink:href="#path-1"></use>
                <g id="Oval-Copy-3" mask="url(#mask-2)">
                    <g transform="translate(30.368585, 19.852896)">
                        <mask id="mask-4" fill="white">
                            <use xlink:href="#path-3"></use>
                        </mask>
                        <use id="Mask" stroke="none" fill="#FFFFFF" fill-rule="evenodd" xlink:href="#path-3"></use>
                        <mask id="mask-6" fill="white">
                            <use xlink:href="#path-5"></use>
                        </mask>
                        <g id="Oval-Copy-3" stroke="none" fill="none"></g>
                    </g>
                </g>
            </g>
        </g>
    </g>
</svg>