<svg xmlns="http://www.w3.org/2000/svg" viewBox="0 0 384.11 512"><defs><style>.cls-1{fill:ivory;}</style></defs><title>Asset 1</title><g id="Layer_2" data-name="Layer 2"><g id="Layer_1-2" data-name="Layer 1"><path class="cls-1" d="M371.88,0h-7.37c-1.38.51-2.76,1.18-4.2,1.59L301,18.48,185.68,51.75c-14.28,4.09-28.56,8-42.84,12.18a17,17,0,0,0-12.12,7.73A30.32,30.32,0,0,0,128,83.73V368.52a20.76,20.76,0,0,0-4.06-2.76A142.29,142.29,0,0,0,100.8,355a78.51,78.51,0,0,0-85.39,30.1A79.54,79.54,0,0,0,13.17,476c19.91,28.15,47.2,40.38,81.54,34.6a76.3,76.3,0,0,0,48.6-29.84C154.56,466.11,160,448,160,429.58V160.51c0-2.79,1.48-5.4,4.28-5.83h0c24.3-6.76,48.51-13.68,72.72-20.48l103-29.58c3.84-1.07,8-2,12-3.12V304.13a25.8,25.8,0,0,1-3.81-2.2,75.2,75.2,0,0,0-70.26-9.21,76.85,76.85,0,0,0-51.74,58,75.39,75.39,0,0,0,16.46,68.12A80,80,0,0,0,371.89,410c8.48-14,13.08-30.23,12.08-46.6V21.09C384,11.46,381.35,4,371.88,0ZM351.76,65.82a5.09,5.09,0,0,1-3.22,2.76c-13.72,4-27.43,7.93-41,11.87l-58.7,16.8-84.82,24.26-4.1.92V93.72c0-1.06,1.28-1.87,2.36-2.2C185,85,207.58,78.57,230.2,72.07l56.3-16.22L348,38.23a25.58,25.58,0,0,0,3.48-.72C351.92,47.34,352,56.61,351.76,65.82Z"/></g></g></svg>