<svg xmlns="http://www.w3.org/2000/svg" viewBox="0 0 47.99 48"><defs><style>.cls-1{fill:#fff;}</style></defs><title>Asset 3</title><g id="Layer_2" data-name="Layer 2"><g id="Layer_1-2" data-name="Layer 1"><path class="cls-1" d="M47.7,16.6,31.4.3A1,1,0,0,0,30,.3L24.9,5.4a1,1,0,0,0,0,1.4l1.5,1.5L10.5,19.8a1,1,0,0,0-.4.5L2.5,44.2a1.16,1.16,0,0,0,.2,1,.91.91,0,0,0,.7.3h.3l23.9-7.6a1,1,0,0,0,.5-.4L39.6,21.7l1.5,1.5a1,1,0,0,0,1.4,0l5.1-5.1A1,1,0,0,0,47.7,16.6ZM26.7,36,7.1,42.3,18.7,30.7a3.61,3.61,0,0,0,2,.6,4,4,0,0,0,2.6-1,3.39,3.39,0,0,0,1-2.7,4,4,0,0,0-6.6-2.9,3.91,3.91,0,0,0-.5,4.6L5.7,40.9,12,21.3,27.8,9.7,38.3,20.2Zm-7.5-9.8a1.84,1.84,0,0,1,2.6,2.6,1.85,1.85,0,0,1-2.5-.1A1.76,1.76,0,0,1,19.2,26.2ZM41.9,21l-1.6-1.6L28.6,7.7,27,6.1l3.7-3.7L45.6,17.3Z"/><path class="cls-1" d="M40.7,46H1a1,1,0,0,0,0,2H40.7a.94.94,0,0,0,1-1A1,1,0,0,0,40.7,46Z"/></g></g></svg>