<?xml version="1.0" encoding="UTF-8"?>
<svg width="60px" height="56px" viewBox="0 0 60 56" version="1.1" xmlns="http://www.w3.org/2000/svg" xmlns:xlink="http://www.w3.org/1999/xlink">
    <!-- Generator: Sketch 50 (54983) - http://www.bohemiancoding.com/sketch -->
    <title>noun_process_355072</title>
    <desc>Created with Sketch.</desc>
    <defs></defs>
    <g id="Page-1" stroke="none" stroke-width="1" fill="none" fill-rule="evenodd">
        <g id="Case-studies" transform="translate(-212.000000, -14624.000000)" fill="#FFFFFF" fill-rule="nonzero">
            <g id="noun_process_355072" transform="translate(212.098540, 14623.918546)">
                <g id="Group" transform="translate(0.000000, 0.651327)">
                    <path d="M37.3655951,21.5612042 C34.5982114,21.5612042 32.2913,23.6005685 31.8617685,26.2523791 C31.768036,26.2187083 31.6706634,26.1923175 31.5660107,26.1904975 L9.53978406,26.0430736 C7.19556163,26.0139528 5.0615548,26.9148768 3.41441093,28.5420001 C1.76544702,30.1682134 0.849052612,32.331341 0.8335822,34.6327923 L0.792631109,40.6799034 C0.776250673,43.0350461 1.6971952,45.3264871 3.31703834,46.9672608 C4.84041891,48.5079319 6.83428201,49.3642647 8.93461794,49.3751849 L15.7170286,49.414316 L13.8769596,51.2289043 C13.51841,51.5829037 13.5156799,52.1580391 13.8678593,52.5156786 C14.0453141,52.6967734 14.2810103,52.7877758 14.5157966,52.7877758 C14.7469427,52.7877758 14.9780889,52.7004135 15.1546336,52.5247788 L18.5599443,49.1658794 C18.7310288,48.9966149 18.8293115,48.7663787 18.8311315,48.5243123 C18.8329516,48.2831559 18.738309,48.0510997 18.5690445,47.8791051 L15.208325,44.4737944 C14.8552356,44.1143348 14.2782803,44.1116048 13.9215508,44.4646942 C13.5630012,44.8177836 13.5602711,45.3938289 13.9124505,45.7514684 L15.7306789,47.5942675 L8.94553824,47.5551365 C7.33206527,47.5460362 5.79321428,46.8835386 4.61200283,45.6886768 C3.32886865,44.3891622 2.59993924,42.5672936 2.61267958,40.6926437 L2.65363067,34.6455327 C2.66637101,32.8309443 3.38984028,31.1228289 4.69208496,29.8369646 C5.99614969,28.5520104 7.74885637,27.8658521 9.52704372,27.863122 L31.5532703,28.010546 C31.5550904,28.010546 31.5578204,28.010546 31.5596405,28.010546 C31.6624732,28.010546 31.7580258,27.9841553 31.8499382,27.9523044 C32.2430687,30.6286857 34.5381498,32.6999009 37.325554,32.7190114 L37.3646851,32.7190114 C40.4187264,32.7190114 42.920383,30.2337352 42.9422236,27.1769638 C42.9622442,24.1019919 40.476968,21.5830448 37.3655951,21.5612042 Z M37.3646851,30.8989629 L37.3646851,31.8089871 L37.3382944,30.8989629 C36.3336276,30.8916827 35.3926626,30.4958222 34.6873938,29.7805431 C33.983035,29.0661741 33.5980948,28.1197489 33.605375,27.1141721 C33.6190253,25.0556973 35.3053002,23.3812527 37.3892557,23.3812527 C39.4613809,23.3958131 41.1358255,25.0930083 41.1230852,27.1642234 C41.1076148,29.2245183 39.4213399,30.8989629 37.3646851,30.8989629 Z" id="Shape"></path>
                    <path d="M26.6373194,43.4400069 C23.581458,43.4400069 21.0798014,45.9261931 21.0588708,48.9829645 C21.0388503,52.0588464 23.5241265,54.5768835 26.5990984,54.5987241 L26.6364094,54.5987241 C29.6922708,54.5987241 32.1948374,52.1125378 32.216678,49.0566765 C32.2376085,45.9817046 29.7505123,43.4618475 26.6373194,43.4400069 Z M26.6364094,52.7786756 L26.6364094,53.6886998 L26.6118387,52.7786756 C24.5406236,52.7641152 22.866179,51.06692 22.8789193,48.9947948 C22.8925697,46.93632 24.5779346,45.2600554 26.6618901,45.2600554 C28.7349253,45.2746157 30.4102799,46.9718109 30.3966295,49.0439361 C30.3820691,51.104231 28.6948842,52.7786756 26.6364094,52.7786756 Z" id="Shape"></path>
                    <path d="M50.6792497,4.95781204 L20.3008206,4.70846539 C19.8794794,2.06211492 17.5944086,0.0218405817 14.796084,0.00273007271 C11.7420427,0.00273007271 9.23947606,2.48800626 9.21763548,5.54477767 C9.19761495,8.62156961 11.6828911,11.1396067 14.7587731,11.1605372 L14.7979041,11.1605372 C17.5425372,11.1605372 19.8348882,9.15211374 20.2889903,6.52851387 L50.6646893,6.77786051 C54.4312796,6.80789131 57.4734906,9.89742359 57.44892,13.6631039 L57.4097889,19.5345802 C57.3970486,21.3983099 56.8455739,23.1419163 55.8554675,24.445071 C54.9308829,25.6626834 53.7405712,26.3306412 52.4992981,26.3306412 C52.4911079,26.3306412 52.4829177,26.3306412 52.4765475,26.3306412 L47.7498817,26.3006104 L49.5917707,24.483292 C49.9503203,24.1302026 49.9530503,23.5541573 49.600871,23.1965178 C49.2477816,22.8379682 48.6708262,22.8352381 48.3140967,23.1874175 L44.908786,26.545407 C44.7377014,26.7155815 44.6394188,26.9458176 44.6375988,27.186974 C44.6357787,27.4290405 44.7304212,27.6610967 44.8996858,27.8321812 L48.2594952,31.2374919 C48.43695,31.4185867 48.6726462,31.5095892 48.9074325,31.5095892 C49.1385786,31.5095892 49.3697248,31.4222268 49.5462695,31.2465922 C49.9048191,30.8935027 49.9075491,30.3174574 49.5553697,29.9598179 L47.7389614,28.1206589 L52.4638072,28.1506897 C52.4765475,28.1506897 52.4874678,28.1506897 52.5002082,28.1506897 C54.3220767,28.1506897 56.0274621,27.2261051 57.3042261,25.5452903 C58.5309388,23.9318173 59.214367,21.8014506 59.2289274,19.5473206 L59.2680584,13.6758442 C59.3017293,8.90731722 55.4486867,4.99603305 50.6792497,4.95781204 Z M14.7988141,9.34048875 L14.7988141,10.250513 L14.7724234,9.34048875 C12.7002982,9.32592837 11.0258536,7.62964319 11.038594,5.55751801 C11.0531544,3.49813316 12.7385192,1.82277854 14.8215647,1.82277854 C16.8936899,1.83733893 18.5690445,3.53544416 18.5563042,5.60756934 C18.5426538,7.66604416 16.8563789,9.34048875 14.7988141,9.34048875 Z" id="Shape"></path>
                </g>
            </g>
        </g>
    </g>
</svg>