<svg xmlns="http://www.w3.org/2000/svg" viewBox="0 0 176 176"><defs><style>.cls-1{fill:ivory;}</style></defs><title>dribbbleps-white</title><g id="Layer_2" data-name="Layer 2"><g id="Layer_1-2" data-name="Layer 1"><g id="Page-1"><g id="noun_photoshop_622609" data-name="noun photoshop 622609"><g id="Group"><path id="Shape" class="cls-1" d="M159,176H17A17,17,0,0,1,0,159V17A17,17,0,0,1,17,0H159a17,17,0,0,1,17,17V159A17,17,0,0,1,159,176ZM17,10a7,7,0,0,0-7,7V159a7,7,0,0,0,7,7H159a7,7,0,0,0,7-7V17a7,7,0,0,0-7-7Z"/><path id="Shape-2" data-name="Shape" class="cls-1" d="M50.21,51a99.53,99.53,0,0,1,16.57-1.29c8.53,0,14.79,2,18.75,5.56a18.3,18.3,0,0,1,5.86,14c0,6.06-1.79,10.82-5.16,14.29-4.66,4.86-12,7.34-20.44,7.34a30,30,0,0,1-6.94-.59V117H50.21Zm8.64,32.24a28.66,28.66,0,0,0,7.14.7c10.41,0,16.76-5.16,16.76-14.19S76.4,56.5,67,56.5a35.84,35.84,0,0,0-8.13.7v26Z"/><path id="Path" class="cls-1" d="M99.32,108.19a24.67,24.67,0,0,0,11.61,3.38c6.25,0,9.23-3.08,9.23-7.15s-2.48-6.35-8.83-8.73c-8.73-3.17-12.8-7.84-12.8-13.59,0-7.74,6.35-14.09,16.57-14.09a22.27,22.27,0,0,1,11.71,3l-2.09,6.35a18.56,18.56,0,0,0-9.82-2.88c-5.16,0-7.94,3-7.94,6.55,0,4,2.78,5.75,9,8.23,8.24,3.08,12.6,7.25,12.6,14.39,0,8.53-6.64,14.48-17.86,14.48a27.35,27.35,0,0,1-13.49-3.37Z"/></g></g></g></g></g></svg>