<?xml version="1.0" encoding="UTF-8"?>
<svg width="177px" height="176px" viewBox="0 0 177 176" version="1.1" xmlns="http://www.w3.org/2000/svg" xmlns:xlink="http://www.w3.org/1999/xlink">
    <!-- Generator: Sketch 53.2 (72643) - https://sketchapp.com -->
    <title>noun_photoshop_622609</title>
    <desc>Created with Sketch.</desc>
    <g id="Page-1" stroke="none" stroke-width="1" fill="none" fill-rule="evenodd">
        <g id="noun_photoshop_622609" fill="#817872" fill-rule="nonzero">
            <g id="Group">
                <path d="M159.766,176 L17.766,176 C8.392,176 0.766,168.374 0.766,159 L0.766,17 C0.766,7.626 8.392,0 17.766,0 L159.766,0 C169.14,0 176.766,7.626 176.766,17 L176.766,159 C176.766,168.374 169.14,176 159.766,176 Z M17.766,10 C13.906,10 10.766,13.141 10.766,17 L10.766,159 C10.766,162.859 13.906,166 17.766,166 L159.766,166 C163.626,166 166.766,162.859 166.766,159 L166.766,17 C166.766,13.141 163.626,10 159.766,10 L17.766,10 Z" id="Shape"></path>
                <g transform="translate(50.000000, 49.000000)">
                    <path d="M0.979,1.949 C5.146,1.254 10.603,0.658 17.548,0.658 C26.08,0.658 32.331,2.642 36.299,6.215 C39.871,9.389 42.153,14.25 42.153,20.203 C42.153,26.256 40.367,31.017 36.994,34.49 C32.331,39.351 24.99,41.832 16.556,41.832 C13.976,41.832 11.595,41.732 9.611,41.236 L9.611,68.023 L0.979,68.023 L0.979,1.949 Z M9.611,34.193 C11.496,34.687 13.877,34.886 16.754,34.886 C27.171,34.886 33.521,29.728 33.521,20.698 C33.521,11.768 27.171,7.503 17.746,7.503 C13.976,7.503 11.099,7.802 9.611,8.198 L9.611,34.193 L9.611,34.193 Z" id="Shape"></path>
                    <path d="M50.091,59.193 C52.77,60.781 57.334,62.566 61.699,62.566 C67.949,62.566 70.926,59.492 70.926,55.423 C70.926,51.257 68.446,49.073 62.096,46.693 C53.366,43.517 49.298,38.855 49.298,33.101 C49.298,25.363 55.648,19.013 65.866,19.013 C70.727,19.013 74.994,20.302 77.573,21.988 L75.49,28.338 C73.605,27.149 70.133,25.461 65.668,25.461 C60.509,25.461 57.731,28.438 57.731,32.01 C57.731,35.979 60.509,37.764 66.759,40.244 C74.994,43.32 79.359,47.486 79.359,54.631 C79.359,63.162 72.712,69.115 61.501,69.115 C56.243,69.115 51.381,67.726 48.008,65.742 L50.091,59.193 Z" id="Path"></path>
                </g>
            </g>
        </g>
    </g>
</svg>