<?xml version="1.0" encoding="utf-8"?>
<!-- Generator: Adobe Illustrator 22.1.0, SVG Export Plug-In . SVG Version: 6.00 Build 0)  -->
<svg version="1.1" id="Layer_1" xmlns="http://www.w3.org/2000/svg" xmlns:xlink="http://www.w3.org/1999/xlink" x="0px" y="0px"
	 viewBox="0 0 20 19" style="enable-background:new 0 0 20 19;" xml:space="preserve">
<style type="text/css">
	.st0{fill:#817872;}
</style>
<title>noun_Research_665437</title>
<desc>Created with Sketch.</desc>
<g id="Page-1">
	<g id="Landing-Page-Copy-4" transform="translate(-311.000000, -1233.000000)">
		<g id="Group-7" transform="translate(302.000000, 1194.000000)">
			<g id="noun_Research_665437" transform="translate(9.284076, 39.439760)">
				<path id="Shape" class="st0" d="M14,13.3l0.1-0.1C15.3,11.7,16,9.9,16,8c0-4.4-3.6-8-8-8s-8,3.6-8,7.9s3.6,8,8,8
					c1.8,0,3.5-0.6,4.9-1.7l0.1-0.1l5.2,4.2l0.8-1L14,13.3z M8.1,14.6c-3.7,0-6.7-3-6.7-6.7c0-3.7,3-6.7,6.7-6.7
					c3.7,0,6.7,3,6.7,6.7S11.7,14.6,8.1,14.6z"/>
				<rect id="Rectangle-path" x="3.8" y="7.7" class="st0" width="1.3" height="3"/>
				<rect id="Rectangle-path_1_" x="6.2" y="5.6" class="st0" width="1.3" height="5"/>
				<rect id="Rectangle-path_2_" x="8.5" y="6.6" class="st0" width="1.3" height="4.1"/>
				<rect id="Rectangle-path_3_" x="10.8" y="8.8" class="st0" width="1.3" height="1.9"/>
			</g>
		</g>
	</g>
</g>
</svg>
