<?xml version="1.0" encoding="UTF-8"?>
<svg width="20px" height="19px" viewBox="0 0 20 19" version="1.1" xmlns="http://www.w3.org/2000/svg" xmlns:xlink="http://www.w3.org/1999/xlink">
    <!-- Generator: Sketch 50 (54983) - http://www.bohemiancoding.com/sketch -->
    <title>noun_Research_665437</title>
    <desc>Created with Sketch.</desc>
    <defs></defs>
    <g id="Page-1" stroke="none" stroke-width="1" fill="none" fill-rule="evenodd">
        <g id="Landing-Page-Copy-4" transform="translate(-311.000000, -1233.000000)" fill="#FFFFFF" fill-rule="nonzero">
            <g id="Group-7" transform="translate(302.000000, 1194.000000)">
                <g id="noun_Research_665437" transform="translate(9.284076, 39.439760)">
                    <path d="M13.9868808,13.2814906 L14.0876509,13.1807205 C15.3371993,11.729632 16.0224355,9.89561741 16.0224355,7.98098675 C16.0224355,3.58741324 12.4551763,0.0201540069 8.06160278,0.0201540069 C3.66802926,0.0201540069 0.100770035,3.58741324 0.100770035,7.96083274 C0.100770035,12.3342523 3.66802926,15.9216655 8.06160278,15.9216655 C9.8553094,15.9216655 11.548246,15.3371993 12.9590265,14.2287289 L13.0396425,14.1682669 L18.2796843,18.4006083 L19.0858446,17.392908 L13.9868808,13.2814906 Z M8.06160278,14.631809 C4.39357351,14.631809 1.39062648,11.649016 1.39062648,7.96083274 C1.39062648,4.29280348 4.37341951,1.28985644 8.06160278,1.28985644 C11.729632,1.28985644 14.7325791,4.27264947 14.7325791,7.96083274 C14.7325791,11.649016 11.729632,14.631809 8.06160278,14.631809 Z" id="Shape"></path>
                    <rect id="Rectangle-path" x="3.80910731" y="7.65852264" width="1.28985644" height="3.00294704"></rect>
                    <rect id="Rectangle-path" x="6.16712613" y="5.62296794" width="1.28985644" height="5.01834773"></rect>
                    <rect id="Rectangle-path" x="8.46468292" y="6.61051428" width="1.28985644" height="4.0509554"></rect>
                    <rect id="Rectangle-path" x="10.8227017" y="8.76699302" width="1.28985644" height="1.87432265"></rect>
                </g>
            </g>
        </g>
    </g>
</svg>