<svg xmlns="http://www.w3.org/2000/svg" viewBox="0 0 248.42 248.42"><title>Asset 2</title><g id="Layer_2" data-name="Layer 2"><g id="Layer_1-2" data-name="Layer 1"><path d="M37.67,103.08H63.8v69.34a79.63,79.63,0,0,1-26.13-26.06Zm36.19,74.55A78.62,78.62,0,0,0,100,183.84V125.52H73.86Zm170.46,66.69a14,14,0,0,1-19.8,0l-48.13-48.13h0l-7.71-7.71a105,105,0,1,1,19.8-19.8l7.71,7.71,48.13,48.13A14,14,0,0,1,244.32,244.32ZM194,105a89,89,0,0,0-89-89h0a89,89,0,0,0-89,89h0a89,89,0,0,0,178,0ZM146.2,74v98.47a79.63,79.63,0,0,0,26.13-26.06V74ZM110,183.84a78.63,78.63,0,0,0,26.12-6.22V50.08H110Z"/></g></g></svg>