<?xml version="1.0" encoding="UTF-8"?>
<svg width="282px" height="282px" viewBox="0 0 282 282" version="1.1" xmlns="http://www.w3.org/2000/svg" xmlns:xlink="http://www.w3.org/1999/xlink">
    <!-- Generator: Sketch 50 (54983) - http://www.bohemiancoding.com/sketch -->
    <title>Combined Shape</title>
    <desc>Created with Sketch.</desc>
    <defs></defs>
    <g id="Page-1" stroke="none" stroke-width="1" fill="none" fill-rule="evenodd">
        <path d="M147.5,77.2363641 L197.3513,127.087665 C199.889708,129.626072 204.005281,129.626072 206.543689,127.087665 C209.082096,124.549257 209.082096,120.433684 206.543689,117.895276 L145.732505,57.0840932 C144.435716,55.7873038 142.72731,55.1530016 141.02785,55.1811866 C139.32839,55.1530016 137.619984,55.7873038 136.323194,57.0840932 L75.5120113,117.895276 C72.9736034,120.433684 72.9736034,124.549257 75.5120113,127.087665 C78.0504192,129.626072 82.1659916,129.626072 84.7043995,127.087665 L134.5,77.292064 L134.5,219 C134.5,222.589851 137.410149,225.5 141,225.5 C144.589851,225.5 147.5,222.589851 147.5,219 L147.5,77.2363641 Z M141,282 C63.1278503,282 0,218.87215 0,141 C0,63.1278503 63.1278503,0 141,0 C218.87215,0 282,63.1278503 282,141 C282,218.87215 218.87215,282 141,282 Z" id="Combined-Shape" fill="#909090"></path>
    </g>
</svg>