<?xml version="1.0" encoding="UTF-8"?>
<svg width="282px" height="282px" viewBox="0 0 282 282" version="1.1" xmlns="http://www.w3.org/2000/svg" xmlns:xlink="http://www.w3.org/1999/xlink">
    <!-- Generator: Sketch 50 (54983) - http://www.bohemiancoding.com/sketch -->
    <title>scrolltotop</title>
    <desc>Created with Sketch.</desc>
    <defs></defs>
    <g id="Page-1" stroke="none" stroke-width="1" fill="none" fill-rule="evenodd">
        <g id="scrolltotop" fill="#FFC823" fill-rule="nonzero">
            <path d="M141.43729,108.388848 L203.278013,170.229572 C207.378518,174.330077 214.026751,174.330077 218.127256,170.229572 C222.227761,166.129067 222.227761,159.480835 218.127256,155.38033 L149.44951,86.7025835 C147.249753,84.5028273 144.316789,83.4831519 141.43729,83.6435574 C138.557791,83.4831519 135.624826,84.5028273 133.42507,86.7025835 L64.7473237,155.38033 C60.6468187,159.480835 60.6468187,166.129067 64.7473237,170.229572 C68.8478288,174.330077 75.4960611,174.330077 79.5965661,170.229572 L141.43729,108.388848 Z M141,282 C63.1,282 0,218.9 0,141 C0,63.1 63.1,0 141,0 C218.9,0 282,63.1 282,141 C282,218.9 218.9,282 141,282 Z" id="Combined-Shape"></path>
        </g>
    </g>
</svg>