<?xml version="1.0" encoding="UTF-8"?>
<svg width="57px" height="77px" viewBox="0 0 57 77" version="1.1" xmlns="http://www.w3.org/2000/svg" xmlns:xlink="http://www.w3.org/1999/xlink">
    <!-- Generator: Sketch 50 (54983) - http://www.bohemiancoding.com/sketch -->
    <title>noun_The Thinker_57467</title>
    <desc>Created with Sketch.</desc>
    <defs></defs>
    <g id="Page-1" stroke="none" stroke-width="1" fill="none" fill-rule="evenodd">
        <g id="Landing-Page-Copy-4" transform="translate(-654.000000, -749.000000)" fill="#FFFFFF" fill-rule="nonzero">
            <g id="noun_The-Thinker_57467" transform="translate(654.500000, 749.296495)">
                <path d="M40.8370901,47.0265734 C40.772028,47.0265734 40.7040085,47.0162226 40.6374678,46.9969997 C40.2470953,46.8875772 40.0208567,46.4824179 40.131758,46.0935241 C40.1421088,46.056557 41.1949315,42.3243597 41.5069337,40.4952281 C41.6400152,39.7130045 41.2644296,37.4964578 40.9021521,35.3523667 C40.4526323,32.6922149 39.9883257,29.9418635 40.1066204,28.1807514 C40.2175217,26.4891374 39.0789353,24.0729684 38.0719518,21.9407067 C37.2941642,20.2919746 36.5592585,18.7334421 36.365551,17.4913479 C35.9722211,14.9849792 32.6629273,7.24407078 27.8305894,7.64923008 C22.0356285,8.11057935 18.2871657,7.92130786 16.2909429,5.57315836 C16.0203438,5.25524139 15.7645315,4.92697364 15.510198,4.60462062 C14.0817896,2.78288247 12.9550328,1.34708073 9.83796781,2.06424226 C5.90614821,2.97215397 5.78637484,3.35513301 5.33981241,4.78206265 C4.57829037,7.2159758 4.48513331,9.12939233 4.75425371,9.43252246 C6.07471814,9.50793532 6.15752442,10.7263706 6.19744887,11.3119293 C6.20927834,11.495286 6.23293728,11.8368619 6.29356331,11.9107961 C7.17781608,12.2656802 7.39074651,12.948832 7.54600828,13.448627 C7.67317507,13.8582224 7.75450267,14.0800249 8.04580333,14.2737325 C8.38294318,14.4984924 8.47462156,14.9524482 8.25134034,15.2910667 C8.02658044,15.6282066 7.57410327,15.7184063 7.23400605,15.4966038 C6.49466427,15.0056808 6.29356331,14.3580174 6.14717363,13.8863174 C6.01261343,13.4530631 5.96825292,13.3613847 5.76123722,13.2785784 C4.83558131,12.9089075 4.7734766,11.9729008 4.73503083,11.4139584 C4.72320136,11.2350377 4.70397847,10.9363436 4.65370323,10.8594521 C4.15538687,10.8328358 3.78275861,10.6154693 3.53581846,10.2502345 C2.62199201,8.90019638 3.61566737,5.39128028 3.94097775,4.34732968 C4.59159852,2.26386454 5.22447509,1.6280306 9.50970006,0.6387913 C13.533198,-0.291300662 15.1981957,1.83208894 16.6650498,3.70410233 C16.9075539,4.01166851 17.1515367,4.32367074 17.4088277,4.62827956 C18.9924978,6.48846348 22.5235941,6.60675817 27.7152521,6.19272677 C33.8991068,5.67666621 37.4272458,14.7838783 37.8146609,17.2695454 C37.9758374,18.3046238 38.6678613,19.7685206 39.3998096,21.3211383 C40.5354386,23.7254778 41.7095134,26.2141022 41.5705171,28.2842592 C41.4655306,29.8723654 41.935752,32.6567265 42.3497834,35.1128199 C42.7667721,37.5822215 43.1275709,39.7159619 42.9530862,40.7451256 C42.6277759,42.6526274 41.5882613,46.3404642 41.5439008,46.4972047 C41.4507437,46.8151217 41.1579644,47.0265734 40.8370901,47.0265734 Z" id="Shape"></path>
                <path d="M12.0278982,32.5295597 C11.6892796,32.5295597 11.3846708,32.2929704 11.3122153,31.9469584 C11.3018645,31.8981619 10.2519992,27.0288569 8.25281903,24.6304321 C5.87805322,21.7795302 7.30794023,17.3360861 7.37004494,17.1482933 C7.42327755,16.9871168 7.53122145,16.8481205 7.67465375,16.7579208 C8.75852881,16.0718117 10.2105961,15.2821946 10.9706394,15.4064041 C11.402415,15.4773809 11.7425122,15.6385574 12.0441637,15.780511 C12.2807531,15.8914123 12.4848114,15.9875267 12.7080926,16.0318872 C13.0644553,16.102864 16.1889137,16.7815798 16.1889137,18.9138415 C16.1889137,20.2121256 15.1109534,21.4231675 14.5165226,21.9939393 C15.0325832,23.7565302 16.3914934,27.416272 18.1585202,28.6672383 C18.4897453,28.9008703 18.5666369,29.3577835 18.3344836,29.6875299 C18.0993729,30.0187551 17.6424597,30.0956466 17.3127132,29.8620146 C14.5549684,27.911631 13.0437538,22.1772961 12.9801704,21.934792 C12.9091936,21.6582782 13.005308,21.3654988 13.2256319,21.1836208 C13.6145256,20.8642251 14.725017,19.7596485 14.725017,18.9123628 C14.725017,18.2144242 13.2256319,17.6273868 12.4241854,17.4691676 C12.0234621,17.3893187 11.7040665,17.238493 11.4201592,17.1054115 C11.1746978,16.9900742 10.963246,16.8895237 10.7340501,16.8525566 C10.5048541,16.8673434 9.57476214,17.3168632 8.69494541,17.850668 C8.45983473,18.7349208 7.80329922,21.7957957 9.38253327,23.6899894 C11.6138668,26.369364 12.7036566,31.4279405 12.7494957,31.6423496 C12.8337807,32.0386368 12.5809258,32.4260519 12.1846386,32.5103369 C12.1299273,32.523645 12.0781734,32.5295597 12.0278982,32.5295597 Z" id="Shape"></path>
                <path d="M8.4716642,47.7304268 C7.95116758,47.7304268 7.35673679,47.5012308 6.61443764,46.8387806 C6.18414072,46.4558016 5.77454537,46.2236482 5.37973686,46.000367 C4.41859254,45.4547328 3.42343851,44.8913543 3.8108536,42.6688929 C4.2426292,40.192098 5.77602406,38.6749686 7.39961861,37.0676396 L7.86983999,36.6018543 C9.66348315,34.8082111 10.2534779,34.5538775 13.5302407,33.1417347 L14.3095069,32.8045949 C19.5174304,30.5525598 23.622256,27.706094 23.5483218,26.8514149 C22.9849434,25.0296767 22.9524123,21.9806312 23.8041341,20.3570366 C24.3970862,19.2288011 24.2832276,18.2173815 23.4226337,16.9752873 C22.2367295,15.2614931 23.3102538,12.8261012 23.3575716,12.7225934 C23.5231842,12.3544012 23.9579172,12.191746 24.3246307,12.3544012 C24.6943016,12.5200137 24.8584355,12.953268 24.6943016,13.3214602 C24.4754564,13.8153405 24.0362874,15.285152 24.6277608,16.1398311 C25.7929635,17.8240517 25.9482252,19.425466 25.1024183,21.0372311 C24.4488401,22.2837613 24.4828498,24.9099033 24.9501138,26.4240753 C25.8254945,29.257233 16.7241972,33.3561439 14.8906296,34.1501969 L14.1098846,34.4873368 C10.9114921,35.8669485 10.500418,36.0443906 8.90639716,37.6384115 L8.43026106,38.1101115 C6.85250569,39.6716014 5.60597545,40.9048235 5.25552744,42.9202692 C5.04555438,44.1253963 5.24961271,44.2407336 6.10281313,44.7257418 C6.52128057,44.9623312 7.04325587,45.2580679 7.59036879,45.7445548 C8.36076293,46.4291853 8.5248968,46.3345495 9.06609499,46.0166325 C9.3174712,45.8702429 9.63243079,45.6868861 10.0213246,45.5833783 C10.5181622,45.4517754 10.818335,45.0510522 10.8124203,44.916492 C10.4323986,44.6976468 10.2357337,44.4152182 10.1987666,44.0810358 C10.1396193,43.5383589 10.5225983,43.1627733 10.8907905,42.8004958 C11.2368025,42.4618772 11.6685781,42.0374951 11.9347411,41.4046185 C12.7953349,39.3566418 13.9590589,37.7256538 20.299654,36.9404728 C20.8585964,36.7053621 23.8263143,35.4470024 26.5012529,34.2063869 C29.0741623,33.0101319 29.2663912,31.4796944 29.6833799,28.1245614 L29.7085176,27.9264178 C30.0027756,25.5723536 30.972792,23.3528495 31.8289498,21.3950725 C32.3124793,20.2875385 32.7693925,19.2421092 33.0695653,18.2691354 C33.3874823,17.2370143 33.5042983,16.7165177 33.5471801,16.4680989 C33.4037478,16.191585 33.4481083,15.8440944 33.6787829,15.6119411 C33.9183297,15.3709157 34.35602,15.3088109 34.6428846,15.4832956 C35.2092204,15.8233928 35.1796467,16.3956434 34.4698786,18.6994324 C34.1460469,19.7522551 33.6728682,20.8346514 33.1715945,21.9821099 C32.3154367,23.9398869 31.4311839,25.9642047 31.1620635,28.1082959 L31.1369259,28.3064395 C30.7095863,31.734028 30.4271578,33.9993712 27.1163853,35.5357234 C24.1397952,36.9182926 20.8053638,38.3171272 20.7728328,38.3319141 C20.7107281,38.3585304 20.6441873,38.3747959 20.5776465,38.383668 C14.4825129,39.1230098 13.8747739,40.570641 13.2862579,41.972433 C12.9062362,42.878866 12.3103267,43.462946 11.9169969,43.8488824 C11.8962953,43.869584 11.8755938,43.8888069 11.8534135,43.9109871 C12.1846386,44.2466483 12.3295496,44.68286 12.2600515,45.1486453 C12.1373208,45.9693147 11.3536185,46.7500596 10.3969102,47.0043932 C10.1972879,47.0561471 10.0050591,47.168527 9.8024794,47.285343 C9.38696932,47.5263685 8.96258714,47.7304268 8.4716642,47.7304268 Z" id="Shape"></path>
                <path d="M32.5845571,35.9615843 C31.0408114,35.9615843 30.4685609,35.4351729 30.2955549,35.2089344 C30.0486148,34.88806 30.1092408,34.4296681 30.4301151,34.182728 C30.7332453,33.949096 31.1605848,33.9875417 31.4163971,34.2670129 C31.4992034,34.3232029 32.3597972,34.8584864 35.2890693,34.0570399 C35.6838778,33.9431812 36.0831224,34.1797706 36.1881089,34.5701431 C36.2960528,34.9605155 36.0668569,35.3627175 35.6750057,35.4691827 C34.3589774,35.8314601 33.3519939,35.9615843 32.5845571,35.9615843 Z" id="Shape"></path>
                <path d="M23.4418566,72.7260938 C23.1209823,72.7260938 22.8518619,72.6654677 22.655197,72.5264715 C22.5605612,72.4599307 22.2175066,72.4111342 21.9897893,72.3771245 C21.3731783,72.2884034 20.6057415,72.1775022 20.1931888,71.5209667 C19.9107603,71.0699682 19.8841439,70.500675 20.1118612,69.7761201 C20.5229352,68.4719212 21.6777871,67.6335076 22.7927145,66.8202316 C23.6991475,66.1622174 24.5538266,65.5396916 24.9811662,64.7293731 C25.8802058,63.0214935 25.6628393,58.2675259 21.0951858,54.5057549 C16.2731987,50.5340108 12.0811308,45.3571397 12.0397276,45.3068644 C11.7853941,44.9904261 11.8341906,44.5305556 12.1506289,44.276222 C12.4670672,44.0218884 12.9284165,44.0721637 13.1812714,44.3856446 C13.2226745,44.4359198 17.3245427,49.500411 22.0267564,53.3730833 C27.06611,57.523748 27.5422461,63.0096641 26.2779717,65.4110462 C25.692413,66.5230162 24.6573345,67.2771448 23.6562657,68.0061358 C22.6892067,68.7099892 21.7768589,69.3753968 21.5092172,70.2182464 C21.3850078,70.6145336 21.435283,70.7417004 21.435283,70.7417004 C21.5166106,70.8289428 21.9602157,70.8925262 22.1982837,70.9265359 C22.6492822,70.9915979 23.1150675,71.0581387 23.4936105,71.3243018 C23.9697466,71.4159801 26.8354354,70.2936593 30.7021929,67.8760117 C33.1849026,66.3233939 34.557121,63.9471494 34.41221,62.9904412 C34.384115,62.8041271 34.3087021,62.7227995 34.1164733,62.6725242 C31.7786745,62.0588705 30.2511944,58.2113359 27.7108161,49.8242427 C25.6539672,43.0326491 22.2382082,42.4175167 22.2041985,42.411602 C21.8079113,42.3494973 21.5299188,41.9798264 21.5875874,41.5820605 C21.6452561,41.1842946 22.0060549,40.9048235 22.4023421,40.9595347 C22.5797841,40.9831937 26.7555865,41.6086768 29.1140868,49.3983819 C30.8530186,55.1401101 32.6998944,60.7842453 34.4891015,61.2544667 C35.2447088,61.454089 35.7459826,62.0071166 35.8613199,62.7701173 C36.1378337,64.5874194 34.1711846,67.4338853 31.4785018,69.1166272 C29.603531,70.2921806 25.4661744,72.7260938 23.4418566,72.7260938 Z" id="Shape"></path>
                <path d="M23.8825043,64.7338091 C23.7509015,64.7338091 23.61782,64.6983207 23.4980466,64.6243865 C23.2629359,64.4779968 17.7163938,60.9986544 16.1519466,56.1944115 C14.7486759,51.8840489 11.6582273,49.818328 11.6271749,49.7976264 C11.2885564,49.5773026 11.1953993,49.121868 11.4157232,48.7832495 C11.6375257,48.444631 12.0914816,48.3470378 12.4315788,48.5717977 C12.5764898,48.6649548 15.9848554,50.9450849 17.5448666,55.7404557 C18.9422225,60.0301167 24.2166868,63.3453252 24.2699194,63.3778563 C24.612974,63.5907867 24.7194392,64.0417852 24.5065088,64.3863185 C24.3660338,64.6095997 24.1264871,64.7338091 23.8825043,64.7338091 Z" id="Shape"></path>
                <path d="M16.7020169,75.5607302 C16.2983363,75.5607302 15.7660102,75.3906816 15.4776669,74.8953226 C14.9704785,74.0228993 15.6048337,72.8591753 16.1253303,72.0606862 C17.3762966,70.1428336 17.8213804,65.8028973 13.6943745,62.3102467 C9.74776811,58.9713793 4.70397847,53.2636607 3.97942353,52.4355979 C3.48110716,52.1354251 1.71555899,50.9214259 0.801732545,48.360346 C-0.203772279,45.5404964 -0.257004887,45.2270155 1.16253133,43.3993626 C1.41095017,43.0784883 1.86934208,43.019341 2.19021641,43.2692385 C2.50961206,43.5176573 2.56875941,43.9775279 2.32034057,44.2969236 C1.35328151,45.5434538 1.35328151,45.5434538 2.18134431,47.8664657 C3.03898078,50.2708052 4.7734766,51.2038545 4.7912208,51.2142053 C4.87106972,51.2556084 4.94352521,51.3117984 5.00267255,51.3798178 C5.05738384,51.4434012 10.5551293,57.7351998 14.640732,61.192362 C18.9614454,64.8476677 19.2616182,69.9313818 17.351159,72.860654 C16.7020169,73.8572867 16.7567282,74.1914692 16.7582069,74.1944266 C17.1707596,74.1692889 17.4783258,74.4280586 17.5019847,74.8332179 C17.5271223,75.2368985 17.1870251,75.5355925 16.7818658,75.5592515 C16.7582069,75.5607302 16.7301119,75.5607302 16.7020169,75.5607302 Z" id="Shape"></path>
                <path d="M15.3490215,16.1117361 C15.2425562,16.1117361 15.136091,16.0895559 15.0340619,16.0407593 C14.668827,15.8662747 14.5135652,15.4285843 14.6865712,15.0633495 C14.9645637,14.4777908 15.6861613,12.7211147 15.6861613,11.6298462 C15.6861613,10.789954 15.8902196,10.2694574 16.0528748,9.85098991 C16.2096153,9.44878798 16.3131231,9.18114625 16.2303169,8.63551202 C16.1682122,8.23478877 16.4432473,7.86068183 16.8424919,7.8000558 C17.2476512,7.7379511 17.617322,8.01446492 17.6779481,8.4122308 C17.8228591,9.3482375 17.6069713,9.89830778 17.4176998,10.383316 C17.2742675,10.7500295 17.1515367,11.0664678 17.1515367,11.6298462 C17.1515367,13.275621 16.0558322,15.5956756 16.009993,15.6932687 C15.8857836,15.957953 15.6225779,16.1117361 15.3490215,16.1117361 Z" id="Shape"></path>
                <path d="M21.4515485,29.9980535 C21.3066375,29.9980535 21.1617265,29.9551717 21.0330811,29.8664506 L18.0875434,27.8155165 C17.7548396,27.5833632 17.673512,27.12645 17.9041867,26.7952249 C18.1348613,26.4639998 18.5902958,26.3811935 18.9244783,26.6118681 L21.870016,28.6613235 C22.2027198,28.8934769 22.2840474,29.3503901 22.0533727,29.6816152 C21.9114191,29.8886309 21.6837018,29.9980535 21.4515485,29.9980535 Z" id="Shape"></path>
                <path d="M55.1744059,76.0472171 C55.038367,76.0472171 54.9008494,76.01025 54.7795974,75.9318797 C54.4395002,75.7159919 54.3389497,75.2620361 54.5548375,74.9204602 C54.7278435,74.645425 55.038367,73.9593159 54.8904987,73.5778155 C54.8668397,73.5186682 54.7958629,73.3353114 54.3404284,73.2125807 C51.860676,72.5442157 50.3435467,69.566147 50.3435467,68.1673123 C50.3435467,65.4080888 49.818614,63.701688 48.7805782,63.0969064 C47.1525476,62.1475915 47.3447764,59.9192154 47.5695363,57.3374339 C47.6863523,55.9800024 47.8076044,54.575253 47.6967031,53.205992 C47.421668,49.8449443 47.0978363,49.7532659 41.6858544,48.2287432 L41.4019472,48.1488942 C35.9899653,46.6199354 31.1398832,48.0586945 31.0925654,48.0734814 C30.7051503,48.1932547 30.2955549,47.9744096 30.1787389,47.5869945 C30.0604442,47.1995794 30.2778107,46.7914627 30.6652258,46.673168 C30.8796349,46.6066273 35.9544769,45.0909766 41.8011917,46.7367514 L42.0836203,46.818079 C47.5118677,48.3455592 48.8012797,48.7093153 49.1591212,53.0876973 C49.2803732,54.5796891 49.1472917,56.1116052 49.0304757,57.463122 C48.8589484,59.4623022 48.6948145,61.3491024 49.5213986,61.8311533 C51.8118795,63.1649258 51.8118795,66.9296542 51.8118795,68.1658337 C51.8118795,68.986503 52.9711674,71.3243018 54.7234074,71.7960018 C55.6934238,72.0577288 56.0956258,72.6225859 56.2597596,73.0514042 C56.7137155,74.2240002 55.8871314,75.5622088 55.7924956,75.7100772 C55.650542,75.9289224 55.4154313,76.0472171 55.1744059,76.0472171 Z" id="Shape"></path>
                <path d="M54.3138121,75.9451707 L16.5467551,75.9451707 C16.1415958,75.9451707 15.8133281,75.6154243 15.8133281,75.2117437 C15.8133281,74.8080631 16.1415958,74.4783166 16.5467551,74.4783166 L54.3138121,74.4783166 C54.7174927,74.4783166 55.0472391,74.8080631 55.0472391,75.2117437 C55.0472391,75.6154243 54.7189714,75.9451707 54.3138121,75.9451707 Z" id="Shape"></path>
            </g>
        </g>
    </g>
</svg>