<?xml version="1.0" encoding="utf-8"?>
<!-- Generator: Adobe Illustrator 22.1.0, SVG Export Plug-In . SVG Version: 6.00 Build 0)  -->
<svg version="1.1" id="Layer_1" xmlns="http://www.w3.org/2000/svg" xmlns:xlink="http://www.w3.org/1999/xlink" x="0px" y="0px"
	 viewBox="0 0 57 77" style="enable-background:new 0 0 57 77;" xml:space="preserve">
<style type="text/css">
	.st0{fill:#817872;}
</style>
<title>noun_The Thinker_57467</title>
<desc>Created with Sketch.</desc>
<g id="Page-1">
	<g id="Landing-Page-Copy-4" transform="translate(-654.000000, -749.000000)">
		<g id="noun_The-Thinker_57467" transform="translate(654.500000, 749.296495)">
			<path id="Shape" class="st0" d="M40.8,47c-0.1,0-0.1,0-0.2,0c-0.4-0.1-0.6-0.5-0.5-0.9c0,0,1.1-3.8,1.4-5.6
				c0.1-0.8-0.2-3-0.6-5.1c-0.4-2.7-0.9-5.4-0.8-7.2c0.1-1.7-1-4.1-2-6.2c-0.8-1.6-1.5-3.2-1.7-4.4C36,15,32.7,7.2,27.8,7.6
				C22,8.1,18.3,7.9,16.3,5.6c-0.3-0.3-0.5-0.6-0.8-1C14.1,2.8,13,1.3,9.8,2.1C5.9,3,5.8,3.4,5.3,4.8C4.6,7.2,4.5,9.1,4.8,9.4
				c1.3,0.1,1.4,1.3,1.4,1.9c0,0.2,0,0.5,0.1,0.6c0.9,0.4,1.1,1,1.3,1.5c0.1,0.4,0.2,0.6,0.5,0.8c0.3,0.2,0.4,0.7,0.2,1
				c-0.2,0.3-0.7,0.4-1,0.2c-0.7-0.5-0.9-1.1-1.1-1.6C6,13.5,6,13.4,5.8,13.3c-0.9-0.4-1-1.3-1-1.9c0-0.2,0-0.5-0.1-0.6
				c-0.5,0-0.9-0.2-1.1-0.6C2.6,8.9,3.6,5.4,3.9,4.3c0.7-2.1,1.3-2.7,5.6-3.7c4-0.9,5.7,1.2,7.2,3.1c0.2,0.3,0.5,0.6,0.7,0.9
				c1.6,1.9,5.1,2,10.3,1.6c6.2-0.5,9.7,8.6,10.1,11.1c0.2,1,0.9,2.5,1.6,4.1c1.1,2.4,2.3,4.9,2.2,7c-0.1,1.6,0.4,4.4,0.8,6.8
				c0.4,2.5,0.8,4.6,0.6,5.6c-0.3,1.9-1.4,5.6-1.4,5.8C41.5,46.8,41.2,47,40.8,47z"/>
			<path id="Shape_1_" class="st0" d="M12,32.5c-0.3,0-0.6-0.2-0.7-0.6c0,0-1.1-4.9-3.1-7.3c-2.4-2.9-0.9-7.3-0.9-7.5
				c0.1-0.2,0.2-0.3,0.3-0.4c1.1-0.7,2.5-1.5,3.3-1.4c0.4,0.1,0.8,0.2,1.1,0.4c0.2,0.1,0.4,0.2,0.7,0.3c0.4,0.1,3.5,0.7,3.5,2.9
				c0,1.3-1.1,2.5-1.7,3.1c0.5,1.8,1.9,5.4,3.6,6.7c0.3,0.2,0.4,0.7,0.2,1c-0.2,0.3-0.7,0.4-1,0.2c-2.8-2-4.3-7.7-4.3-7.9
				c-0.1-0.3,0-0.6,0.2-0.8c0.4-0.3,1.5-1.4,1.5-2.3c0-0.7-1.5-1.3-2.3-1.4c-0.4-0.1-0.7-0.2-1-0.4c-0.2-0.1-0.5-0.2-0.7-0.3
				c-0.2,0-1.2,0.5-2,1c-0.2,0.9-0.9,3.9,0.7,5.8c2.2,2.7,3.3,7.7,3.4,8c0.1,0.4-0.2,0.8-0.6,0.9C12.1,32.5,12.1,32.5,12,32.5z"/>
			<path id="Shape_2_" class="st0" d="M8.5,47.7c-0.5,0-1.1-0.2-1.9-0.9c-0.4-0.4-0.8-0.6-1.2-0.8c-1-0.5-2-1.1-1.6-3.3
				c0.4-2.5,2-4,3.6-5.6l0.5-0.5c1.8-1.8,2.4-2,5.7-3.5l0.8-0.3c5.2-2.3,9.3-5.1,9.2-6C23,25,23,22,23.8,20.4
				c0.6-1.1,0.5-2.1-0.4-3.4c-1.2-1.7-0.1-4.1-0.1-4.3c0.2-0.4,0.6-0.5,1-0.4c0.4,0.2,0.5,0.6,0.4,1c-0.2,0.5-0.7,2-0.1,2.8
				c1.2,1.7,1.3,3.3,0.5,4.9c-0.7,1.2-0.6,3.9-0.2,5.4c0.9,2.8-8.2,6.9-10.1,7.7l-0.8,0.3c-3.2,1.4-3.6,1.6-5.2,3.2l-0.5,0.5
				c-1.6,1.6-2.8,2.8-3.2,4.8c-0.2,1.2,0,1.3,0.8,1.8c0.4,0.2,0.9,0.5,1.5,1c0.8,0.7,0.9,0.6,1.5,0.3c0.3-0.1,0.6-0.3,1-0.4
				c0.5-0.1,0.8-0.5,0.8-0.7c-0.4-0.2-0.6-0.5-0.6-0.8c-0.1-0.5,0.3-0.9,0.7-1.3c0.3-0.3,0.8-0.8,1-1.4c0.9-2,2-3.7,8.4-4.5
				c0.6-0.2,3.5-1.5,6.2-2.7c2.6-1.2,2.8-2.7,3.2-6.1l0-0.2c0.3-2.4,1.3-4.6,2.1-6.5c0.5-1.1,0.9-2.2,1.2-3.1c0.3-1,0.4-1.6,0.5-1.8
				c-0.1-0.3-0.1-0.6,0.1-0.9c0.2-0.2,0.7-0.3,1-0.1c0.6,0.3,0.5,0.9-0.2,3.2c-0.3,1.1-0.8,2.1-1.3,3.3c-0.9,2-1.7,4-2,6.1l0,0.2
				c-0.4,3.4-0.7,5.7-4,7.2c-3,1.4-6.3,2.8-6.3,2.8c-0.1,0-0.1,0-0.2,0.1c-6.1,0.7-6.7,2.2-7.3,3.6c-0.4,0.9-1,1.5-1.4,1.9
				c0,0,0,0-0.1,0.1c0.3,0.3,0.5,0.8,0.4,1.2c-0.1,0.8-0.9,1.6-1.9,1.9c-0.2,0.1-0.4,0.2-0.6,0.3C9.4,47.5,9,47.7,8.5,47.7z"/>
			<path id="Shape_3_" class="st0" d="M32.6,36c-1.5,0-2.1-0.5-2.3-0.8c-0.2-0.3-0.2-0.8,0.1-1c0.3-0.2,0.7-0.2,1,0.1
				c0.1,0.1,0.9,0.6,3.9-0.2c0.4-0.1,0.8,0.1,0.9,0.5c0.1,0.4-0.1,0.8-0.5,0.9C34.4,35.8,33.4,36,32.6,36z"/>
			<path id="Shape_4_" class="st0" d="M23.4,72.7c-0.3,0-0.6-0.1-0.8-0.2c-0.1-0.1-0.4-0.1-0.7-0.1c-0.6-0.1-1.4-0.2-1.8-0.9
				c-0.3-0.5-0.3-1-0.1-1.7c0.4-1.3,1.6-2.1,2.7-3c0.9-0.7,1.8-1.3,2.2-2.1c0.9-1.7,0.7-6.5-3.9-10.2c-4.8-4-9-9.1-9.1-9.2
				c-0.3-0.3-0.2-0.8,0.1-1c0.3-0.3,0.8-0.2,1,0.1c0,0.1,4.1,5.1,8.8,9c5,4.2,5.5,9.6,4.3,12c-0.6,1.1-1.6,1.9-2.6,2.6
				c-1,0.7-1.9,1.4-2.1,2.2c-0.1,0.4-0.1,0.5-0.1,0.5c0.1,0.1,0.5,0.2,0.8,0.2c0.5,0.1,0.9,0.1,1.3,0.4c0.5,0.1,3.3-1,7.2-3.4
				c2.5-1.6,3.9-3.9,3.7-4.9c0-0.2-0.1-0.3-0.3-0.3c-2.3-0.6-3.9-4.5-6.4-12.8c-2.1-6.8-5.5-7.4-5.5-7.4c-0.4-0.1-0.7-0.4-0.6-0.8
				s0.4-0.7,0.8-0.6c0.2,0,4.4,0.6,6.7,8.4c1.7,5.7,3.6,11.4,5.4,11.9c0.8,0.2,1.3,0.8,1.4,1.5c0.3,1.8-1.7,4.7-4.4,6.3
				C29.6,70.3,25.5,72.7,23.4,72.7z"/>
			<path id="Shape_5_" class="st0" d="M23.9,64.7c-0.1,0-0.3,0-0.4-0.1c-0.2-0.1-5.8-3.6-7.3-8.4c-1.4-4.3-4.5-6.4-4.5-6.4
				c-0.3-0.2-0.4-0.7-0.2-1c0.2-0.3,0.7-0.4,1-0.2c0.1,0.1,3.6,2.4,5.1,7.2c1.4,4.3,6.7,7.6,6.7,7.6c0.3,0.2,0.4,0.7,0.2,1
				C24.4,64.6,24.1,64.7,23.9,64.7z"/>
			<path id="Shape_6_" class="st0" d="M16.7,75.6c-0.4,0-0.9-0.2-1.2-0.7c-0.5-0.9,0.1-2,0.6-2.8c1.3-1.9,1.7-6.3-2.4-9.8
				c-3.9-3.3-9-9-9.7-9.9c-0.5-0.3-2.3-1.5-3.2-4.1c-1-2.8-1.1-3.1,0.4-5c0.2-0.3,0.7-0.4,1-0.1c0.3,0.2,0.4,0.7,0.1,1
				c-1,1.2-1,1.2-0.1,3.6c0.9,2.4,2.6,3.3,2.6,3.3c0.1,0,0.2,0.1,0.2,0.2c0.1,0.1,5.6,6.4,9.6,9.8c4.3,3.7,4.6,8.7,2.7,11.7
				c-0.6,1-0.6,1.3-0.6,1.3c0.4,0,0.7,0.2,0.7,0.6C17.5,75.2,17.2,75.5,16.7,75.6C16.8,75.6,16.7,75.6,16.7,75.6z"/>
			<path id="Shape_7_" class="st0" d="M15.3,16.1c-0.1,0-0.2,0-0.3-0.1c-0.4-0.2-0.5-0.6-0.3-1c0.3-0.6,1-2.3,1-3.4
				c0-0.8,0.2-1.4,0.4-1.8c0.2-0.4,0.3-0.7,0.2-1.2c-0.1-0.4,0.2-0.8,0.6-0.8c0.4-0.1,0.8,0.2,0.8,0.6c0.1,0.9-0.1,1.5-0.3,2
				c-0.1,0.4-0.3,0.7-0.3,1.2c0,1.6-1.1,4-1.1,4.1C15.9,16,15.6,16.1,15.3,16.1z"/>
			<path id="Shape_8_" class="st0" d="M21.5,30c-0.1,0-0.3,0-0.4-0.1l-2.9-2.1c-0.3-0.2-0.4-0.7-0.2-1s0.7-0.4,1-0.2l2.9,2
				c0.3,0.2,0.4,0.7,0.2,1C21.9,29.9,21.7,30,21.5,30z"/>
			<path id="Shape_9_" class="st0" d="M55.2,76c-0.1,0-0.3,0-0.4-0.1c-0.3-0.2-0.4-0.7-0.2-1c0.2-0.3,0.5-1,0.3-1.3
				c0-0.1-0.1-0.2-0.6-0.4c-2.5-0.7-4-3.6-4-5c0-2.8-0.5-4.5-1.6-5.1c-1.6-0.9-1.4-3.2-1.2-5.8c0.1-1.4,0.2-2.8,0.1-4.1
				c-0.3-3.4-0.6-3.5-6-5l-0.3-0.1c-5.4-1.5-10.3-0.1-10.3-0.1c-0.4,0.1-0.8-0.1-0.9-0.5c-0.1-0.4,0.1-0.8,0.5-0.9
				c0.2-0.1,5.3-1.6,11.1,0.1l0.3,0.1c5.4,1.5,6.7,1.9,7.1,6.3c0.1,1.5,0,3-0.1,4.4c-0.2,2-0.3,3.9,0.5,4.4c2.3,1.3,2.3,5.1,2.3,6.3
				c0,0.8,1.2,3.2,2.9,3.6c1,0.3,1.4,0.8,1.5,1.3c0.5,1.2-0.4,2.5-0.5,2.7C55.7,75.9,55.4,76,55.2,76z"/>
			<path id="Shape_10_" class="st0" d="M54.3,75.9H16.5c-0.4,0-0.7-0.3-0.7-0.7c0-0.4,0.3-0.7,0.7-0.7h37.8c0.4,0,0.7,0.3,0.7,0.7
				C55,75.6,54.7,75.9,54.3,75.9z"/>
		</g>
	</g>
</g>
</svg>
