<?xml version="1.0" encoding="UTF-8"?>
<svg width="63px" height="52px" viewBox="0 0 63 52" version="1.1" xmlns="http://www.w3.org/2000/svg" xmlns:xlink="http://www.w3.org/1999/xlink">
    <!-- Generator: Sketch 50 (54983) - http://www.bohemiancoding.com/sketch -->
    <title>noun_Image_777906</title>
    <desc>Created with Sketch.</desc>
    <defs></defs>
    <g id="Page-1" stroke="none" stroke-width="1" fill="none" fill-rule="evenodd">
        <g id="Case-studies" transform="translate(-1067.000000, -14629.000000)" fill="#FFFFFF" fill-rule="nonzero">
            <g id="noun_Image_777906" transform="translate(1067.500000, 14629.709454)">
                <g id="Group">
                    <path d="M56.9425145,50.6987751 L4.98915626,50.6987751 C2.23372135,50.6987751 3.37443455e-16,48.4650537 0,45.7096188 L0,4.98915626 C-3.37443455e-16,2.23372135 2.23372135,5.06165183e-16 4.98915626,0 L56.9425145,0 C59.6979494,1.68721728e-16 61.9316707,2.23372135 61.9316707,4.98915626 L61.9316707,45.7096188 C61.9316707,48.4650537 59.6979494,50.6987751 56.9425145,50.6987751 Z M4.98915626,3.89018032 C4.38220861,3.89018032 3.89018032,4.38220861 3.89018032,4.98915626 L3.89018032,45.7096188 C3.89018032,46.0010853 4.00596496,46.2806142 4.21206292,46.4867121 C4.41816089,46.6928101 4.69768972,46.8085947 4.98915626,46.8085947 L56.9425145,46.8085947 C57.5456607,46.803257 58.0317886,46.3127886 58.031765,45.7096188 L58.031765,4.98915626 C58.0317886,4.38598644 57.5456607,3.89551811 56.9425145,3.89018032 L4.98915626,3.89018032 Z" id="Shape"></path>
                    <path d="M11.7483446,42.2668092 L50.1736007,42.2668092 C50.8014248,42.2846911 51.3845497,41.943212 51.6761371,41.3869211 C51.9677245,40.8306303 51.9167881,40.1567994 51.5448893,39.6506629 L46.2445186,32.4538293 C45.9645681,32.0663462 45.5297909,31.8199431 45.0535272,31.7788537 C44.5772635,31.7377643 44.1067083,31.9060603 43.7645286,32.2398694 L38.3182762,37.4235347 L25.6751901,20.258114 C25.3556653,19.8228102 24.8427053,19.5722239 24.3029421,19.5877567 C23.763179,19.6032894 23.2654781,19.8829595 22.9715148,20.3359176 L10.3284288,39.7284666 C9.99612096,40.2400968 9.97454182,40.8936976 10.272379,41.4261326 C10.5702162,41.9585675 11.1384624,42.2822278 11.7483446,42.2668092 Z" id="Shape"></path>
                    <circle id="Oval" cx="42.9184144" cy="14.7048816" r="5.76719233"></circle>
                </g>
            </g>
        </g>
    </g>
</svg>