<?xml version="1.0" encoding="utf-8"?>
<!-- Generator: Adobe Illustrator 22.1.0, SVG Export Plug-In . SVG Version: 6.00 Build 0)  -->
<svg version="1.1" id="Layer_1" xmlns="http://www.w3.org/2000/svg" xmlns:xlink="http://www.w3.org/1999/xlink" x="0px" y="0px"
	 viewBox="0 0 324 63.8" style="enable-background:new 0 0 324 63.8;" xml:space="preserve">
<style type="text/css">
	.st0{fill:#0061FF;}
	.st1{display:none;}
	.st2{display:inline;}
	.st3{fill:none;}
</style>
<path class="st0" d="M62.4,16.1l-15.2,9.7l15.2,9.7l-15.2,9.7L32,35.4l15.2-9.7L32,16.1l15.2-9.7L62.4,16.1z M47.1,48.3l15.2-9.7
	l15.2,9.7L62.4,58L47.1,48.3z M62.4,35.4l15.2-9.7l-15.2-9.6l15.1-9.7l15.2,9.7l-15.2,9.7l15.2,9.7l-15.2,9.7L62.4,35.4z"/>
<path d="M104.7,16.1H117c7.9,0,14.3,4.5,14.3,14.9v2.2c0,10.4-6.1,15.1-14.1,15.1h-12.6V16.1z M111.6,21.9v20.5h5.3
	c4.5,0,7.5-2.9,7.5-9.4v-1.7c0-6.5-3.2-9.4-7.7-9.4H111.6z M135,22.2h5.5l0.9,6.1c1.1-4.1,3.7-6.3,8.6-6.3h1.7v7h-2.8
	c-5.6,0-7,1.9-7,7.5v12h-6.8L135,22.2L135,22.2z M153.1,35.8v-0.7c0-8.7,5.6-13.5,13.2-13.5c7.8,0,13.2,4.8,13.2,13.5v0.7
	c0,8.6-5.3,13.2-13.2,13.2C157.8,48.9,153.1,44.4,153.1,35.8z M172.5,35.7v-0.6c0-4.9-2.4-7.8-6.3-7.8c-3.8,0-6.3,2.7-6.3,7.8v0.6
	c0,4.7,2.4,7.4,6.3,7.4C170.1,43,172.5,40.4,172.5,35.7z M183,22.2h5.7l0.6,4.9c1.4-3.3,4.3-5.6,8.6-5.6c6.6,0,11,4.8,11,13.6v0.7
	c0,8.6-4.9,13.1-11,13.1c-4.1,0-7-1.9-8.3-4.9v13.2H183L183,22.2L183,22.2z M202.1,35.7v-0.6c0-5.2-2.7-7.8-6.2-7.8
	c-3.8,0-6.3,2.9-6.3,7.8v0.5c0,4.6,2.4,7.5,6.2,7.5C199.6,43.1,202.1,40.6,202.1,35.7z M219,43.5l-0.6,4.8h-5.8V13.5h6.6v13.4
	c1.5-3.4,4.4-5.3,8.5-5.3c6.2,0.1,10.9,4.4,10.9,13v0.8c0,8.7-4.4,13.6-11,13.6C223.2,48.9,220.4,46.9,219,43.5z M231.6,35.4v-0.6
	c0-4.8-2.6-7.5-6.2-7.5c-3.7,0-6.3,3-6.3,7.5v0.6c0,4.9,2.5,7.7,6.2,7.7C229.3,43.1,231.6,40.6,231.6,35.4z M241.5,35.8v-0.7
	c0-8.7,5.6-13.5,13.2-13.5c7.8,0,13.2,4.8,13.2,13.5v0.7c0,8.6-5.3,13.2-13.2,13.2C246.3,48.9,241.5,44.4,241.5,35.8z M261,35.7
	v-0.6c0-4.9-2.4-7.8-6.3-7.8c-3.8,0-6.3,2.7-6.3,7.8v0.6c0,4.7,2.4,7.4,6.3,7.4C258.6,43,261,40.4,261,35.7z M276.8,34.8l-9.2-12.6
	h7.9l5.3,7.9l5.3-7.9h7.8l-9.3,12.5l9.8,13.6h-7.7l-6-8.7l-5.8,8.7h-8L276.8,34.8z"/>
<g id="Editble" class="st1">
	<g class="st2">
		<rect x="-105" y="5" class="st3" width="506" height="71.8"/>
		<path d="M0.2,13.6h16.3c10.4,0,19,6.1,19,19.8v2.9c0,13.8-8,20-18.7,20H0.2V13.6z M9.4,21.3v27.2h7c5.9,0,9.9-3.9,9.9-12.5v-2.2
			c0-8.6-4.1-12.5-10.2-12.5H9.4z M40.4,21.8h7.3l1.1,8c1.4-5.5,4.9-8.3,11.3-8.3h2.2v9.2h-3.7c-7.4,0-9.2,2.6-9.2,9.9v15.8h-9
			C40.4,56.4,40.4,21.8,40.4,21.8z M64.3,39.8v-1c0-11.6,7.4-17.9,17.5-17.9c10.3,0,17.5,6.4,17.5,17.9v1c0,11.4-7,17.5-17.5,17.5
			C70.6,57.3,64.3,51.2,64.3,39.8z M90.1,39.7v-0.8c0-6.5-3.2-10.3-8.3-10.3c-5,0-8.4,3.5-8.4,10.3v0.8c0,6.2,3.2,9.7,8.3,9.7
			C86.9,49.4,90.1,46,90.1,39.7z M104,21.8h7.6l0.9,6.6c1.9-4.4,5.7-7.4,11.4-7.4c8.8,0,14.6,6.4,14.6,18v1
			c0,11.4-6.4,17.3-14.6,17.3c-5.5,0-9.2-2.5-11-6.5v17.5H104V21.8z M129.3,39.8V39c0-6.9-3.5-10.3-8.3-10.3c-5,0-8.4,3.8-8.4,10.3
			v0.7c0,6.1,3.2,10,8.2,10C126,49.5,129.3,46.1,129.3,39.8z M151.7,50.1l-0.7,6.3h-7.8V10.2h8.8V28c1.9-4.5,5.8-7,11.2-7
			c8.2,0.1,14.3,5.8,14.3,17.3v1c0,11.5-5.8,18-14.6,18C157.3,57.3,153.5,54.5,151.7,50.1z M168.5,39.3v-0.8c0-6.4-3.5-9.8-8.3-9.8
			c-5,0-8.4,4-8.4,10v0.7c0,6.5,3.3,10.2,8.3,10.2C165.3,49.5,168.5,46.1,168.5,39.3z M181.6,39.8v-1c0-11.6,7.4-17.9,17.5-17.9
			c10.3,0,17.5,6.4,17.5,17.9v1c0,11.4-7.1,17.5-17.5,17.5C187.9,57.3,181.6,51.2,181.6,39.8z M207.4,39.7v-0.8
			c0-6.5-3.2-10.3-8.3-10.3c-5,0-8.4,3.5-8.4,10.3v0.8c0,6.2,3.2,9.7,8.3,9.7C204.2,49.4,207.4,46,207.4,39.7z M228.3,38.4
			l-12.1-16.7h10.4l7,10.4l7.1-10.4H251l-12.3,16.6l13,18h-10.2l-8-11.5l-7.7,11.5h-10.6L228.3,38.4z"/>
	</g>
</g>
</svg>
